<?xml version="1.0" encoding="utf-8"?>
<!-- Generator: Adobe Illustrator 24.3.0, SVG Export Plug-In . SVG Version: 6.00 Build 0)  -->
<svg version="1.1" id="Layer_1" xmlns="http://www.w3.org/2000/svg" xmlns:xlink="http://www.w3.org/1999/xlink" x="0px" y="0px"
	 viewBox="0 0 490.12 326.08" style="enable-background:new 0 0 490.12 326.08;" xml:space="preserve">
<style type="text/css">
	.st0{fill:none;stroke:#000000;stroke-width:6.1975;stroke-miterlimit:10;}
	.st1{fill:#FFFFFF;stroke:#000000;stroke-width:6.1975;stroke-linecap:round;stroke-linejoin:round;stroke-miterlimit:10;}
	.st2{fill:none;stroke:#000000;stroke-width:4.1833;stroke-linecap:round;stroke-linejoin:round;stroke-miterlimit:10;}
	.st3{fill:#F7931E;}
	.st4{fill:#ED1C24;}
	.st5{fill:#006837;}
	.st6{fill:#0071BC;}
	.st7{fill:#FF7BAC;}
	.st8{fill:#D66995;}
	.st9{stroke:#000000;stroke-width:2.125;stroke-miterlimit:10;}
	.st10{fill:#999999;stroke:#000000;stroke-width:2.125;stroke-miterlimit:10;}
	.st11{fill:#C1BFC0;stroke:#000000;stroke-width:2.125;stroke-miterlimit:10;}
	.st12{fill:none;stroke:#000000;stroke-width:1.5938;stroke-miterlimit:10;}
	.st13{fill:none;stroke:#000000;stroke-width:3;stroke-miterlimit:10;}
	.st14{fill:#0071BC;stroke:#000000;stroke-width:0.5312;stroke-miterlimit:10;}
	.st15{fill:none;stroke:#000000;stroke-width:3.7188;stroke-linecap:round;stroke-linejoin:round;stroke-miterlimit:10;}
	.st16{fill:none;stroke:#ED1C24;stroke-width:19;stroke-linecap:round;stroke-linejoin:round;stroke-miterlimit:10;}
	.st17{fill:none;stroke:#ED1C24;stroke-width:13;stroke-linecap:round;stroke-linejoin:round;stroke-miterlimit:10;}
</style>
<circle class="st7" cx="80.66" cy="70.89" r="28.28"/>
<circle class="st8" cx="137" cy="127.09" r="21.91"/>
<circle class="st8" cx="113.42" cy="94.39" r="33.94"/>
<circle class="st7" cx="165.25" cy="67.79" r="28.28"/>
<circle class="st7" cx="128.12" cy="59.72" r="22.63"/>
<circle class="st8" cx="157.82" cy="101.99" r="21.21"/>
<circle class="st7" cx="176.19" cy="116.34" r="21.66"/>
<circle class="st7" cx="56.62" cy="101.48" r="28.28"/>
<circle class="st7" cx="97.26" cy="123.62" r="22.26"/>
<polygon class="st8" points="191.83,103.77 202.93,105.68 214.02,107.58 203.79,133.93 193.57,160.28 192.7,132.03 "/>
<circle class="st7" cx="197.59" cy="93.24" r="24.04"/>
<circle class="st7" cx="137" cy="105" r="14.14"/>
<circle class="st7" cx="93" cy="82" r="15"/>
<circle class="st7" cx="312.66" cy="94.89" r="28.28"/>
<circle class="st8" cx="369" cy="151.09" r="21.91"/>
<circle class="st8" cx="345.42" cy="118.39" r="33.94"/>
<circle class="st7" cx="397.25" cy="91.79" r="28.28"/>
<circle class="st7" cx="360.12" cy="83.72" r="22.63"/>
<circle class="st8" cx="389.82" cy="125.99" r="21.21"/>
<circle class="st7" cx="408.19" cy="140.34" r="21.66"/>
<circle class="st7" cx="288.62" cy="125.48" r="28.28"/>
<circle class="st7" cx="329.26" cy="147.62" r="22.26"/>
<polygon class="st8" points="423.83,127.77 434.93,129.68 446.02,131.58 435.79,157.93 425.57,184.28 424.7,156.03 "/>
<circle class="st7" cx="429.59" cy="117.24" r="24.04"/>
<circle class="st7" cx="369" cy="129" r="14.14"/>
<circle class="st7" cx="325" cy="106" r="15"/>
<circle class="st7" cx="210.66" cy="199.89" r="28.28"/>
<circle class="st8" cx="267" cy="256.09" r="21.91"/>
<circle class="st8" cx="243.42" cy="223.39" r="33.94"/>
<circle class="st7" cx="295.25" cy="196.79" r="28.28"/>
<circle class="st7" cx="258.12" cy="188.72" r="22.63"/>
<circle class="st8" cx="287.82" cy="230.99" r="21.21"/>
<circle class="st7" cx="306.19" cy="245.34" r="21.66"/>
<circle class="st7" cx="186.62" cy="230.48" r="28.28"/>
<circle class="st7" cx="227.26" cy="252.62" r="22.26"/>
<polygon class="st8" points="321.83,232.77 332.93,234.68 344.02,236.58 333.79,262.93 323.57,289.28 322.7,261.03 "/>
<circle class="st7" cx="327.59" cy="222.24" r="24.04"/>
<circle class="st7" cx="267" cy="234" r="14.14"/>
<circle class="st7" cx="223" cy="211" r="15"/>
</svg>
