<?xml version="1.0" encoding="utf-8"?>
<!-- Generator: Adobe Illustrator 24.3.0, SVG Export Plug-In . SVG Version: 6.00 Build 0)  -->
<svg version="1.1" id="Layer_1" xmlns="http://www.w3.org/2000/svg" xmlns:xlink="http://www.w3.org/1999/xlink" x="0px" y="0px"
	 viewBox="0 0 490.12 505.08" style="enable-background:new 0 0 490.12 505.08;" xml:space="preserve">
<style type="text/css">
	.st0{fill:none;stroke:#000000;stroke-width:6.1975;stroke-miterlimit:10;}
	.st1{fill:#FFFFFF;stroke:#000000;stroke-width:6.1975;stroke-linecap:round;stroke-linejoin:round;stroke-miterlimit:10;}
	.st2{fill:none;stroke:#000000;stroke-width:4.1833;stroke-linecap:round;stroke-linejoin:round;stroke-miterlimit:10;}
	.st3{fill:#F7931E;}
	.st4{fill:#ED1C24;}
	.st5{fill:#006837;}
	.st6{fill:#0071BC;}
	.st7{fill:#FF7BAC;}
	.st8{fill:#D66995;}
	.st9{stroke:#000000;stroke-width:2.125;stroke-miterlimit:10;}
	.st10{fill:#999999;stroke:#000000;stroke-width:2.125;stroke-miterlimit:10;}
	.st11{fill:#C1BFC0;stroke:#000000;stroke-width:2.125;stroke-miterlimit:10;}
	.st12{fill:none;stroke:#000000;stroke-width:1.5938;stroke-miterlimit:10;}
	.st13{fill:none;stroke:#000000;stroke-width:3;stroke-miterlimit:10;}
	.st14{fill:#0071BC;stroke:#000000;stroke-width:0.5312;stroke-miterlimit:10;}
	.st15{fill:none;stroke:#000000;stroke-width:3.7188;stroke-linecap:round;stroke-linejoin:round;stroke-miterlimit:10;}
	.st16{fill:none;stroke:#ED1C24;stroke-width:19;stroke-linecap:round;stroke-linejoin:round;stroke-miterlimit:10;}
	.st17{fill:none;stroke:#ED1C24;stroke-width:13;stroke-linecap:round;stroke-linejoin:round;stroke-miterlimit:10;}
</style>
<path class="st9" d="M138.41,69.55v32.29H74.66V69.55c0-4.17,3.38-7.55,7.55-7.55h48.64C135.02,62,138.41,65.38,138.41,69.55z"/>
<rect x="74.66" y="101.84" class="st10" width="63.75" height="148.22"/>
<path class="st11" d="M74.66,245.81h63.75v2.1c0,1.19-0.96,2.15-2.15,2.15H76.81c-1.19,0-2.15-0.96-2.15-2.15V245.81z"/>
<path class="st14" d="M106.53,131.59L106.53,131.59c-5.87,0-10.63,4.76-10.63,10.62v103.59h21.25V142.22
	C117.16,136.35,112.4,131.59,106.53,131.59z"/>
<path id="XMLID_2_" class="st12" d="M106.27,131.86L106.27,131.86c-5.87,0-10.63,4.76-10.63,10.62v103.59h21.25V142.48
	C116.89,136.62,112.13,131.86,106.27,131.86z"/>
<line class="st12" x1="95.91" y1="205.99" x2="117.1" y2="227.18"/>
<line class="st12" x1="95.91" y1="184.68" x2="117.21" y2="205.99"/>
<line class="st12" x1="95.91" y1="163.47" x2="117.12" y2="184.68"/>
<line class="st12" x1="95.91" y1="142.22" x2="117.16" y2="163.47"/>
<path d="M135.22,131.93c1.09,0,2.29,0.41,3.19,1.21v-4.85c-1.01-0.33-2.09-0.5-3.19-0.5c-2.44,0-4.81,0.83-6.48,2.44
	c-1.75,1.65-2.59,3.97-2.59,6.16c0,2.17,0.84,4.46,2.59,6.14c1.67,1.6,4.04,2.44,6.48,2.44c1.1,0,2.18-0.17,3.19-0.5v-4.82
	c-0.76,0.71-1.81,1.18-3.19,1.18c-1.43,0-2.54-0.55-3.33-1.31c-0.62-0.6-1.31-1.6-1.31-3.06c0-1.16,0.42-2.36,1.31-3.22
	C132.78,132.35,134.03,131.93,135.22,131.93z"/>
<path d="M138.52,132.18c-0.04-0.03-0.07-0.07-0.11-0.1v-4.85"/>
<path d="M138.41,143.4v-4.82c0.04-0.03,0.07-0.06,0.11-0.1"/>
<path d="M135.25,156.65l-3.33-8.77h-4.21l-2.78,16.44h4.24l1.4-9.47l3.8,9.47h1.7l2.34-5.58v-9.93L135.25,156.65z"/>
<path d="M136.36,167.59h-6.8v16.44h4.26v-5.45h2.69c0.59,0,1.24-0.04,1.9-0.21v-10.52C137.73,167.65,137.05,167.59,136.36,167.59z
	 M137.05,174.61c-0.52,0.47-1.35,0.52-1.8,0.52h-1.43v-4.09h1.46c0.54,0,1.33,0.07,1.82,0.59c0.45,0.44,0.49,1.04,0.49,1.48
	C137.59,173.5,137.57,174.16,137.05,174.61z"/>
<path d="M135.22,191.07c1.09,0,2.29,0.41,3.19,1.21v-4.85c-1.01-0.33-2.09-0.5-3.19-0.5c-2.44,0-4.81,0.83-6.48,2.44
	c-1.75,1.65-2.59,3.97-2.59,6.16c0,2.17,0.84,4.46,2.59,6.14c1.67,1.6,4.04,2.44,6.48,2.44c1.1,0,2.18-0.17,3.19-0.5v-4.82
	c-0.76,0.71-1.81,1.18-3.19,1.18c-1.43,0-2.54-0.54-3.33-1.31c-0.62-0.6-1.31-1.6-1.31-3.05c0-1.16,0.42-2.37,1.31-3.23
	C132.78,191.49,134.03,191.07,135.22,191.07z"/>
<path d="M138.52,191.31c-0.04-0.03-0.07-0.07-0.11-0.1v-4.85"/>
<path d="M138.41,202.54v-4.82c0.04-0.03,0.07-0.06,0.11-0.1"/>
<path d="M136.12,210.19c0.48,0,1.26,0.07,2.29,0.74v-3.85c-0.97-0.29-1.96-0.45-2.86-0.45c-2,0-3.37,0.72-4.21,1.55
	c-0.72,0.72-1.5,1.95-1.5,3.97c0,0.84,0.1,2,0.94,2.91c0.66,0.74,1.68,1.11,2.36,1.33l1.11,0.35c1.06,0.32,1.7,0.49,2.12,0.86
	c0.35,0.3,0.47,0.67,0.47,0.99c0,0.42-0.17,0.79-0.42,1.04c-0.27,0.29-0.79,0.56-1.65,0.56c-1.48,0-2.86-0.81-3.77-1.67l-1.82,3.45
	c1.18,0.81,2.22,1.21,2.49,1.31c1.21,0.45,2.19,0.54,3.23,0.54c1.23,0,2.43-0.13,3.52-0.7v-9.28c-0.38-0.16-0.77-0.29-1.16-0.4
	l-1.31-0.39c-1.01-0.3-1.31-0.59-1.43-0.74c-0.17-0.22-0.22-0.45-0.22-0.74c0-0.37,0.18-0.64,0.42-0.89
	C135.13,210.29,135.7,210.19,136.12,210.19z"/>
<path d="M138.93,210.23c-0.18-0.14-0.36-0.27-0.52-0.37v-3.85"/>
<path d="M138.41,230.34v-3.62h-7.49v16.44h7.49v-3.62h-3.23v-2.83h3.23v-3.62h-3.23v-2.74H138.41z"/>
<path d="M135.96,110.45c0.52,0,1.43,0.04,2.44,0.51v-5.26c-1.11-0.27-1.98-0.33-2.59-0.33c-3.15,0-5.85,1.33-7.63,3.15
	c-1.82,1.85-3.06,4.57-3.06,7.45c0,2.63,1.09,5.39,3.06,7.36c1.67,1.63,4.3,3.03,7.81,3.03c0.78,0,1.5-0.09,2.41-0.32v-5.29
	c-1.06,0.49-1.97,0.52-2.44,0.52c-1.48,0-2.87-0.57-3.76-1.39c-1.06-1-1.64-2.54-1.64-3.94c0-1.42,0.52-3,1.76-4.15
	C133.3,110.9,134.45,110.45,135.96,110.45z"/>
<line class="st15" x1="72" y1="101.84" x2="140.53" y2="101.84"/>
<path class="st9" d="M224.41,69.55v32.29h-63.75V69.55c0-4.17,3.38-7.55,7.55-7.55h48.64C221.02,62,224.41,65.38,224.41,69.55z"/>
<rect x="160.66" y="101.84" class="st10" width="63.75" height="148.22"/>
<path class="st11" d="M160.66,245.81h63.75v2.1c0,1.19-0.96,2.15-2.15,2.15h-59.45c-1.19,0-2.15-0.96-2.15-2.15V245.81z"/>
<path class="st14" d="M192.53,131.59L192.53,131.59c-5.87,0-10.63,4.76-10.63,10.62v103.59h21.25V142.22
	C203.16,136.35,198.4,131.59,192.53,131.59z"/>
<path id="XMLID_3_" class="st12" d="M192.27,131.86L192.27,131.86c-5.87,0-10.63,4.76-10.63,10.62v103.59h21.25V142.48
	C202.89,136.62,198.13,131.86,192.27,131.86z"/>
<line class="st12" x1="181.91" y1="205.99" x2="203.1" y2="227.18"/>
<line class="st12" x1="181.91" y1="184.68" x2="203.21" y2="205.99"/>
<line class="st12" x1="181.91" y1="163.47" x2="203.12" y2="184.68"/>
<line class="st12" x1="181.91" y1="142.22" x2="203.16" y2="163.47"/>
<path d="M221.22,131.93c1.09,0,2.29,0.41,3.19,1.21v-4.85c-1.01-0.33-2.09-0.5-3.19-0.5c-2.44,0-4.81,0.83-6.48,2.44
	c-1.75,1.65-2.59,3.97-2.59,6.16c0,2.17,0.84,4.46,2.59,6.14c1.67,1.6,4.04,2.44,6.48,2.44c1.1,0,2.18-0.17,3.19-0.5v-4.82
	c-0.76,0.71-1.81,1.18-3.19,1.18c-1.43,0-2.54-0.55-3.33-1.31c-0.62-0.6-1.31-1.6-1.31-3.06c0-1.16,0.42-2.36,1.31-3.22
	C218.78,132.35,220.03,131.93,221.22,131.93z"/>
<path d="M224.52,132.18c-0.04-0.03-0.07-0.07-0.11-0.1v-4.85"/>
<path d="M224.41,143.4v-4.82c0.04-0.03,0.07-0.06,0.11-0.1"/>
<path d="M221.25,156.65l-3.33-8.77h-4.21l-2.78,16.44h4.24l1.4-9.47l3.8,9.47h1.7l2.34-5.58v-9.93L221.25,156.65z"/>
<path d="M222.36,167.59h-6.8v16.44h4.26v-5.45h2.69c0.59,0,1.24-0.04,1.9-0.21v-10.52C223.73,167.65,223.05,167.59,222.36,167.59z
	 M223.05,174.61c-0.52,0.47-1.35,0.52-1.8,0.52h-1.43v-4.09h1.46c0.54,0,1.33,0.07,1.82,0.59c0.45,0.44,0.49,1.04,0.49,1.48
	C223.59,173.5,223.57,174.16,223.05,174.61z"/>
<path d="M221.22,191.07c1.09,0,2.29,0.41,3.19,1.21v-4.85c-1.01-0.33-2.09-0.5-3.19-0.5c-2.44,0-4.81,0.83-6.48,2.44
	c-1.75,1.65-2.59,3.97-2.59,6.16c0,2.17,0.84,4.46,2.59,6.14c1.67,1.6,4.04,2.44,6.48,2.44c1.1,0,2.18-0.17,3.19-0.5v-4.82
	c-0.76,0.71-1.81,1.18-3.19,1.18c-1.43,0-2.54-0.54-3.33-1.31c-0.62-0.6-1.31-1.6-1.31-3.05c0-1.16,0.42-2.37,1.31-3.23
	C218.78,191.49,220.03,191.07,221.22,191.07z"/>
<path d="M224.52,191.31c-0.04-0.03-0.07-0.07-0.11-0.1v-4.85"/>
<path d="M224.41,202.54v-4.82c0.04-0.03,0.07-0.06,0.11-0.1"/>
<path d="M222.12,210.19c0.48,0,1.26,0.07,2.29,0.74v-3.85c-0.97-0.29-1.96-0.45-2.86-0.45c-2,0-3.37,0.72-4.21,1.55
	c-0.72,0.72-1.5,1.95-1.5,3.97c0,0.84,0.1,2,0.94,2.91c0.66,0.74,1.68,1.11,2.36,1.33l1.11,0.35c1.06,0.32,1.7,0.49,2.12,0.86
	c0.35,0.3,0.47,0.67,0.47,0.99c0,0.42-0.17,0.79-0.42,1.04c-0.27,0.29-0.79,0.56-1.65,0.56c-1.48,0-2.86-0.81-3.77-1.67l-1.82,3.45
	c1.18,0.81,2.22,1.21,2.49,1.31c1.21,0.45,2.19,0.54,3.23,0.54c1.23,0,2.43-0.13,3.52-0.7v-9.28c-0.38-0.16-0.77-0.29-1.16-0.4
	l-1.31-0.39c-1.01-0.3-1.31-0.59-1.43-0.74c-0.17-0.22-0.22-0.45-0.22-0.74c0-0.37,0.18-0.64,0.42-0.89
	C221.13,210.29,221.7,210.19,222.12,210.19z"/>
<path d="M224.93,210.23c-0.18-0.14-0.36-0.27-0.52-0.37v-3.85"/>
<path d="M224.41,230.34v-3.62h-7.49v16.44h7.49v-3.62h-3.23v-2.83h3.23v-3.62h-3.23v-2.74H224.41z"/>
<path d="M221.96,110.45c0.52,0,1.43,0.04,2.44,0.51v-5.26c-1.11-0.27-1.98-0.33-2.59-0.33c-3.15,0-5.85,1.33-7.63,3.15
	c-1.82,1.85-3.06,4.57-3.06,7.45c0,2.63,1.09,5.39,3.06,7.36c1.67,1.63,4.3,3.03,7.81,3.03c0.78,0,1.5-0.09,2.41-0.32v-5.29
	c-1.06,0.49-1.97,0.52-2.44,0.52c-1.48,0-2.87-0.57-3.76-1.39c-1.06-1-1.64-2.54-1.64-3.94c0-1.42,0.52-3,1.76-4.15
	C219.3,110.9,220.45,110.45,221.96,110.45z"/>
<line class="st15" x1="158" y1="101.84" x2="226.53" y2="101.84"/>
<path class="st9" d="M309.41,69.55v32.29h-63.75V69.55c0-4.17,3.38-7.55,7.55-7.55h48.64C306.02,62,309.41,65.38,309.41,69.55z"/>
<rect x="245.66" y="101.84" class="st10" width="63.75" height="148.22"/>
<path class="st11" d="M245.66,245.81h63.75v2.1c0,1.19-0.96,2.15-2.15,2.15h-59.45c-1.19,0-2.15-0.96-2.15-2.15V245.81z"/>
<path class="st14" d="M277.53,131.59L277.53,131.59c-5.87,0-10.62,4.76-10.62,10.62v103.59h21.25V142.22
	C288.16,136.35,283.4,131.59,277.53,131.59z"/>
<path id="XMLID_4_" class="st12" d="M277.27,131.86L277.27,131.86c-5.87,0-10.62,4.76-10.62,10.62v103.59h21.25V142.48
	C287.89,136.62,283.13,131.86,277.27,131.86z"/>
<line class="st12" x1="266.91" y1="205.99" x2="288.1" y2="227.18"/>
<line class="st12" x1="266.91" y1="184.68" x2="288.21" y2="205.99"/>
<line class="st12" x1="266.91" y1="163.47" x2="288.12" y2="184.68"/>
<line class="st12" x1="266.91" y1="142.22" x2="288.16" y2="163.47"/>
<path d="M306.22,131.93c1.09,0,2.29,0.41,3.19,1.21v-4.85c-1.01-0.33-2.09-0.5-3.19-0.5c-2.44,0-4.81,0.83-6.48,2.44
	c-1.75,1.65-2.59,3.97-2.59,6.16c0,2.17,0.84,4.46,2.59,6.14c1.67,1.6,4.04,2.44,6.48,2.44c1.1,0,2.18-0.17,3.19-0.5v-4.82
	c-0.76,0.71-1.81,1.18-3.19,1.18c-1.43,0-2.54-0.55-3.33-1.31c-0.62-0.6-1.31-1.6-1.31-3.06c0-1.16,0.42-2.36,1.31-3.22
	C303.78,132.35,305.03,131.93,306.22,131.93z"/>
<path d="M309.52,132.18c-0.04-0.03-0.07-0.07-0.11-0.1v-4.85"/>
<path d="M309.41,143.4v-4.82c0.04-0.03,0.07-0.06,0.11-0.1"/>
<path d="M306.25,156.65l-3.33-8.77h-4.21l-2.78,16.44h4.24l1.4-9.47l3.8,9.47h1.7l2.34-5.58v-9.93L306.25,156.65z"/>
<path d="M307.36,167.59h-6.8v16.44h4.26v-5.45h2.69c0.6,0,1.24-0.04,1.9-0.21v-10.52C308.73,167.65,308.05,167.59,307.36,167.59z
	 M308.05,174.61c-0.52,0.47-1.35,0.52-1.8,0.52h-1.43v-4.09h1.46c0.54,0,1.33,0.07,1.82,0.59c0.45,0.44,0.49,1.04,0.49,1.48
	C308.59,173.5,308.57,174.16,308.05,174.61z"/>
<path d="M306.22,191.07c1.09,0,2.29,0.41,3.19,1.21v-4.85c-1.01-0.33-2.09-0.5-3.19-0.5c-2.44,0-4.81,0.83-6.48,2.44
	c-1.75,1.65-2.59,3.97-2.59,6.16c0,2.17,0.84,4.46,2.59,6.14c1.67,1.6,4.04,2.44,6.48,2.44c1.1,0,2.18-0.17,3.19-0.5v-4.82
	c-0.76,0.71-1.81,1.18-3.19,1.18c-1.43,0-2.54-0.54-3.33-1.31c-0.62-0.6-1.31-1.6-1.31-3.05c0-1.16,0.42-2.37,1.31-3.23
	C303.78,191.49,305.03,191.07,306.22,191.07z"/>
<path d="M309.52,191.31c-0.04-0.03-0.07-0.07-0.11-0.1v-4.85"/>
<path d="M309.41,202.54v-4.82c0.04-0.03,0.07-0.06,0.11-0.1"/>
<path d="M307.12,210.19c0.48,0,1.26,0.07,2.29,0.74v-3.85c-0.97-0.29-1.95-0.45-2.86-0.45c-2,0-3.37,0.72-4.21,1.55
	c-0.72,0.72-1.5,1.95-1.5,3.97c0,0.84,0.1,2,0.93,2.91c0.66,0.74,1.68,1.11,2.36,1.33l1.11,0.35c1.06,0.32,1.7,0.49,2.12,0.86
	c0.35,0.3,0.47,0.67,0.47,0.99c0,0.42-0.17,0.79-0.42,1.04c-0.27,0.29-0.79,0.56-1.65,0.56c-1.48,0-2.86-0.81-3.77-1.67l-1.82,3.45
	c1.18,0.81,2.22,1.21,2.49,1.31c1.21,0.45,2.19,0.54,3.23,0.54c1.23,0,2.43-0.13,3.52-0.7v-9.28c-0.38-0.16-0.77-0.29-1.16-0.4
	l-1.31-0.39c-1.01-0.3-1.31-0.59-1.43-0.74c-0.17-0.22-0.22-0.45-0.22-0.74c0-0.37,0.18-0.64,0.42-0.89
	C306.13,210.29,306.7,210.19,307.12,210.19z"/>
<path d="M309.93,210.23c-0.18-0.14-0.36-0.27-0.52-0.37v-3.85"/>
<path d="M309.41,230.34v-3.62h-7.49v16.44h7.49v-3.62h-3.23v-2.83h3.23v-3.62h-3.23v-2.74H309.41z"/>
<path d="M306.96,110.45c0.52,0,1.43,0.04,2.44,0.51v-5.26c-1.11-0.27-1.98-0.33-2.59-0.33c-3.15,0-5.85,1.33-7.63,3.15
	c-1.82,1.85-3.06,4.57-3.06,7.45c0,2.63,1.09,5.39,3.06,7.36c1.67,1.63,4.3,3.03,7.81,3.03c0.78,0,1.5-0.09,2.41-0.32v-5.29
	c-1.06,0.49-1.97,0.52-2.44,0.52c-1.48,0-2.87-0.57-3.76-1.39c-1.06-1-1.64-2.54-1.64-3.94c0-1.42,0.52-3,1.76-4.15
	C304.3,110.9,305.45,110.45,306.96,110.45z"/>
<line class="st15" x1="243" y1="101.84" x2="311.53" y2="101.84"/>
<path class="st9" d="M461.41,185.55v32.29h-63.75v-32.29c0-4.17,3.38-7.55,7.55-7.55h48.64C458.02,178,461.41,181.38,461.41,185.55z
	"/>
<rect x="397.66" y="217.84" class="st10" width="63.75" height="148.22"/>
<path class="st11" d="M397.66,361.81h63.75v2.1c0,1.19-0.96,2.15-2.15,2.15h-59.45c-1.19,0-2.15-0.96-2.15-2.15V361.81z"/>
<path class="st14" d="M429.53,247.59L429.53,247.59c-5.87,0-10.62,4.76-10.62,10.62v103.59h21.25V258.22
	C440.16,252.35,435.4,247.59,429.53,247.59z"/>
<path id="XMLID_1_" class="st12" d="M429.27,247.86L429.27,247.86c-5.87,0-10.62,4.76-10.62,10.62v103.59h21.25V258.48
	C439.89,252.62,435.13,247.86,429.27,247.86z"/>
<line class="st12" x1="418.91" y1="321.99" x2="440.1" y2="343.18"/>
<line class="st12" x1="418.91" y1="300.68" x2="440.21" y2="321.99"/>
<line class="st12" x1="418.91" y1="279.47" x2="440.12" y2="300.68"/>
<line class="st12" x1="418.91" y1="258.22" x2="440.16" y2="279.47"/>
<path d="M458.22,247.93c1.09,0,2.29,0.41,3.19,1.21v-4.85c-1.01-0.33-2.09-0.5-3.19-0.5c-2.44,0-4.81,0.83-6.48,2.44
	c-1.75,1.65-2.59,3.97-2.59,6.16c0,2.17,0.84,4.46,2.59,6.14c1.67,1.6,4.04,2.44,6.48,2.44c1.1,0,2.18-0.17,3.19-0.5v-4.82
	c-0.76,0.71-1.81,1.18-3.19,1.18c-1.43,0-2.54-0.55-3.33-1.31c-0.62-0.6-1.31-1.6-1.31-3.06c0-1.16,0.42-2.36,1.31-3.22
	C455.78,248.35,457.03,247.93,458.22,247.93z"/>
<path d="M461.52,248.18c-0.04-0.03-0.07-0.07-0.11-0.1v-4.85"/>
<path d="M461.41,259.4v-4.82c0.04-0.03,0.07-0.06,0.11-0.1"/>
<path d="M458.25,272.65l-3.33-8.77h-4.21l-2.78,16.44h4.24l1.4-9.47l3.8,9.47h1.7l2.34-5.58v-9.93L458.25,272.65z"/>
<path d="M459.36,283.59h-6.8v16.44h4.26v-5.45h2.69c0.6,0,1.24-0.04,1.9-0.21v-10.52C460.73,283.65,460.05,283.59,459.36,283.59z
	 M460.05,290.61c-0.52,0.47-1.35,0.52-1.8,0.52h-1.43v-4.09h1.46c0.54,0,1.33,0.07,1.82,0.6c0.45,0.44,0.49,1.04,0.49,1.48
	C460.59,289.5,460.57,290.16,460.05,290.61z"/>
<path d="M458.22,307.07c1.09,0,2.29,0.41,3.19,1.21v-4.85c-1.01-0.33-2.09-0.5-3.19-0.5c-2.44,0-4.81,0.83-6.48,2.44
	c-1.75,1.65-2.59,3.97-2.59,6.16c0,2.17,0.84,4.46,2.59,6.14c1.67,1.6,4.04,2.44,6.48,2.44c1.1,0,2.18-0.17,3.19-0.5v-4.82
	c-0.76,0.71-1.81,1.18-3.19,1.18c-1.43,0-2.54-0.54-3.33-1.31c-0.62-0.6-1.31-1.6-1.31-3.05c0-1.16,0.42-2.37,1.31-3.23
	C455.78,307.49,457.03,307.07,458.22,307.07z"/>
<path d="M461.52,307.31c-0.04-0.03-0.07-0.07-0.11-0.1v-4.85"/>
<path d="M461.41,318.54v-4.82c0.04-0.03,0.07-0.06,0.11-0.1"/>
<path d="M459.12,326.19c0.48,0,1.26,0.07,2.29,0.74v-3.85c-0.97-0.29-1.95-0.45-2.86-0.45c-2,0-3.37,0.72-4.21,1.55
	c-0.72,0.72-1.5,1.95-1.5,3.97c0,0.84,0.1,2,0.93,2.91c0.66,0.74,1.68,1.11,2.36,1.33l1.11,0.35c1.06,0.32,1.7,0.49,2.12,0.86
	c0.35,0.3,0.47,0.67,0.47,0.99c0,0.42-0.17,0.79-0.42,1.04c-0.27,0.29-0.79,0.56-1.65,0.56c-1.48,0-2.86-0.81-3.77-1.67l-1.82,3.45
	c1.18,0.81,2.22,1.21,2.49,1.31c1.21,0.45,2.19,0.54,3.23,0.54c1.23,0,2.43-0.13,3.52-0.7v-9.28c-0.38-0.16-0.77-0.29-1.16-0.4
	l-1.31-0.39c-1.01-0.3-1.31-0.59-1.43-0.74c-0.17-0.22-0.22-0.45-0.22-0.74c0-0.37,0.18-0.64,0.42-0.89
	C458.13,326.29,458.7,326.19,459.12,326.19z"/>
<path d="M461.93,326.23c-0.18-0.14-0.36-0.27-0.52-0.37v-3.85"/>
<path d="M461.41,346.34v-3.62h-7.49v16.44h7.49v-3.62h-3.23v-2.83h3.23v-3.62h-3.23v-2.74H461.41z"/>
<path d="M458.96,226.45c0.52,0,1.43,0.04,2.44,0.51v-5.26c-1.11-0.27-1.98-0.33-2.59-0.33c-3.15,0-5.85,1.33-7.63,3.15
	c-1.82,1.85-3.06,4.57-3.06,7.45c0,2.63,1.09,5.39,3.06,7.36c1.67,1.63,4.3,3.03,7.81,3.03c0.78,0,1.5-0.09,2.41-0.32v-5.29
	c-1.06,0.49-1.97,0.52-2.44,0.52c-1.48,0-2.87-0.57-3.76-1.39c-1.06-1-1.64-2.54-1.64-3.94c0-1.42,0.52-3,1.76-4.15
	C456.3,226.9,457.45,226.45,458.96,226.45z"/>
<line class="st15" x1="395" y1="217.84" x2="463.53" y2="217.84"/>
<path class="st9" d="M138.41,274.55v32.29H74.66v-32.29c0-4.17,3.38-7.55,7.55-7.55h48.64C135.02,267,138.41,270.38,138.41,274.55z"
	/>
<rect x="74.66" y="306.84" class="st10" width="63.75" height="148.22"/>
<path class="st11" d="M74.66,450.81h63.75v2.1c0,1.19-0.96,2.15-2.15,2.15H76.81c-1.19,0-2.15-0.96-2.15-2.15V450.81z"/>
<path class="st14" d="M106.53,336.59L106.53,336.59c-5.87,0-10.63,4.76-10.63,10.62v103.59h21.25V347.22
	C117.16,341.35,112.4,336.59,106.53,336.59z"/>
<path id="XMLID_7_" class="st12" d="M106.27,336.86L106.27,336.86c-5.87,0-10.63,4.76-10.63,10.62v103.59h21.25V347.48
	C116.89,341.62,112.13,336.86,106.27,336.86z"/>
<line class="st12" x1="95.91" y1="410.99" x2="117.1" y2="432.18"/>
<line class="st12" x1="95.91" y1="389.68" x2="117.21" y2="410.99"/>
<line class="st12" x1="95.91" y1="368.47" x2="117.12" y2="389.68"/>
<line class="st12" x1="95.91" y1="347.22" x2="117.16" y2="368.47"/>
<path d="M135.22,336.93c1.09,0,2.29,0.41,3.19,1.21v-4.85c-1.01-0.33-2.09-0.5-3.19-0.5c-2.44,0-4.81,0.83-6.48,2.44
	c-1.75,1.65-2.59,3.97-2.59,6.16c0,2.17,0.84,4.46,2.59,6.14c1.67,1.6,4.04,2.44,6.48,2.44c1.1,0,2.18-0.17,3.19-0.5v-4.82
	c-0.76,0.71-1.81,1.18-3.19,1.18c-1.43,0-2.54-0.55-3.33-1.31c-0.62-0.6-1.31-1.6-1.31-3.06c0-1.16,0.42-2.36,1.31-3.22
	C132.78,337.35,134.03,336.93,135.22,336.93z"/>
<path d="M138.52,337.18c-0.04-0.03-0.07-0.07-0.11-0.1v-4.85"/>
<path d="M138.41,348.4v-4.82c0.04-0.03,0.07-0.06,0.11-0.1"/>
<path d="M135.25,361.65l-3.33-8.77h-4.21l-2.78,16.44h4.24l1.4-9.47l3.8,9.47h1.7l2.34-5.58v-9.93L135.25,361.65z"/>
<path d="M136.36,372.59h-6.8v16.44h4.26v-5.45h2.69c0.59,0,1.24-0.04,1.9-0.21v-10.52C137.73,372.65,137.05,372.59,136.36,372.59z
	 M137.05,379.61c-0.52,0.47-1.35,0.52-1.8,0.52h-1.43v-4.09h1.46c0.54,0,1.33,0.07,1.82,0.6c0.45,0.44,0.49,1.04,0.49,1.48
	C137.59,378.5,137.57,379.16,137.05,379.61z"/>
<path d="M135.22,396.07c1.09,0,2.29,0.41,3.19,1.21v-4.85c-1.01-0.33-2.09-0.5-3.19-0.5c-2.44,0-4.81,0.83-6.48,2.44
	c-1.75,1.65-2.59,3.97-2.59,6.16c0,2.17,0.84,4.46,2.59,6.14c1.67,1.6,4.04,2.44,6.48,2.44c1.1,0,2.18-0.17,3.19-0.5v-4.82
	c-0.76,0.71-1.81,1.18-3.19,1.18c-1.43,0-2.54-0.54-3.33-1.31c-0.62-0.6-1.31-1.6-1.31-3.05c0-1.16,0.42-2.37,1.31-3.23
	C132.78,396.49,134.03,396.07,135.22,396.07z"/>
<path d="M138.52,396.31c-0.04-0.03-0.07-0.07-0.11-0.1v-4.85"/>
<path d="M138.41,407.54v-4.82c0.04-0.03,0.07-0.06,0.11-0.1"/>
<path d="M136.12,415.19c0.48,0,1.26,0.07,2.29,0.74v-3.85c-0.97-0.29-1.96-0.45-2.86-0.45c-2,0-3.37,0.72-4.21,1.55
	c-0.72,0.72-1.5,1.95-1.5,3.97c0,0.84,0.1,2,0.94,2.91c0.66,0.74,1.68,1.11,2.36,1.33l1.11,0.35c1.06,0.32,1.7,0.49,2.12,0.86
	c0.35,0.3,0.47,0.67,0.47,0.99c0,0.42-0.17,0.79-0.42,1.04c-0.27,0.29-0.79,0.56-1.65,0.56c-1.48,0-2.86-0.81-3.77-1.67l-1.82,3.45
	c1.18,0.81,2.22,1.21,2.49,1.31c1.21,0.45,2.19,0.54,3.23,0.54c1.23,0,2.43-0.13,3.52-0.7v-9.28c-0.38-0.16-0.77-0.29-1.16-0.4
	l-1.31-0.39c-1.01-0.3-1.31-0.59-1.43-0.74c-0.17-0.22-0.22-0.45-0.22-0.74c0-0.37,0.18-0.64,0.42-0.89
	C135.13,415.29,135.7,415.19,136.12,415.19z"/>
<path d="M138.93,415.23c-0.18-0.14-0.36-0.27-0.52-0.37v-3.85"/>
<path d="M138.41,435.34v-3.62h-7.49v16.44h7.49v-3.62h-3.23v-2.83h3.23v-3.62h-3.23v-2.74H138.41z"/>
<path d="M135.96,315.45c0.52,0,1.43,0.04,2.44,0.51v-5.26c-1.11-0.27-1.98-0.33-2.59-0.33c-3.15,0-5.85,1.33-7.63,3.15
	c-1.82,1.85-3.06,4.57-3.06,7.45c0,2.63,1.09,5.39,3.06,7.36c1.67,1.63,4.3,3.03,7.81,3.03c0.78,0,1.5-0.09,2.41-0.32v-5.29
	c-1.06,0.49-1.97,0.52-2.44,0.52c-1.48,0-2.87-0.57-3.76-1.39c-1.06-1-1.64-2.54-1.64-3.94c0-1.42,0.52-3,1.76-4.15
	C133.3,315.9,134.45,315.45,135.96,315.45z"/>
<line class="st15" x1="72" y1="306.84" x2="140.53" y2="306.84"/>
<path class="st9" d="M224.41,274.55v32.29h-63.75v-32.29c0-4.17,3.38-7.55,7.55-7.55h48.64C221.02,267,224.41,270.38,224.41,274.55z
	"/>
<rect x="160.66" y="306.84" class="st10" width="63.75" height="148.22"/>
<path class="st11" d="M160.66,450.81h63.75v2.1c0,1.19-0.96,2.15-2.15,2.15h-59.45c-1.19,0-2.15-0.96-2.15-2.15V450.81z"/>
<path class="st14" d="M192.53,336.59L192.53,336.59c-5.87,0-10.63,4.76-10.63,10.62v103.59h21.25V347.22
	C203.16,341.35,198.4,336.59,192.53,336.59z"/>
<path id="XMLID_6_" class="st12" d="M192.27,336.86L192.27,336.86c-5.87,0-10.63,4.76-10.63,10.62v103.59h21.25V347.48
	C202.89,341.62,198.13,336.86,192.27,336.86z"/>
<line class="st12" x1="181.91" y1="410.99" x2="203.1" y2="432.18"/>
<line class="st12" x1="181.91" y1="389.68" x2="203.21" y2="410.99"/>
<line class="st12" x1="181.91" y1="368.47" x2="203.12" y2="389.68"/>
<line class="st12" x1="181.91" y1="347.22" x2="203.16" y2="368.47"/>
<path d="M221.22,336.93c1.09,0,2.29,0.41,3.19,1.21v-4.85c-1.01-0.33-2.09-0.5-3.19-0.5c-2.44,0-4.81,0.83-6.48,2.44
	c-1.75,1.65-2.59,3.97-2.59,6.16c0,2.17,0.84,4.46,2.59,6.14c1.67,1.6,4.04,2.44,6.48,2.44c1.1,0,2.18-0.17,3.19-0.5v-4.82
	c-0.76,0.71-1.81,1.18-3.19,1.18c-1.43,0-2.54-0.55-3.33-1.31c-0.62-0.6-1.31-1.6-1.31-3.06c0-1.16,0.42-2.36,1.31-3.22
	C218.78,337.35,220.03,336.93,221.22,336.93z"/>
<path d="M224.52,337.18c-0.04-0.03-0.07-0.07-0.11-0.1v-4.85"/>
<path d="M224.41,348.4v-4.82c0.04-0.03,0.07-0.06,0.11-0.1"/>
<path d="M221.25,361.65l-3.33-8.77h-4.21l-2.78,16.44h4.24l1.4-9.47l3.8,9.47h1.7l2.34-5.58v-9.93L221.25,361.65z"/>
<path d="M222.36,372.59h-6.8v16.44h4.26v-5.45h2.69c0.59,0,1.24-0.04,1.9-0.21v-10.52C223.73,372.65,223.05,372.59,222.36,372.59z
	 M223.05,379.61c-0.52,0.47-1.35,0.52-1.8,0.52h-1.43v-4.09h1.46c0.54,0,1.33,0.07,1.82,0.6c0.45,0.44,0.49,1.04,0.49,1.48
	C223.59,378.5,223.57,379.16,223.05,379.61z"/>
<path d="M221.22,396.07c1.09,0,2.29,0.41,3.19,1.21v-4.85c-1.01-0.33-2.09-0.5-3.19-0.5c-2.44,0-4.81,0.83-6.48,2.44
	c-1.75,1.65-2.59,3.97-2.59,6.16c0,2.17,0.84,4.46,2.59,6.14c1.67,1.6,4.04,2.44,6.48,2.44c1.1,0,2.18-0.17,3.19-0.5v-4.82
	c-0.76,0.71-1.81,1.18-3.19,1.18c-1.43,0-2.54-0.54-3.33-1.31c-0.62-0.6-1.31-1.6-1.31-3.05c0-1.16,0.42-2.37,1.31-3.23
	C218.78,396.49,220.03,396.07,221.22,396.07z"/>
<path d="M224.52,396.31c-0.04-0.03-0.07-0.07-0.11-0.1v-4.85"/>
<path d="M224.41,407.54v-4.82c0.04-0.03,0.07-0.06,0.11-0.1"/>
<path d="M222.12,415.19c0.48,0,1.26,0.07,2.29,0.74v-3.85c-0.97-0.29-1.96-0.45-2.86-0.45c-2,0-3.37,0.72-4.21,1.55
	c-0.72,0.72-1.5,1.95-1.5,3.97c0,0.84,0.1,2,0.94,2.91c0.66,0.74,1.68,1.11,2.36,1.33l1.11,0.35c1.06,0.32,1.7,0.49,2.12,0.86
	c0.35,0.3,0.47,0.67,0.47,0.99c0,0.42-0.17,0.79-0.42,1.04c-0.27,0.29-0.79,0.56-1.65,0.56c-1.48,0-2.86-0.81-3.77-1.67l-1.82,3.45
	c1.18,0.81,2.22,1.21,2.49,1.31c1.21,0.45,2.19,0.54,3.23,0.54c1.23,0,2.43-0.13,3.52-0.7v-9.28c-0.38-0.16-0.77-0.29-1.16-0.4
	l-1.31-0.39c-1.01-0.3-1.31-0.59-1.43-0.74c-0.17-0.22-0.22-0.45-0.22-0.74c0-0.37,0.18-0.64,0.42-0.89
	C221.13,415.29,221.7,415.19,222.12,415.19z"/>
<path d="M224.93,415.23c-0.18-0.14-0.36-0.27-0.52-0.37v-3.85"/>
<path d="M224.41,435.34v-3.62h-7.49v16.44h7.49v-3.62h-3.23v-2.83h3.23v-3.62h-3.23v-2.74H224.41z"/>
<path d="M221.96,315.45c0.52,0,1.43,0.04,2.44,0.51v-5.26c-1.11-0.27-1.98-0.33-2.59-0.33c-3.15,0-5.85,1.33-7.63,3.15
	c-1.82,1.85-3.06,4.57-3.06,7.45c0,2.63,1.09,5.39,3.06,7.36c1.67,1.63,4.3,3.03,7.81,3.03c0.78,0,1.5-0.09,2.41-0.32v-5.29
	c-1.06,0.49-1.97,0.52-2.44,0.52c-1.48,0-2.87-0.57-3.76-1.39c-1.06-1-1.64-2.54-1.64-3.94c0-1.42,0.52-3,1.76-4.15
	C219.3,315.9,220.45,315.45,221.96,315.45z"/>
<line class="st15" x1="158" y1="306.84" x2="226.53" y2="306.84"/>
<path class="st9" d="M309.41,274.55v32.29h-63.75v-32.29c0-4.17,3.38-7.55,7.55-7.55h48.64C306.02,267,309.41,270.38,309.41,274.55z
	"/>
<rect x="245.66" y="306.84" class="st10" width="63.75" height="148.22"/>
<path class="st11" d="M245.66,450.81h63.75v2.1c0,1.19-0.96,2.15-2.15,2.15h-59.45c-1.19,0-2.15-0.96-2.15-2.15V450.81z"/>
<path class="st14" d="M277.53,336.59L277.53,336.59c-5.87,0-10.62,4.76-10.62,10.62v103.59h21.25V347.22
	C288.16,341.35,283.4,336.59,277.53,336.59z"/>
<path id="XMLID_5_" class="st12" d="M277.27,336.86L277.27,336.86c-5.87,0-10.62,4.76-10.62,10.62v103.59h21.25V347.48
	C287.89,341.62,283.13,336.86,277.27,336.86z"/>
<line class="st12" x1="266.91" y1="410.99" x2="288.1" y2="432.18"/>
<line class="st12" x1="266.91" y1="389.68" x2="288.21" y2="410.99"/>
<line class="st12" x1="266.91" y1="368.47" x2="288.12" y2="389.68"/>
<line class="st12" x1="266.91" y1="347.22" x2="288.16" y2="368.47"/>
<path d="M306.22,336.93c1.09,0,2.29,0.41,3.19,1.21v-4.85c-1.01-0.33-2.09-0.5-3.19-0.5c-2.44,0-4.81,0.83-6.48,2.44
	c-1.75,1.65-2.59,3.97-2.59,6.16c0,2.17,0.84,4.46,2.59,6.14c1.67,1.6,4.04,2.44,6.48,2.44c1.1,0,2.18-0.17,3.19-0.5v-4.82
	c-0.76,0.71-1.81,1.18-3.19,1.18c-1.43,0-2.54-0.55-3.33-1.31c-0.62-0.6-1.31-1.6-1.31-3.06c0-1.16,0.42-2.36,1.31-3.22
	C303.78,337.35,305.03,336.93,306.22,336.93z"/>
<path d="M309.52,337.18c-0.04-0.03-0.07-0.07-0.11-0.1v-4.85"/>
<path d="M309.41,348.4v-4.82c0.04-0.03,0.07-0.06,0.11-0.1"/>
<path d="M306.25,361.65l-3.33-8.77h-4.21l-2.78,16.44h4.24l1.4-9.47l3.8,9.47h1.7l2.34-5.58v-9.93L306.25,361.65z"/>
<path d="M307.36,372.59h-6.8v16.44h4.26v-5.45h2.69c0.6,0,1.24-0.04,1.9-0.21v-10.52C308.73,372.65,308.05,372.59,307.36,372.59z
	 M308.05,379.61c-0.52,0.47-1.35,0.52-1.8,0.52h-1.43v-4.09h1.46c0.54,0,1.33,0.07,1.82,0.6c0.45,0.44,0.49,1.04,0.49,1.48
	C308.59,378.5,308.57,379.16,308.05,379.61z"/>
<path d="M306.22,396.07c1.09,0,2.29,0.41,3.19,1.21v-4.85c-1.01-0.33-2.09-0.5-3.19-0.5c-2.44,0-4.81,0.83-6.48,2.44
	c-1.75,1.65-2.59,3.97-2.59,6.16c0,2.17,0.84,4.46,2.59,6.14c1.67,1.6,4.04,2.44,6.48,2.44c1.1,0,2.18-0.17,3.19-0.5v-4.82
	c-0.76,0.71-1.81,1.18-3.19,1.18c-1.43,0-2.54-0.54-3.33-1.31c-0.62-0.6-1.31-1.6-1.31-3.05c0-1.16,0.42-2.37,1.31-3.23
	C303.78,396.49,305.03,396.07,306.22,396.07z"/>
<path d="M309.52,396.31c-0.04-0.03-0.07-0.07-0.11-0.1v-4.85"/>
<path d="M309.41,407.54v-4.82c0.04-0.03,0.07-0.06,0.11-0.1"/>
<path d="M307.12,415.19c0.48,0,1.26,0.07,2.29,0.74v-3.85c-0.97-0.29-1.95-0.45-2.86-0.45c-2,0-3.37,0.72-4.21,1.55
	c-0.72,0.72-1.5,1.95-1.5,3.97c0,0.84,0.1,2,0.93,2.91c0.66,0.74,1.68,1.11,2.36,1.33l1.11,0.35c1.06,0.32,1.7,0.49,2.12,0.86
	c0.35,0.3,0.47,0.67,0.47,0.99c0,0.42-0.17,0.79-0.42,1.04c-0.27,0.29-0.79,0.56-1.65,0.56c-1.48,0-2.86-0.81-3.77-1.67l-1.82,3.45
	c1.18,0.81,2.22,1.21,2.49,1.31c1.21,0.45,2.19,0.54,3.23,0.54c1.23,0,2.43-0.13,3.52-0.7v-9.28c-0.38-0.16-0.77-0.29-1.16-0.4
	l-1.31-0.39c-1.01-0.3-1.31-0.59-1.43-0.74c-0.17-0.22-0.22-0.45-0.22-0.74c0-0.37,0.18-0.64,0.42-0.89
	C306.13,415.29,306.7,415.19,307.12,415.19z"/>
<path d="M309.93,415.23c-0.18-0.14-0.36-0.27-0.52-0.37v-3.85"/>
<path d="M309.41,435.34v-3.62h-7.49v16.44h7.49v-3.62h-3.23v-2.83h3.23v-3.62h-3.23v-2.74H309.41z"/>
<path d="M306.96,315.45c0.52,0,1.43,0.04,2.44,0.51v-5.26c-1.11-0.27-1.98-0.33-2.59-0.33c-3.15,0-5.85,1.33-7.63,3.15
	c-1.82,1.85-3.06,4.57-3.06,7.45c0,2.63,1.09,5.39,3.06,7.36c1.67,1.63,4.3,3.03,7.81,3.03c0.78,0,1.5-0.09,2.41-0.32v-5.29
	c-1.06,0.49-1.97,0.52-2.44,0.52c-1.48,0-2.87-0.57-3.76-1.39c-1.06-1-1.64-2.54-1.64-3.94c0-1.42,0.52-3,1.76-4.15
	C304.3,315.9,305.45,315.45,306.96,315.45z"/>
<line class="st15" x1="243" y1="306.84" x2="311.53" y2="306.84"/>
<rect x="43" y="44" class="st16" width="298" height="432"/>
<line class="st17" x1="42.5" y1="43.5" x2="340.5" y2="475.5"/>
<line class="st17" x1="42.5" y1="475.5" x2="340.5" y2="43.5"/>
</svg>
