<?xml version="1.0" encoding="utf-8"?>
<!-- Generator: Adobe Illustrator 24.3.0, SVG Export Plug-In . SVG Version: 6.00 Build 0)  -->
<svg version="1.1" id="Layer_1" xmlns="http://www.w3.org/2000/svg" xmlns:xlink="http://www.w3.org/1999/xlink" x="0px" y="0px"
	 viewBox="0 0 237.12 197.08" style="enable-background:new 0 0 237.12 197.08;" xml:space="preserve">
<style type="text/css">
	.st0{fill:none;stroke:#000000;stroke-width:6.1975;stroke-miterlimit:10;}
	.st1{fill:#FFFFFF;stroke:#000000;stroke-width:6.1975;stroke-linecap:round;stroke-linejoin:round;stroke-miterlimit:10;}
	.st2{fill:none;stroke:#000000;stroke-width:4.1833;stroke-linecap:round;stroke-linejoin:round;stroke-miterlimit:10;}
	.st3{fill:#F7931E;}
	.st4{fill:#ED1C24;}
	.st5{fill:#006837;}
	.st6{fill:#0071BC;}
	.st7{fill:#FF7BAC;}
	.st8{fill:#D66995;}
	.st9{stroke:#000000;stroke-width:2.125;stroke-miterlimit:10;}
	.st10{fill:#999999;stroke:#000000;stroke-width:2.125;stroke-miterlimit:10;}
	.st11{fill:#C1BFC0;stroke:#000000;stroke-width:2.125;stroke-miterlimit:10;}
	.st12{fill:none;stroke:#000000;stroke-width:1.5938;stroke-miterlimit:10;}
	.st13{fill:none;stroke:#000000;stroke-width:3;stroke-miterlimit:10;}
	.st14{fill:#0071BC;stroke:#000000;stroke-width:0.5312;stroke-miterlimit:10;}
	.st15{fill:none;stroke:#000000;stroke-width:3.7188;stroke-linecap:round;stroke-linejoin:round;stroke-miterlimit:10;}
	.st16{fill:none;stroke:#ED1C24;stroke-width:19;stroke-linecap:round;stroke-linejoin:round;stroke-miterlimit:10;}
	.st17{fill:none;stroke:#ED1C24;stroke-width:13;stroke-linecap:round;stroke-linejoin:round;stroke-miterlimit:10;}
	.st18{fill:#F8A13B;}
	.st19{fill:#207B50;}
	.st20{fill:#EF3940;}
	.st21{fill:#2083C4;}
	.st22{fill:#202020;}
	.st23{font-family:'FuturaPT-DemiObl';}
	.st24{font-size:17.9952px;}
</style>
<g>
	<g>
		<g>
			<g>
				<g>
					<g>
						<path class="st22" d="M216.75,84.11c0.77,0.89,1.02,1.95,0.69,1.64c1.55,1.85,1.14,2.14,1.89,2.12
							c1.03,1.29,1.07,3.11,0.25,1.49c0.32,0.69,0.61,1.39,0.92,2.1c0.25,0.73,0.45,1.48,0.67,2.24l-0.22-1.39
							c-0.07-0.47-0.15-0.93-0.3-1.37c0.43,0.27,0.6,1.41,0.79,2.54c0.14,1.15,0.14,2.32,0.5,2.77c-0.06-0.87-0.11-1.75-0.22-2.62
							c-0.18-0.85-0.32-1.72-0.57-2.54l0.26,0.2c-0.28-0.54-0.57-1.35-0.83-2.13c-0.3-0.75-0.61-1.44-0.73-1.82
							c0.13,0.07,0.24-0.07,0.63,0.75c-0.33-0.7-0.58-1.27-0.84-1.67c-0.26-0.39-0.47-0.67-0.65-0.87c-0.35-0.4-0.54-0.47-0.73-0.52
							c-0.37-0.09-0.69-0.07-2.19-1.92C216.27,83.36,216.49,83.66,216.75,84.11z"/>
						<path class="st22" d="M214.56,79.49l-1.93-0.9c-0.8-0.75-1.59-1.54-2.42-2.26c-0.18,0.16-2.2-1.1-1.04,0.03
							c0.27,0.16,0.82,0.46,1.19,0.8c-0.6,0.16-3.6-2.38-3.14-1.38c2.12,1.4,2.37,1.7,3.83,2.41c0.9,0.76,1.61,1.51,2.18,2.16
							c0.59,0.63,1.01,1.21,1.31,1.7c0.52,0.48,0.84,0.34,1.48,0.99c-0.13-0.16-0.26-0.28-0.42-0.46l0.53-0.58
							c-0.64-0.47-1.05-1.09-1.66-1.69c0.57,0.36,1.11,0.78,1.68,1.17l0.84,0.61l0.8,0.69c-0.09-0.79-0.92-1.86-1.83-2.9
							c-0.93-1.02-1.96-1.94-2.44-2.6C214.51,79.13,212.21,76.46,214.56,79.49z"/>
						<path class="st22" d="M216.02,83.05c0.02,0.02,0.04,0.05,0.06,0.08C216.06,83.11,216.04,83.07,216.02,83.05z"/>
						<path class="st22" d="M44.78,123.16c0.71,0.25,0.98,0.15,1.12,0.1c-2.67-0.95-5.32-1.94-7.89-3.08
							c0.15,0.31,2.31,1.49,0.75,0.97c0.59,0.49,2.73,1.14,3.13,1l-0.69,0.06c1.96,0.37,2.97,1.52,1.67,1.31l0.16,0.05l2.82,0.21
							l2.82,0.12C46.82,123.18,47.04,123.97,44.78,123.16z"/>
						<path class="st22" d="M213.19,106.94c-0.61,0.87-0.67,1-0.53,0.97C212.87,107.58,213.09,107.28,213.19,106.94z"/>
						<path class="st22" d="M49.99,123.96l1.76,0.03C51.07,123.92,50.44,123.91,49.99,123.96z"/>
						<path class="st22" d="M36.13,126.7c-0.01,0.02-0.04,0.04-0.01,0.09c0.28,0.04,0.56,0.06,0.84,0.09
							c-0.01,0-0.02-0.01-0.02-0.01C36.65,126.81,36.38,126.75,36.13,126.7z"/>
						<path class="st22" d="M88.05,129.67c0.18,0.01,0.34,0.02,0.56,0.03C88.4,129.67,88.22,129.67,88.05,129.67z"/>
						<path class="st22" d="M13.07,115.36l1.81,1.42l1.85,1.27c-0.6-0.21,1.09,1.12,0.21,0.72c0.28,0.2,1.59,1.05,1.32,0.71
							l-0.72-0.52c1.12,0.44,1.43,0.39,1.88,0.48c0.45,0.08,1.03,0.31,2.7,1.11c-1.69-1.55-2.67-1.94-3.84-2.43
							c-0.36-0.21-0.65-0.43-0.94-0.64c-1.11-0.55-2.25-1.09-3.36-1.78L13.07,115.36z"/>
						<path class="st22" d="M167.22,132.87l-0.03,0.06C167.22,132.9,167.23,132.88,167.22,132.87z"/>
						<path class="st22" d="M167.07,133.16l0.12-0.24C167.01,133.07,166.24,133.34,167.07,133.16z"/>
						<path class="st22" d="M49.27,124.16c0.09-0.1,0.34-0.17,0.72-0.2l-1.31-0.05C48.84,123.98,49.06,124.07,49.27,124.16z"/>
						<path class="st22" d="M46.08,124.58c-1.03-0.31-2.03-0.67-3.05-1l-1.23-0.1C43,123.79,44.38,124.21,46.08,124.58z"/>
						<path class="st22" d="M83.11,128.71c6.54,0.7-1.7,0.56,1.28,1.11c1.83,0.12,2.51-0.17,3.66-0.16
							c-5.22-0.27,0.83-1.07-4.41-1.5c0.82-0.53,3.83-0.27,5.58,0.1c1.94,0.84-1.79,0.27-2.32,0.82c2.11,0.13,1.75-0.03,2.67-0.28
							c1.64,0.22,3.36,0.18,4.91,0.21c1.55,0.01,2.92,0.09,3.88,0.59c2.4,0.03,2.26-0.31,3.65-0.57c0.31-0.65-3.53-0.52-4.37-1.13
							c0.18,0.07,0.53,0.21,0.42,0.29l-2.05-0.28c1.93,0.37-0.32,0.65-1.37,0.63c-0.76-0.05-2.27-0.16-2.05-0.32l1.16-0.04
							c-1.46-0.35-3.31,0.21-4.83-0.32c-0.07-0.16,0.53-0.16,0.63-0.25c-1.79,0.25-3.47,0.08-6.08,0.07l1.57-0.47
							c-1.07,0.23-2.77,0.14-4.59-0.1c-1.82-0.28-3.76-0.71-5.33-1.17c0.34,0.18,0.96,0.36,0.56,0.42
							c-1.91-0.17-3.25-0.86-2.32-1.06c-1.95,0.26-6.86-1.76-9.46-1.62c-4.02,0.24-8.07,0.37-12.14,0.29
							c0.45,0.05,0.92,0.12,1.39,0.23c0.86,0.86,1.44,0.97-0.52,0.95c1.86,0.24,1.31-0.43,3.99,0.29c-1.12,0-1.57,0.57,0.99,1.34
							c6.63,1.07,11.29,0.33,17.51,0.51c0.15,0.48,4.97,1.12,7.3,1.49c-0.96,0.36-2.72,0.28-4.54,0.09c1.13,0.21,3.08,0.5,4.53,0.7
							L83.11,128.71z"/>
						<path class="st22" d="M67.66,127.73c0.16,0.07,0.32,0.13,0.49,0.18C68.06,127.86,67.91,127.8,67.66,127.73z"/>
						<path class="st22" d="M77.33,128.78c-0.03,0.01-0.02,0.03-0.03,0.04c0.19,0.02,0.38,0.03,0.58,0.05
							C77.68,128.85,77.46,128.81,77.33,128.78z"/>
						<path class="st22" d="M50.46,125.6c-0.42,0.01-0.71-0.04-1.13-0.04c0.25,0.04,0.55,0.09,0.85,0.14
							C50.46,125.72,50.61,125.7,50.46,125.6z"/>
						<path class="st22" d="M49.42,124.45l0.26-0.11c-0.16-0.07-0.27-0.12-0.4-0.18C49.2,124.24,49.22,124.34,49.42,124.45z"/>
						<path class="st22" d="M108.07,134.64l0.64-0.08C108.33,134.55,108.16,134.59,108.07,134.64z"/>
						<path class="st22" d="M90.31,130.28c-2.29-0.17-0.34,0.65-3.57,0.3l0.95,0.14c-2.35,0.05-6.42-0.58-9.16-0.97
							c0.35-0.22-1.61-0.57-1.23-0.93c-1.89-0.17-3.74-0.41-4.77-0.16c-1.13-0.32-2.95-0.29-4.38-0.76
							c0.57,0.37-2.25,0.42,1.38,0.82c-0.29-0.02-0.12,0.07-0.42,0.05c2.23,0.81,3.28,0.34,5.26,0.69c1.15,0.45-2.01,0.06-0.91,0.35
							c2.52,0.22,7.8,1.5,7.76,0.54c1.83,0.17,2.05,0.41,2.58,0.65c1.5-0.31,4.16,0.09,6.48,0.38c2.31,0.27,4.27,0.49,4.3-0.15
							c-1.06-0.04-2.77-0.22-4.35-0.09L90.31,130.28z"/>
						<path class="st22" d="M54.2,126.63c0.14,0.04,0.32,0.09,0.43,0.13C54.5,126.72,54.35,126.67,54.2,126.63z"/>
						<path class="st22" d="M29.44,112.45l1.2-0.25c1.09,0.62,2.04,1.11,2.9,1.55c0.84,0.46,1.6,0.86,2.35,1.23
							c1.48,0.78,2.94,1.47,5.04,2.36c0.28,0.23-0.27,0.1-0.54,0.02c3,1.17,7.54,2.98,9.93,3.33c0.98,0.34,3.54,1.36,2.47,1.3
							c0.51,0.08,1.09,0.18,1.64,0.37c0.07,0.33-1.28-0.3-1.38-0.07c0.44,0.15,0.6,0.26,0.73,0.2c-0.82,0.02,0.5,1.21-3.01,0.13
							c-1.15-1.07,2.46,0.66,1.88-0.32c-1.16-0.35-1.11-0.03-1.24,0.03c-1.48-0.46-1.37-0.66-1.24-0.79
							c-0.63,0.04-2.36-0.88-3.26-0.8c-2.82-0.97,0.34-0.49-1.48-1.15l-1.32,0.34c-1.01-0.4-1.97-0.88-2.95-1.32
							c-4.41-1.57,0.09,1.54-5.02-0.24c0.81-0.07-0.86-1.59-2.95-2.87c1.31,0.67,3.97,1.4,5.64,2.36c-1.11-0.82-0.25-0.46,0.75-0.05
							c1,0.42,2.2,0.82,1.67,0.25c-0.69-0.09-1.53-0.35-2.4-0.71c-0.87-0.35-1.76-0.77-2.48-1.24l0.53,0.18
							c-0.8-0.44-1.59-0.62-2.46-0.87c-0.86-0.26-1.76-0.63-2.79-1.35c-1.08-0.59-0.76-0.68-0.49-0.72
							C30.23,112.94,29.35,112.6,29.44,112.45z M31.81,113.67l1.42,0.85C32.94,114.22,32.4,113.93,31.81,113.67z"/>
						<path class="st22" d="M192.26,65.86c0.16,0.09,0.35,0.19,0.49,0.27C192.65,66.05,192.46,65.96,192.26,65.86z"/>
						<path class="st22" d="M34.75,66.82l0.99-0.41C35.35,66.56,35.03,66.69,34.75,66.82z"/>
						<path class="st22" d="M56.64,56.76l1.47-0.55C57.52,56.37,57.07,56.55,56.64,56.76z"/>
						<path class="st22" d="M180.38,61.61l-0.05-0.02c-0.09-0.01-0.15-0.02-0.24-0.03L180.38,61.61z"/>
						<path class="st22" d="M103.88,52.12c0.24,0.05,0.5,0.1,0.86,0.14C104.69,52.19,104.37,52.14,103.88,52.12z"/>
						<path class="st22" d="M56.37,56.86c0.04,0,0.06-0.01,0.1-0.01c0.06-0.03,0.12-0.06,0.18-0.09L56.37,56.86z"/>
						<path class="st22" d="M24.11,69.77c-0.19,0.15-0.37,0.28-0.58,0.43C23.82,70.02,23.98,69.89,24.11,69.77z"/>
						<path class="st22" d="M26.57,70.87c-0.21,0.15-0.4,0.29-0.54,0.41L26.57,70.87z"/>
						<path class="st22" d="M7.42,104.47l0.84,1.56C7.89,105.25,7.63,104.79,7.42,104.47z"/>
						<path class="st22" d="M22.98,72.49c-0.05,0.08-0.11,0.15-0.13,0.22C23,72.57,23.06,72.47,22.98,72.49z"/>
						<path class="st22" d="M199.47,71.76c-0.03-0.01-0.06-0.03-0.08-0.04l-0.07,0.06L199.47,71.76z"/>
						<path class="st22" d="M203.04,72.44c0.36,0.19,0.74,0.39,1.12,0.59C203.76,72.79,203.35,72.58,203.04,72.44z"/>
						<path class="st22" d="M124.31,53.32c0.37,0.12,1.23,0.28,0.82,0.4C125.85,53.57,125.82,53.18,124.31,53.32z"/>
						<path class="st22" d="M191.35,73.28c0.24-0.01,0.51,0.02,0.79,0.06C191.64,73.24,191.21,73.15,191.35,73.28z"/>
						<path class="st22" d="M192.14,73.34c0.25,0.05,0.51,0.09,0.74,0.13C192.62,73.41,192.37,73.37,192.14,73.34z"/>
						<path class="st22" d="M114.86,59.6c-0.09-0.05-0.23-0.09-0.42-0.11C114.5,59.6,114.65,59.62,114.86,59.6z"/>
						<path class="st22" d="M204.97,73.66c0.28-0.04,5.13,2.71,1.29,0.04c0.23-0.19,0.9,0.17,1.65,0.66
							c0.74,0.49,1.54,1.17,2.09,1.48c-0.66-0.66,0.59-0.02,0.5-0.35c-0.55-0.33-1.25-0.65-2.07-1.3c-0.24-0.5,1.15,0.3,2.09,1.13
							c-1.05-1.17,1.86,0.82,0.24-0.68c-1.94-1.36-3.66-2.35-5.28-3.14c-0.81-0.38-1.6-0.72-2.38-1.02
							c-0.79-0.27-1.57-0.49-2.37-0.68c1.16,0.54,2.4,1.11,3.54,1.78c0.57,0.33,1.13,0.64,1.64,0.98c0.51,0.35,0.97,0.7,1.39,1.05
							l-1.02-0.08c-0.87-0.87-1.7-1.35-2.53-1.83c-0.83-0.49-1.7-0.87-2.72-1.44c1.51,0.88,2.96,1.87,4.41,2.85
							c1.82,1.74,0.42,0.83-1.28-0.07C204.56,73.28,204.91,73.53,204.97,73.66z"/>
						<path class="st22" d="M199.81,75.7l0.07,0.05c0.07,0.02,0.16,0.05,0.21,0.05L199.81,75.7z"/>
						<path class="st22" d="M16.71,100.48c0.08,0.08,0.2,0.15,0.3,0.22C16.81,100.5,16.74,100.44,16.71,100.48z"/>
						<path class="st22" d="M198.35,72.16L198.35,72.16C198.32,72.16,198.31,72.15,198.35,72.16z"/>
						<path class="st22" d="M16.42,93.02c0.01,0.01,0.02,0.03,0.03,0.05C16.44,93.04,16.43,93.03,16.42,93.02z"/>
						<path class="st22" d="M7.5,86.39c-0.03,0.01-0.05,0.01-0.1,0.06C7.29,86.73,7.38,86.6,7.5,86.39z"/>
						<path class="st22" d="M16.38,93c0.01,0,0.03,0,0.04,0.02C16.41,93.01,16.4,92.99,16.38,93z"/>
						<path class="st22" d="M54.82,66.81c0,0-0.18-0.04-0.45-0.05C54.29,66.83,54.4,66.85,54.82,66.81z"/>
						<path class="st22" d="M44.95,69.15c-0.07,0-0.11,0.01-0.19,0.01L44.95,69.15z"/>
						<path class="st22" d="M121.9,51c-0.52-0.02-0.91-0.02-1.24-0.01C121.04,51.01,121.45,51.02,121.9,51z"/>
						<path class="st22" d="M16.45,93.07c0.03,0.09,0.04,0.21,0.05,0.4C16.49,93.26,16.47,93.14,16.45,93.07z"/>
						<path class="st22" d="M69.42,60.85c-0.1,0.04-0.2,0.08-0.3,0.11l0.19-0.01L69.42,60.85z"/>
						<path class="st22" d="M74.76,60.28c-0.17,0.08-0.24,0.16-0.34,0.23c1.86-0.5,5.36-0.81,5.7-1.37c-0.64,0.08-4.02,0.3-3.5-0.1
							c-1.3,0.32-3.32,0.28-4.01,0.49c2.22-0.09,0.31,0.4-1.12,0.83c-1.36,0.08,0.18-0.46-0.99-0.36c-1.02,0.19-2.04,0.43-3.06,0.65
							l2.68-0.45l-0.72,0.66c0.1-0.04,0.16-0.06,0.26-0.1C74.16,59.72,70.19,61.41,74.76,60.28z"/>
						<path class="st22" d="M74.42,60.51c-0.28,0.08-0.52,0.16-0.7,0.25C74.15,60.68,74.3,60.6,74.42,60.51z"/>
						<path class="st22" d="M93.07,59.09c0.23-0.04,0.48-0.08,0.8-0.15C93.71,58.97,93.37,59.03,93.07,59.09z"/>
						<path class="st22" d="M39.71,122.55c-0.01-0.09-0.6-0.44-1.2-0.74c-0.59-0.31-1.19-0.56-1.25-0.37
							c0.7,0.36,1.41,0.72,2.14,1.05L39.71,122.55z"/>
						<path class="st22" d="M144.07,57.49c-0.3-0.04-0.59-0.08-0.89-0.11c-0.07,0.01-0.13,0.03-0.18,0.04
							C143.17,57.51,143.77,57.5,144.07,57.49z"/>
						<path class="st22" d="M77.42,58.73c-0.48,0.13-0.68,0.23-0.79,0.31C76.94,58.96,77.22,58.86,77.42,58.73z"/>
						<path class="st22" d="M144.13,58.44c0.37,0.15,0.9,0.38,0.96,0.54c0.77,0.08,1.33-0.04,2.13-0.02
							C146.33,58.9,145.31,58.74,144.13,58.44z"/>
						<path class="st22" d="M147.28,58.96c-0.02,0-0.04,0-0.06,0L147.28,58.96z"/>
						<path class="st22" d="M41.11,123.29c0.22,0.06,0.45,0.12,0.69,0.19l-0.38-0.04c0.55,0.27,1.12,0.5,1.67,0.75
							c0.22,0.05,0.45,0.11,0.73,0.2c-0.12-0.03-0.22-0.02-0.28,0c0.18,0.08,0.36,0.16,0.54,0.24c0.75,0.07,2.01,0.32,3.22,0.55
							c1.2,0.24,2.35,0.48,2.89,0.5c1.38,0.22,3.01,0.64,4.02,0.94c-0.95-0.25-2.21-0.57-1.9-0.24c1.84,0.79,2.61,1.7,6.1,2
							c-0.66-0.16-1.31-0.31-1.96-0.49c1.54,0.12,3.09,0.17,4.62,0.26c1.46,0.73-2.3-0.12-2.99,0.04c3.52,0.45,6.16,2.18,7.92,1.79
							c0.14,0.48,0.37,1.29,2.67,1.7c-1.55-0.83,1.43-0.05,0.18-0.86c0.83-0.09,2.52,0.64,2.71,0.32l-0.25,0.15
							c3.8,1.4,5.27,0.46,7,0.36c4.72,0.49,6.85,1.01,10.71,1.35c0.12,0.32,1.09,1.23,2.65,1.34c0.38-0.17,1.45-0.22,2.47-0.3
							c1.02-0.09,2-0.2,2.2-0.45c-2.75-0.4-2.3,0.27-3.97,0.25c-1.33-0.67-0.08-0.55-1.93-1.04c0.75,0.17,2.47,0.26,4.21,0.37
							c1.74,0.09,3.49,0.21,4.31,0.52l-0.59,0.03c2.64,0.46,3.1,1.79,7.59,1.18l2.13-0.26c-0.1,0.05-0.12,0.11-0.17,0.15
							c3.48,0.16,2.52,0.69,6.37,0.28c-0.3,0.03-0.11,0.09-0.41,0.12c2.19,0.31,4.4-0.33,6.05-0.45c1.02,0.42-0.23,0.43-0.85,0.75
							c3.87,0.12,8.01-0.8,10.36-1.46c0.83,0.05,1.66,0.09,2.49,0.11c-1.45,0.29-3.23,0.81-2.77,1.06c1.36-0.16,1.09-0.33,3.02-0.38
							c-0.31,0.29-1.11,0.63-2,1.01c4.04,0.21,0.83-1.04,3.69-0.37c1.26-0.08,1.96-0.53,2.07-0.88l2.31,0.24
							c0.22-0.45,3.02-0.71,4.84-0.99c0.2-0.21-1.52-0.29-2.2-0.05c0.1-0.35,2.03-0.72,3.28-0.85c0.57,0.88,8.15-1.16,6.82,0.07
							c5.57-1.04,13.36-2.63,16.9-3.87c1.25-0.02,3.69-0.63,2.33,0.15c4.44-1.07,6.43-2.61,10.8-3.69c0.39,0.01-1.94,0.61-1.7,0.84
							c2.7-1.2,5.23-1.25,9.43-3.1c-0.7,0.31-0.85,0.55-0.92,0.67c-0.12-0.09,1.63-0.97,2.67-1.55c0.64-0.18-0.78,0.43-0.39,0.4
							c4.17-1.46,7.62-3.32,10.84-5.44c3.21-2.14,6.23-4.51,9.32-7.4c-1.77,1.64-2.17,2.64-2.02,2.87l1.86-1.56
							c0.47-0.86,1.81-2.09,2.59-3.39c0.2-0.06,0.78-0.54,0.39,0.11c1.75-1.63,2.6-3.38,3.1-5.26c0.52-1.89,0.85-3.84,1.03-6.51
							c0.38,2.17,0.23,4.52-0.4,6.83c0.38-0.47,0.76-0.95,1.06-1.48c-0.04,0.27-0.08,0.54-0.13,0.8l-0.22,0.78
							c-0.16,0.52-0.27,1.07-0.47,1.58c0.61-0.78,0.88-1.69,1.08-2.35c0.14-0.7,0.21-1.17,0.46-1.22c-0.01,0.43-0.36,1.38-0.16,1.49
							c0.78-1.76,0.56-2.01,0.72-3.42c0,0.48,0.05,1.04-0.05,1.61c-0.1,0.57-0.22,1.19-0.37,1.84c-0.21,0.62-0.45,1.27-0.71,1.93
							c-0.27,0.65-0.64,1.27-0.97,1.91c-1.45,2.49-3.38,4.65-4.77,6.08c-0.4,0.49,0.24-0.54,0.25-0.68
							c-0.57,0.58-1.08,0.98-1.65,1.38c-0.57,0.4-1.13,0.9-1.89,1.56c-0.77,1.06,0.95-0.34,1.72-0.99c0.11,0.34-0.28,0.68-1.13,1.41
							c-0.24-0.12-1.47,0.82-2.88,1.71c-0.71,0.44-1.45,0.9-2.11,1.27c-0.67,0.34-1.26,0.59-1.63,0.65
							c-1.23,0.8-1.79,1.18-1.98,1.41c-0.19,0.23-0.02,0.29,0.15,0.34c0.34,0.1,0.68,0.15-1.91,1.43l-1.77,0.29
							c-2.81,1.83-6.66,3.84-10.25,5l0.74-0.29c0.42-0.39-0.45-0.21-0.85-0.19c-1.36,0.4-2.6,0.91-3.73,1.35
							c-1.12,0.45-2.13,0.8-3.02,0.79c-2.9,1.51-8.02,3.24-11.56,4.35c-1.12-0.42,4.56-1.65,5.92-2.49
							c-1.08,0.31-2.16,0.56-3.24,0.83c2.01-0.49,2.74-0.96,3.83-1.66c-2.85,0.66-3.65,1.41-6.31,2.25
							c0.17-0.23-0.22-0.26-1.47,0.01l-0.26,0.52c-0.03-0.03-0.18-0.03-0.57,0.02c-1.59,0.46-3.19,0.85-4.79,1.26
							c1.07-0.01,1.19,0.36,2.45,0.12c-0.5-0.17,0.56-0.41,1.81-0.69c-1.04,0.53,1.27-0.03,1.3,0.21c-2.52,0.57-5.61,1.2-7.25,1.64
							l-0.61-0.31c-1.22,0.16-2.45,0.4-3.59,0.63c-1.14,0.21-2.19,0.39-3.02,0.45l0.48-0.3c-2.91,0.33-5.75,0.94-8.38,0.85
							c-1.27,0.37-2.72,0.76-4.11,1.12c-1.39,0.34-2.73,0.68-3.78,1.02c-1.11,0.65-7.72-0.12-10.63,0.74
							c-0.2-0.05,2.01-0.5,3.01-0.75c-1.96,0.01-3.5,0.76-4.13,0.21c4.41-0.01-0.25-0.43,1.72-0.68c-2.06,0.12-4.22,0.25-5.23,0.49
							c3.33-0.1-1.16,0.81,2.21,0.47c-2.6,0.57-6.19,0.81-9.32,0.64c0.03-0.24-0.35-0.36-1.52-0.47l-0.94,0.34
							c-1.46-0.08,2.83-0.39-0.11-0.54c-3.04,0.61-9.09-0.56-10.47,0.47c-2.28-0.55,4.41-0.23,0.96-0.94
							c2.03-0.28,4.8,0.22,5.48-0.31c-1.98,0.1-0.71-0.49-1.98-0.53l-2.21,0.27l0.49,0.04c-3.72,0.36-9.57-0.19-14.28-0.58
							c-4.04,0.18-6.89,0.67-11.68-0.04c1.46-0.11-3.92-0.91-0.83-1.05c-2.16-0.61-4.39-0.61-4.47-0.39
							c1.93,0.41,0.67,0.19,2.29,0.56c-1.15,0.14-3.7-0.32-4.71-0.69c0.48,0.1,0.31,0.02,0.43-0.05c-2.28-0.6-1.16,0.11-2.86-0.09
							c-0.45-0.52-3.67-0.8-5.15-1.37l-2.33,0.09c1.3-0.09-2.08-0.62-2.34-1.07c-1.64-0.12-3.08,0.02-5.45-0.75
							c1.04,0.08-2.11-0.87-2.03-1.28c-1.98-0.78-3.73-1.03-5.45-1.37c-1.73-0.29-3.42-0.7-5.22-1.65c0.15-0.04,1.01,0-0.07-0.5
							c-0.91-0.24-2.41-0.9-3.35-1.23l0.03,0c-0.02,0-0.03-0.01-0.05-0.01c-0.46-0.16-0.76-0.25-0.81-0.16
							c-1.72-0.36-2.71-0.29-5.94-1.54c0.03,0.51,2.73,1.66,3.94,1.99l1.17,0.03c0.67,1.06,2.88,1.06,3.52,1.57
							c-2.2,0.04-7.56-2.51-10.98-3.82c0.82,0.83,2.32,1.74,4.09,2.7c1.77,0.9,3.82,1.82,5.75,2.53l-1.59-0.93l2.01,0.8l-1.76-1.22
							c1.86,0.84,3.54,1.39,5.25,2.02c-2.02-0.73-2.58-1.59-1.48-1.08c2.09,1.22,2.42,0.6,4.13,1.2c-0.95-0.34-2.17-0.83-1.29-0.77
							c3.2,1.67,4.22,1.64,7.16,3.11c-0.18-0.8,3.91,1.03,4.53,0.56l-1.42-0.45c1.06,0.13,2.11,0.28,3.17,0.38
							c2.68,1.29-2.67-0.02,1.55,1.46c1.98,0.54,3,0.57,3.91,0.57c0.91,0,1.71-0.02,3.29,0.27c-1.12,0.22-3.7,0.06-6.23-0.56
							c0.49,0.19,0.99,0.39,1.49,0.57c-0.87,0.06-4.37-0.83-6.11-1.34c3.01,0.29-1.31-0.52-2.51-1.26
							c-0.36,0.34,1.51,0.79-0.77,0.51c2.05,0.56,2.36,0.61,4.93,1.45c-5.58-1.69-5.48,0.08-10.31-1.81c2.32,0.57-0.6-0.85-0.8-1.13
							c-1.08-0.28-3.25-0.96-4.17-1.19l0.59,0.87c-1.47-0.4-2.34-0.98-3.27-1.6c-0.93-0.62-1.92-1.14-3.66-1.58
							c-0.28,0.08,0.42,0.42,1.11,0.72c0.7,0.28,1.39,0.51,1.09,0.42c-4.61-1.52-5.81-3.16-9.4-5.61c-0.3,0.04-0.45,0.43-1.95-0.04
							c0.6-0.09-0.29-0.79,1.34-0.21c-1.2-0.83-2.82-1.51-4.01-2.07c1.25,0.91,0.92,0.84,0.18,0.56c-0.73-0.3-1.84-0.89-2.14-0.96
							c-1.32-0.96,0.62-0.03,1.51,0.43c-1.03-0.81-1.99-2.08-2.91-2.1c0.19-0.31,3.54,1.28,5.6,2.33l-1.32-0.86
							c1.03,0.39,1.17,0.54,2.48,1.39c-1.16-1.04-0.85-1.25-0.41-1.31c0.14,0.15-0.14,0.02-0.01,0.17c1.01,0.74,1.9,1.08,1.75,0.76
							c0.61,0.03,0.28-0.24-0.28-0.6c-0.55-0.38-1.32-0.87-1.61-1.19c-0.55-0.3-1.12-0.57-1.65-0.9c-2.1-0.69-4.22-1.49-6.32-2.5
							c-1.18-0.87-1.96-1.58-2.58-2.37c-0.63-0.77-1.17-1.48-1.81-2.44l-0.75-0.17c-0.88-0.97-1.6-2.14-1.96-2.8
							c-0.36-0.69-0.32-0.94,0.42-0.41c-0.07,0.16,0.17,0.43,0.5,0.91c0.09,0.03,0.21,0.11,0.34,0.22c0.05,0.03,0.09,0.04,0.14,0.06
							c-0.45-0.55-0.86-1.05-1.23-1.49c-0.33-0.48-0.62-0.9-0.86-1.25c-0.47-0.71-0.76-1.12-0.79-1.2c1.54,2.01,1.76,1.9,1.71,1.42
							c-0.05-0.5-0.32-1.42,0.23-1.28c-0.47-0.64-0.84-1.37-1.22-2.08c-0.18-0.36-0.4-0.71-0.55-1.09l-0.46-1.16
							c0.73,2.97-0.36,0.2-0.8-0.84c0.17-0.2-0.04-1.21-0.31-2.41c-0.12-0.6-0.17-1.27-0.25-1.89c-0.03-0.31-0.06-0.62-0.08-0.9
							c0-0.28,0.02-0.54,0.04-0.77l0.08,0.14c0.16-1.69,0.65-4.57,1.29-6.52c-0.09,0.01-0.1-0.67,0.02-1.49
							c0.11-0.83,0.25-1.9,0.41-2.53c-0.51,0.72-0.74,1.25-0.93,1.5c-0.18,0.27-0.25,0.32-0.29,0.28c-0.07-0.09,0.03-0.57-0.16-0.49
							c0.19-0.34,0.49-0.97,0.48-1.06c0.14-0.53-0.48,0.56-0.65,0.61c-0.37,0.95-0.8,1.84-1.05,2.84c-0.27,0.97-0.56,1.89-0.65,2.81
							c-0.31,1.79-0.17,3.33,0.09,4.17c0.37-1.23-0.19-2.19,0.31-3.54c-0.01,2.03-0.28,4.66,0.31,7.97l-0.15,1.16
							c0.33,1.08,0.78,2.11,1.22,3.12c-0.35-0.6-0.51-0.7-0.77-1.04c-0.13-0.17-0.27-0.41-0.46-0.82c-0.09-0.2-0.2-0.45-0.31-0.76
							c-0.09-0.32-0.18-0.69-0.28-1.14c-0.12,0.26,0.04,1.18,0.47,2.21c0.2,0.52,0.42,1.09,0.64,1.66c0.26,0.53,0.51,1.07,0.71,1.57
							l0.91,0.76c-0.47-0.23,1.78,3.62-0.18,1.1c-0.52-0.68-0.95-1.49-1.39-2.27c-0.46-0.77-0.83-1.62-1.18-2.5l0.18,1.6
							c-0.28-0.75-0.55-1.51-0.81-2.27c-0.27-0.76-0.4-1.59-0.58-2.38l0.48,1.09c-0.23-0.95-0.42-1.71-0.48-2.32
							c-0.05-0.62-0.06-1.09-0.05-1.44c0.03-0.72,0.12-1.01,0.23-1.3c0.12-0.29,0.24-0.58,0.32-1.28c0.04-0.35,0.08-0.8,0.11-1.42
							c0.06-0.6,0.17-1.35,0.29-2.32c0-2.43,0.76-5.19,3.32-8.78c-1.56,2.82,0.19,0.51-0.14,1.72c0.91-1.34,1.5-2.15,1.91-2.92
							c0.4-0.78,0.69-1.37,1.13-2.04c0.76-0.37,1.3-0.61-0.5,1.39c0.29,0.69,2.22-2.77,2.93-2.38c1.51-1.53,2.55-2.56,3.33-3.47
							c0.78-0.91,1.35-1.59,1.96-2.34c1.23-1.43,2.73-2.93,7.08-4.88l-0.18,0.41c2.53-1.59,4.64-2.62,6.7-3.55
							c2.07-0.88,4.08-1.75,6.57-2.81c1.41-0.26,2.8-0.54,4.2-0.77c-0.86,0.4-3.03,1.78-1.82,1.69c-2.16,0-4.09,1.06-6.28,1.54
							c-0.14,0.26,0.75,0.02,1.15-0.01c-1.23,0.48-1.97,0.5-3.54,1.32c0.14,0.1,1.97-0.52,0.68,0.15c-0.79,0.18-1.58,0.38-2.37,0.61
							c-2.82,1.62-0.97,1.6-4.42,3.23c0.43-0.66,1.44-1.9,2.73-2.63c-1.61,0.69,1.99-1.23,0.45-0.75c-1.01,0.8-1.82,1.27-2.74,1.78
							c-0.46,0.25-0.94,0.52-1.49,0.82c-0.54,0.33-1.14,0.74-1.82,1.25c0.3-0.27,0.33-0.43,1.04-0.89l-2.2,1.17
							c-0.73,0.41-1.45,0.86-2.17,1.28c0.62-0.19-0.21,0.42-1.07,1.2c-0.86,0.78-1.77,1.64-1.43,1.69c2.21-1.56,2.98-2.07,3.83-2.65
							c0.84-0.6,1.79-1.19,4.43-2.56c-1.4,0.94-3.01,2.47-3.58,3.46c-0.05,0.01-0.13,0.05-0.29,0.14c-0.48,0.92,0.37,0.52,0.83,1.26
							c1.88-1.98,3.67-2.43,6.22-4.19c0.3-0.69-1.88,0.3-3.17,1.18c0.74-0.57,1.5-1.07,2.26-1.6l-0.37,0.45l1.55-0.79l1.57-0.72
							c1.05-0.49,2.1-0.96,3.16-1.39c-1.18,0.55-1.47,0.98-1.99,1.47c0.8-0.39,1.66-0.6,2.57-0.86c-0.36-0.34-0.38-0.68,0.41-1.03
							c4.11-1.65,6.56-2.04,8.25-2.1c0.15-0.07,0.33-0.14,0.47-0.2c-0.85-0.2,2.66-1.79,3.83-2.64c0.08,0.48,2.25-0.37,3.52-0.5
							c0.49-0.72-0.58-1.21-2.19-1.2c-2.71,1.35-1.46,0.96-2.57,2.08c-1.46,0.66-2.92,1.28-4.35,1.99l0.85-0.78
							c-2.31,0.62-4.25,1.98-4.29,1.4c1.04-0.85,3.09-1.31,4.14-2.11l-1.56,0.35c2.45-1.5,1.53,0.02,4.61-1.43
							c-1.33-0.07,0.28-0.15,1.56-0.88c-1.22,0.01-5.62,2-4.93,0.89c0.78-0.46,2.28-0.69,3.81-1.01c1.54-0.29,3.13-0.62,4.13-1.36
							l-0.08,0.12c3.33-0.81,4.37-1.6,5.55-2.18c1.48-0.08,3.35-0.95,4.89-1.3l0.02,0.24l2.15-0.58c-0.94,0.67-2.55,0.53-4.41,1.04
							l0.33,0.38c-2.27,0.02-3.51,1.12-5.06,1.96c2.3-1.04,6.82-1.58,7.2-2.55l1.6,0.11l0.68-0.32c1.19,0.09,0.15,0.86-1.98,1.44
							c-0.4-0.03-0.6-0.04-0.51-0.16c-0.96,0.41-1.79,0.97-4.23,1.46l1.23-0.55c-3.02,0.67-5.68,1.64-6.58,2.33
							c4.34-1.03,8.6-2.01,12.67-2.9c1-1.24,2.33-2.08,2.77-3.13c2.74-0.72,6.51-1.48,8.98-1.49l-0.19,0.22
							c1.19-0.08,2.27-0.31,3.17-0.52c1.28,0.08-0.79,0.61,0.1,0.63l3.95-0.83c-0.2,0.46-3.55,0.88-5.13,1.14
							c0.29-0.08,0.89-0.23,0.69-0.26c-1.88,0.1-5.21,1.32-6.11,0.87c-0.88,0.26,1.76-0.77-1.3-0.27c-2.08,0.12-2.65,0.78-2.83,1.01
							c0.01,0.23,3.25-0.23,2.18,0.25c1.58-0.29,2.15-0.75,4.22-0.81c-1.57,0.25-3.61,1.14-4.51,0.9c-3.02,0.99-2.35,2.06-0.9,1.83
							c-0.41-0.29,5.55-1.41,1.42-1.16c1.74-0.79,5.08-1.31,7.43-1.94l-0.1,0.11l2.96-0.51c-0.4,0.18-1.29,0.4-1.29,0.65l4.04-1.17
							c-2.27,0.7,1.48,0.14,2.55,0.22c0.4-0.42,1.99-0.86,0.42-0.91c-1.77-0.08-0.99,0.31-2.58,0.51l2.18-0.83l0.2,0.04l1.31-0.62
							c3.07-0.25-1.23,1.22,2.65,0.41l-0.57-0.6c4.57-0.36,10.47,0.07,13.67-0.37c-0.87,0.41-1.24,1.03-0.01,1.32
							c-1.39-0.03-4.16,0.09-6.14,0.29c-0.39-0.1,2.43-0.93,4.6-0.88c-0.55-0.51-1.9-0.28-3.15-0.06c-1.25,0.23-2.4,0.48-2.56-0.06
							c-2.77-0.01-3.77,0.34-4.67,0.65c-0.9,0.31-1.7,0.56-4.06,0.48c-0.02,0.49-1.3,0.38-1.5,0.83c1.45,0.62,6.2-0.65,9.25-0.57
							c-0.29,0.06-0.88,0.17-0.99,0.27c2.16,0,3.05-0.18,4.54-0.45L99,52.58c2.61-0.6,1.65,0.28,3.21,0.42
							c0.6-0.1,2.75-0.06,2.39-0.4l2.82,0.38l-0.15-0.54c1.58-0.07,1.94,0.26,3.36-0.08l0.06-0.48c-1.31-0.06-2.63-0.05-3.94-0.08
							c1.99-0.22,0.54-0.48,2.74-0.64c-2.44,0.59,1.74,0.23,1.99,0.7l1.61-0.29l-0.41,0.13c1.27,0.24,1.51-0.21,2.99-0.13
							c-1.74-0.28-2.89-0.59-5.11-0.23c1.61-0.28,4.83-0.63,5.62-0.62c1.71-0.18,2.89,0.19,4.48,0.27
							c-3.06,0.16,1.04,1.47-5.06,1.06c0.11-0.09,0.61-0.07,0.8-0.01c-0.81-0.64-3.66,0.05-4.98,0.3c0.34,0.35-1.03,0.45,1.31,0.63
							c-0.77-0.21,1.97-0.84,4.2-0.5l-0.4,0.76l3.23,0.12l-0.3,0.03c1.21,0.49,3.45,0,5.67,0.34c1.62-0.22,7.77,0.32,5.16-0.61
							c1.97,0.58,3.76,0.12,5.96,0.16l-2.7-0.5c3.27-0.32,2.31-0.04,4.97-0.68c0.24,0.23,0.8,0.45,0.26,0.62
							c2.17,0.19,4.79,0.55,7.19,0.79c2.4,0.28,4.59,0.46,5.9,0.33c3.04,0.5,3.38,1.42,7.69,1.82c0.91,0.06-0.57-0.84,2.21-0.1
							c0.18,0.09-2.81,0.03,0.33,0.58c2.35-0.16,5.16,1.36,8.15,1.54c1.47,0.58,4.12,1.15,3.46,1.46c-1.19-0.35-2.64-0.7-3.86-0.96
							c-1.23-0.23-2.23-0.37-2.51-0.32c0.39-0.2-1.66-0.64,0.17-0.46c-3.57-1.15-2.43-0.22-5.66-1.11
							c-0.26,0.14,1.59,0.83,2.32,0.81c-0.06,0.31-1.68,0.07-2.95-0.08c-1.27-0.15-2.18-0.18-0.79,0.44
							c3.47,0.73,4.78-0.37,7.66,0.96c-1.29,0.11-3.11-0.64-4.78-0.27c0.81,0.25,1.62,0.48,2.42,0.75l1.89-0.05l-0.13,0.07
							c2.12,0.75,3.15,0.86,4.17,0.82c1.01-0.03,2.01-0.21,3.99,0.18c-2.14-1.04,0.81-0.92-0.83-1.64c2.64,0.63,4.55,1.25,4.38,1.88
							c-5.01-0.88-0.47,0.55-5.12-0.07c0.68,0.42-1.29,0.61,1.34,1.4c3.12,0.38-0.76-0.75,2.29-0.14c0.16,0.1,0.33,0.21,0.2,0.27
							c1.46,0.1,1.56,0.59,3.33,0.74l-0.43,0c1.93,0.97,2.36,0.3,3.98,1.27c-0.55-0.67,1.3,0.01,2.48,0.15
							c-0.85-0.41-1.46-0.85-2.31-1.32c-0.85-0.46-1.92-1.03-3.7-1.54c-0.54,0.23-0.34,0.5-1.84,0.24l2.31,0.65
							c-0.51-0.09-0.92-0.11-1.4-0.18l-2.15-0.85c2.87,0.59,1.7-0.18,3.01-0.19c2.53,0.93,2.15,0.58,3.73,1.22
							c-0.33,0.45,4.62,2.54,7.34,4.09c-0.44-0.19-1.02-0.43-1.33-0.56c-2.21-0.52,1.27,1,1.28,1.17c0.54,0.11,1.08,0.24,1.61,0.38
							c-0.3-0.09-0.74-0.15-0.13,0.21c2.06,0.82,2.19,0.22,4.24,1.12c0.02,0.34-1.87-0.07-0.69,0.68c0.31,0.46,1.38,1.68,4.07,2.86
							c0.24,0,0.95,0.29,1.73,0.72c-0.11-0.05-0.25-0.12-0.31-0.13l1.51,1.28c-0.85-0.21-1.53-0.69-2.23-1.17
							c-0.71-0.45-1.42-0.9-2.27-1.07l-0.35,0.36c-1.13-0.61-2.8-1.15-3.62-1.28c1.7,0.94,2.15,0.94,4.11,1.91
							c0.12,0.41-1.33-0.11-1.54-0.18l0.41-0.09c-2.14-1.53-3.67-1.3-6.56-2.66c-0.44-0.21-0.15-0.13-0.02-0.17
							c-1.29-0.28-2.47-0.79-3.64-1.29c-1.19-0.46-2.38-0.9-3.66-1.04l0.86,0.04c-1.68-0.39-5.02-0.99-8.34-1.48l-0.08,0.17
							c0.32,0.21-0.87-0.15-1.5-0.39l0,0c-1.67-0.21-3.26-0.44-4.57-0.58c0.38,0.21,0.87,0.43,1.46,0.61
							c0.56-0.08,3.44,0.9,3.18,0.3c1.28,0.66,3.56,0.92,4.5,1.39c-1.7-0.86,1.4-0.07,1.79-0.21c0.5,0.5,2.67,0.86,2.29,1.19
							c0.32,0.22-0.79-0.56-1.63-0.57c-2-0.24,3.31,1.47,0.86,1.06c3.04,0.75,6.84,2.3,9.9,3.3l-1.58-0.89
							c0.64,0.32,1.75,0.79,2.71,1.24c0.94,0.47,1.75,0.89,1.82,1.04c-0.98-0.42-2.08-0.98-3.36-1.43
							c-0.13,0.21,0.62,0.53,1.39,0.86c0.76,0.35,1.56,0.68,1.56,0.85c1.3,0.31,2.57,0.72,3.86,1.1l-1.51-0.84
							c1.1,0.25,4.13,2.28,6.26,3.87c-0.83-0.14-1.63-0.72-2.62-1.33c-0.49-0.32-1.01-0.66-1.55-1.01
							c-0.56-0.33-1.17-0.64-1.82-0.91c-1.9-0.74,0.8,1.16-0.96,0.39c0.36,0.37,1.46,0.94,2.09,1.09c0.2,0.15,0.39,0.32,0.59,0.48
							c-0.87-0.18-2.15-0.7-3.49-1.31c-1.38-0.54-2.82-1.19-4.1-1.45c0.23,0.03,0.44,0.05,0.53,0.01c-0.84-0.5-1.72-0.95-2.61-1.35
							c-0.91-0.37-1.83-0.7-2.74-0.98c0.87,0.55,1.28,0.58,1.85,0.73c0.01,0.16-1.69-0.45-2.38-0.55c1.58,0.82,0.18,0.45,1.18,0.96
							c-1.12-0.3-1.96-0.68-3.27-1.21c-0.61-0.46,0.67-0.09,0.64-0.42c-1.43-0.32-1.8-1.25-3.95-1.59c2.65,1.01-0.92,0.38-1.9,0.27
							l0.44,0.17c-0.95,0.04-1.69-0.15-2.18-0.64c1.15,0.19,2.19,0.63,1.98,0.19c-0.73-0.23-1.47-0.42-2.33-0.57l0.83-0.02
							c-1.23-0.33-2.44-0.71-3.68-1c-0.67,0.14-1.76,0.31-2.38,0.61c-0.8-0.53-2.1-0.59-2.96-0.69l0.42-0.03
							c-1.56-0.69-5.26-1.28-5.62-1.06c-1.14-0.51,8.7,0.13,0.32-1.47c-3.17-0.68-2.16,0.46-4.02,0.39c0,0,0.12-0.07-0.05-0.16
							c-1.38-0.33-1.57-0.04-2.74-0.1c0.81,0.27,2.01,0.52,2.42,0.47c-0.48,0.27-2.88-0.58-4-0.46c1.48-0.32-2.65-0.68-1.53-0.78
							c-2.72-0.8-5.77-0.8-7.29-0.55c-1.8-0.97-3.33-0.33-6.38-0.98c0.47,0.07,1.34,0.06,2,0.21c1.81-0.26-3.17-0.58-0.42-0.7
							c-0.59,0.01-0.07,0.24,0.54,0.23c1.05,0.06,2.05-0.03,1.81-0.26l-2.48-0.67l0.89-0.01c-1.26-0.32-2.52-0.66-3.79-0.96
							c-0.11,0.08,0.24,0.23,0.42,0.3c-4.44-0.66-9.59-0.73-13.51-0.96c-0.4,0.61-2.81,0.66-5.53,0.66c-2.72,0.01-5.74,0-7.32,0.41
							c0.85-0.38,1.31-1.03,0.79-1.29c0.71-0.05,2.16-0.55,3.77-0.43c0.26,0.21,2.24,0.46,0.95,0.68c4.44-0.04-0.59-0.59,0.73-1.03
							c-4.94,0.05-7.83,0.84-10.92,1.19l-0.08-0.15l-2.33,0.35c1.91,0.03,1.84,0.76-0.63,0.58l0.3-0.04
							c-1.41-0.28-4.32,0.22-6.51,0.28c-0.49,0.16-0.97,0.33-1.46,0.51c-2.19,0.1-2.34-0.67-3.08-1.09
							c-3.45,0.21-5.38,1.02-7.76,1.66c-0.57-0.11-2.13-0.05-3.22-0.04c-1.09,0.02-1.71-0.02-0.38-0.4
							c-3.05,0.72-2.18,2.37-7.56,2.17l1.31-0.53c-5.02,0.79-11.97,2.81-14.29,3.03c1.56-1.59-6.43,0.24-7.59-0.57
							c0.31,0.19-1.51,0.78-1.74,0.99c-0.44-0.03-1.15,0.04-1.79,0.49c1.96-0.33-1,1.52,2.5,0.05c-0.82,0.62-1.76,1.27-3,1.91
							c-1.24,0.62-2.75,1.27-4.71,1.9l-0.1-0.48l3.15-0.89c-0.43-0.24,1.2-0.71,1.82-1.06c-2.97,0.74-2.86,0.45-2.76,0.16
							c0.1-0.29,0.2-0.53-2.78,0.49c-0.47,0.49-0.15,0.23-1.64,0.91c0.71-0.28,0.73-0.64-0.43-0.22l-0.98,0.77
							c-2.35,0,3.23-1.74,1.28-1.63c2.16-1.2,6.17-2.66,5.23-3c-3.91,1.02-3.1,2.17-7.11,3.34l-0.51-0.09
							c-1.31,0.69-1.37,1.19-2.01,1.72c-0.12-0.11-0.51-0.08-1.4,0.23c-2.02,1.55-3.45,2.32-5.15,3.93
							c2.54-1.55,3.79-1.92,5.02-2.34c0.61-0.22,1.26-0.38,2.08-0.7c0.82-0.31,1.83-0.76,3.26-1.38c-0.86,0.49-4.83,2.25-4.8,2.98
							l-0.14-0.47c-0.86,0.52-1.72,1.03-2.65,1.53c-0.91,0.53-1.9,1.03-3.05,1.51l1.24-0.91c-2.79,1.73-5.19,1.9-6.93,3.95
							c0.76-0.46,1.41-0.82,1.84-1.18c-0.66,0.52-1.45,1.02-2.22,1.57c-0.79,0.53-1.61,1.03-2.33,1.54c-0.4,0.48-0.83,0.93-1.2,1.42
							l-1.09,1.45c-0.17-0.23-1.74,1.31-1.25,0.29c-0.51,0.38-0.94,0.74-1.26,1.1c-0.3,0.37-0.54,0.73-0.74,1.07
							c-0.43,0.67-0.58,1.31-0.95,1.88c-1.81,1.66,0.98-1.83,0.79-2.42c-1.29,1.23-2.26,2.72-2.93,4.09
							c-0.6,1.39-0.87,2.65-0.81,3.51c0.18-0.57,0.42-0.82,0.51-0.76c-0.23,0.04-0.4,1.21-0.54,1.84l0.29,0.47
							c-0.29,1.02-0.46,0.91-0.63-0.05c-0.03,0.26-0.02,0.54-0.01,0.82c0.01,0.28,0.13,0.57,0.18,0.85
							c0.07,0.28,0.09,0.57,0.13,0.85c0.05,0.28,0.06,0.56,0,0.85c-0.17-0.43-0.37-0.9-0.38-1.38c-0.04-0.48-0.14-0.98-0.06-1.44
							c0.05-0.46,0.03-0.9,0.11-1.28c0.07-0.38,0.11-0.7,0.1-0.95c-0.04,0.49-0.15,0.9-0.19,1.27c-0.02,0.38-0.07,0.71-0.12,1.01
							c-0.08,0.31-0.1,0.59-0.12,0.87c-0.04,0.28-0.08,0.56-0.11,0.84c-0.03,1.12-0.14,2.54,1.3,4.89c-0.1,0.14-0.76-0.58-0.31,0.39
							c1.41,2.1,0.9,0.23,1.59,0.71c-0.28-0.37-0.51-0.7-0.7-1.01c-0.2-0.3-0.27-0.6-0.37-0.87c-0.17-0.54-0.26-1.02-0.19-1.55
							l0.37,0.34c-0.12,0.11,0.36,1.09,0.37,1.45l0.57,0.01c-0.29,0.08-0.29,0.55-0.1,1.16c0.11,0.3,0.21,0.66,0.43,0.98
							c0.22,0.32,0.47,0.64,0.73,0.91c-0.55-1.46-0.35-1.11-0.02-1.8c0.84,0.63,1.03,1.16,1.3,1.73c0.32,0.54,0.59,1.17,1.68,1.78
							c-0.3,0.03-1.75-1.43-0.67,0c1.08,1.07,1.23,0.62,2.07,1.2c-1.16-0.43-1.17,0.03-2.5-0.45c-0.97-0.97-1.11-1.2-1.31-1.38
							c-0.2-0.19-0.41-0.35-1.25-1.34l0.5,1.02c0.18,0.34,0.4,0.66,0.59,0.99c-0.83-0.84-1.14-1.12-1.37-1.15
							c-0.21-0.04-0.28,0.15-0.41,0.13c0.48,0.91,0.99,1.43,1.36,1.8c0.39,0.36,0.67,0.56,0.98,0.69c0.6,0.25,1.06,0.35,1.99,1.3
							c0.61,0.29,0.12-0.11-0.24-0.5c-0.36-0.38-0.66-0.7,0.16-0.14c1.83,1.66,0.61,0.16,2.89,1.74l-0.51-0.11
							c0.52,0.73,1.4,0.98,2.23,1.51c1,0.47-0.07-2.01,3.65,0.35c-0.26,0-0.37,0.03-0.4,0.08c-1.92,0.35-3.94,0.68-5.95,0.81
							c3.83,2.89,8.7,5.67,13.77,8.18c0.45,0.63-0.54,0.37-1.63,0.01c-1.09-0.36-2.24-0.89-2.16-0.65
							c-0.75-0.43-1.52-0.84-2.25-1.31c0.26-0.18,4.93,2.3,3.07,0.76c-4.21-1.79-5.81-3.12-9.79-4.95c0.66,1.46,4.89,2.96,7.13,4.77
							c-1.03-0.61-1.96-1.01-2.87-1.38c2.3,1.37,4.79,2.81,7.55,4.12l0.7,0.1c-0.92-0.46-1.7-0.84-2.26-1.13
							c-0.56-0.31-0.91-0.5-0.98-0.56c2.43,1.24,4.71,1.72,5.1,1.25l-0.44-0.2l0.97,0.2C39.97,122.76,40.54,123.03,41.11,123.29z
							 M210.03,111.36c-0.09,0.15-0.14,0.28-0.16,0.4C209.89,111.64,209.77,111.67,210.03,111.36z M13.31,86.05
							c-0.5,0.81-1.06,1.58-1.46,2.46c-0.21,0.43-0.44,0.86-0.64,1.29l-0.5,1.36l-0.25,0.68l-0.17,0.71
							c-0.11,0.47-0.21,0.94-0.32,1.41c-0.06,0.48-0.1,0.96-0.14,1.44c-0.05,0.48-0.09,0.95-0.05,1.43c0.42-3.49,2-5.9,2.48-6.3
							c0.26-0.21,0.31,0.07,0.11,0.99c-0.06,0.23-0.12,0.5-0.2,0.81c-0.05,0.32-0.11,0.69-0.17,1.11c-0.18,0.82-0.22,1.87-0.25,3.13
							l0.13,0.65c-0.03-1.32,0.2-3.56,0.78-5.61c0.06-0.43,0.04-1.15,0.23-1.93c0.08-0.4,0.16-0.83,0.24-1.26
							c0.08-0.44,0.24-0.85,0.35-1.28c0.13-0.42,0.25-0.84,0.36-1.21c0.14-0.36,0.27-0.7,0.38-0.98c0.22-0.57,0.34-0.94,0.31-0.94
							c-0.33,0.17-0.57,0.51-0.82,0.92c-0.13,0.2-0.26,0.42-0.41,0.65c-0.13,0.24-0.28,0.49-0.46,0.74L13.31,86.05z M16.37,85.06
							c1.39-1.43,0.92-1.24,0.95-1.63c-0.44,0.56-0.93,1.08-1.31,1.67C16.22,84.91,16.36,84.86,16.37,85.06z M17.07,83.36
							c-0.16,0.17-0.29,0.31-0.38,0.36L17.07,83.36z M25.1,116.22c-0.08-0.05-0.11-0.06-0.18-0.11c0.39,0.28,0.79,0.57,1.2,0.86
							C25.97,116.84,25.67,116.6,25.1,116.22z M22.05,113.36l-0.64,0.03c0.35,0.28,0.71,0.57,1.07,0.87
							C22.47,114.02,22.44,113.79,22.05,113.36z M14.71,102.91c-0.19-0.12-0.41-0.35-0.63-0.64c-0.11-0.15-0.23-0.31-0.34-0.46
							c-0.09-0.17-0.19-0.34-0.28-0.51c-0.36-0.68-0.76-1.31-1.03-1.32c-0.09-0.07-0.13,0.04-0.11,0.25c0.03,0.2,0.1,0.5,0.18,0.81
							c0.11,0.35,0.22,0.7,0.33,1.07c0.16,0.35,0.31,0.72,0.48,1.1c0.09-0.01,0.23,0.1,0.41,0.32c-0.27-0.76-0.37-1.29,0.09-1.15
							c0.08,1.07,0.37,1.45,0.82,1.74c0.45,0.3,0.88,0.59,1.42,1.52C16.73,105.96,15.05,103.44,14.71,102.91z M165.94,61.96
							c0.05,0.06,0.25,0.24,0.52,0.46l-1.64-0.07c-2.8-0.7-4.93-1.97-7.63-1.69c-1.17-0.38-1.75-0.88-2.32-1.27
							c0.59,0.11,1.14,0.24,1.59,0.37c3.7,0.1,4.6,0.56,5.3,1.03C162.46,61.26,162.99,61.67,165.94,61.96z M133.02,56.42
							c0.3-0.02,0.42-0.1,0.42-0.1c-6.56,0.62-11.88,0.78-15.37,0.72c0.34,0.21,1.28,0.41,2.33,0.58c1.05,0.19,2.19,0.34,2.93,0.45
							l-1.32,0.44l-0.81-0.4c-0.76,0.12-1.52,0.26-2.28,0.4c0.63,0.32,2.47,0.29,3.69,0.58c0.11-0.09,4.05-0.53,5.17-0.75
							c-1.04-0.16-2.09-0.33-3.13-0.47c0.85,0.14,5.02,0.25,6.69,0.22c0.05-0.25-2.79-0.76-3.18-0.26c-0.32-0.37,2.97-0.22,0.91-0.7
							c1.25-0.14,2.85-0.05,4.37,0.11c1.52,0.15,2.95,0.38,3.85,0.56l0.26,0.62c1.97,0.41,1.41-0.61,3.75-0.04
							c-2.92-0.16,0.43,0.69-1.89,0.53c0.72,0.3-0.04,0.61,2.27,0.81c2-0.58,2.38,0.75,4.27,0.27c1.18,0.4-1.36,0.3,1.01,0.72
							c2.78-0.06,2.66-0.38,2.91-0.92c-2.54-0.48-2.97,0.35-5.04-0.02c1.43-0.18,2.85-0.3,4.29-0.46c-0.75-0.24-1.32-0.33-1.8-0.35
							c0.85,0.05,1.58,0,2.22-0.12c0.36-0.07,0.7-0.12,1.01-0.17c-2.37-0.31-4.48-0.6-4.82-0.89l0.36-0.24
							c-0.81-0.35-2.21-0.3-2.87-0.16c-2.14-0.22-4.31,0-4.74-0.41l0.83-0.18C136.63,56.64,136.34,56.62,133.02,56.42z M47.24,64.76
							c0.92,0.23,1.87,0.43,3.47,0.3c1.6-0.14,3.84-0.61,7.42-1.61l-0.55,0.21c3.77-0.28,6.91-2.54,11.54-2.69
							c-2.09,0.81-1.99,0.73-4.18,2.1c0.75-0.27,1.5-0.51,2.25-0.76c-0.53,0.68,1.72-0.07,3.42-0.36l-1.37,0.94
							c-1.05,0.02-3.7,0.45-3.59,0.6c0.57-0.18-3.65-0.1-5.79,0.66c0.33,0.35,4.91-0.86,3,0.32c1.75-0.69,2.07-0.33,3.94-0.87
							c-1.77,0.67-0.33,0.69-1.61,1.3c1.02-0.29,2.05-0.53,3.08-0.78c0.06,0.07-1.06,0.37-1.86,0.66c-0.79,0.31-1.27,0.6,0.06,0.59
							c1.2-0.47,4.57-0.84,4.55-1.32l0.1,0.13c2.36-0.3,0.91-0.85,3.84-1.08c-0.01-0.25-0.58-0.32-1.61-0.09
							c-0.86,0.26-0.93,0.61-2.72,0.99c-0.87-0.23,2.18-0.33,0.81-0.74c-0.69-0.23-4.68,1.19-3.51,0.22l2.36-0.36
							c-0.03-0.5,1.68-0.76,1.57-1.14c1.42-0.42,2.86-0.14,4.28-0.77c0.57-0.4-0.6-0.82,1.9-0.94c2.02,0.39,7.66-0.44,9.78-0.75
							c0.61-0.17,1.22-0.35,1.83-0.5c-0.19-0.3-3.56,0.42-2.4-0.1c0.97-0.14,1.93-0.3,2.9-0.41l-0.21,0.21
							c0.97-0.04,1.94-0.33,2.81-0.51c-0.88,0.43-2.99,0.47-2.53,0.94c1.38-0.02,1.6,0.15,2.85-0.06c-0.27,0.06-0.5,0.13-0.46,0.2
							c2.78-0.04,2.63-0.76,3.31-0.99c2.75-0.84-2.86-0.43-2.55-0.94c2.72-0.29,5.44-0.6,8.17-0.8c-0.69,0.2-1.39,0.39-1.11,0.59
							c2.02,0.14,0.07,0.39,2.88,0.23c-0.23-0.7,3.53-0.56,5.52-1.01c0.94,0.26,1.13,0.31-0.91,0.37c0.24,0.43,2.97,0.2,3.94,0.24
							c0.56-0.12,1.52-0.19,2.13-0.3c-0.82-0.21-0.47-0.5,1.3-0.7l0.1-0.09c-2.9-0.12-7.43-0.54-9.24,0l0.51-0.24
							c-1.69-0.16-3.51,0.13-5.1,0.35c-1.59,0.22-2.96,0.38-3.76,0.02c0.12-0.34-0.68-0.03-0.65-0.52l-2.45,0.55l0.5-0.25
							c-1.4,0.12-2.8,0.3-4.2,0.46l0.1-0.1c-1.96,0.6-3.48,1.13-4.69,1.56c0.02,0.21,0.15,0.26-0.49,0.49
							c-0.65,0.18-1.15,0.25-1.6,0.27l0,0l0,0c-1.03,0.06-1.75-0.14-3.02-0.1c1.29-0.18,2.58-0.39,3.87-0.53
							c0.28-0.38-0.1-0.74-2.04-0.75c0.78-0.11,1.07-0.43,0.1-0.35c-0.1,0.11-2.52,0.56-1.56,0.72c-3.67,0.58-9.81,0.56-15.24,2.37
							c3.92-1.19-3.3,0.16,1.11-0.86c-3.22,0.04-2.56,1.09-5.72,1.69c-0.31-0.14,1.72-0.35,2.35-0.91
							c-5.31,0.9-8.59,2.95-13.59,4.25l-0.34-0.36C49.32,63.96,48.3,64.33,47.24,64.76z M37.82,68.84c-0.89,0.45-1.79,0.9-2.71,1.37
							c0.09-0.04,0.18-0.07,0.28-0.11c-0.87,0.5-1.7,1.07-2.54,1.61c1.73-0.65,3-0.72,0.82,0.6c0.11-0.26-0.66-0.14,0.09-0.62
							c-1.67,0.46-5.1,2.06-3.91,2.18c2.6-2.1,1.06,0.36,3.13-1.2c-1.05,0.98-2.31,1.49-3.36,2.26c1.01-0.96-0.69-0.6-2.53,0.33
							c-0.36,0.27-1.06,0.7-1.79,1.22c-0.74,0.51-1.55,1.05-2.07,1.58c0.67,0.04-0.24,0.94,1.77-0.33
							c-0.68,0.55-1.67,1.45-3.01,2.18c0.42-0.42,1.24-1.08,1.09-1.16c-0.5,0.14-0.99,0.39-1.42,0.63
							c-0.41,0.27-0.78,0.53-1.07,0.67c-0.37,0.35-0.76,0.69-1.11,1.04c0.13-0.08,0.26-0.12,0.37-0.14
							c-0.34,0.46-0.64,0.95-0.96,1.42c1.45-1.68,0.86-0.57,1.01-0.37c-0.29-0.39-1.06,0.94-1.57,1.47l1.52-0.77
							c-0.19,0.36-0.75,0.77-1.17,1.1c-0.4,0.36-0.67,0.63-0.35,0.65c0.57-0.61,1.14-1.06,1.61-1.5c0.47-0.44,0.89-0.84,1.33-1.2
							c0.43-0.37,0.84-0.75,1.29-1.16c0.47-0.39,0.98-0.82,1.58-1.31l-1.25,0.44c1.33-1.18,1.87-1.36,2.49-1.52
							c0.63-0.14,1.25-0.37,2.95-1.38c1.2-1.21,5.2-2.93,4.97-3.58c-0.34,0.43,2.51-0.55,3.65-1.36c1.1-1.27,5.4-3.05,3.98-2.81
							c-1.17,0.46-2.6,1.41-3.69,1.45c0.72-0.38,1.45-0.74,2.2-1.08c-0.54,0.09-1.09,0.16-1.62,0.28
							C38.59,69.47,38.39,69.19,37.82,68.84z M13.6,112.8c0.02,0.03,0.04,0.06,0.07,0.09l-0.08-0.09L13.6,112.8z"/>
						<path class="st22" d="M200.73,72.51c0.72,0.17,2.23,1.12,2.11,0.63c-0.08,0.19-0.76-0.23-1.36-0.53
							C200.88,72.31,200.38,72.08,200.73,72.51z"/>
						<path class="st22" d="M202.38,73.89c0.15-0.02,0.16-0.19,0.84,0.21c-0.65-0.34-1.28-0.7-1.93-1.02
							C201.66,73.32,202.02,73.61,202.38,73.89z"/>
						<path class="st22" d="M202.85,77.28c1.04,0.36,1.74,0.57,3.09,1.59c-0.04,0.59-0.6,0.19-1.36-0.22
							c-0.75-0.43-1.64-0.96-2.19-0.8c2.49,1.75,3.74,1.61,5.76,3.15c-0.32-0.58-1.53-1.65-2.69-2.54
							C204.24,77.63,203.08,77,202.85,77.28z"/>
						<path class="st22" d="M201.04,77.6c0.52,0.24,1.06,0.44,1.56,0.7l-0.11-0.14c-0.51-0.25-1.05-0.47-1.57-0.7L201.04,77.6z"/>
						<path class="st22" d="M167.77,56.7c-0.1-0.33-1.27-0.28-1.88-0.35C166.37,56.48,167.03,56.71,167.77,56.7z"/>
						<path class="st22" d="M176.08,134.09c4.48-1.3,8.93-2.78,13.31-4.54C185.61,131.05,182.07,132.26,176.08,134.09z"/>
						<path class="st22" d="M122.13,53.35c3.69-0.19,5.35-0.61,9.12-0.55c-2.46-0.43-4.11-0.27-5.65-0.11
							c-1.54,0.19-2.98,0.38-5.05,0.01L122.13,53.35z"/>
						<path class="st22" d="M123.5,51.01c0.6,0.58-2.88,0.57-2.35,1c2.5-0.06,1.18-0.5,3.44-0.39L123.5,51.01z"/>
						<polygon class="st22" points="139.44,61.28 138.33,61.48 139.21,61.45 						"/>
						<polygon class="st22" points="106.59,51.51 106.99,51.37 105.13,51.25 						"/>
						<path class="st22" d="M107.4,51.23l-0.41,0.14L107.4,51.23z"/>
						<polygon class="st22" points="137.94,62.36 139.54,62.62 140.35,62.43 						"/>
						<path class="st22" d="M123.86,58.5l1.46-0.14C125.04,58.39,123.05,58.1,123.86,58.5z"/>
						<polygon class="st22" points="95.22,51.85 93.42,52.19 93.61,52.23 95.41,51.89 						"/>
						<path class="st22" d="M112.47,59.92c1,0.42-2.89,0.14-0.83,0.51C113.47,60.34,112.73,60.12,112.47,59.92z"/>
						<path class="st22" d="M90.97,58.05c-0.24,0.02-0.49,0.06-0.73,0.13C90.53,58.13,90.77,58.08,90.97,58.05z"/>
						<path class="st22" d="M90.97,58.05c0.77-0.07,1.56,0.03,2.08-0.14C92.07,57.8,91.73,57.9,90.97,58.05z"/>
						<path class="st22" d="M82.15,59.11l0.7-0.06c-0.69,0.3-0.35,0.23,0.26-0.02c0.74-0.11,0.68-0.24,0.76-0.34
							c0.14-0.07,0.28-0.14,0.44-0.22c-0.22,0.08-0.42,0.16-0.59,0.23C82.57,58.84,81.87,58.95,82.15,59.11z"/>
						<path class="st22" d="M47.75,58.94c2.65-0.63,3.34-0.76,3.29-0.39c2.5-0.58,1.96-1.02,3.43-1.56
							C51.68,57.81,51.06,57.81,47.75,58.94z"/>
						<path class="st22" d="M54.47,56.99c0.31-0.09,0.61-0.18,0.97-0.29C55.03,56.79,54.74,56.89,54.47,56.99z"/>
						<polygon class="st22" points="92.79,61.67 91.25,62.32 91.82,62.19 						"/>
						<path class="st22" d="M43.85,60.04c0.49-0.14,1.25-0.41,1.67-0.43C45.55,59.24,43.36,60.18,43.85,60.04z"/>
						<path class="st22" d="M55.59,63.34c0.31,0.12,1.89-0.43,2.57-0.5C57.21,63.03,56.28,62.63,55.59,63.34z"/>
						<path class="st22" d="M36.98,64.08c0.48-0.17,1.28-0.25,1.07,0.13C38.67,63.79,39.38,62.87,36.98,64.08z"/>
						<polygon class="st22" points="50.99,64.59 51.38,64.59 53.03,63.87 						"/>
						<path class="st22" d="M58.36,67.66c1.8-0.87-3.25-0.15-0.06-1.33c-4.32,0.72,0.46,0.45-2.65,1.23
							C57.49,67.2,58.5,67.45,58.36,67.66z"/>
						<path class="st22" d="M55.64,67.56c-0.27,0.05-0.56,0.12-0.87,0.2C55.12,67.69,55.4,67.62,55.64,67.56z"/>
						<path class="st22" d="M29.11,75.37c0.23-0.18,0.37-0.33,0.5-0.45C29.43,75.05,29.28,75.2,29.11,75.37z"/>
						<path class="st22" d="M46,70.91c0.84-0.53,1.71-1,2.57-1.5c-1.75,0.95-6.33,2.64-5.82,3.1c1.51-0.45,3.24-1.23,3.89-1.75
							L46,70.91z"/>
						<path class="st22" d="M10.28,80.67c0.26-0.5,0.55-0.94,0.84-1.39l-0.68,0.73l-0.65,0.8C10.22,80.39,9.93,81.51,10.28,80.67z"
							/>
						<path class="st22" d="M9.55,81.12l0.25-0.31C9.73,80.87,9.65,80.97,9.55,81.12z"/>
						<path class="st22" d="M33.93,72.5c0.88-0.39,1.56-0.74,2.32-1.18C35.87,71.35,33.66,72.3,33.93,72.5z"/>
						<path class="st22" d="M5.86,91.71c0.13-0.98,0.42-1.88,0.69-2.8l-0.47,1.5c-0.15,0.5-0.22,1.04-0.33,1.56L5.86,91.71z"/>
						<path class="st22" d="M6.26,105.4l0.11,0.5c0.42,0.68,0.78,1.43,1.26,2.04l-0.15-0.47C7.06,106.8,6.66,106.1,6.26,105.4z"/>
						<path class="st22" d="M17,91.86c0.27-0.48,0.36-0.96,0.37-1.32c0.02-0.35-0.02-0.56-0.16-0.46c-0.2,0.32-0.31,0.67-0.47,1
							c-0.14,0.33-0.34,0.66-0.42,1c0.59-0.34,0.23-0.55,0.85-1.66L17,91.86z"/>
						<path class="st22" d="M76.65,139.25c-0.69,0.21-3.79-0.43-3.9-0.78c0.44-0.04,2.15,0.09,1.12-0.26l-2.59,0.34
							c-3.19-1.06,2.66-0.53,4.32-0.6c-1.66-0.29-2.75-0.38-3.88-0.46c-1.12-0.09-2.28-0.13-4.05-0.49
							c1.03,0.28,1.66,0.59,2.18,0.84c0.02,0.58-3.24-0.3-5.61-0.73c1.46,0.52,0.55,0.56-0.59,0.53c-0.2-0.03-0.34-0.03-0.44-0.01
							c-0.13,0-0.26,0-0.39-0.01l0.28,0.06c-0.03,0.06,0.01,0.14,0.2,0.28c2.02,0.27,3.46,0.99,4.74,1.26
							c-1.11-1.09,4.41,0.59,6.08,0.57l1.88,0.2l0.7,0.1c0.13,0.12-0.09,0.21-1.18,0.22c0.92-0.03,3.88,0.47,3.64,0.13
							c2.26,0.29,4.52,0.59,6.79,0.81c0.21,0.06,0.41,0.13,0.56,0.21c0.24-0.03,0.29-0.07,0.26-0.12
							c9.87,1.02,19.77,1.46,29.65,1.39c-1.46-0.04-2.73-0.27-4.23-0.38c2.27-0.56-2.47-0.13-1.8-0.68c1.02-0.19,2.5-0.11,3.38,0.03
							c0.33-0.28-0.93-0.54-0.78-0.87c-3.71-0.38-4.3,0.93-7.95,0.62c0.16-0.33,1.29-0.59-1.09-0.62l0.61-0.05
							c-3.83,0.2-2.93-0.9-5.37-0.09l0.09-0.48c-1.74,0.25-5.11,0.05-7-0.07l0.12-0.08c-5.36,0.08-2.99-0.13-8.97-0.55l2.8-0.26
							c-2.02-0.46-2.56,0.11-4.02-0.15c0.12-0.08-0.18-0.47,1.22-0.38c-2.43-0.03-4.87-0.03-7.32-0.13
							C74.34,138.7,76.41,139.01,76.65,139.25z"/>
						<path class="st22" d="M67.66,137c-0.37-0.1-0.8-0.19-1.31-0.28C66.84,136.83,67.26,136.91,67.66,137z"/>
						<path class="st22" d="M118.51,142.71l-2.08,0.02C117.07,142.76,117.74,142.76,118.51,142.71z"/>
						<path class="st22" d="M57.17,135.78c1.18,0.55-1.01,0.11-1.28,0.24c1.49,0.35,2.97,0.74,4.46,1.07
							c0.02-0.19,0.51-0.29,0.46-0.48C59.6,136.37,58.39,136.06,57.17,135.78z"/>
						<path class="st22" d="M61.58,137.72c0.18-0.09,0.68-0.1,1.23-0.09l-2.45-0.53C60.34,137.23,60.59,137.41,61.58,137.72z"/>
						<polygon class="st22" points="63.28,127.91 64.03,128.06 65.2,128.17 						"/>
						<path class="st22" d="M74.99,131c-0.87-0.43-2.63-0.52-3.22-0.55C73.77,130.78,72.88,130.74,74.99,131z"/>
						<polygon class="st22" points="73.05,127.59 74.97,127.76 74.8,127.68 						"/>
						<path class="st22" d="M133.78,140.19c0.33-0.03,0.64-0.07,0.98-0.1C134.3,140.13,134.01,140.16,133.78,140.19z"/>
						<path class="st22" d="M116.6,141.29c4.8,0.5-3.14,0.48-1.63,1.16l2.61-0.25l-0.22,0.19l3.19-0.09
							c-0.66-0.31-1.15-0.33-1.01-0.66c4.25,0.04,1.35,0.37,4.48,0.71c1.59-0.05,3.17-0.16,4.76-0.26l-0.38,0.12
							c0.4-0.03,0.58-0.08,0.71-0.14c5.34-0.35,10.67-0.82,15.99-1.51c2.87-0.58-1.67-0.42,0.41-1.15c-3.36,0.4-8.37,0.47-8.61,1.16
							c0.11-0.1,0.31-0.31-0.37-0.32l-1.9,0.69l1.87,0.05c-0.96,0.34-3.03,0.59-5,0.72c-1.97,0.1-3.85,0.07-4.43-0.07
							c3.59-0.38,1.75-0.88,6.78-0.87c-0.24-0.15-1.17-0.39-0.05-0.56C127.93,140.78,122.67,140.69,116.6,141.29z"/>
						<path class="st22" d="M175.06,133.83l-0.03,0.07C175.12,133.84,175.15,133.8,175.06,133.83z"/>
						<path class="st22" d="M173.11,134.24l-2.65,1.33l4.37-1.14l0.2-0.53c-0.35,0.23-1.83,0.83-2.47,0.8L173.11,134.24z"/>
						<path class="st22" d="M167.26,136.68c2.24-0.69,1.99-1.19,0.7-1.16c2.02-0.71,1.23,0.34,2.53-0.56
							c-0.13-0.35-2.64,0.43-3.22,0.63L167.26,136.68z"/>
						<polygon class="st22" points="150.33,139.35 150.95,139.04 149.35,139.19 						"/>
						<path class="st22" d="M150.95,139.04c0.53-0.04,1.06-0.11,1.58-0.17c-0.13-0.15-0.26-0.29-0.54-0.37L150.95,139.04z"/>
						<path class="st22" d="M156.69,138.4c0.67-0.07,1.41-0.17,2.31-0.31L156.69,138.4z"/>
						<path class="st22" d="M154.87,138.54l0.06,0.06c0.59-0.07,1.17-0.12,1.76-0.21C156.04,138.47,155.45,138.5,154.87,138.54z"/>
						<path class="st22" d="M152.53,138.88c0.31,0.34,0.67,0.69,2.94,0.24l-0.54-0.51L152.53,138.88z"/>
						<polygon class="st22" points="86.85,130.11 88.61,130.09 88.43,130.01 86.68,130.03 						"/>
						<path class="st22" d="M96.87,131.35c0.44-0.04,0.77-0.08,1.07-0.14C97.48,131.22,97.12,131.26,96.87,131.35z"/>
						<path class="st22" d="M104.47,129.18c2.03,0.46-2.84,0.39,0.94,0.7c0.32,0.37-1.47,0.77-3.25,0.49
							c0.16-0.33,1.75-0.13,0.67-0.52c-1.2,0.33-1.64,0.04-1.25,0.57c-2.01,0.22-2.26,0.56-3.63,0.79c2.43-0.04,7.49,0.7,10.59,0.12
							c1.71-0.56,0.69-1.41,0.72-2.29C109,128.83,104.66,128.61,104.47,129.18z"/>
						<path class="st22" d="M101.31,128.15c-0.94-0.09-1.23-0.07-1.81-0.03C99.64,128.44,100.55,128.13,101.31,128.15z"/>
						<path class="st22" d="M123.13,134.96c0.18-0.13,1.92-0.33,1.54-0.54l-2.64,0.23C122.65,134.66,122.88,134.81,123.13,134.96z"
							/>
						<path class="st22" d="M120.88,134.76l1.16-0.1C121.74,134.66,121.39,134.68,120.88,134.76z"/>
						<path class="st22" d="M123.26,135.04c-0.04-0.02-0.08-0.05-0.13-0.07C123.1,134.99,123.11,135.02,123.26,135.04z"/>
						<path class="st22" d="M163.24,137.43c0.01,0.24,1.18-0.13,1.76-0.32C164.51,137.19,163.81,137.25,163.24,137.43z"/>
						<path class="st22" d="M206.49,120.98l1.05-0.47C207.14,120.64,206.94,120.7,206.49,120.98z"/>
						<path class="st22" d="M214.29,105.11c-0.02-0.05-0.02-0.13,0-0.23C214.26,104.98,214.26,105.06,214.29,105.11z"/>
						<path class="st22" d="M214.28,104.88c0.09-0.34,0.45-0.89,0.82-1.47c0.29-0.6,0.58-1.22,0.6-1.6l0.05,0.12
							c0.16-0.42,0.18-0.87,0.28-1.3C215.79,101.84,214.45,104.1,214.28,104.88z"/>
					</g>
				</g>
			</g>
		</g>
	</g>
</g>
<text transform="matrix(1 0 0 1 61.667 85.9902)"><tspan x="0" y="0" class="st23 st24">100% recycled</tspan><tspan x="-21.07" y="19.57" class="st23 st24">plastic &amp; alumninum</tspan></text>
</svg>
