<?xml version="1.0" encoding="utf-8"?>
<!-- Generator: Adobe Illustrator 24.3.0, SVG Export Plug-In . SVG Version: 6.00 Build 0)  -->
<svg version="1.1" id="Layer_1" xmlns="http://www.w3.org/2000/svg" xmlns:xlink="http://www.w3.org/1999/xlink" x="0px" y="0px"
	 viewBox="0 0 237.12 197.08" style="enable-background:new 0 0 237.12 197.08;" xml:space="preserve">
<style type="text/css">
	.st0{fill:none;stroke:#000000;stroke-width:6.1975;stroke-miterlimit:10;}
	.st1{fill:#FFFFFF;stroke:#000000;stroke-width:6.1975;stroke-linecap:round;stroke-linejoin:round;stroke-miterlimit:10;}
	.st2{fill:none;stroke:#000000;stroke-width:4.1833;stroke-linecap:round;stroke-linejoin:round;stroke-miterlimit:10;}
	.st3{fill:#F7931E;}
	.st4{fill:#ED1C24;}
	.st5{fill:#006837;}
	.st6{fill:#0071BC;}
	.st7{fill:#FF7BAC;}
	.st8{fill:#D66995;}
	.st9{stroke:#000000;stroke-width:2.125;stroke-miterlimit:10;}
	.st10{fill:#999999;stroke:#000000;stroke-width:2.125;stroke-miterlimit:10;}
	.st11{fill:#C1BFC0;stroke:#000000;stroke-width:2.125;stroke-miterlimit:10;}
	.st12{fill:none;stroke:#000000;stroke-width:1.5938;stroke-miterlimit:10;}
	.st13{fill:none;stroke:#000000;stroke-width:3;stroke-miterlimit:10;}
	.st14{fill:#0071BC;stroke:#000000;stroke-width:0.5312;stroke-miterlimit:10;}
	.st15{fill:none;stroke:#000000;stroke-width:3.7188;stroke-linecap:round;stroke-linejoin:round;stroke-miterlimit:10;}
	.st16{fill:none;stroke:#ED1C24;stroke-width:19;stroke-linecap:round;stroke-linejoin:round;stroke-miterlimit:10;}
	.st17{fill:none;stroke:#ED1C24;stroke-width:13;stroke-linecap:round;stroke-linejoin:round;stroke-miterlimit:10;}
	.st18{fill:#F8A13B;}
	.st19{fill:#207B50;}
	.st20{fill:#EF3940;}
	.st21{fill:#2083C4;}
	.st22{font-family:'FuturaPT-DemiObl';}
	.st23{font-size:14.7131px;}
	.st24{fill:#202020;}
</style>
<g>
	<g>
		<g>
			<g>
				<g>
					<g>
						<path class="st21" d="M183.5,48.2c0.6,0.96,0.84,1.93,0.56,1.6c1.22,1.96,0.92,2.14,1.52,2.23c0.79,1.33,0.83,2.99,0.15,1.41
							c0.27,0.66,0.47,1.35,0.71,2.04c0.21,0.69,0.34,1.41,0.51,2.12c-0.12-0.86-0.15-1.75-0.37-2.59c0.34,0.29,0.48,1.34,0.6,2.41
							c0.11,1.07,0.09,2.15,0.39,2.57c-0.05-0.81-0.07-1.61-0.16-2.41c-0.14-0.79-0.22-1.6-0.42-2.37l0.21,0.2
							c-0.21-0.52-0.42-1.3-0.62-2.03c-0.24-0.72-0.45-1.4-0.55-1.76c0.11,0.08,0.2-0.03,0.5,0.77c-0.45-1.4-0.9-2.09-1.15-2.52
							c-0.28-0.41-0.43-0.52-0.6-0.58c-0.34-0.11-0.57-0.17-1.84-2.08C183.11,47.45,183.31,47.74,183.5,48.2z"/>
						<path class="st21" d="M181.7,43.67c-0.54-0.41-1.14-0.74-1.7-1.1c-0.66-0.86-1.42-1.61-2.15-2.41c-0.15,0.1-2-1.3-0.94-0.14
							c0.26,0.17,0.74,0.55,1.07,0.91c-0.51,0-3.28-2.64-2.85-1.72c0.96,0.79,1.51,1.24,1.97,1.62c0.45,0.4,0.83,0.69,1.5,1.11
							c0.79,0.83,1.41,1.62,1.93,2.29c0.48,0.7,0.86,1.28,1.12,1.75c0.44,0.53,0.71,0.46,1.24,1.17c-0.11-0.16-0.22-0.31-0.35-0.49
							l0.48-0.44c-0.51-0.56-0.89-1.15-1.42-1.79c1,0.83,1.92,1.78,2.84,2.76c-0.09-0.69-0.73-1.85-1.52-2.9
							c-0.4-0.52-0.8-1.06-1.18-1.53c-0.39-0.45-0.72-0.86-0.93-1.19C181.65,43.34,179.64,40.6,181.7,43.67z"/>
						<path class="st21" d="M182.89,47.14c0.01,0.02,0.04,0.05,0.05,0.08C182.92,47.19,182.9,47.16,182.89,47.14z"/>
						<path class="st21" d="M106.53,108.28c0.15,0.74,0.34,0.93,0.44,1.02l-1.67-8.7c-0.05,0.19,0.04,1.14,0.05,1.65
							c0,0.44-0.04,0.68-0.25-0.15c-0.04,0.78,0.53,2.91,0.81,3.19l-0.37-0.56c0.69,1.86,0.31,3.29-0.12,2.07l0.03,0.16l2.26,5.08
							C107.41,110.08,107,110.63,106.53,108.28z"/>
						<path class="st21" d="M180.41,71.05c-0.54,0.9-0.57,1.05-0.45,0.98C180.13,71.69,180.29,71.36,180.41,71.05z"/>
						<path class="st21" d="M108.24,113.23l0.71,1.59C108.71,114.18,108.46,113.62,108.24,113.23z"/>
						<path class="st21" d="M100.16,103c-0.02,0-0.04,0-0.06,0.03c0.07,0.03,0.2,0.32,0.31,0.55c0-0.01,0-0.02,0-0.02
							c-0.05-0.13-0.1-0.26-0.14-0.38C100.22,103.06,100.19,103.06,100.16,103z"/>
						<path class="st21" d="M113.48,132.75c0.01,0.01,0.02,0.05,0.04,0.06C113.51,132.75,113.49,132.74,113.48,132.75z"/>
						<path class="st21" d="M83.27,101.32c1.31,0.13,2.63,0.2,3.94,0.28c-0.54,0.09,1.33,0.34,0.49,0.42c0.3,0.03,1.7,0.14,1.33,0
							l-0.79-0.1c2.12-0.25,0.91-0.59,4.34-0.57c-2.06-0.55-3-0.42-4.15-0.33c-0.38-0.01-0.7-0.06-1.02-0.09
							c-1.1,0.06-2.22,0.15-3.33,0.19L83.27,101.32z"/>
						<path class="st21" d="M136.44,97.41l-0.03,0.05C136.44,97.44,136.45,97.42,136.44,97.41z"/>
						<path class="st21" d="M136.27,97.65l0.13-0.2C136.22,97.58,135.46,97.8,136.27,97.65z"/>
						<path class="st21" d="M107.79,112.69c0.11,0.03,0.26,0.22,0.45,0.55l-0.53-1.19C107.73,112.23,107.76,112.46,107.79,112.69z"
							/>
						<path class="st21" d="M106.12,110.08l-0.67-3.1l-0.49-1.1C105.3,107.05,105.63,108.43,106.12,110.08z"/>
						<path class="st21" d="M113.25,129.88c0.19,0.76,0.14,1.34,0.05,1.82c-0.09,0.5-0.25,0.78-0.15,1.69
							c0.16,0.46,0.26-0.59,0.34-0.64c-0.19-0.34-0.13-1.31-0.07-2.34c0.06-1.04,0.12-2.15,0-2.36c0.18-1.88,0.23-1.87,0.26-0.93
							c0.02,2.82-0.09,1.52-0.21,3.58c0.12,0.2,0.12-0.33,0.18-1.51c0.05,0.54,0.12,0.32,0.16,0.09c0.06-0.99,0.08-1.54,0.19,0.19
							c0.07-1.05,0.01-2.1-0.03-3.42c-0.15-2.32-0.13-0.92-0.2-3.01c0.01,0.36,0.03,0.78,0.03,1.04l-0.03-0.52
							c0.03,1.42,0.03,1.1,0.04,1.78c0.01,0.63,0,1.25-0.01,1.42c0,0.04-0.01,0.09-0.02,0.15c-0.02-0.08-0.03-0.26-0.03-0.8
							l0.02-0.54c-0.01-0.53-0.02-0.03-0.04,0.32c-0.02,0.36-0.04,0.58-0.04-0.2c0.01-0.3,0.03-0.96,0.03-1.19
							c-0.03,0.86-0.06,1.17-0.09,1.4c-0.03,0.22-0.07,0.35-0.14,0.68c0.06-0.62,0.12-1.29,0.17-2c-0.17,2.33-0.32,0.64-0.18-0.35
							c-0.04,0.26-0.06,0.5-0.13,0.73c-0.06,0.05-0.05-0.22,0.01-0.52c0.06-0.31,0.16-0.65,0.25-0.94c-0.14,0.45-0.12,0.09-0.07-0.1
							c0.04-0.22,0.09-0.24-0.18-0.14c-0.22,0.05-0.45,0.11-0.73-0.14l-1.23-2.77l-2.46-5.53c0.15,0.42,0.29,0.87,0.41,1.35
							c-0.27,1.14-0.1,1.7-0.89-0.06c0.59,1.76,0.84,1,1.38,3.72c-0.44-1.02-1.03-1.19-0.58,1.43c0.21,0.8,0.44,1.57,0.66,2.31
							c0.19,0.57,0.35,0.91,0.53,1.29c0.35,0.73,0.69,1.24,1,1.59c0.63,0.7,1.14,0.65,1.47,0.55c-0.19,0.97,0.15,2.18,0.25,3.19
							c-0.17,1.19-0.35,0.87-0.52,0.38c0.08,0.51,0.23,1.39,0.34,2.04L113.25,129.88z"/>
						<path class="st21" d="M111.47,127.15c-0.01,0.13-0.01,0.24,0,0.35C111.48,127.41,111.48,127.3,111.47,127.15z"/>
						<path class="st21" d="M112.61,130.31c-0.01,0.05-0.01,0.07-0.02,0.11l0.06,0.15C112.63,130.47,112.62,130.37,112.61,130.31z"
							/>
						<path class="st21" d="M107.27,114.37c-0.18-0.37-0.26-0.65-0.44-1.01c0.07,0.23,0.16,0.53,0.25,0.81
							C107.18,114.43,107.26,114.55,107.27,114.37z"/>
						<path class="st21" d="M107.65,112.94l0.19,0.18c-0.02-0.17-0.03-0.29-0.05-0.44C107.7,112.66,107.64,112.72,107.65,112.94z"/>
						<path class="st21" d="M116.06,139.4l0.05-0.76C116.06,138.96,116.05,139.19,116.06,139.4z"/>
						<path class="st21" d="M113.61,135.1c-0.18-0.73-0.06,2.6-0.35,1.09l0.08,0.6c-0.25-0.07-0.64-2.66-0.9-3.94
							c0.12-0.55-0.04-1.62,0.15-2.44c-0.18-0.54-0.37-1.11-0.67-0.83c-0.02-0.41-0.12-0.65-0.22-0.96c-0.1-0.3-0.21-0.66-0.23-1.13
							c-0.08,0.66-0.74-0.19-0.17,1.49c-0.05-0.12-0.06,0.06-0.12-0.06c0.03,0.92,0.16,1.35,0.3,1.62c0.14,0.28,0.29,0.4,0.4,0.94
							c0.03,1.21-0.4-0.35-0.32,0.5c0.2,0.54,0.39,1.87,0.59,2.84c0.2,0.97,0.37,1.46,0.49,0.04c0.2,0.76,0.18,1.53,0.2,2.4
							c0.2-0.62,0.38,0.21,0.56,1.37c0.18,1.13,0.38,2.63,0.48,2.63c0.06-0.67,0.08-1.51,0.07-2.74c-0.02,0.18-0.05,0.38-0.08,0.61
							c-0.09-0.34-0.19-0.71-0.31-0.47L113.61,135.1z"/>
						<path class="st21" d="M108.04,118.13c0.02,0.14,0.05,0.32,0.07,0.44C108.09,118.44,108.06,118.28,108.04,118.13z"/>
						<path class="st21" d="M95.27,92.79l0.99-0.57c4.15,0.27,6.96,0.46,9.66,0.64l0.6,0.04l0.3,0.02c0.09,0.02,0.24-0.03,0.22,0.12
							c0.07,0.4,0.15,0.8,0.22,1.2c0.15,0.8,0.3,1.62,0.45,2.47c0.3,1.58,0.62,3.28,1,5.28c-0.02,0.36-0.18-0.16-0.28-0.49
							c0.71,3.32,1.51,8.23,2.27,10.58c0.19,1.05,0.51,3.83,0.11,2.83c0.16,0.5,0.32,1.07,0.42,1.66c-0.21,0.2-0.32-1.3-0.52-1.29
							c0.07,0.47,0.06,0.66,0.16,0.75c-0.35-0.74-0.66,0.97-1.34-2.68c0.29-1.52,0.55,2.51,1.01,1.56
							c-0.23-1.21-0.44-1.02-0.53-1.11c-0.28-1.54-0.12-1.53,0.04-1.48c-0.3-0.55-0.41-2.54-0.85-3.3
							c-0.62-2.98,0.49,0.07,0.11-1.88l-0.84-1.01l-0.5-3.27c-0.07-0.29-0.14-0.54-0.2-0.76c-0.07-0.26-0.14-0.47-0.19-0.66
							c-0.15-0.51-0.26-0.82-0.35-1c-0.19-0.36-0.3-0.2-0.43-0.09c-0.25,0.25-0.56,0.25-1.47-3.51c0.24,0.39,0.34-0.28,0.28-1.64
							c-0.01-0.17-0.02-0.35-0.03-0.54c0.03-0.13-0.09-0.1-0.16-0.13c-0.08-0.02-0.16-0.03-0.25-0.05c-0.34-0.07-0.72-0.13-1.13-0.2
							c-0.83-0.13-1.78-0.25-2.8-0.35c0.62,0.03,1.37,0.05,2.22,0.07c0.43,0.01,0.88,0.01,1.34,0.02c0.23,0,0.47,0.01,0.71,0.01
							l0.36,0.01c0.06,0.01,0.13-0.01,0.17,0.02l0.04,0.17c0.42,1.77,0.85,3.72,1.07,5.36c-0.2-2.38,0.11-0.84,0.49,1.04
							c0.09,0.42,0.18,0.85,0.26,1.25c0.06,0.26,0.12,0.5,0.18,0.68c0.12,0.36,0.22,0.48,0.29,0.1c-0.07-0.16-0.13-0.34-0.19-0.53
							c-0.03-0.09-0.06-0.19-0.09-0.29c-0.03-0.11-0.05-0.17-0.11-0.39c-0.18-0.73-0.36-1.52-0.52-2.33
							c-0.33-1.62-0.64-3.34-0.86-4.92l0.24,0.95c-0.07-0.41-0.15-0.8-0.23-1.18l-0.06-0.28l-0.03-0.14
							c-0.01-0.05-0.09-0.02-0.13-0.03l-0.6-0.01c-0.79,0.01-1.59,0.02-2.42,0.02c-0.82,0.01-1.66,0.01-2.56-0.02
							c-0.45-0.02-0.92-0.04-1.41-0.08c-0.25-0.03-0.5-0.05-0.77-0.08l-0.32-0.04l-0.23-0.04c-1.26-0.09-1.01-0.25-0.77-0.38
							C96.22,92.92,95.26,92.93,95.27,92.79z M98.01,92.91l1.19,0.13l1.51,0.13c-0.34-0.07-0.8-0.13-1.32-0.17
							c-0.27-0.02-0.55-0.05-0.84-0.07C98.37,92.93,98.2,92.92,98.01,92.91z"/>
						<path class="st21" d="M160.92,28.91c0.16,0.09,0.34,0.19,0.48,0.27C161.3,29.1,161.11,29.01,160.92,28.91z"/>
						<path class="st21" d="M35.92,73.28l-0.58-0.96C35.55,72.7,35.74,73.01,35.92,73.28z"/>
						<path class="st21" d="M32.94,47.66l0.74-1.62C33.34,46.65,33.12,47.17,32.94,47.66z"/>
						<path class="st21" d="M149.32,24.56l-0.05-0.02c-0.08-0.01-0.15-0.02-0.24-0.03L149.32,24.56z"/>
						<path class="st21" d="M73.94,22.78c0.24-0.01,0.5-0.02,0.86-0.08C74.74,22.65,74.42,22.69,73.94,22.78z"/>
						<path class="st21" d="M32.8,47.96c0.03-0.04,0.04-0.06,0.06-0.09c0.02-0.07,0.05-0.14,0.07-0.21L32.8,47.96z"/>
						<path class="st21" d="M41.84,82.83c0.2,0.14,0.38,0.27,0.59,0.42C42.16,83.04,41.98,82.93,41.84,82.83z"/>
						<path class="st21" d="M41.89,80.45c0.19,0.16,0.38,0.31,0.53,0.42L41.89,80.45z"/>
						<path class="st21" d="M73.78,97.87l1.38,0.28C74.49,97.99,74.09,97.91,73.78,97.87z"/>
						<path class="st21" d="M44.55,83.29c0.08,0.03,0.17,0.06,0.23,0.07C44.61,83.25,44.51,83.22,44.55,83.29z"/>
						<path class="st21" d="M167.89,34.67c-0.03-0.02-0.06-0.03-0.07-0.04l-0.07,0.05L167.89,34.67z"/>
						<path class="st21" d="M171.24,35.7c0.34,0.22,0.69,0.45,1.04,0.67C171.91,36.11,171.53,35.86,171.24,35.7z"/>
						<path class="st21" d="M93.99,20.12c0.37,0.04,1.24,0.07,0.85,0.21C95.52,20.15,95.44,19.81,93.99,20.12z"/>
						<path class="st21" d="M160.26,35.09c0.22,0.01,0.49,0.07,0.75,0.12C160.53,35.08,160.12,34.96,160.26,35.09z"/>
						<path class="st21" d="M161.01,35.21c0.24,0.06,0.49,0.13,0.7,0.18C161.47,35.32,161.23,35.26,161.01,35.21z"/>
						<path class="st21" d="M85.68,26.63c-0.09-0.03-0.23-0.04-0.42-0.02C85.33,26.68,85.48,26.68,85.68,26.63z"/>
						<path class="st21" d="M173.04,37.04c0.27-0.02,4.73,3.12,1.2,0.21c0.21-0.13,0.83,0.28,1.52,0.82
							c0.68,0.55,1.4,1.26,1.91,1.62c-0.6-0.68,0.54,0.07,0.45-0.23c-0.5-0.37-1.14-0.75-1.89-1.45c-0.22-0.48,1.05,0.44,1.91,1.31
							c-0.48-0.59-0.06-0.34,0.3-0.14c0.34,0.22,0.65,0.37-0.08-0.42c-3.53-2.95-6.3-4.56-9.3-5.61c2.19,1.22,4.64,2.69,6.14,4.18
							l-0.94-0.22c-1.65-1.71-3.01-2.29-4.91-3.54l2.1,1.48l2.04,1.58c0.86,0.86,0.94,1.08,0.63,0.92c-0.3-0.16-1.02-0.66-1.82-1.16
							C172.66,36.65,172.98,36.91,173.04,37.04z"/>
						<path class="st21" d="M168.26,38.09l0.06,0.05c0.07,0.03,0.14,0.06,0.19,0.07L168.26,38.09z"/>
						<path class="st21" d="M75.69,89.84l0.43-0.04C75.78,89.77,75.66,89.79,75.69,89.84z"/>
						<path class="st21" d="M166.84,34.89L166.84,34.89C166.81,34.88,166.8,34.88,166.84,34.89z"/>
						<path class="st21" d="M66.09,86.69c0.02,0,0.04-0.01,0.06-0.01C66.11,86.68,66.11,86.69,66.09,86.69z"/>
						<path class="st21" d="M60.18,93.8c0.01,0.03,0.01,0.04,0.05,0.08C60.46,93.94,60.36,93.88,60.18,93.8z"/>
						<path class="st21" d="M66.07,86.73c0-0.01,0-0.03,0.02-0.03C66.07,86.7,66.05,86.71,66.07,86.73z"/>
						<path class="st21" d="M38.16,54.67c0,0-0.13,0.11-0.24,0.31C37.94,55.08,37.97,55,38.16,54.67z"/>
						<path class="st21" d="M37.08,63.59c0,0.06,0,0.1,0,0.17L37.08,63.59z"/>
						<path class="st21" d="M91.34,18.58c-0.51,0.05-0.89,0.11-1.22,0.18C90.5,18.71,90.9,18.66,91.34,18.58z"/>
						<path class="st21" d="M66.15,86.68c0.11-0.01,0.26,0,0.5,0.03C66.39,86.68,66.24,86.67,66.15,86.68z"/>
						<path class="st21" d="M44.71,41.64c-0.07,0.08-0.14,0.16-0.2,0.24l0.15-0.11L44.71,41.64z"/>
						<path class="st21" d="M48.97,38.61c-0.12,0.14-0.16,0.23-0.21,0.32c1.38-1.26,4.38-2.91,4.53-3.46
							c-0.56,0.29-3.45,1.88-3.13,1.36c-1.03,0.82-2.79,1.7-3.29,2.22c1.84-1.15,0.4,0.15-0.64,1.16c-1.09,0.75-0.04-0.44-0.95,0.24
							c-0.76,0.69-1.52,1.37-2.22,2.12c0.63-0.63,1.31-1.21,2-1.77l-0.33,0.85c0.06-0.08,0.11-0.13,0.18-0.21
							c1.6-1.57,1.83-1.45,1.99-1.42C47.07,40.08,47.2,40.05,48.97,38.61z"/>
						<path class="st21" d="M48.75,38.93c-0.21,0.18-0.39,0.35-0.52,0.5C48.57,39.17,48.68,39.05,48.75,38.93z"/>
						<path class="st21" d="M65.03,31.07c0.2-0.1,0.43-0.21,0.71-0.35C65.61,30.79,65.3,30.94,65.03,31.07z"/>
						<path class="st21" d="M104.61,103.64c0.05-0.05,0.02-0.72-0.07-1.39c-0.11-0.76-0.26-1.5-0.41-1.4
							c0.12,0.83,0.25,1.67,0.38,2.5L104.61,103.64z"/>
						<path class="st21" d="M113.7,21.56c-0.29-0.01-0.59-0.02-0.88-0.02c-0.06,0.02-0.12,0.03-0.17,0.05
							C112.82,21.64,113.4,21.59,113.7,21.56z"/>
						<path class="st21" d="M50.75,36.26c-0.38,0.3-0.53,0.46-0.6,0.57C50.4,36.64,50.62,36.45,50.75,36.26z"/>
						<path class="st21" d="M113.84,22.33c0.37,0.11,0.91,0.27,0.98,0.39c0.76,0.03,1.3-0.12,2.07-0.15
							C116.02,22.59,115.02,22.51,113.84,22.33z"/>
						<path class="st21" d="M116.96,22.57c-0.02,0-0.04,0-0.06,0L116.96,22.57z"/>
						<path class="st21" d="M104.77,105.2c0.06,0.22,0.13,0.44,0.2,0.67l-0.15-0.34c0.08,0.6,0.16,1.19,0.24,1.79
							c0.06,0.21,0.12,0.44,0.19,0.72c-0.03-0.11-0.08-0.19-0.13-0.24c0.02,0.19,0.05,0.38,0.07,0.57c0.6,1.35,1.5,4.81,1.89,5.79
							c0.4,1.31,0.79,2.94,0.96,3.97c-0.18-0.95-0.48-2.21-0.59-1.79c0.18,1.97-0.18,3.01,0.92,6.27l-0.38-1.96l0.77,2.14l0.39,1.07
							l0.33,0.78c-0.03,0.63-0.19,0.27-0.39-0.35c-0.11-0.37-0.24-0.8-0.35-1.17c-0.12-0.4-0.24-0.74-0.33-0.88
							c0.52,1.81,0.59,2.95,0.72,4.19c0.11,1.2,0.24,2.31,0.62,2.61c-0.26,0.61-0.67,1.71-0.21,3.91c0-1.13,0.11-0.89,0.23-0.66
							c0.12,0.24,0.23,0.46,0.28-0.5c0.27,0.29,0.33,2.42,0.52,1.99l-0.13,0.13c0.14,2.29,0.43,3.35,0.69,3.68
							c0.26,0.35,0.51,0.04,0.69,0.19c0.37,1.51,0.59,2.82,0.82,4.16c0.22,1.32,0.43,2.66,0.71,3.96c0,0.65,0.02,1.99,0.08,3.37
							c0.06,1.37,0.17,2.78,0.3,3.41c0.05-0.41,0.15-0.38,0.26-0.3c0.18-1.97,0.37-3.97,0.37-5.5c-0.28,0.82-0.29,2.34-0.38,3.88
							c-0.03,0.19-0.08,0.27-0.15,0.05c-0.11-1.75-0.11-2.34-0.12-2.88c-0.01-0.53-0.04-1-0.16-2.34c0.07,0.74,0.23,1.47,0.4,2.23
							c0.26-1.71,0.54-3.64,0.73-3.19l-0.07,0.71c0.2-0.38,0.38,0.46,0.59,0.51c0.2,0.08,0.46-0.74,0.67-3.79l0.2-2.63
							c0,0.22,0.02,0.39,0.03,0.56c0.26-1.36,0.42-1.51,0.57-1.88c0.14-0.36,0.28-0.98,0.45-3.06c-0.03,0.32,0.03,0.27,0,0.59
							c0.24-0.68,0.38-1.81,0.46-2.87c0.09-1.07,0.12-2.09,0.2-2.83c0.43-0.37,0.24,0.64,0.33,1.6c0.36-1.65,0.6-3.67,0.7-5.35
							c0.05-0.85,0.08-1.62,0.08-2.28c0.02-0.78,0.02-1.49,0.02-2.09l0.63-2.37c-0.11,1.45-0.05,3.26,0.24,2.86
							c0.16-1.33-0.05-1.11,0.35-2.96c0.17,0.36,0.24,1.18,0.36,2.11c1.06-3.8-0.64-1,0.52-3.59c0.22-1.21,0.02-1.98-0.23-2.16
							l0.74-2.14c-0.3-0.31,0.16-3.03,0.42-4.81c-0.11-0.24-0.62,1.37-0.61,2.07c-0.25-0.18-0.04-2.1,0.18-3.31
							c0.4-0.16,0.73-2.16,1.03-3.92c0.15-0.9,0.29-1.66,0.44-2.24c0.16-0.57,0.3-0.74,0.44-0.29c0.11-0.75,0.22-1.54,0.33-2.35
							c0.06-0.41,0.12-0.83,0.18-1.25l0.1-0.64c0.16-0.08,0.4-0.07,0.6-0.11c0.85-0.12,1.71-0.24,2.56-0.35
							c0.84-0.13,1.67-0.26,2.49-0.39c3.05-0.5,5.84-1.11,7.59-1.61c1.21-0.04,3.61-0.54,2.25,0.1c4.36-0.98,6.37-2.3,10.61-3.43
							c0.37-0.02-1.89,0.61-1.67,0.8c2.65-1.14,5.1-1.3,9.16-3.19c-0.69,0.3-0.83,0.53-0.9,0.64c-0.12-0.09,1.61-0.91,2.6-1.51
							c0.62-0.21-0.75,0.44-0.38,0.37c4.02-1.59,7.32-3.56,10.35-5.8c3-2.29,5.81-4.79,8.53-7.93c-0.77,0.9-1.27,1.56-1.54,2.04
							c-0.27,0.48-0.32,0.77-0.26,0.85c0.56-0.56,1.13-1.12,1.67-1.7c0.44-0.84,1.6-2.19,2.27-3.51c0.18-0.1,0.66-0.64,0.34,0.03
							c1.51-1.8,2.18-3.57,2.6-5.46c0.4-1.9,0.62-3.89,0.79-6.61c0.33,2.21,0.24,4.53-0.26,6.83c0.31-0.5,0.56-1.03,0.85-1.55
							l-0.25,1.56l-0.38,1.55c0.48-0.83,0.73-1.69,0.84-2.37c0.14-0.67,0.19-1.13,0.38-1.21c0.04,0.43-0.31,1.34-0.12,1.43
							c0.36-0.86,0.43-1.36,0.46-1.81c0.03-0.44,0.05-0.83,0.1-1.52c0.13,1.85-0.43,4.61-1.61,7.13c-1.14,2.54-2.82,4.8-4.04,6.32
							c-0.36,0.5,0.21-0.51,0.22-0.64c-1.02,1.21-1.82,1.75-3.16,3.19c-0.69,1.06,0.87-0.44,1.55-1.15
							c0.09,0.28-0.24,0.65-1.02,1.42c-0.22-0.06-1.32,0.96-2.62,1.95c-1.29,1-2.76,2-3.47,2.2c-2.34,1.66-2.06,1.69-1.73,1.74
							c0.31,0.02,0.66,0.08-1.82,1.45c-0.56,0.16-1.1,0.34-1.67,0.47c-2.69,1.87-6.43,3.91-9.91,5.14l0.72-0.29
							c0.42-0.35-0.42-0.15-0.81-0.1c-2.64,0.84-4.86,2.08-6.59,2.19c-2.88,1.38-7.93,3.01-11.45,3.91
							c-0.53-0.17,0.6-0.53,2.04-0.92c1.44-0.41,3.17-0.88,3.86-1.24c-1.06,0.27-2.13,0.51-3.19,0.76c1.98-0.47,2.71-0.85,3.8-1.47
							c-2.8,0.61-3.61,1.29-6.25,1.98c0.18-0.2-0.19-0.19-1.43,0.03l-0.28,0.42c-0.03-0.03-0.17-0.03-0.56,0.02
							c-1.58,0.38-3.16,0.69-4.75,1.02c1.04,0,1.14,0.3,2.39,0.11c-0.48-0.15,0.57-0.33,1.81-0.56c-1.04,0.43,1.24-0.02,1.26,0.18
							c-2.49,0.45-5.55,1-7.19,1.29c-0.16-0.09-0.24-0.19-0.38-0.29c-0.73,0.06-1.47,0.15-2.13,0.26l-0.24,0.04
							c-0.08,0.02-0.04,0.15-0.07,0.22c-0.03,0.16-0.05,0.32-0.07,0.47c-0.05,0.3-0.1,0.57-0.17,0.79l-0.11-0.41
							c-0.1,0.43-0.19,0.88-0.27,1.33c-0.11,0.63-0.22,1.26-0.32,1.88c-0.24,1.35-0.5,2.65-0.88,3.86c-0.06,2.56-0.3,5.75-0.26,7.86
							c0.12,0.58-0.34,2.39-0.81,4.41c-0.24,1.01-0.48,2.08-0.65,3.07c-0.09,0.5-0.16,0.98-0.2,1.43c-0.03,0.3-0.06,0.58-0.09,0.86
							c-0.03,0.31-0.05,0.6-0.06,0.88c-0.05,0.14,0.01-0.64,0.07-1.56c0.01-0.64,0.03-1.43,0.04-1.93c-0.1,0.46-0.16,0.91-0.2,1.33
							c-0.02,0.21-0.03,0.41-0.05,0.61c-0.03,0.28-0.06,0.55-0.08,0.8c-0.11,1.01-0.23,1.8-0.51,2.11c0.61-3,0.5-2.94,0.29-2.47
							c-0.21,0.47-0.52,1.26-0.35-0.04c-0.46,2.66-0.88,5.53-0.99,7.05c0.39-2.22,0.46-1.71,0.5-1.18c0.04,0.52,0.07,1.02,0.4-1.43
							c-0.3,3.91-1.15,9.62-2.05,13.87c-0.12-0.47-0.28-0.11-0.61,1.33l-0.07,2.04c-0.2,0.99-0.07-0.26,0.01-1.22
							c0.08-0.96,0.1-1.64-0.29,0.26c-0.23,2.73-0.85,5.8-1.36,8.62c-0.52,2.84-0.95,5.51-1,8.39c-0.35,0.94-0.09-1.07,0.12-2.81
							c0.21-1.77,0.36-3.25-0.13-1.76c0.19-2.02,0.47-3.54,0.71-4.94c0.24-1.38,0.44-2.61,0.41-3.75c-0.39,2.98-0.33-0.33-0.61,1.23
							l-0.38,3.78l0.12-0.56c-0.28,2.56-0.69,5.31-1.15,8.05c-0.46,2.64-0.96,5.45-1.43,8.15c-0.24-1.24-0.48-2.45-0.71-3.61
							c-0.51-1.47-1-2.51-1.53-4.16c-0.53-1.64-1.12-3.91-1.8-7.56c0.25,0.6-0.01-1.09-0.19-2.52c-0.18-1.45-0.28-2.59,0.22-1.28
							c-0.24-1.89-0.53-3.32-0.78-4.28c-0.25-0.95-0.46-1.43-0.52-1.22c0.49,2.93,0.15,1.12,0.55,3.74
							c-0.42-0.9-1.15-4.77-1.34-6.61c0.12,0.74,0.1,0.37,0.18,0.37c-0.53-3.65-0.45-1.1-1-3.41c0.04-0.69-0.2-2.07-0.49-3.6
							c-0.29-1.53-0.63-3.23-0.77-4.42l-1.05-2.94c0.64,1.66-0.51-3.29-0.32-3.83c-0.51-1.48-1.14-2.69-1.5-5.02
							c0.34,0.93-0.17-2.16,0.13-2.26c-0.46-4.03-2.11-6.42-2.38-10.27c0.1,0.1,0.45,0.82,0.32-0.29c-0.25-0.85-0.51-2.37-0.72-3.29
							l0.01,0.03c-0.01-0.02-0.01-0.03-0.02-0.05c-0.05-0.2-0.11-0.46-0.14-0.48c-0.03-0.05-0.07-0.08-0.11-0.07
							c-0.22-0.31-0.41-0.48-0.61-0.68c-0.1-0.1-0.19-0.2-0.29-0.32c-0.06-0.05-0.07-0.15-0.17-0.16c-0.12,0.02-0.25,0.05-0.4,0.08
							c-0.04,0.09-0.02,0.15,0.03,0.19c0.03,0.02,0.06,0.03,0.1,0.04c0.04,0.01,0.02,0.09,0.04,0.14c0.04,0.2,0.15,0.4,0.23,0.53
							c0.13,0.03,0.26,0.08,0.4,0.15c-0.12,0.13-0.16,0.21-0.16,0.34c0.04,0.32,0.13,0.66,0.23,1c0.2,0.66,0.43,1.29,0.41,1.67
							c-0.25-0.44-0.49-1.11-0.73-1.91c-0.06-0.2-0.12-0.41-0.18-0.63c-0.04-0.15-0.03-0.09-0.05-0.14l-0.04-0.08
							c-0.04-0.1-0.09-0.21-0.14-0.31l-0.12-0.3l-0.06-0.14c-0.01-0.02-0.02-0.05-0.03-0.06l-0.09,0.01
							c-0.25,0.04-0.48,0.09-0.65,0.17c0.05,0.13,0.1,0.23,0.14,0.31c0.02,0.04,0.04,0.08,0.07,0.1c0,0.05-0.02,0.13-0.03,0.18
							c-0.02,0.11-0.02,0.21-0.01,0.29l0.02,0.12l0.14,0.72c0.1,0.48,0.19,0.95,0.29,1.42l-0.1-1.69l0.38,1.96l0.02-1.97
							c0.29,1.87,0.69,3.46,0.99,5.14c-0.38-1.96-0.03-2.82,0.1-1.7c0.07,2.26,0.67,2.24,0.96,3.91c-0.15-0.94-0.37-2.15-0.02-1.41
							c0.2,3.38,0.65,4.22,0.76,7.31c0.53-0.49,0.78,3.74,1.35,4.09l-0.22-1.4l0.93,2.88c0.03,2.82-0.96-2.32-0.51,1.9
							c0.07,0.36,0.13,0.69,0.19,1c0.07,0.37,0.14,0.71,0.21,1.03c0.13,0.64,0.26,1.19,0.38,1.68c0.24,0.97,0.45,1.68,0.66,2.33
							c0.41,1.3,0.78,2.33,1.27,4.77c-0.59-1.14-1.65-5.05-2.46-9.36l0.33,2.67c-0.11-0.32-0.27-0.94-0.45-1.74
							c-0.15-0.72-0.33-1.58-0.52-2.49c-0.23-1.14-0.46-2.41-0.61-3.24c0.94,2.69-0.12-1.32-0.04-2.64
							c-0.39-0.17,0.01,1.6-0.67-0.44c0.38,1.97,0.47,2.25,0.81,4.77c-0.88-5.44-2.12-4.63-2.73-9.41c0.57,2.15,0.35-0.85,0.47-1.15
							c-0.24-1.02-0.72-3.08-0.96-3.91l-0.35,0.87c-0.37-1.35-0.34-2.32-0.35-3.33c-0.01-0.51-0.03-1.02-0.11-1.61
							c-0.04-0.29-0.1-0.6-0.19-0.93c-0.03-0.12-0.03-0.09-0.04-0.1l-0.03-0.01c-0.02-0.01-0.05-0.01-0.08-0.01
							c-0.07,0.02-0.11,0.04-0.14,0.06c-0.01,0.01-0.02,0.01-0.02,0.02c0,0.03-0.02-0.07,0.03,0.17c0.13,0.68,0.29,1.33,0.21,1.05
							c-0.07-0.27-0.13-0.53-0.2-0.77c-0.03-0.12-0.06-0.25-0.08-0.37c-0.02-0.09-0.01-0.06-0.02-0.06l0,0
							c-0.01-0.01,0-0.02,0.01-0.03c0.03-0.03,0.1-0.11,0.19-0.23c0.21-0.29,0.19-0.52-0.1-0.75c-0.03,0.07-0.07,0.19-0.1,0.32
							c-0.01,0.03-0.01,0.06-0.02,0.1c-0.03,0.03,0.04,0.07-0.1,0.1c-0.2,0.05-0.47,0.1-0.84,0.14c0.24-0.13,0.09-0.26,0.1-0.36
							c0-0.05,0.04-0.1,0.17-0.14c0.07-0.02,0.16-0.04,0.29-0.05c0.06-0.01,0.14-0.01,0.22-0.02c0.07-0.01,0.21-0.01,0.19-0.03
							c0.02-0.01-0.09-0.02-0.17-0.03l-0.26-0.03c-0.18-0.02-0.35-0.03-0.53-0.05c-0.36-0.03-0.73-0.04-1.09-0.04
							c-0.72,0-1.43-0.01-2.04-0.01c2.8,0.49-1.2,0.31-1.75,0.43c-1.46-0.23,0.48-0.24,1.39-0.24c-1.17-0.2-2.5-0.82-3.22-0.47
							c0-0.3,3.37-0.41,5.54-0.28c-0.49-0.06-0.97-0.14-1.45-0.2c1.02-0.05,1.2,0.02,2.65,0.19c-1.4-0.37-1.23-0.63-0.88-0.83
							c0.18,0.06-0.11,0.07,0.06,0.13c1.15,0.18,2.05,0.17,1.8-0.02c0.26-0.19,0.23-0.26-0.48-0.36c-0.63-0.09-1.48-0.18-1.86-0.32
							c-0.59-0.04-1.19-0.07-1.77-0.11c-2.05,0.25-4.11,0.42-6.2,0.57c-2.6-0.24-3.7-0.8-5.58-1.36l-0.6,0.26
							c-2.22-0.5-4.28-1.1-2.76-1.23c0.05,0.14,0.35,0.17,0.83,0.29c0.07-0.04,0.19-0.05,0.34-0.04c0.05-0.01,0.08-0.03,0.12-0.04
							c-2.4-0.38-3.88-0.72-4.02-0.72c4.13,0.45,0.36-0.6,1.18-1.07c-1.36-0.24-2.7-0.54-4.05-0.84c2.37,0.86-0.04,0.33-0.93,0.16
							c-0.13-0.43-3.21-0.95-4.57-1.49l0.13-0.04c-1.24-0.54-3.48-1.31-5.08-1.86c0.03,0.14-2.22-0.1-3.33-0.22
							c2.65,1.31,0.99,0.73,1.11,1.05c-0.28-0.13-0.78-0.37-0.85-0.35c-0.43-0.08,0.47,0.36,0.5,0.51c2.97,1.06,6.02,2.11,7.39,2
							c-0.83-0.52-1.62-0.3-2.57-0.83c0.78,0.11,1.63,0.34,2.6,0.63c0.96,0.3,2.04,0.67,3.27,1.04l0.72,0.54
							c0.84,0.2,1.69,0.36,2.54,0.53c-1.08-0.14-0.55,0.39-3.18-0.33c0.25,0.4,2.62,0.68,4.2,1.21l0.93-0.19
							c-0.38,0.14,3.08,1.03,0.54,0.73c-1.37-0.2-2.72-0.47-4.09-0.72l1.04,0.57c-1.14-0.27-2.27-0.57-3.4-0.89l0.86,0.04
							c-2.75-0.67-3.08-1.03-3.42-1.33c-0.34-0.32-0.7-0.54-3.46-1.31c-1.85-0.15-3.68-0.82-6.86-2.38
							c2.39,0.94,0.38-0.21,1.38-0.08c-1.15-0.61-1.94-0.96-2.63-1.18c-0.69-0.22-1.26-0.33-1.91-0.57
							c-0.47-0.55-0.79-0.94,1.26,0.16c0.5-0.33-2.77-1.34-2.68-1.94c-1.68-0.96-2.91-1.55-3.91-2.02
							c-1.02-0.43-1.81-0.77-2.64-1.12c-1.63-0.74-3.46-1.61-6.72-5.22l0.42,0.09c-2.28-2.05-3.86-4-5.25-6.05
							c-1.36-2.08-2.53-4.28-3.62-7.22c-0.08-0.41-0.17-0.81-0.24-1.22l-0.15-1.24c-0.12-0.82-0.14-1.65-0.15-2.48
							c0.17,1.12,1.31,3.82,1.26,2.44c-0.03,2.4,1.04,4.68,1.96,6.95c0.25,0.15-0.12-0.79-0.23-1.21c0.34,0.65,0.53,1.17,0.78,1.74
							c0.27,0.54,0.59,1.13,1.15,1.91c0.05-0.15-0.94-1.99-0.04-0.7c0.34,0.82,0.79,1.54,1.19,2.32c2.3,2.54,1.66,0.82,4.23,3.73
							c-0.38-0.12-0.89-0.4-1.46-0.76c-0.57-0.36-1.2-0.82-1.72-1.41c1.13,1.46-1.72-1.77-0.79-0.35c0.52,0.44,0.94,0.84,1.33,1.23
							c0.4,0.37,0.75,0.74,1.13,1.13c0.37,0.4,0.76,0.8,1.24,1.22c0.48,0.42,1.01,0.93,1.72,1.41c-0.35-0.21-0.5-0.19-1.13-0.76
							c1.18,1.18,2.41,2.29,3.67,3.32c-0.39-0.49,0.44,0.1,1.4,0.65c0.95,0.55,1.99,1.14,1.92,0.84c-2.07-1.52-2.8-2.07-3.6-2.68
							c-0.4-0.29-0.82-0.62-1.39-1.14c-0.29-0.26-0.62-0.56-1.02-0.91c-0.39-0.37-0.83-0.83-1.35-1.37c1.28,1.13,3.21,2.2,4.22,2.5
							c0.03,0.04,0.09,0.1,0.22,0.22c0.95,0.22,0.3-0.42,0.76-0.97c-2.34-1.23-3.42-2.67-5.74-4.76c-0.69-0.19,0.86,1.71,2.09,2.67
							c-0.73-0.56-1.46-1.14-2.15-1.78l0.51,0.28c-1.62-1.7-3.07-3.62-4.33-5.67c0.73,1.17,1.24,1.36,1.77,1.84
							c-0.53-0.74-0.98-1.54-1.37-2.43c-0.21,0.37-0.5,0.4-0.98-0.38c-2.23-4.15-2.4-6.98-2.3-8.7c-0.03-0.18-0.07-0.37-0.1-0.53
							c-0.12,0.41-0.47-0.37-0.7-1.49c-0.11-0.56-0.25-1.2-0.33-1.79c-0.06-0.6-0.13-1.15-0.2-1.54c0.2,0.05,0.27-0.57,0.44-1.36
							c0.08-0.4,0.16-0.83,0.24-1.26c0.1-0.42,0.24-0.82,0.37-1.14c-0.13-0.41-0.41-0.43-0.75-0.12c-0.34,0.3-0.78,0.91-1.07,1.78
							c-0.08,1.73,0.07,2.21,0.17,2.47c0.11,0.26,0.26,0.3,0.52,1.09c0.06,0.88,0.18,1.76,0.31,2.63c0.2,0.86,0.33,1.73,0.62,2.55
							c-0.21-0.35-0.42-0.71-0.58-1.08c0.29,2.66,1.68,4.84,1.16,4.82c-0.39-0.59-0.71-1.47-1.01-2.35
							c-0.23-0.91-0.53-1.79-0.76-2.48c0.01,0.61,0.11,1.19,0.19,1.79c-0.61-1.49-0.49-1.95-0.45-2.44
							c0.03-0.25,0.06-0.52,0.04-0.97c0.01-0.45-0.03-1.06-0.15-2.02c-0.34,1.42-0.09-0.34-0.22-2.02
							c-0.09,0.33-0.15,0.93-0.19,1.61c-0.03,0.69,0.04,1.47,0.06,2.18c0.11,1.4,0.24,2.49-0.19,1.96c-0.32-1-0.32-2.78-0.1-4.58
							c0.12-0.9,0.21-1.82,0.37-2.67c0.12-0.86,0.19-1.66,0.21-2.35L31,54.45c1.07-3.76,1.46-5.12,1.87-6.58
							c0.97-1.36,1.9-3.45,2.98-4.84l0.13,0.15c0.48-0.66,0.95-1.34,1.48-1.95c-0.26,0.54-0.71,1.09-1.25,1.73
							c-0.27,0.32-0.57,0.65-0.87,1.02c-0.29,0.39-0.58,0.8-0.87,1.26l0.45-0.02c-1.74,1.81-1.89,3.7-2.35,5.55
							c0.21-0.67,0.53-1.45,0.88-2.26c0.41-0.77,0.84-1.57,1.26-2.3c0.45-0.7,0.85-1.35,1.13-1.89c0.3-0.52,0.48-0.91,0.44-1.15
							c0.45-0.36,0.87-0.74,1.33-1.07l0.42-0.68c0.51-0.37,0.64-0.24,0.45,0.2c-0.19,0.44-0.69,1.18-1.37,2.16
							c-0.33,0.27-0.49,0.4-0.47,0.26c-0.28,0.48-0.48,0.99-0.82,1.64c-0.17,0.33-0.37,0.69-0.62,1.11
							c-0.23,0.44-0.51,0.94-0.86,1.52l0.54-1.36c-1.78,2.88-2.66,6.01-2.54,7.24c0.7-2.37,1.67-4.62,2.9-6.6
							c1.21-2,2.56-3.83,4.02-5.44c0.22-1.55,1.03-2.93,0.98-3.98c2.09-2.21,5.28-4.73,7.57-5.85l-0.11,0.25
							c1.08-0.61,2.01-1.26,2.79-1.79c1.22-0.48-0.56,0.8,0.28,0.44c1.13-0.79,2.3-1.5,3.47-2.21c-0.03,0.21-0.81,0.73-1.75,1.28
							c-0.94,0.57-2.03,1.23-2.73,1.66c0.25-0.18,0.76-0.55,0.56-0.49c-0.87,0.4-1.96,1.29-2.96,2c-0.98,0.78-1.87,1.44-2.37,1.49
							c-0.7,0.66,1.32-1.48-1.26,0.49c-1.85,1.18-2.05,2.08-2.13,2.32c0.05,0.09,0.74-0.43,1.32-0.84c0.59-0.39,1.08-0.67,0.69-0.21
							c0.65-0.53,1.06-0.94,1.54-1.38c0.49-0.41,1.05-0.83,1.97-1.36c-0.66,0.49-1.4,1.12-2.05,1.71c-0.65,0.59-1.24,1.09-1.69,1.25
							c-2.25,2.44-1.23,2.8-0.07,1.85c-0.52-0.05,4.33-3.95,0.79-1.63c1.23-1.53,4.08-3.52,6.07-5l-0.06,0.12
							c0.86-0.54,1.72-1.1,2.6-1.61c-0.33,0.29-1.08,0.84-1.01,1.03c1.12-0.89,2.29-1.66,3.45-2.48c-0.97,0.71-0.62,0.59,0.11,0.26
							c0.73-0.31,1.84-0.83,2.36-1c0.27-0.48,1.69-1.32,0.17-0.85c-1.7,0.56-0.87,0.6-2.31,1.32l1.86-1.43l0.2-0.04l1.1-0.91
							c2.88-1.22-0.89,1.35,2.63-0.54l-0.68-0.3c4.32-1.73,10.1-2.91,13.13-3.96c-0.78,0.52-1.02,1.08,0.22,1.06
							c-1.35,0.26-4.01,1.05-5.87,1.73c-0.4,0.03,2.16-1.38,4.27-1.85c-0.62-0.27-1.9,0.22-3.06,0.73
							c-1.16,0.51-2.22,0.99-2.48,0.61c-2.66,0.77-3.56,1.33-4.35,1.86c-0.79,0.52-1.5,0.94-3.76,1.67c0.1,0.39-1.15,0.71-1.22,1.15
							c1.51-0.02,5.71-2.57,8.66-3.3c-0.27,0.13-0.81,0.38-0.89,0.49c2.06-0.64,2.88-0.96,4.27-1.57l-0.19,0.01
							c2.39-1.15,1.64-0.18,3.16-0.46c0.55-0.24,2.65-0.66,2.24-0.85c0.93-0.11,1.85-0.24,2.79-0.31l-0.23-0.4
							c1.53-0.37,1.92-0.18,3.25-0.74l-0.02-0.4c-1.28,0.22-2.56,0.48-3.85,0.73c1.9-0.57,0.45-0.49,2.57-1.06
							c-2.29,0.96,1.73-0.17,2.04,0.17l1.53-0.53l-0.38,0.18c1.27-0.05,1.44-0.42,2.9-0.62c-1.74,0.06-2.91,0.02-5.02,0.73
							c0.77-0.27,1.92-0.62,2.98-0.92c1.06-0.28,2.04-0.51,2.42-0.58c1.64-0.47,2.86-0.3,4.43-0.49c-2.97,0.61,1.2,0.99-4.8,1.66
							c0.1-0.09,0.58-0.16,0.78-0.15c-0.88-0.37-3.57,0.65-4.81,1.12c0.39,0.22-0.94,0.56,1.36,0.26c-0.39-0.02,0.06-0.27,0.88-0.55
							c0.82-0.26,2.03-0.52,3.14-0.59l-0.28,0.68c1.05-0.17,2.11-0.27,3.17-0.41l-0.29,0.07c1.24,0.21,3.36-0.52,5.57-0.53
							c0.78-0.18,2.68-0.38,4.06-0.54c1.38-0.15,2.24-0.33,0.91-0.57c1.99,0.24,3.7-0.31,5.85-0.48l-2.7-0.15
							c3.17-0.56,2.26-0.27,4.8-1.01c0.26,0.17,0.83,0.3,0.32,0.48c4.29-0.05,10.4,0.37,12.95,0.08c3.03,0.28,3.43,1.01,7.67,1.23
							c0.9,0.03-0.62-0.69,2.15-0.11c0.18,0.07-2.75,0.07,0.36,0.47c2.29-0.17,5.13,1.08,8.06,1.26c1.47,0.47,4.08,1.03,3.45,1.27
							c-2.34-0.66-5.73-1.23-6.28-1.16c0.37-0.17-1.66-0.51,0.13-0.38c-3.57-0.89-2.38-0.21-5.6-0.87
							c-0.24,0.12,1.61,0.64,2.32,0.63c-0.07,0.48-6.43-0.68-3.63,0.34c3.43,0.53,4.64-0.35,7.53,0.74
							c-1.25,0.06-3.08-0.5-4.68-0.22l2.41,0.62c0.61-0.02,1.23-0.05,1.84-0.05l-0.12,0.05c2.11,0.66,3.12,0.72,4.11,0.73
							c0.98,0.01,1.94-0.14,3.89,0.24c-2.14-0.93,0.74-0.73-0.89-1.38c1.3,0.3,2.43,0.59,3.21,0.88c0.78,0.3,1.21,0.58,1.15,0.83
							c-4.91-0.92-0.42,0.43-4.97-0.23c0.68,0.37-1.22,0.46,1.38,1.2c3.04,0.41-0.77-0.66,2.21-0.04c0.16,0.09,0.33,0.19,0.2,0.24
							c1.42,0.14,1.55,0.53,3.26,0.76l-0.41-0.03c1.89,0.96,2.3,0.34,3.89,1.28c-0.55-0.61,1.25,0.11,2.39,0.28
							c-1.68-0.76-2.43-1.66-5.92-2.74c-0.51,0.16-0.31,0.4-1.78,0.12c0.76,0.21,1.52,0.41,2.27,0.65c-0.5-0.11-0.89-0.16-1.36-0.23
							l-2.13-0.78c2.82,0.59,1.65-0.09,2.91-0.04c2.48,0.95,2.11,0.58,3.66,1.22c-0.15,0.18,0.99,0.79,2.5,1.53
							c0.75,0.38,1.59,0.81,2.42,1.22c0.82,0.42,1.61,0.86,2.28,1.23c-0.43-0.2-0.98-0.45-1.29-0.58c-2.13-0.63,1.24,0.95,1.26,1.09
							c0.52,0.14,1.03,0.31,1.55,0.48c-0.29-0.1-0.71-0.19-0.12,0.16c2,0.86,2.08,0.42,4.05,1.38c0.02,0.29-1.78-0.24-0.64,0.5
							c0.31,0.41,1.34,1.58,3.88,2.93c0.22,0.03,0.88,0.39,1.63,0.83c-0.11-0.06-0.24-0.13-0.29-0.15c0.48,0.43,0.95,0.88,1.41,1.32
							c-1.55-0.62-2.61-2.03-4.22-2.52l-0.32,0.27c-0.54-0.32-1.2-0.65-1.82-0.94c-0.63-0.26-1.23-0.47-1.62-0.56
							c1.65,0.94,2.03,1.07,3.92,2.08c0.13,0.36-1.26-0.23-1.46-0.32l0.39-0.04c-1-0.79-1.88-1.17-2.85-1.53
							c-0.96-0.38-2.02-0.71-3.41-1.43c-0.42-0.22-0.15-0.12-0.02-0.14c-2.46-0.71-4.56-2.16-7.06-2.53l0.83,0.08
							c-1.64-0.42-4.85-1.17-8.09-1.67l-0.07,0.14c0.32,0.2-0.84-0.17-1.46-0.39l0,0c-1.63-0.23-3.18-0.46-4.45-0.6
							c0.38,0.18,0.87,0.38,1.44,0.53c0.53-0.05,3.37,0.84,3.09,0.34c1.25,0.62,3.49,0.87,4.4,1.36c-1.67-0.82,1.34,0.03,1.72-0.09
							c0.51,0.43,2.59,0.9,2.24,1.14c0.31,0.21-0.77-0.53-1.58-0.59c-1.92-0.34,3.22,1.47,0.86,0.95c2.95,0.78,6.62,2.42,9.55,3.56
							l-1.52-0.89c1.26,0.62,4.21,2.11,4.34,2.39c-0.93-0.46-1.99-1.05-3.21-1.57c-0.22,0.29,2.82,1.47,2.83,1.75
							c1.2,0.46,2.44,0.88,3.63,1.42c-0.47-0.31-0.93-0.63-1.42-0.91c0.53,0.15,1.48,0.81,2.59,1.57c1.08,0.81,2.28,1.76,3.27,2.61
							c-1.48-0.52-3.14-2.36-5.6-3.64c-1.82-0.83,0.78,1.06-0.9,0.23c0.36,0.34,1.38,0.99,1.96,1.2l0.56,0.48
							c-1.64-0.53-4.77-2.51-7.18-3.24c0.22,0.04,0.41,0.09,0.5,0.07c-0.8-0.52-1.66-0.96-2.51-1.39c-0.87-0.41-1.76-0.75-2.64-1.06
							c0.84,0.54,1.24,0.6,1.78,0.77c0.01,0.14-1.61-0.52-2.28-0.66c1.53,0.82,0.18,0.39,1.15,0.91c-1.07-0.36-1.9-0.72-3.15-1.27
							c-0.59-0.44,0.64-0.02,0.59-0.3c-1.36-0.4-1.78-1.15-3.83-1.59c2.57,1.04-0.86,0.24-1.82,0.13l0.43,0.16
							c-0.92,0-1.62-0.22-2.12-0.65c1.11,0.23,2.12,0.65,1.91,0.27c-0.72-0.21-1.42-0.45-2.26-0.6c0.27,0.01,0.54,0,0.8,0.02
							c-1.19-0.33-2.39-0.67-3.59-0.98c-0.64,0.1-1.68,0.2-2.27,0.44c-0.8-0.46-2.05-0.53-2.89-0.64l0.4-0.02
							c-1.53-0.61-5.15-1.11-5.49-0.93c-1.13-0.46,8.41,0.18,0.22-1.21c-3.12-0.52-2.06,0.36-3.87,0.35c0,0,0.11-0.06-0.06-0.13
							c-1.36-0.25-1.53,0-2.66-0.04c0.8,0.22,1.98,0.4,2.38,0.35c-0.45,0.24-2.83-0.44-3.9-0.3c1.41-0.3-2.62-0.49-1.54-0.6
							c-1.35-0.28-2.76-0.39-4.02-0.4c-1.26,0.02-2.36,0.13-3.09,0.25c-1.83-0.66-3.25-0.1-6.26-0.39c0.46,0.02,1.31-0.05,1.95,0.02
							c1.73-0.34-3.13-0.24-0.47-0.54c-0.57,0.05-0.04,0.2,0.54,0.15c1.02-0.01,1.98-0.13,1.73-0.31c-0.82-0.14-1.64-0.29-2.46-0.4
							l0.87-0.08l-3.76-0.5c-0.1,0.07,0.25,0.17,0.43,0.22c-4.37-0.22-9.36,0.27-13.17,0.55c-0.31,0.55-2.64,0.87-5.24,1.26
							c-1.3,0.2-2.67,0.43-3.91,0.65c-1.23,0.26-2.31,0.53-3.03,0.82c0.75-0.43,1.11-1.03,0.57-1.16c0.67-0.15,1.99-0.84,3.55-0.96
							c0.27,0.13,2.21,0.04,1.01,0.41c4.25-0.71-0.64-0.38,0.57-0.94c-4.75,0.75-7.39,1.93-10.27,2.8l-0.1-0.1l-2.16,0.73
							c1.82-0.34,1.86,0.24-0.5,0.6l0.27-0.1c-0.69,0.05-1.69,0.32-2.79,0.64c-1.08,0.35-2.25,0.75-3.26,1.03l-1.25,0.77
							c-2.01,0.6-2.3,0.06-3.08-0.07c-3.15,1.07-4.71,2.35-6.7,3.57c-0.53,0.11-1.92,0.66-2.88,1.05c-0.95,0.4-1.51,0.58-0.44-0.18
							c-1.25,0.81-1.57,1.45-2.14,2.15c-0.29,0.34-0.65,0.69-1.23,1.06c-0.57,0.39-1.35,0.81-2.5,1.33c0.3-0.32,0.62-0.62,0.93-0.93
							c-1.98,1.32-4.22,3.13-5.96,4.91c-1.75,1.77-3.07,3.42-3.78,4.16c0.14-0.94-0.97-0.02-2.11,1.32
							c-1.14,1.33-2.19,3.1-2.77,3.32c0.28-0.13-0.24,1.52-0.19,1.79c-0.19,0.33-0.46,0.92-0.42,1.6c0.62-1.65,0.64,1.37,1.12-1.88
							c-0.01,0.44,0.08,0.91,0.09,1.41c0,0.49,0.04,1.02,0.06,1.59c0.01,1.14,0.09,2.48,0.24,4.14l-0.4-0.01
							c-0.05-0.91-0.07-1.81,0.05-2.71c-0.15,0.13-0.21-0.15-0.24-0.55c-0.03-0.4,0.05-0.89,0.02-1.19
							c-0.29,1.26-0.3,1.87-0.44,2.13c-0.11,0.26-0.21,0.18-0.31,0.1c-0.15-0.17-0.48-0.32-0.22,2.45c0.35,0.49,0.13,0.18,0.52,1.56
							c-0.17-0.65-0.46-0.73-0.22,0.35c0.19,0.32,0.35,0.64,0.56,0.94c0.01,1.01-0.41,0.3-0.67-0.52c-0.28-0.81-0.53-1.68-0.57-0.8
							c-0.2-0.53-0.32-1.18-0.5-1.83c-0.1-0.66-0.21-1.33-0.28-1.92c-0.08-1.17-0.21-2.01-0.48-1.66c-0.23,1.91,0.1,2.77,0.37,3.61
							c0.18,0.42,0.35,0.83,0.5,1.38c0.17,0.54,0.35,1.22,0.55,2.16l-0.07,0.46c0.55,1.27,1.02,1.32,1.49,1.91
							c-0.08,0.11-0.06,0.47,0.34,1.25c1.52,1.77,2.47,2.95,4.25,4.19c-1.94-1.99-2.42-3.09-2.92-4.15c-0.2-0.55-0.5-1.07-0.76-1.8
							c-0.31-0.72-0.68-1.6-1.12-2.88c0.07,0.2,0.23,0.56,0.43,1c0.18,0.44,0.4,0.95,0.69,1.42c0.5,0.96,1.18,1.76,1.45,1.73
							l-0.37,0.15c1.05,1.44,2.2,2.78,3.6,4.58l-1.06-0.93c2.12,2.13,3.07,4.18,5.41,5.26c-0.64-0.59-1.18-1.04-1.64-1.34
							c1.33,0.92,2.86,2.23,4.29,3.27c1.11,0.54,2.28,0.99,3.42,1.45c-0.13,0.15,1.88,1.33,0.75,1.04c2.17,1.59,3.6,1.61,5.02,2.19
							c2.3,1.56-2.23-0.84-2.7-0.52c3.28,1.94,7.14,3.31,9.28,3.71c-0.7-0.34-1.03-0.54-0.96-0.61c0.06,0.16,1.52,0.66,2.32,0.96
							l0.64-0.05c1.3,0.62,1.06,0.7-0.16,0.49c1.29,0.49,2.98,0.53,4.23,1.28c-2.35-0.35-5.09-1.6-6.29-1.85
							c2.33,0.74,3.45,1.28,4.73,1.89c1.28,0.59,2.74,1.23,5.82,1.85c0.05,0.14-1.05,0.12,0.13,0.41c2.75,0.57,0.84-0.34,1.75-0.41
							c-2.13-0.34-3.06-0.75-4.16-1.4l0.6-0.05c0.06,0.12,1.34,0.5,1.71,0.68l0.44-0.33c-0.27,0.4,1.73,1.31,3.44,1.47
							c-1.6-0.69-1.15-0.58-1.48-1.21c2.42,0,2.5,1.09,5.22,1.04c-0.22,0.11-2.53-0.21-0.58,0.28c1.63,0.32,1.48-0.06,2.59,0
							c-1.31,0.19-1.03,0.51-2.46,0.72c-2.93-0.5-1.17-0.23-4.05-0.66l2.34,0.84c-2.48-0.47-1.89,0.05-2.13,0.16
							c2.08,0.66,2.92,0.65,3.56,0.59c0.65-0.08,1.1-0.19,2.47,0.08c1.36-0.04-2.56-0.49-0.44-0.41c2.55,0.46,0.63-0.15,3.52,0.12
							l-0.51,0.11c0.85,0.35,1.76,0.18,2.78,0.28c1.13,0.02-1.09-1.48,3.49-1c-0.24,0.08-0.33,0.14-0.33,0.19
							c-1.61,0.93-3.25,1.85-4.92,2.72c1.19,0.16,2.42,0.33,3.69,0.47c1.27,0.16,2.57,0.3,3.9,0.43c1.51,0.17,3.15,0.28,4.71,0.42
							l0.59,0.05c0.09,0.02,0.22-0.02,0.27,0.06l0.05,0.3l0.2,1.21c0.13,0.8,0.25,1.6,0.38,2.4c-0.17,0.84-0.5-0.2-0.8-1.29
							c-0.15-0.54-0.3-1.11-0.41-1.52c-0.01-0.52-0.49-0.3-0.43-0.26l-2.51-0.28c0.12-0.13,1.53-0.06,2.66-0.04
							c0.13,0.02,0.31-0.03,0.38,0.04c0.03,0.11,0.06,0.22,0.08,0.32c0.05,0.19,0.1,0.33,0.14,0.4c0.08,0.13,0.13-0.04,0.11-0.78
							c0.04-0.43-0.43-0.25-0.69-0.3c-0.3-0.01-0.58-0.02-0.86-0.03c-0.55-0.03-1.07-0.05-1.57-0.08c-0.49-0.03-0.96-0.06-1.42-0.09
							c-0.44-0.03-0.86-0.07-1.28-0.1c-1.6-0.1-3.16-0.22-5.31-0.18c0.62,0.39,2.02,0.52,3.61,0.64c1.56,0.08,3.41,0.2,4.68,0.5
							c-1.14-0.1-2.11-0.11-3.07-0.11c1.3,0.16,2.54,0.28,3.83,0.4c0.32,0.03,0.64,0.06,0.96,0.09l0.12,0.01
							c0.03,0.02,0.02,0.08,0.03,0.12l0.04,0.25l0.08,0.51c0.1,0.67,0.21,1.35,0.32,2.04l0.26,0.55c-0.29-1.88-0.49-3.25-0.5-3.44
							c0.22,1.29,0.5,2.38,0.81,3.23c0.31,0.85,0.63,1.44,0.88,1.47l-0.07-0.47l0.32,0.91C104.6,103.97,104.68,104.59,104.77,105.2z
							 M177.66,75.61c-0.07,0.15-0.12,0.28-0.14,0.39C177.53,75.88,177.44,75.94,177.66,75.61z M59.31,89.02
							c3.22,1.56,6.56,2.97,9.81,4.08c-2.81-1.39-5.1-2.75-5.51-3.23c-0.41-0.5,0.99,0,5.82,1.63l0.65,0.15
							c-0.61-0.27-1.46-0.58-2.42-0.91c-0.95-0.35-2-0.72-3.02-1.07c-0.87-0.18-2.74-0.49-4.37-0.84c-1.65-0.32-3.05-0.69-3.06-0.61
							c0.46,0.5,1.4,0.68,2.42,1.2L59.31,89.02z M57.71,86.52c-1.73-0.99-1.41-0.62-1.77-0.59c0.63,0.31,1.26,0.62,1.9,0.89
							C57.62,86.67,57.53,86.55,57.71,86.52z M55.96,86.15c0.2,0.11,0.36,0.21,0.44,0.28L55.96,86.15z M93.15,97.1
							c-0.09,0-0.12-0.01-0.21-0.01c0.47,0.07,0.94,0.13,1.43,0.2C94.19,97.24,93.82,97.18,93.15,97.1z M89.18,96.13l-0.52,0.27
							c0.44,0.07,0.88,0.15,1.33,0.23C89.86,96.45,89.72,96.29,89.18,96.13z M76.67,92.5c-0.89,0.19-3.54-0.5-3.83-0.12
							c-0.2,0.06,0.34,0.28,0.96,0.49c0.7,0.2,1.44,0.42,2.23,0.65c0.04-0.06,0.22-0.08,0.5-0.07c-0.77-0.25-1.26-0.52-0.87-0.71
							c1.85,1.14,1.91,0.02,4.04,0.7C80.46,93.28,77.36,92.53,76.67,92.5z M135.33,24.5c0.06,0.05,0.25,0.19,0.53,0.38l-1.6-0.04
							c-1.38-0.3-2.61-0.69-3.82-0.97c-1.21-0.3-2.41-0.47-3.71-0.32c-1.17-0.28-1.77-0.67-2.35-0.97c0.58,0.07,1.12,0.15,1.57,0.25
							c3.62-0.03,4.52,0.38,5.23,0.73C131.91,23.92,132.44,24.3,135.33,24.5z M102.83,21.62c0.29-0.04,0.39-0.12,0.39-0.12
							c-6.33,1.14-11.45,2.04-14.82,2.53c0.71,0.24,3.76,0.07,5.21,0.07l-1.22,0.54l-0.83-0.21l-2.15,0.66
							c0.65,0.17,2.41-0.14,3.62-0.07c0.05-0.04,1.01-0.29,2.09-0.57c1.08-0.25,2.29-0.54,2.82-0.7l-3.09,0.01
							c0.84,0.02,4.89-0.43,6.5-0.6c0.02-0.19-2.79-0.33-3.11,0.14c-0.36-0.28,2.86-0.49,0.8-0.67c2.4-0.49,6.27-0.41,8.06-0.28
							l0.31,0.48c1.95,0.18,1.32-0.63,3.64-0.33c-2.86,0.07,0.48,0.52-1.79,0.57c0.72,0.18,0.02,0.5,2.28,0.49
							c1.9-0.63,2.38,0.43,4.17-0.06c1.18,0.25-1.29,0.34,1.04,0.52c2.69-0.21,2.56-0.43,2.75-0.9c-2.51-0.31-2.86,0.46-4.91,0.26
							c1.37-0.21,2.75-0.46,4.13-0.62c-0.75-0.17-1.31-0.21-1.78-0.19c0.83-0.02,1.54-0.08,2.15-0.21c0.35-0.06,0.67-0.12,0.97-0.18
							c-2.34-0.18-4.41-0.24-4.78-0.46l0.33-0.22c-0.82-0.25-2.19-0.13-2.81,0.04c-2.1-0.02-4.2,0.31-4.66,0.03l0.8-0.22
							C106.37,21.47,106.08,21.48,102.83,21.62z M33.94,60.45c0.17-0.42,0.41-0.83,0.62-1.33c0.22-0.5,0.38-1.08,0.65-1.82
							c0.13-0.37,0.24-0.78,0.38-1.24c0.17-0.45,0.34-0.96,0.51-1.53c0.19-0.57,0.46-1.17,0.7-1.87c0.29-0.67,0.62-1.42,1-2.23
							c-0.08,0.17-0.14,0.35-0.2,0.53c1.05-1.48,1.8-3.06,2.83-4.63c0.98-1.6,2.27-3.16,4.08-4.46c-1.32,1.72-1.31,1.6-2.3,3.82
							c0.45-0.6,0.85-1.24,1.35-1.81c-0.1,0.77,1.26-1.02,2.56-2.07l-0.73,1.36c-0.41,0.28-1.06,0.86-1.61,1.38
							c-0.53,0.53-0.91,1.01-0.84,1.02c0.18-0.21-0.56,0.25-1.38,1.09c-0.86,0.81-1.8,2.01-2.28,2.95c0.18-0.02,0.9-0.95,1.45-1.64
							c0.6-0.67,1.07-1.07,0.71-0.12c0.43-0.75,0.74-1.13,1.1-1.48c0.37-0.34,0.75-0.68,1.3-1.4c-0.97,1.47,0.08,0.66-0.56,1.79
							c0.61-0.75,1.22-1.51,1.91-2.21c0.08,0.03-0.68,0.79-1.08,1.46c-0.43,0.65-0.63,1.09,0.32,0.37c0.29-0.51,1.07-1.23,1.72-1.9
							c0.67-0.64,1.26-1.19,1.14-1.36l0.13,0.04c0.84-0.7,0.98-0.92,1.14-1.22c0.18-0.27,0.37-0.63,1.56-1.33
							c-0.08-0.17-0.62,0-1.36,0.65c-0.58,0.6-0.57,0.84-1.79,2.01c-0.78,0.27,1.56-1.32,0.34-0.94c-0.3,0.1-1.13,0.88-1.77,1.5
							c-0.62,0.64-1.12,1.09-0.88,0.44c0.54-0.51,1.1-1.01,1.69-1.47c-0.22-0.33,1.02-1.4,0.8-1.6c0.5-0.49,1.08-0.86,1.65-1.24
							c0.59-0.36,1.16-0.73,1.65-1.29c0.35-0.55-0.8-0.37,1.34-1.5c0.94-0.27,2.58-1.12,4.25-1.97c1.67-0.86,3.35-1.72,4.27-2.2
							l1.56-0.96c-0.25-0.18-3.16,1.45-2.23,0.68c0.85-0.43,1.71-0.83,2.57-1.24l-0.14,0.23c0.87-0.36,1.72-0.84,2.49-1.25
							c-0.72,0.59-2.67,1.25-2.13,1.49c1.26-0.44,1.51-0.36,2.62-0.89c-0.24,0.13-0.44,0.25-0.38,0.29c2.56-0.81,2.28-1.33,2.87-1.7
							c2.39-1.43-2.76,0.46-2.58-0.04c2.48-1,4.99-1.95,7.55-2.76c-0.62,0.32-1.24,0.64-0.95,0.73c1.94-0.37,0.13,0.29,2.77-0.49
							c-0.34-0.49,3.26-1.25,5.1-1.97c0.94,0.02,1.13,0.03-0.81,0.48c0.31,0.3,2.87-0.43,3.82-0.56c0.52-0.19,1.43-0.44,2-0.63
							c-0.82-0.03-0.53-0.33,1.15-0.77l0.09-0.09c-1.41,0.17-3.22,0.42-4.89,0.69c-1.66,0.31-3.18,0.64-4,1.05l0.45-0.3
							c-3.3,0.49-6.74,2.54-8.38,2.37c0.05-0.3-0.65,0.15-0.72-0.25c-0.74,0.35-1.47,0.74-2.2,1.11l0.42-0.34
							c-1.3,0.48-2.58,1.02-3.85,1.57l0.07-0.11c-1.69,1.09-2.99,1.97-3.98,2.73c0.07,0.16,0.21,0.15-0.32,0.55
							c-0.55,0.36-0.99,0.58-1.39,0.77l0,0l0,0c-0.91,0.43-1.63,0.51-2.76,1.03c1.11-0.63,2.23-1.25,3.37-1.83
							c0.16-0.38-0.29-0.57-2.06,0.16c0.68-0.37,0.87-0.73,0-0.31c-0.06,0.12-2.16,1.36-1.23,1.13c-1.57,0.96-3.74,2.02-5.97,3.5
							c-2.23,1.45-4.57,3.28-6.33,5.53c2.67-3.11-2.62,2.04,0.53-1.25c-1.31,0.94-1.69,1.56-2.02,2.19
							c-0.35,0.62-0.63,1.3-1.64,2.56c-0.29,0.13,1.08-1.4,1.33-2.16c-1.83,2.01-2.96,4.08-3.83,6.19
							c-0.84,2.13-1.39,4.32-1.86,6.89l-0.4,0.17c-0.02,0.25-0.05,0.51-0.08,0.77c0,0.27,0,0.54,0,0.81
							C33.92,59.31,33.86,59.88,33.94,60.45z M37.06,70.23c0.47,0.87,1.08,1.68,1.66,2.51c-0.05-0.08-0.11-0.16-0.16-0.25
							c0.66,0.74,1.28,1.51,2,2.18c-0.54-0.72-0.83-1.43-0.85-1.67c0-0.25,0.3-0.05,1.12,0.86c-0.25-0.07,0.06,0.61-0.55-0.01
							c0.83,1.47,3.27,4.28,2.99,3.19c-1.29-0.98-1.29-1.24-1.22-1.44c0.08-0.21,0.21-0.34-0.73-1.17c0.56,0.41,1.03,0.87,1.5,1.32
							c0.46,0.46,0.9,0.93,1.42,1.29c-1.15-0.7-0.29,0.73,1.14,2.15c0.71,0.51,2.49,2.06,3.78,2.75c-0.22-0.58,0.89,0.01-0.93-1.44
							c0.72,0.46,1.85,1.15,2.98,2.11c-0.54-0.25-1.39-0.83-1.41-0.68c0.6,0.82,1.58,1.4,2.03,1.85c0.43,0.26,0.87,0.5,1.3,0.73
							c-0.11-0.1-0.2-0.19-0.25-0.28l1.58,0.57c-1.98-0.96-0.8-0.64-0.67-0.8c-0.24,0.3,1.18,0.77,1.85,1.09
							c-0.42-0.37-0.81-0.76-1.21-1.15c0.76,0.23,2.27,1.58,2.11,1.03c-2.92-1.77-4.07-2.38-6.67-4.03l0.84,0.98
							c-1.5-0.9-1.86-1.32-2.22-1.82c-0.36-0.5-0.78-1-2.23-2.26c-0.36-0.2-0.8-0.55-1.26-0.96c-0.47-0.41-0.97-0.86-1.41-1.31
							c-0.91-0.86-1.63-1.64-1.89-1.48c0.23,0.12-0.07-0.41-0.51-1.1c-0.42-0.71-1.03-1.54-1.46-2.03
							c-0.63-0.45-1.49-1.66-2.06-2.63c-0.55-0.98-0.93-1.67-0.78-1.01c0.44,1.14,1.43,2.44,1.64,3.45
							c-0.44-0.65-0.82-1.35-1.22-2.03c0.14,0.51,0.3,1.01,0.46,1.52C37.49,69.49,37.27,69.69,37.06,70.23z M82.34,99.35
							c0.03,0.01,0.06,0.02,0.09,0.03l-0.1-0.02L82.34,99.35z"/>
						<path class="st21" d="M169.08,35.47c0.66,0.26,2.11,1.23,1.98,0.81C170.93,36.55,168.43,34.63,169.08,35.47z"/>
						<path class="st21" d="M170.64,36.86c0.14,0.01,0.14-0.14,0.78,0.3c-0.59-0.4-1.2-0.78-1.82-1.13
							C169.95,36.3,170.31,36.57,170.64,36.86z"/>
						<path class="st21" d="M171.1,39.87c0.97,0.46,1.61,0.74,2.85,1.85c-0.03,0.51-0.55,0.08-1.24-0.41
							c-0.7-0.48-1.51-1.09-2.03-1.01c1.16,0.95,2.04,1.41,2.82,1.9c0.8,0.47,1.57,0.89,2.46,1.76c-0.16-0.27-0.49-0.71-0.92-1.2
							c-0.45-0.47-0.99-0.99-1.53-1.47C172.4,40.37,171.32,39.64,171.1,39.87z"/>
						<polygon class="st21" points="169.44,39.89 170.89,40.71 170.79,40.58 169.33,39.76 						"/>
						<path class="st21" d="M136.8,20.17c-0.11-0.28-1.26-0.22-1.86-0.27C135.41,20,136.07,20.17,136.8,20.17z"/>
						<path class="st21" d="M145,98.27c4.43-1.22,8.8-2.69,13.08-4.48C154.39,95.31,150.92,96.57,145,98.27z"/>
						<path class="st21" d="M91.86,20.45c1.79-0.33,3.07-0.64,4.38-0.9c1.3-0.28,2.62-0.52,4.47-0.68
							c-4.92-0.17-6.36,1.28-10.47,1.28C90.78,20.24,91.32,20.35,91.86,20.45z"/>
						<path class="st21" d="M92.91,18.37c0.65,0.39-2.75,0.86-2.18,1.14c2.43-0.4,1.09-0.57,3.32-0.79L92.91,18.37z"/>
						<polygon class="st21" points="109.55,24.99 108.49,25.24 109.34,25.15 						"/>
						<path class="st21" d="M76.46,21.68l0.37-0.19c-0.61,0.09-1.22,0.21-1.83,0.31L76.46,21.68z"/>
						<path class="st21" d="M77.21,21.29l-0.37,0.19L77.21,21.29z"/>
						<path class="st21" d="M108.2,25.99l1.56,0.08l0.77-0.21C109.75,25.88,108.98,25.95,108.2,25.99z"/>
						<path class="st21" d="M94.18,24.37c0.46-0.1,0.93-0.21,1.4-0.3C95.3,24.11,93.34,24.16,94.18,24.37z"/>
						<polygon class="st21" points="65.54,24.74 63.88,25.52 64.07,25.5 65.72,24.72 						"/>
						<path class="st21" d="M83.44,27.29c1.02,0.16-2.72,0.64-0.71,0.56C84.46,27.44,83.72,27.4,83.44,27.29z"/>
						<path class="st21" d="M62.86,30.86c-0.22,0.09-0.44,0.19-0.65,0.32C62.47,31.06,62.68,30.95,62.86,30.86z"/>
						<path class="st21" d="M62.86,30.86c0.7-0.28,1.46-0.43,1.9-0.72C63.83,30.34,63.53,30.52,62.86,30.86z"/>
						<path class="st21" d="M55.07,34.66l0.62-0.3c-0.53,0.48-0.25,0.3,0.23-0.11c0.64-0.35,0.55-0.43,0.59-0.54
							c0.11-0.11,0.22-0.22,0.33-0.33c-0.18,0.15-0.33,0.28-0.47,0.39C55.38,34.3,54.78,34.63,55.07,34.66z"/>
						<path class="st21" d="M29.62,57.81c0.49-3.22,0.92-3.96,1.11-3.73c0.38-1.46,0.54-2.06,0.58-2.56
							c0.06-0.49-0.01-0.89,0.32-1.72c-0.35,0.77-0.53,1.44-0.75,2.01c-0.1,0.29-0.2,0.56-0.29,0.82c-0.07,0.27-0.15,0.54-0.22,0.81
							c-0.14,0.55-0.31,1.11-0.44,1.8C29.84,55.95,29.69,56.77,29.62,57.81z"/>
						<path class="st21" d="M31.63,49.8c0.15-0.35,0.29-0.68,0.47-1.08C31.89,49.16,31.75,49.49,31.63,49.8z"/>
						<polygon class="st21" points="65.35,33.18 64.09,34.13 64.59,33.87 						"/>
						<path class="st21" d="M29.53,62.65c-0.06-0.6-0.09-1.58-0.03-2.06C29.2,60.43,29.53,63.27,29.53,62.65z"/>
						<path class="st21" d="M36.26,52.34c0.26-0.17,0.81-1.72,1.21-2.27C36.98,50.88,36.23,51.42,36.26,52.34z"/>
						<path class="st21" d="M33.1,71c-0.23-0.52-0.39-1.39-0.03-1.14C32.63,69.17,31.73,68.34,33.1,71z"/>
						<path class="st21" d="M34.97,56.87l0.15-0.35c0-0.6,0.15-1.17,0.22-1.76C35.18,55.46,35.02,56.15,34.97,56.87z"/>
						<path class="st21" d="M40.51,52.62c0.19-0.83-0.25-0.32-0.64,0.08c-0.39,0.39-0.72,0.67-0.22-0.75
							c-0.97,1.68-0.79,1.68-0.59,1.54c0.21-0.13,0.48-0.36,0,0.93c0.16-0.37,0.31-0.69,0.48-0.95c0.18-0.25,0.34-0.45,0.48-0.59
							C40.3,52.6,40.48,52.52,40.51,52.62z"/>
						<path class="st21" d="M39.06,54.43c-0.09,0.22-0.19,0.45-0.28,0.71C38.9,54.86,38.99,54.63,39.06,54.43z"/>
						<path class="st21" d="M44.8,77.39c-0.23-0.17-0.39-0.27-0.54-0.36C44.43,77.16,44.61,77.28,44.8,77.39z"/>
						<path class="st21" d="M38.63,62.94l-0.41-1.18c-0.14-0.4-0.21-0.81-0.32-1.23c0.11,0.42,0.15,0.99,0.32,1.59
							c0.07,0.3,0.13,0.62,0.2,0.93c0.1,0.31,0.19,0.61,0.29,0.9c0.16,0.59,0.41,1.09,0.6,1.43c0.19,0.34,0.34,0.51,0.43,0.4
							c-0.15-0.65-0.43-1.33-0.59-1.95c-0.1-0.31-0.2-0.59-0.3-0.84c-0.07-0.25-0.15-0.46-0.23-0.62L38.63,62.94z"/>
						<path class="st21" d="M55.25,92.15c-0.44-0.14-0.88-0.27-1.31-0.44c0.49,0.29,1,0.54,1.5,0.81
							C55.04,92.25,55.99,92.31,55.25,92.15z"/>
						<path class="st21" d="M55.74,92.68l-0.29-0.15C55.51,92.57,55.6,92.62,55.74,92.68z"/>
						<path class="st21" d="M40.93,73.59c-0.52-0.77-0.99-1.34-1.51-2C39.5,71.95,40.83,73.86,40.93,73.59z"/>
						<path class="st21" d="M64.25,95.22c-0.7-0.23-1.4-0.45-2.09-0.7c0.75,0.3,1.51,0.55,2.26,0.82L64.25,95.22z"/>
						<path class="st21" d="M73.79,99.1l0.34,0.19c0.6,0.11,1.21,0.19,1.81,0.27l-0.35-0.18C74.99,99.3,74.39,99.21,73.79,99.1z"/>
						<path class="st21" d="M64.6,85.94c-1.24-0.54-2.37-0.59-2.09-0.36c0.8,0.36,1.63,0.67,2.45,1c-0.48-0.61-0.69-0.25-2.06-0.94
							C63.46,85.76,64.04,85.85,64.6,85.94z"/>
						<path class="st21" d="M108.97,156.8c-0.32-0.31-1.29-6.19-1.2-7.02c0.2,0.46,0.78,2.97,0.52,0.82
							c-0.36-0.79-0.74-1.66-1.14-2.61c-0.42-3.26-0.08-2.55,0.42-0.96c0.5,1.61,1.14,4.11,1.43,5.05
							c-0.48-2.72-0.84-4.18-1.23-5.74c-0.39-1.54-0.81-3.18-1.36-6.06c0.28,1.78,0.39,3.16,0.48,4.36c-0.24,1.1-1.2-4.99-2-8.96
							c0.34,2.82-0.06,1.57-0.58-0.23c-0.08-0.34-0.14-0.55-0.2-0.69c-0.06-0.21-0.12-0.41-0.18-0.61l0.1,0.51
							c-0.05,0.01-0.08,0.18-0.07,0.65c0.4,1.76,0.66,3.43,0.88,5.01c0.22,1.57,0.41,3.04,0.64,4.26c0.02-1.8,0.43,0.13,0.92,2.8
							c0.49,2.67,1.08,6.21,1.42,7.38l0.68,3.17l0.24,1.25c0.01,0.49-0.09,0.46-0.53-1.09c0.38,1.23,1.4,6.81,1.38,5.5l2.33,12.14
							c0.07,0.51,0.13,1.06,0.18,1.58c0.09,0.22,0.11,0.11,0.1-0.11l2.02,10.54l7.48-42.59c-0.5,2.51-1,4.39-1.51,6.8
							c0.41-5.09-0.8,4.03-0.83,1.63c0.21-2.15,0.66-4.41,0.99-5.63c-0.05-1.05-0.53,0.51-0.64-0.4c-0.59,2.52-0.77,4.68-0.97,7.06
							c-0.19,2.34-0.41,4.89-0.97,7.62c-0.06-1.25,0.16-3.87-0.49,0.02l0.15-1.18c-0.48,3.6-0.74,4.18-0.92,4.63
							c-0.19,0.48-0.29,0.82-0.54,4.42l-0.07-1.89c-0.37,3.65-1.19,8.48-1.73,11.77c-0.06-0.29-0.11-0.55-0.16-0.79l0.03-0.24
							c-0.8-2.97-1.05-4.14-1.3-5.49c-0.26-1.39-0.52-3-1.46-7.42c0.32,0.85,0.63,1.64,0.92,2.36c-0.57-3.98-0.81-2.59-1.25-5.17
							c0.05-0.14,0.03-1.77,0.46,0.05l-2.42-8.91C108.3,152.41,108.95,155.81,108.97,156.8z"/>
						<path class="st21" d="M106.41,140.28c-0.1-0.65-0.23-1.36-0.4-2.16C106.16,138.92,106.29,139.62,106.41,140.28z"/>
						<path class="st21" d="M122.35,141.43l-0.65,3.73C121.92,144.05,122.14,142.85,122.35,141.43z"/>
						<path class="st21" d="M102.48,124.32c0.03,1.22-0.45-0.83-0.64-1.01l1.23,6.4c0.13-0.12,0.44,0.56,0.53,0.32L102.48,124.32z"
							/>
						<path class="st21" d="M103.27,132.28c0.15,0.2,0.39,1,0.65,1.87l-0.85-4.44C102.98,129.8,102.98,130.36,103.27,132.28z"/>
						<polygon class="st21" points="110.3,125.72 110.4,126.18 110.64,126.79 						"/>
						<path class="st21" d="M111.38,134.95c0-1.25-0.33-2.03-0.45-2.36C111.21,134.03,111.04,133.62,111.38,134.95z"/>
						<path class="st21" d="M112.51,127.66c0.07,0.12,0.13,0.23,0.19,0.32l0.01-0.17C112.65,127.77,112.58,127.72,112.51,127.66z"/>
						<path class="st21" d="M124.75,118.9c0.05-0.31,0.09-0.62,0.14-0.93C124.81,118.4,124.77,118.67,124.75,118.9z"/>
						<path class="st21" d="M120.94,142.61c0.84-3.47,0.69-2.12,0.41,0.09c-0.28,2.18-0.69,5.22-0.28,4.53l0.67-4.9l0.04,0.65
							l0.94-5.63c-0.41,0.8-0.56,1.58-0.73,0.96c0.66-3.44,0.83-3.93,0.98-4.14c0.15-0.22,0.28-0.14,0.92-2.74l1.27-7.49l0.02,0.38
							c0.06-0.38,0.06-0.55,0.04-0.69l2.5-15.13c0.27-2.79-0.75,1.43-0.79-0.66c-0.56,3.19-1.68,7.87-1.19,8.23
							c-0.06-0.12-0.17-0.36-0.34,0.28l0.12,1.92l0.45-1.73c0.06,0.97-0.2,2.94-0.53,4.8c-0.17,0.93-0.35,1.83-0.52,2.57
							c-0.09,0.37-0.17,0.69-0.24,0.96c-0.1,0.43-0.21,0.84-0.28,1.06c0.06-0.38,0.1-0.73,0.15-1.04c0.02-0.18,0.03-0.34,0.05-0.49
							c0.02-0.29,0.03-0.53,0.03-0.73c0-0.4-0.02-0.67-0.03-0.98c-0.01-0.61,0.06-1.38,0.62-3.72c-0.17,0.19-0.57,1.01-0.45-0.07
							c-0.21,1.39-0.43,2.75-0.66,4.09c-0.32,1.83-0.63,3.64-0.95,5.45C122.37,132.87,121.65,137.29,120.94,142.61z"/>
						<path class="st21" d="M144.02,98.08l-0.03,0.06C144.08,98.09,144.11,98.06,144.02,98.08z"/>
						<path class="st21" d="M142.1,98.47c-0.88,0.4-1.77,0.77-2.66,1.13c1.45-0.3,2.89-0.67,4.33-1.02l0.22-0.44
							c-0.36,0.19-1.83,0.72-2.45,0.72L142.1,98.47z"/>
						<path class="st21" d="M136.25,100.55c2.23-0.57,2.02-0.98,0.75-0.96c2.02-0.59,1.18,0.25,2.5-0.49
							c-0.11-0.29-2.6,0.4-3.18,0.55L136.25,100.55z"/>
						<polygon class="st21" points="128.17,103.39 128.1,102.75 127.78,104.25 						"/>
						<path class="st21" d="M128.1,102.75l0.04-0.18l0.02-0.05l0.03-0.1l0.06-0.19c-0.13-0.02-0.27-0.04-0.37,0.01l0.12,0.21
							C128.03,102.51,128.08,102.51,128.1,102.75z"/>
						<path class="st21" d="M128.68,101.46c0.18,0.01,0.37,0.02,0.57,0.01L128.68,101.46z"/>
						<path class="st21" d="M128.36,101.64l0.05,0.03l0.06-0.19c0.04-0.04,0.15-0.01,0.21-0.02c-0.08,0.01-0.21-0.05-0.24,0.01
							L128.36,101.64z"/>
						<path class="st21" d="M128.24,102.22c0.31,0.04,0.62,0.16,0.61-0.27c-0.14-0.11-0.29-0.2-0.43-0.28L128.24,102.22z"/>
						<path class="st21" d="M113.33,134.46c0.06-0.02,0.11-0.06,0.16-0.11l-0.01-0.3c-0.05,0.06-0.1,0.1-0.16,0.12L113.33,134.46z"
							/>
						<path class="st21" d="M114.14,137.29c0.02-0.53,0.04-0.93,0.06-1.31C114.17,136.34,114.15,136.76,114.14,137.29z"/>
						<path class="st21" d="M114.01,125.81c0.08,0.46,0.1,0.92,0.11,1.33c0.01,0.39,0.02,0.71,0.11,0.57
							c0.06,0.49,0.11,1.17,0.12,1.77c0.01,0.59-0.02,1.11-0.09,1.07c-0.07-1.19,0.03-1.16-0.1-2.03c0.04,1.57-0.04,0.82,0.09,2.45
							c-0.04,1.72,0,3.17-0.06,5.02c0.08-0.95,0.22-1.44,0.38-2.22c0.15-0.76,0.31-1.8,0.29-3.22c-0.06-1.1-0.2-2-0.35-2.95
							c-0.15-0.93-0.33-2.01-0.5-3.04C113.92,124.1,113.86,123.95,114.01,125.81z"/>
						<path class="st21" d="M113.77,123.11c-0.01-0.15,0-0.03,0.01,0.25C113.83,124.48,113.77,123.14,113.77,123.11z"/>
						<path class="st21" d="M118.45,127.52c-0.06-0.26,0.08-1.77-0.13-1.56l-0.26,2.21C118.16,127.69,118.3,127.62,118.45,127.52z"
							/>
						<path class="st21" d="M117.94,129.17l0.12-1C118.01,128.39,117.97,128.7,117.94,129.17z"/>
						<path class="st21" d="M118.53,127.46c-0.02,0.02-0.05,0.04-0.07,0.06C118.47,127.57,118.49,127.58,118.53,127.46z"/>
						<path class="st21" d="M132.27,101.16c-0.01,0.2,1.16-0.1,1.75-0.26C133.52,100.96,132.84,101.01,132.27,101.16z"/>
						<path class="st21" d="M174.43,84.6l0.98-0.55C175.03,84.22,174.85,84.3,174.43,84.6z"/>
						<path class="st21" d="M181.32,69.15c-0.02-0.04-0.02-0.12,0-0.22C181.29,69.03,181.29,69.1,181.32,69.15z"/>
						<path class="st21" d="M181.32,68.93c0.17-0.64,1.22-2.4,1.16-3.19l0.05,0.11c0.08-0.44,0.18-0.88,0.24-1.32
							c-0.17,0.6-0.41,1.54-0.75,2.38C181.73,67.77,181.36,68.54,181.32,68.93z"/>
					</g>
				</g>
			</g>
		</g>
	</g>
</g>
<text transform="matrix(1 0 0 1 48.4385 59.6113)"><tspan x="0" y="0" class="st22 st23">Diameter  adjusting</tspan><tspan x="20.82" y="14" class="st22 st23">spray nozzle</tspan></text>
</svg>
