<?xml version="1.0" encoding="utf-8"?>
<!-- Generator: Adobe Illustrator 24.3.0, SVG Export Plug-In . SVG Version: 6.00 Build 0)  -->
<svg version="1.1" id="Layer_1" xmlns="http://www.w3.org/2000/svg" xmlns:xlink="http://www.w3.org/1999/xlink" x="0px" y="0px"
	 viewBox="0 0 237.12 178.08" style="enable-background:new 0 0 237.12 178.08;" xml:space="preserve">
<style type="text/css">
	.st0{fill:none;stroke:#000000;stroke-width:6.1975;stroke-miterlimit:10;}
	.st1{fill:#FFFFFF;stroke:#000000;stroke-width:6.1975;stroke-linecap:round;stroke-linejoin:round;stroke-miterlimit:10;}
	.st2{fill:none;stroke:#000000;stroke-width:4.1833;stroke-linecap:round;stroke-linejoin:round;stroke-miterlimit:10;}
	.st3{fill:#F7931E;}
	.st4{fill:#ED1C24;}
	.st5{fill:#006837;}
	.st6{fill:#0071BC;}
	.st7{fill:#FF7BAC;}
	.st8{fill:#D66995;}
	.st9{stroke:#000000;stroke-width:2.125;stroke-miterlimit:10;}
	.st10{fill:#999999;stroke:#000000;stroke-width:2.125;stroke-miterlimit:10;}
	.st11{fill:#C1BFC0;stroke:#000000;stroke-width:2.125;stroke-miterlimit:10;}
	.st12{fill:none;stroke:#000000;stroke-width:1.5938;stroke-miterlimit:10;}
	.st13{fill:none;stroke:#000000;stroke-width:3;stroke-miterlimit:10;}
	.st14{fill:#0071BC;stroke:#000000;stroke-width:0.5312;stroke-miterlimit:10;}
	.st15{fill:none;stroke:#000000;stroke-width:3.7188;stroke-linecap:round;stroke-linejoin:round;stroke-miterlimit:10;}
	.st16{fill:none;stroke:#ED1C24;stroke-width:19;stroke-linecap:round;stroke-linejoin:round;stroke-miterlimit:10;}
	.st17{fill:none;stroke:#ED1C24;stroke-width:13;stroke-linecap:round;stroke-linejoin:round;stroke-miterlimit:10;}
	.st18{fill:#F8A13B;}
	.st19{fill:#207B50;}
	.st20{fill:#EF3940;}
	.st21{fill:#2083C4;}
	.st22{fill:#202020;}
	.st23{font-family:'FuturaPT-DemiObl';}
	.st24{font-size:19.7248px;}
</style>
<text transform="matrix(0.9972 0 0 1 60.7744 100.6528)"><tspan x="0" y="0" class="st23 st24">Clear panel to</tspan><tspan x="2.12" y="21.37" class="st23 st24">see when can</tspan><tspan x="35.31" y="42.74" class="st23 st24">is low</tspan></text>
<g>
	<g>
		<g>
			<g>
				<g>
					<g>
						<path class="st19" d="M18.2,29.85c-0.64-1.12-0.95-2.23-0.63-1.85c-1.47-2.2-1.21-2.4-1.85-2.45
							c-1.02-1.37-1.52-3.14-0.44-1.54l-2.55-4.16L14,22.47c-0.77-0.49-2.03-4.19-2.93-4.76l2.48,4.65L13.3,22.2
							c0.7,0.99,1.72,3.09,2.04,3.83c-0.13-0.08-0.2,0.05-0.64-0.77c2.91,5.65,1.5,1.15,4.08,5.76
							C18.61,30.73,18.42,30.37,18.2,29.85z"/>
						<path class="st19" d="M19.72,35.15l1.53,1.7l1.59,3.37c0.19-0.05,1.59,2.28,0.89,0.57c-0.19-0.3-0.57-0.91-0.82-1.42
							c0.57,0.17,2.48,4.29,2.36,3.12c-1.46-2.56-1.59-3-2.73-4.45c-1.21-2.41-2.04-4.2-2.48-5.39c-0.43-0.68-0.71-0.66-1.23-1.54
							c0.11,0.2,0.21,0.38,0.33,0.61l-0.52,0.39c0.51,0.69,0.83,1.43,1.28,2.26l-2.68-3.52c0.12,1.52,2.41,5.15,2.98,6.79
							C19.72,35.51,21.24,39.02,19.72,35.15z"/>
						<path class="st19" d="M18.82,31.12c-0.01-0.02-0.04-0.07-0.05-0.09C18.79,31.05,18.81,31.09,18.82,31.12z"/>
						<path class="st19" d="M206.54,99.46c-0.46-0.73-0.72-0.87-0.85-0.94c1.74,2.72,2.95,5.72,3.37,8.83
							c0.06-0.16,0.03-0.91,0.04-1.42c0.01-0.25,0-0.44,0.03-0.45c0.04-0.01,0.12,0.15,0.21,0.6c0.06-0.43-0.2-1.24-0.44-1.99
							c-0.23-0.75-0.65-1.38-0.8-1.51l0.49,0.57c-0.28-0.5-0.48-0.97-0.62-1.38c-0.16-0.4-0.28-0.74-0.32-1
							c-0.09-0.5,0.09-0.62,0.51,0.02l-0.09-0.17c-1.28-1.75-2.85-3.24-4.45-4.6c0.69,0.91,1,1.22,1.4,1.55
							C205.43,97.88,205.82,98.29,206.54,99.46z"/>
						<path class="st19" d="M22.91,28.45c0.97,0.95,1.12,1.03,1.06,0.87C23.61,29,23.26,28.7,22.91,28.45z"/>
						<path class="st19" d="M202.45,95.1c-0.5-0.42-1.09-0.76-1.62-1.14C201.45,94.44,202.05,94.81,202.45,95.1z"/>
						<path class="st19" d="M214.32,105.46c0.02,0,0.04,0.02,0.06-0.04c-0.13-0.35-0.23-0.7-0.4-1.03c0,0.02,0.01,0.02,0.01,0.03
							C214.13,104.79,214.21,105.14,214.32,105.46z"/>
						<path class="st19" d="M161.92,75.88c-0.21-0.04-0.4-0.08-0.65-0.13C161.5,75.81,161.72,75.85,161.92,75.88z"/>
						<path class="st19" d="M203.32,134.88c0.64-0.57,1.22-1.24,1.82-1.86c0.61-0.61,1.18-1.27,1.74-1.96
							c-0.36,0.63,1.37-1.23,0.75-0.29c0.28-0.28,1.47-1.79,1.06-1.45c-0.24,0.28-0.46,0.57-0.7,0.83c0.73-1.23,0.76-1.57,0.96-2.05
							c0.21-0.47,0.55-1.15,1.73-3.14c-1.9,2.17-2.51,3.22-3.31,4.53c-0.33,0.38-0.61,0.7-0.89,1.02c-0.8,1.23-1.71,2.34-2.61,3.49
							C203.69,134.31,203.5,134.59,203.32,134.88z"/>
						<path class="st19" d="M68.43,72.04l0.04-0.06C68.44,72.01,68.43,72.03,68.43,72.04z"/>
						<path class="st19" d="M68.63,71.76l-0.16,0.22C68.66,71.84,69.28,71.57,68.63,71.76z"/>
						<path class="st19" d="M203.17,95.42c-0.11,0.02-0.37-0.1-0.72-0.32l1.16,0.92C203.49,95.85,203.33,95.63,203.17,95.42z"/>
						<path class="st19" d="M206.13,97.39c0.69,1.05,1.39,2.09,1.93,3.22c0.28,0.38,0.6,0.74,0.83,1.15
							c-0.29-0.66-0.74-1.32-1.14-2.08C207.3,98.96,206.74,98.2,206.13,97.39z"/>
						<path class="st19" d="M167.6,77.78c-7.56-2.09,2.03-0.07-1.39-1.22c-2.13-0.51-2.95-0.42-4.29-0.68
							c6.08,1.38-1.04,0.68,5.02,2.22c-0.99,0.24-4.48-0.67-6.51-1.29c-2.22-1.05,2.13,0.1,2.78-0.2c-2.45-0.57-2.06-0.33-3.16-0.31
							c-1.9-0.54-3.94-0.78-5.76-1.08c-1.83-0.26-3.45-0.55-4.55-1.1c-2.85-0.33-2.7-0.07-4.37-0.04c-0.4,0.48,4.16,0.92,5.12,1.54
							c-0.21-0.08-0.61-0.25-0.48-0.31l2.4,0.56c-2.26-0.61,0.42-0.48,1.66-0.29c0.89,0.18,2.67,0.52,2.39,0.62l-1.37-0.17
							c0.85,0.27,1.82,0.37,2.81,0.49c0.98,0.15,1.97,0.31,2.84,0.67c0.07,0.14-0.63,0.03-0.76,0.08c1.06,0.05,2.08,0.21,3.21,0.45
							c1.13,0.23,2.39,0.48,3.9,0.82l-1.86,0.01c2.54,0.09,7.85,1.93,11.28,3.66c-0.36-0.25-1.05-0.59-0.58-0.52
							c2.14,0.72,3.57,1.7,2.5,1.58c0.56,0.09,1.28,0.4,2.13,0.78c0.85,0.37,1.79,0.86,2.74,1.38c0.96,0.5,1.92,1.04,2.81,1.51
							c0.91,0.46,1.73,0.86,2.43,1.12c4.3,1.48,8.53,3.33,12.31,5.91c-0.4-0.32-0.81-0.66-1.25-1.02c-0.59-1.17-1.14-1.6,0.79-0.45
							c-1.78-1.25-1.36-0.47-3.89-2.47c1.11,0.62,1.78,0.35-0.71-1.58c-3.33-2.12-6.4-3.41-9.47-4.45
							c-3.08-1.02-6.11-1.88-9.65-2.88c-0.05-0.24-1.44-0.82-3.15-1.47c-1.72-0.63-3.75-1.31-5.09-1.75
							c1.15-0.09,3.17,0.48,5.26,1.11c-1.28-0.47-3.5-1.24-5.17-1.75L167.6,77.78z"/>
						<path class="st19" d="M185.11,83.25c-0.16-0.12-0.34-0.22-0.52-0.33C184.68,83,184.83,83.1,185.11,83.25z"/>
						<path class="st19" d="M174.3,79.23c0.03,0,0.03-0.02,0.04-0.03c-0.22-0.07-0.43-0.14-0.66-0.21
							C173.9,79.08,174.15,79.17,174.3,79.23z"/>
						<path class="st19" d="M202.58,93.51c0.41,0.26,0.66,0.5,1.04,0.79c-0.22-0.19-0.46-0.46-0.73-0.69
							C202.62,93.41,202.47,93.33,202.58,93.51z"/>
						<path class="st19" d="M203.14,95.1l-0.27-0.09c0.12,0.16,0.2,0.27,0.3,0.41C203.27,95.41,203.28,95.32,203.14,95.1z"/>
						<path class="st19" d="M138.43,68.82l-0.77,0C138.11,68.86,138.32,68.85,138.43,68.82z"/>
						<path class="st19" d="M159.3,74.94c2.67,0.62,0.45-0.49,4.23,0.48l-1.1-0.33c2.77,0.46,7.47,1.92,10.59,3
							c-0.42,0.07,1.8,0.93,1.32,1.12c2.15,0.67,4.22,1.46,5.44,1.57c1.22,0.67,3.3,1.22,4.82,2.15c-0.58-0.51,2.58,0.49-1.42-1.18
							c0.33,0.13,0.15-0.01,0.47,0.11c-2.42-1.42-3.64-1.43-5.88-2.31c-1.26-0.73,2.31,0.58,1.08-0.01
							c-1.42-0.52-3.64-1.34-5.48-2.02c-1.87-0.61-3.39-1.02-3.4-0.63c-2.12-0.58-2.36-0.83-2.95-1.15c-1.78-0.1-4.87-1.02-7.58-1.7
							c-2.71-0.68-5.02-1.16-5.1-0.66c1.25,0.23,3.27,0.64,5.13,0.86L159.3,74.94z"/>
						<path class="st19" d="M199.25,90.38c-0.13-0.11-0.3-0.25-0.41-0.34C198.96,90.14,199.11,90.27,199.25,90.38z"/>
						<path class="st19" d="M204.31,118.49c-0.01-0.39-0.09-0.79-0.15-1.17c0.28-0.61,0.56-1.16,0.72-1.69
							c0.18-0.53,0.41-1.01,0.5-1.48c0.11-0.47,0.26-0.9,0.35-1.32c0.07-0.42,0.14-0.83,0.21-1.23c0.18-1.61,0.28-3.17-0.2-5.34
							c-0.01-0.35,0.22,0.16,0.27,0.43c-0.36-1.53-0.97-3.45-1.94-5.18c-0.24-0.43-0.52-0.84-0.77-1.25
							c-0.24-0.41-0.52-0.79-0.81-1.14c-0.28-0.35-0.54-0.68-0.79-0.98c-0.27-0.29-0.54-0.54-0.77-0.76
							c-0.18-0.21-0.42-0.53-0.67-0.86c-0.27-0.32-0.57-0.66-0.8-0.96c-0.47-0.6-0.72-1.01-0.26-0.67
							c-0.42-0.37-0.97-0.75-1.43-1.21c0.03-0.3,1.14,0.93,1.3,0.82c-0.36-0.37-0.49-0.54-0.63-0.56c0.4,0.22,0.37-0.08,0.62-0.1
							c0.27-0.02,0.77,0.29,2.2,1.78c0.28,0.8-0.14,0.24-0.73-0.29c-0.57-0.55-1.2-1.16-1.09-0.6c0.93,0.97,1,0.69,1.14,0.72
							c1.15,1.28,0.96,1.37,0.8,1.38c0.61,0.35,1.65,2.19,2.35,2.76c1.69,2.69-0.47,0.1,0.57,1.85l1.08,0.76
							c0.27,0.51,0.4,1.05,0.59,1.58c0.21,0.52,0.33,1.06,0.45,1.59c0.2,0.56,0.34,0.98,0.41,1.28c0.09,0.3,0.18,0.49,0.26,0.6
							c0.16,0.22,0.29,0.14,0.43,0.08c0.24-0.12,0.72-0.21,0.95,2.7c-0.34-0.75-0.8,1.54-1.6,3.98c0.1-0.37,0.21-0.83,0.23-1.35
							c0.02-0.51,0.14-1.06,0.09-1.63c-0.04-0.57,0.03-1.14-0.03-1.7c-0.06-0.55-0.04-1.09-0.06-1.58c-0.06,0.7-0.14,0.8-0.18,0.61
							c-0.03-0.1-0.04-0.27-0.07-0.49c-0.04-0.22-0.09-0.47-0.15-0.74c-0.09-0.54-0.2-1.12-0.37-1.45c-0.14-0.34-0.25-0.45-0.3-0.08
							c0.35,0.6,0.51,1.47,0.7,2.38c0.02,0.46,0.05,0.94,0.07,1.41c0.03,0.47-0.08,0.93-0.12,1.35l-0.03-0.56
							c-0.05,0.45-0.02,0.88-0.02,1.3c-0.03,0.43-0.03,0.85-0.03,1.31c0.02,0.46-0.12,0.93-0.21,1.45
							c-0.09,0.52-0.31,1.07-0.61,1.66c-0.21,0.62-0.36,0.85-0.46,0.89c-0.09,0.04-0.11-0.1-0.12-0.23
							C204.8,117.6,204.47,118.57,204.31,118.49z M205.43,115.86c0.21-0.53,0.49-1.05,0.62-1.6
							C205.88,114.62,205.64,115.22,205.43,115.86z"/>
						<path class="st19" d="M33.66,61.66c-0.08-0.2-0.18-0.42-0.26-0.6C33.44,61.2,33.54,61.42,33.66,61.66z"/>
						<path class="st19" d="M139.13,154.66l-1.26,0.11C138.37,154.75,138.77,154.71,139.13,154.66z"/>
						<path class="st19" d="M110.8,157.59c-0.62,0.02-1.24,0.06-1.87,0.07C109.67,157.7,110.24,157.64,110.8,157.59z"/>
						<path class="st19" d="M40.46,74.79l0.02,0.06c0.06,0.08,0.1,0.15,0.16,0.24L40.46,74.79z"/>
						<path class="st19" d="M55.14,144.56c-0.24-0.17-0.52-0.34-0.9-0.55C54.26,144.09,54.6,144.29,55.14,144.56z"/>
						<path class="st19" d="M111.14,157.57c-0.05-0.01-0.07-0.01-0.11-0.02c-0.07,0.01-0.15,0.02-0.23,0.03L111.14,157.57z"/>
						<path class="st19" d="M151.81,154.83c0.27-0.07,0.51-0.13,0.79-0.21C152.23,154.7,152,154.76,151.81,154.83z"/>
						<path class="st19" d="M149.75,153.33c0.29-0.06,0.56-0.12,0.77-0.18L149.75,153.33z"/>
						<path class="st19" d="M192.04,141c0.51-0.29,0.99-0.64,1.48-0.96C192.78,140.48,192.35,140.78,192.04,141z"/>
						<path class="st19" d="M154.26,152.97c0.09-0.05,0.18-0.09,0.24-0.13C154.28,152.9,154.17,152.95,154.26,152.97z"/>
						<path class="st19" d="M30.42,51.38c0.02,0.03,0.04,0.07,0.05,0.09l0.08,0L30.42,51.38z"/>
						<path class="st19" d="M27.72,48.21c-0.24-0.42-0.48-0.85-0.73-1.28C27.25,47.41,27.51,47.88,27.72,48.21z"/>
						<path class="st19" d="M34.29,130.24c-0.27-0.4-0.96-1.27-0.52-0.98C33.05,128.71,32.86,128.98,34.29,130.24z"/>
						<path class="st19" d="M37.72,56.75c-0.2-0.2-0.41-0.46-0.62-0.72C37.46,56.53,37.78,56.98,37.72,56.75z"/>
						<path class="st19" d="M37.1,56.03c-0.18-0.25-0.38-0.51-0.55-0.74C36.73,55.55,36.92,55.8,37.1,56.03z"/>
						<path class="st19" d="M46.44,132.97c0.07,0.09,0.18,0.22,0.37,0.34C46.8,133.2,46.66,133.09,46.44,132.97z"/>
						<path class="st19" d="M26.54,45.83c-0.26-0.16-3.5-5.66-1.09-0.87c-0.51,0.03-1.79-2.95-2.55-4.16
							c0.38,0.97-0.51-0.32-0.51,0.04c0.38,0.6,0.89,1.29,1.4,2.34c0.06,0.58-0.89-0.93-1.47-2.2c0.57,1.63-1.34-1.75-0.38,0.48
							c2.55,4.51,4.39,7.68,6.69,10.59c-1.47-2.56-3.12-5.43-4.07-7.66l0.83,0.71c0.95,2.59,1.97,3.97,3.18,6.37l-2.61-5.46
							c-1.01-2.67-0.06-1.02,1.04,0.92C26.75,46.44,26.54,45.99,26.54,45.83z"/>
						<path class="st19" d="M31.6,47.79l-0.04-0.1c-0.05-0.07-0.11-0.16-0.15-0.21L31.6,47.79z"/>
						<path class="st19" d="M187.76,133.92l0.36-0.37C187.79,133.81,187.7,133.91,187.76,133.92z"/>
						<path class="st19" d="M31.52,51.9L31.52,51.9C31.54,51.93,31.54,51.94,31.52,51.9z"/>
						<path class="st19" d="M176.5,139.09c0.01-0.02,0.02-0.03,0.05-0.06C176.51,139.06,176.51,139.07,176.5,139.09z"/>
						<path class="st19" d="M176.28,148.54c0.03,0.01,0.04,0.02,0.1,0.02C176.65,148.44,176.51,148.47,176.28,148.54z"/>
						<path class="st19" d="M176.5,139.13c0-0.01-0.02-0.02-0.01-0.04C176.49,139.1,176.48,139.12,176.5,139.13z"/>
						<path class="st19" d="M116.21,150.17c0,0,0.19,0.07,0.5,0.14C116.83,150.27,116.71,150.23,116.21,150.17z"/>
						<path class="st19" d="M128.49,150.59c0.08,0.01,0.13,0.02,0.23,0.03L128.49,150.59z"/>
						<path class="st19" d="M35.41,133.72c0.51,0.43,0.91,0.73,1.25,0.99C36.29,134.39,35.88,134.06,35.41,133.72z"/>
						<path class="st19" d="M176.55,139.03c0.1-0.09,0.25-0.2,0.5-0.36C176.77,138.85,176.63,138.96,176.55,139.03z"/>
						<path class="st19" d="M97.33,151.04c0.13,0,0.26,0,0.38,0l-0.22-0.04L97.33,151.04z"/>
						<path class="st19" d="M90.97,149.9c0.22-0.01,0.33-0.04,0.46-0.07c-1.15-0.1-2.76-0.34-4.16-0.55
							c-1.39-0.23-2.56-0.38-2.85-0.21c0.77,0.14,4.72,1.1,4,1.22c1.61,0.15,3.92,0.82,4.79,0.84c-2.59-0.58-0.23-0.4,1.55-0.31
							c1.59,0.34-0.35,0.31,1.03,0.57l3.74,0.36l-3.25-0.41l1.04-0.31c-0.12,0-0.21,0-0.34,0C91.49,150.54,96.6,150.41,90.97,149.9z
							"/>
						<path class="st19" d="M91.43,149.83c0.34,0.03,0.65,0.04,0.89,0.03C91.8,149.8,91.59,149.8,91.43,149.83z"/>
						<path class="st19" d="M69.65,144.35c-0.27-0.06-0.57-0.13-0.95-0.21C68.88,144.17,69.3,144.27,69.65,144.35z"/>
						<path class="st19" d="M209.7,104.32c-0.07,0.07,0.12,0.85,0.19,1.62c0.09,0.77,0.23,1.51,0.38,1.46
							c-0.14-0.91-0.18-1.84-0.43-2.74L209.7,104.32z"/>
						<path class="st19" d="M26.81,106.98c-0.06,0.36-0.13,0.73-0.13,1.1c0.01,0.08,0.03,0.16,0.04,0.22
							c0.03-0.11,0.04-0.35,0.04-0.6C26.77,107.44,26.79,107.16,26.81,106.98z"/>
						<path class="st19" d="M87.41,150.28c0.59,0.05,0.86,0.04,1.01,0.01C88.04,150.26,87.68,150.24,87.41,150.28z"/>
						<path class="st19" d="M27.59,106.88c0.16-0.44,0.38-1.06,0.54-1.13c0.22-0.88,0.16-1.56,0.43-2.46
							c-0.08,0.25-0.16,0.51-0.24,0.79c-0.07,0.28-0.14,0.56-0.22,0.86c-0.09,0.3-0.18,0.6-0.27,0.92
							C27.75,106.19,27.67,106.53,27.59,106.88z"/>
						<path class="st19" d="M28.57,103.23c-0.01,0.03-0.01,0.05-0.02,0.07L28.57,103.23z"/>
						<path class="st19" d="M209.25,102.52c-0.12-0.24-0.24-0.49-0.36-0.75l0.23,0.37c-0.2-0.7-0.5-1.35-0.8-2.01
							c-0.13-0.23-0.28-0.47-0.44-0.78c0.07,0.12,0.15,0.2,0.21,0.25c-0.09-0.22-0.18-0.43-0.3-0.63c-0.3-0.33-0.67-0.8-1.08-1.32
							c-0.4-0.53-0.93-1.06-1.39-1.61c-0.45-0.56-0.99-1.03-1.41-1.46c-0.43-0.42-0.78-0.77-1.04-0.95
							c-0.61-0.54-1.28-1.15-1.92-1.72c-0.66-0.55-1.27-1.08-1.72-1.51c0.85,0.78,2.03,1.77,1.82,1.32
							c-0.82-0.85-1.31-1.62-2.12-2.38c-0.4-0.39-0.85-0.79-1.42-1.24c-0.59-0.42-1.31-0.87-2.21-1.38l1.96,1.41l-2.4-1.3
							l-2.45-1.18c-1.44-1.27,2.47,1.14,3.2,1.41c-3.62-2.14-6.27-4.62-8.31-5c-0.07-0.46-0.21-1.21-2.76-2.41
							c1.64,1.26-1.63-0.49-0.32,0.64c-0.96-0.22-2.79-1.39-3.05-1.21l0.3-0.03c-4.18-2.4-6.02-2.02-8.01-2.43
							c-5.43-1.68-7.91-2.56-12.44-3.62c-0.12-0.27-1.19-1.26-3.04-1.62c-0.46,0.07-1.74-0.07-2.95-0.19
							c-1.22-0.1-2.39-0.16-2.64,0.01c3.25,0.77,2.75,0.16,4.73,0.47c1.53,0.79,0.06,0.45,2.22,1.21c-0.87-0.3-2.91-0.66-4.96-1.05
							c-2.06-0.35-4.13-0.75-5.1-1.09l0.71,0.05c-3.12-0.75-3.59-1.93-9-1.93l-2.57-0.01c0.13-0.03,0.15-0.08,0.21-0.11
							c-2.08-0.24-2.83-0.4-3.64-0.56c-0.81-0.14-1.67-0.26-4-0.19c0.36-0.01,0.14-0.07,0.5-0.08c-2.62-0.42-5.31-0.02-7.3,0.01
							c-1.21-0.39,0.3-0.34,1.06-0.57c-4.65-0.28-9.67,0.36-12.52,0.91c-1-0.05-1.99-0.06-2.99-0.09c1.76-0.24,3.92-0.67,3.37-0.87
							c-1.65,0.11-1.32,0.28-3.65,0.31c0.39-0.24,1.35-0.5,2.44-0.83c-4.85-0.15-1.04,0.83-4.45,0.33
							c-1.52,0.09-2.37,0.47-2.52,0.76l-2.76-0.14c-0.28,0.37-3.64,0.7-5.84,1.03c-0.25,0.19,1.81,0.15,2.63-0.06
							c-0.14,0.28-2.46,0.68-3.96,0.85c-0.32-0.31-2.78,0.01-4.93,0.37c-2.16,0.33-4.02,0.69-3.21,0.1c-3.34,0.7-7.34,1.6-11,2.61
							c-0.91,0.26-1.81,0.52-2.67,0.76c-0.88,0.27-1.72,0.54-2.52,0.79c-0.9,0.29-1.74,0.58-2.53,0.85c-0.4,0.14-0.78,0.27-1.13,0.4
							c-0.26-0.25-0.51-0.49-0.74-0.71c-0.55-0.74-1.41-1.74-1.92-2.38c-0.26-0.33-0.39-0.53-0.39-0.61
							c0.01-0.07,0.14-0.02,0.54,0.28c-3.78-4.05-6.25-5.59-9.84-9.73c-0.24-0.39,1.69,1.8,1.74,1.49
							c-2.65-2.41-4.21-4.96-8.13-8.87c0.65,0.67,0.94,0.77,1.09,0.81c-0.02,0.15-1.73-1.49-2.8-2.45c-0.5-0.63,0.8,0.72,0.56,0.33
							c-7.05-8.06-13.34-13.34-20.58-21.14c2.07,2.23,3.21,2.74,3.37,2.62l-2.03-2.18c-0.96-0.67-2.49-2.31-3.9-3.55
							c-0.09-0.23-0.64-0.96,0.08-0.36c-3.66-4.63-6.92-6.11-11.66-11.55l6.67,5.71l-1.23-1.81l2.94,2.5
							c-1.37-1.86-3.18-2.89-3.1-3.34c0.41,0.28,1.18,1.16,1.35,1.05c-1.4-1.71-1.72-1.65-2.9-2.81c3.52,2.68,9.35,8.93,12.62,12.16
							c0.54,0.49-0.55-0.33-0.7-0.37c1.3,1.35,1.9,2.34,3.61,3.97c1.23,0.86-0.59-0.98-1.37-1.85c0.31-0.07,0.7,0.37,1.61,1.29
							c-0.07,0.46,4.77,5.29,5.58,6.82c4.81,4.98-0.06-1.46,4.44,3.59l1.07,1.76c2.92,2.65,6.59,6.16,9.56,9.47l-0.65-0.68
							c-0.56-0.33,0.07,0.5,0.31,0.89c2.16,2.58,4.59,4.43,5.68,6.21c1.47,1.25,3.35,2.98,5.27,4.78c0.95,0.91,1.92,1.82,2.84,2.7
							c0.54,0.52,0.7,0.65,1,0.92c0.26,0.23,0.51,0.46,0.75,0.67c0.14,0.56-0.5,0.04-1.4-0.79c-0.62-0.6-1.31-1.26-1.91-1.85
							c-0.64-0.61-1.21-1.14-1.58-1.41l2.72,2.91c-1.69-1.8-2.5-2.36-3.74-3.23c1.15,1.31,2.02,2.09,2.89,2.84
							c0.42,0.35,0.83,0.7,1.29,1.09c0.37,0.3,0.75,0.62,1.17,1.03c-0.1,0.01-0.11,0.09,0.02,0.28c0.06,0.1,0.15,0.22,0.28,0.37
							c0.06,0.07,0.14,0.16,0.22,0.25l0.06,0.07c0.03,0,0.06-0.02,0.09-0.02c0.06-0.02,0.13-0.04,0.2-0.06l0.38-0.5
							c0.01,0.03,0.12,0.02,0.45-0.05l1-0.36l1.2-0.39c0.95-0.31,1.9-0.61,2.85-0.89c-1.27,0.17-1.41-0.13-2.9,0.29
							c0.64,0.05-0.88,0.5-1.63,0.73c0.78-0.49-0.9,0.06-0.83-0.16c1.1-0.33,2.33-0.69,3.46-1.03c1.54-0.44,2.94-0.84,3.93-1.12
							l0.72,0.18c2.89-0.62,5.91-1.4,7.9-1.68L84,67.83c3.49-0.55,6.9-1.31,10.06-1.39c3.07-0.78,6.99-1.52,9.54-2.1
							c0.67-0.28,3-0.31,5.6-0.32c2.6-0.02,5.46,0,7.24-0.33c0.24,0.03-2.44,0.37-3.65,0.57c2.37-0.01,4.24-0.57,4.99-0.11
							c-5.31-0.11,0.29,0.36-2.1,0.52c1.24-0.01,2.51-0.05,3.63-0.1c1.12-0.03,2.08-0.08,2.69-0.15c-4.02-0.04,1.44-0.62-2.64-0.47
							c3.16-0.36,7.5-0.45,11.26-0.06c-0.05,0.2,0.41,0.32,1.81,0.48l1.15-0.22c1.76,0.17-3.43,0.12,0.11,0.45
							c1.84-0.09,4.58,0.18,7.05,0.49c2.48,0.26,4.7,0.58,5.56,0.21c2.71,0.72-5.31-0.34-1.2,0.65c-2.45-0.03-5.76-0.72-6.6-0.36
							c2.38,0.13,0.83,0.47,2.35,0.64c0.89,0,1.78,0,2.67,0.03l-0.58-0.09c4.49,0.09,11.47,1.42,17.05,2.64
							c4.82,0.65,8.25,0.87,13.83,2.74c-0.87-0.15,0.27,0.3,1.17,0.69c0.89,0.41,1.53,0.76-0.29,0.39c2.48,1.11,5.07,1.81,5.19,1.66
							c-2.2-0.95-0.76-0.37-2.61-1.17c1.37,0.21,4.29,1.41,5.42,2.06c-0.54-0.26-0.35-0.12-0.5-0.1c2.56,1.3,1.35,0.34,3.29,1.09
							c0.46,0.57,4.11,2.07,5.69,3.18c0.9,0.28,1.76,0.65,2.65,0.98c-0.74-0.26-0.18,0.11,0.59,0.6c0.77,0.49,1.72,1.17,1.83,1.4
							c0.91,0.44,1.75,0.85,2.67,1.39c0.94,0.51,1.93,1.2,3.11,2.23c-0.55-0.34-0.03,0.14,0.58,0.77c0.6,0.65,1.31,1.43,1.22,1.56
							c0.94,0.94,1.77,1.85,2.63,2.64c0.79,0.87,1.64,1.6,2.37,2.47c0.75,0.84,1.49,1.69,2.12,2.7c0.68,0.96,1.2,2.11,1.7,3.37
							c-0.15-0.12-0.79-1-0.21,0.44c0.27,0.56,0.58,1.35,0.89,2.15c0.24,0.84,0.48,1.68,0.67,2.33l-0.02-0.04
							c0.01,0.02,0.02,0.04,0.03,0.07c0.16,0.64,0.24,1.05,0.33,1.05c0.18,0.56,0.33,1.06,0.49,1.55c0.12,0.5,0.22,1.02,0.33,1.61
							c0.05,0.3,0.1,0.61,0.16,0.95c0.04,0.34,0.05,0.71,0.07,1.12c0.03,0.82,0.07,1.79-0.09,2.96c0.51-0.26,0.72-4.35,0.35-6.08
							c-0.13-0.49-0.34-0.97-0.54-1.44c0.38-1.52-0.97-4.12-1.21-5.12c0.81,1.16,1.72,3.82,2.03,6.88c0.18,1.53,0.13,3.13,0.05,4.67
							c-0.09,0.76-0.18,1.51-0.27,2.22c-0.09,0.71-0.26,1.36-0.37,1.98c0.32-0.7,0.71-1.63,0.94-2.78c0.12-0.57,0.29-1.18,0.36-1.83
							c0.07-0.65,0.13-1.34,0.18-2.05c0.12-2.85-0.37-6.08-1.33-8.85c0.19,0.84,0.33,1.71,0.49,2.55c-0.28-0.98-0.49-2-0.87-2.93
							c0.24,0.94,0.32,1.96,0.46,2.92c-0.58-2.83-1.71-5.02-2.83-7.25c1.36,2.62,1.27,3.89,0.7,2.34c-0.55-1.53-0.97-2.28-1.46-2.84
							c-0.48-0.56-0.89-1.08-1.58-2.05c0.75,1.1,1.6,2.64,0.85,1.77c-0.5-1.09-1.02-1.89-1.49-2.6c-0.23-0.35-0.45-0.69-0.67-0.99
							c-0.23-0.29-0.45-0.57-0.68-0.85c-0.87-1.14-1.77-2.14-3.09-3.78c-0.02,0.39-0.98-0.46-2.04-1.42
							c-1.08-0.92-2.29-1.89-2.68-1.88l1.43,1.22l-1.66-1.11l-1.7-1.01c-2.68-2.53,2.95,1.45-1.42-2.02
							c-2.12-1.46-3.29-1.91-4.31-2.35c-1.02-0.43-1.96-0.7-3.71-1.62c0.66,0.15,1.72,0.52,2.97,1.06c1.23,0.58,2.67,1.3,4.02,2.19
							c-0.51-0.42-1.04-0.81-1.58-1.19c1.02,0.3,4.77,2.86,6.56,4.29c-1.63-0.97-1.3-0.66-0.41,0.01c0.86,0.74,2.29,1.85,2.81,2.57
							c0.47-0.04-1.4-1.66,0.95,0.08c-1.01-0.93-1.62-1.41-2.29-1.95c-0.66-0.56-1.39-1.18-2.74-2.22c2.94,2.22,4.37,3.14,5.75,4
							c0.34,0.22,0.68,0.44,1.03,0.66c0.34,0.26,0.69,0.53,1.07,0.86c0.38,0.33,0.79,0.71,1.24,1.17c0.43,0.49,0.91,1.07,1.44,1.75
							c-2.19-2.31,0.36,1.12,0.39,1.6c0.95,1.15,2.7,3.71,3.32,4.87c-0.03-0.43-0.05-0.87-0.1-1.29c0.55,0.91,0.91,1.74,1.22,2.49
							c0.28,0.77,0.44,1.53,0.64,2.27c0.21,0.73,0.32,1.54,0.55,2.42c0.25,0.88,0.44,1.9,0.77,3.14c0.2,0.31,0.06-0.81-0.14-1.89
							c-0.23-1.06-0.58-2.06-0.42-1.63c1.06,3.32,1.06,5.82,0.75,8.07c-0.09,0.56-0.18,1.12-0.27,1.69
							c-0.13,0.56-0.29,1.11-0.45,1.69c-0.27,1.17-0.78,2.36-1.28,3.76c0.02,0.36,0.37,0.39-0.15,2.46
							c-0.04-0.73-0.74,0.64-0.11-1.61c-0.21,0.45-0.4,0.93-0.59,1.41c-0.19,0.49-0.42,0.95-0.62,1.43c-0.2,0.48-0.4,0.95-0.59,1.4
							c-0.22,0.43-0.43,0.84-0.62,1.22c1.11-1.66,1-1.27,0.57-0.35c-0.22,0.46-0.51,1.05-0.77,1.57c-0.26,0.52-0.52,0.92-0.59,1.11
							c-0.63,0.82-0.6,0.65-0.32,0.14c0.28-0.5,0.78-1.36,1.06-1.94c-0.46,0.71-1.1,1.35-1.63,1.97c-0.52,0.62-0.95,1.19-1.07,1.67
							c-0.23-0.11,2.14-4.06,3.37-6.86c-0.32,0.61-0.63,1.22-1.02,1.78c0.3-0.65,0.47-1.02,0.68-1.47c0.21-0.45,0.51-0.94,0.95-1.87
							c-1.07,1.71-1.25,1.38-1.25,0.88c0.16-0.21,0.01,0.16,0.15-0.04c0.41-0.69,0.67-1.36,0.8-1.82c0.14-0.45,0.15-0.67,0.01-0.53
							c0.06-0.75-0.2-0.25-0.55,0.54c-0.31,0.82-0.91,1.82-1.22,2.26c-0.31,0.75-0.73,1.42-1.11,2.11
							c-1.03,2.53-2.37,4.95-3.93,7.19c-2.31,2.59-3.74,3.27-5.83,4.68c-0.1,0.24-0.22,0.47-0.33,0.7
							c-2.36,1.73-4.73,3.04-3.44,1.66c0.15,0.05,0.45-0.19,0.99-0.51c0.04-0.09,0.14-0.2,0.27-0.33c0.04-0.05,0.05-0.09,0.08-0.14
							c-1.22,0.93-2.26,1.62-2.97,2.15c-0.73,0.48-1.17,0.77-1.24,0.82c2.09-1.54,2.01-1.79,1.53-1.66
							c-0.49,0.12-1.45,0.47-1.26-0.03c-1.44,0.94-2.88,1.88-4.36,2.73c2.85-1.29,0.2,0.25-0.74,0.86c-0.44-0.18-3.7,1.86-5.39,2.5
							l0.09-0.12c-0.78,0.29-1.84,0.72-2.95,1.16c-1.1,0.46-2.24,0.94-3.2,1.34c0.13,0.07-2.15,1.59-3.26,2.3
							c3.42-1.02,1.47-0.21,1.81-0.07c-0.35,0.12-0.99,0.31-1.05,0.38c-0.45,0.26,0.71-0.08,0.84-0.01c3.54-1.44,7.18-2.96,8.39-4.1
							c-1.16,0.27-1.74,1.02-3.02,1.36c0.81-0.5,1.78-0.98,2.91-1.52c0.57-0.26,1.17-0.53,1.81-0.82c0.64-0.31,1.31-0.63,2.03-0.98
							l1.08-0.18l2.77-1.67c-1.11,0.77-0.23,0.71-3.22,2.31c0.53,0.09,2.97-1.59,4.82-2.57l0.71-0.9c-0.12,0.2,0.79-0.25,1.41-0.54
							c0.6-0.31,0.94-0.4-0.34,0.59c-1.43,0.99-2.87,1.97-4.35,2.86l1.41-0.44c-1.28,0.72-2.56,1.45-3.86,2.1l0.83-0.64
							c-3.09,1.69-3.66,1.67-4.2,1.72c-0.56,0.02-1.07,0.18-4.22,1.68c-0.92,0.65-1.93,1.17-3.22,1.7c-1.28,0.55-2.86,1.05-4.9,1.66
							c2.89-1.07,0.19-0.43,1.2-1.07c-3.03,0.81-3.93,1.42-5.43,2.09c-0.84-0.05-1.43-0.07,1.25-0.83c0.09-0.31-0.78-0.03-1.72,0.27
							c-0.95,0.28-1.97,0.57-2.17,0.33c-4.44,1.17-6.13,1.98-8.06,2.76c-0.96,0.39-1.97,0.77-3.43,1.1
							c-1.45,0.35-3.33,0.67-6.01,0.89l0.36-0.29c-6.7,1.28-10.65,1.39-16.91,2c-1.66-0.09-3.32-0.18-4.97-0.33
							c1.1-0.11,4.04-0.71,2.65-0.91c1.21,0.22,2.45,0.24,3.71,0.23c1.26-0.03,2.54-0.12,3.85-0.07c0.25-0.17-0.81-0.2-1.28-0.25
							c1.55-0.12,2.36,0.08,4.4-0.25c-0.11-0.11-2.36-0.01-0.69-0.27l2.83,0.06c3.71-0.66,1.73-1.06,6.11-1.54
							c-0.76,0.46-2.35,1.15-4.04,1.44c2.01-0.2-2.65,0.55-0.79,0.49c1.42-0.43,2.48-0.59,3.67-0.76c1.19-0.19,2.5-0.37,4.38-0.83
							c-0.44,0.14-0.54,0.25-1.48,0.43c1.87-0.2,3.72-0.53,5.58-0.78c-1.42,0.02,4.5-1.26,3.9-1.55c-2.95,0.53-3.98,0.78-5.12,0.99
							c-1.14,0.21-2.38,0.49-5.76,0.88c1.89-0.37,4.27-1.23,5.33-1.82c0.06,0.01,0.16,0,0.37-0.03c0.94-0.59-0.12-0.51-0.23-1.21
							c-2.93,1.07-5.03,0.99-8.58,1.79c-0.62,0.49,2.16,0.22,3.93-0.19c-1.04,0.25-2.08,0.51-3.13,0.74l0.6-0.27
							c-2.69,0.33-5.39,0.63-8.08,0.86c1.53-0.18,2.02-0.47,2.8-0.72c-1.04,0.1-2.08,0.1-3.19,0.11c0.27,0.35,0.15,0.63-0.87,0.72
							c-5.21,0.37-8.13,0.17-10.06-0.17c-0.2,0.02-0.42,0.03-0.6,0.05c0.89,0.34-3.67,0.84-5.29,1.22c0.07-0.41-2.69-0.18-4.2-0.42
							c-0.8,0.44,0.26,1.1,2.1,1.46c3.54-0.46,1.98-0.44,3.65-1.05c1.89-0.18,3.77-0.38,5.65-0.59c-0.41,0.15-0.83,0.28-1.25,0.42
							c2.84,0.03,5.52-0.63,5.34-0.14c-1.47,0.39-3.95,0.38-5.43,0.74c0.63,0.04,1.26,0.07,1.88,0.08c-3.29,0.62-1.72-0.37-5.71,0.1
							c1.48,0.36-0.36,0.05-2.08,0.32c1.39,0.31,7.06-0.32,5.89,0.41c-2.09,0.4-7.05-0.58-9.81,0.05l0.14-0.08
							c-4.08-0.12-5.52,0.19-7.07,0.38c-1.73-0.26-4.15-0.13-6.04-0.21l0.06-0.2l-2.66-0.13c1.29-0.24,3.11,0.27,5.4,0.33
							l-0.26-0.38c2.61,0.61,4.4-0.04,6.44-0.27c-1.49,0.1-3.58,0.03-5.39-0.05c-1.81-0.08-3.34-0.09-3.71,0.25l-1.81-0.52
							l-0.89,0.06c-1.34-0.39,0.09-0.71,2.73-0.58c0.45,0.12,0.68,0.18,0.53,0.25c1.24-0.1,2.38-0.28,5.34-0.08
							c-0.53,0.04-1.06,0.1-1.59,0.13c1.85,0.1,3.61,0.12,5.07,0.1c1.46-0.06,2.62-0.17,3.25-0.34c-5.32-0.18-10.55-0.47-15.53-0.9
							c-1.54,0.72-3.34,0.99-4.18,1.68c-3.39-0.18-7.98-0.76-10.85-1.52l0.29-0.11c-1.41-0.31-2.72-0.53-3.82-0.64
							c-1.46-0.47,1.1-0.21,0.08-0.51c-1.61-0.19-3.21-0.48-4.82-0.72c0.37-0.28,4.37,0.58,6.29,0.87c-0.37-0.04-1.1-0.11-0.88-0.02
							c2.2,0.59,6.44,0.63,7.34,1.27c1.1,0.06-2.27,0.08,1.42,0.59c2.45,0.52,3.31,0.16,3.59,0.03c0.06-0.17-3.84-0.76-2.45-0.82
							c-1.92-0.23-2.72-0.06-5.14-0.65c1.9,0.3,4.53,0.23,5.5,0.67c3.8,0.1,3.36-0.93,1.61-1.15c0.39,0.35-6.86-0.54-2.01,0.48
							c-2.25,0.1-6.28-0.49-9.2-0.82l0.14-0.05c-1.19-0.19-2.39-0.36-3.58-0.59c0.52,0.01,1.61,0.14,1.69-0.05
							c-1.67-0.15-3.35-0.33-5.03-0.51c2.84,0.28-1.66-0.63-2.87-1.1c-0.6,0.18-2.56-0.12-0.77,0.53c2.02,0.71,1.24,0.13,3.13,0.55
							l-2.78-0.17l-0.22-0.1c-0.57,0-1.13-0.03-1.7-0.04c-3.62-1,1.81-0.45-2.92-1.34l0.46,0.68c-5.38-1.53-11.92-4.57-15.65-5.95
							c1.13,0.16,1.75-0.1,0.49-0.96c1.52,0.77,4.7,2.01,7,2.76c0.42,0.24-3.08-0.41-5.49-1.55c0.87,1.34,6.4,1.89,6.41,2.8
							c3.15,1.23,4.42,1.37,5.55,1.51c1.13,0.15,2.13,0.27,4.81,1.25c0.17-0.35,1.61,0.22,1.98-0.06c-0.74-0.49-2.56-0.99-4.64-1.48
							c-2.07-0.54-4.4-1.11-6.11-1.82c0.35,0.09,1.06,0.26,1.22,0.23c-1.23-0.47-2.11-0.77-2.9-1c-0.79-0.26-1.5-0.46-2.39-0.7
							l0.2,0.12c-3.16-0.75-1.76-1-3.45-1.84c-0.71-0.19-3.08-1.37-2.8-0.94c-1-0.58-2-1.15-2.97-1.78l-0.04,0.47
							c-1.77-0.83-2.01-1.27-3.7-1.88l-0.26,0.31c1.4,0.83,2.84,1.58,4.28,2.33c-2.27-0.97-0.79,0.06-3.26-1.1
							c1.46,0.5,0.99,0.22,0.17-0.27c-0.82-0.49-2.01-1.18-2.06-1.41c-0.63-0.24-1.23-0.54-1.85-0.81l0.5,0.17
							c-1.25-0.99-1.71-0.8-3.23-1.87c0.85,0.71,1.56,1.28,2.37,1.82c0.81,0.56,1.72,1.1,3.01,1.61c-1.9-0.7-5.47-2.64-6.3-3.2
							c-0.95-0.51-1.68-1.08-2.38-1.66c-0.7-0.57-1.36-1.17-2.14-1.84c1.57,1.18,1.5,0.69,1.76,0.59c0.13-0.05,0.35-0.03,0.92,0.31
							c0.57,0.34,1.46,1,3.03,2.08c-0.16-0.01-0.67-0.37-0.84-0.54c0.29,0.48,1.24,1.14,2.34,1.68c1.1,0.53,2.3,1.06,3.07,1.35
							c-0.22-0.47,1.29,0.33-1.14-1.25c0.73,0.64-2.46-0.64-4.63-2.42l0.76-0.25c-1.11-0.75-2.16-1.59-3.23-2.4
							c0.1,0.07,0.21,0.14,0.32,0.21c-0.48-0.62-1.32-1.29-2.3-2.03c-0.48-0.39-0.98-0.82-1.49-1.27c-0.51-0.44-1.01-0.94-1.45-1.5
							c-0.8-0.63-2.49-2.44-3.61-3.87c-1.13-1.42-1.87-2.32-1.15-0.71c-0.32-0.57-0.6-1.15-0.92-1.69c-0.31-0.55-0.7-1.04-1-1.61
							c-0.33-0.55-0.66-1.11-1.01-1.69c-0.31-0.6-0.6-1.25-0.88-1.94l0.55,1.78c0.2,0.58,0.46,1.14,0.69,1.71
							c-1.21-1.83-1.43-2.64-1.76-3.23c-0.33-0.61-0.55-1.13-1.38-2.83c0.07-0.4,0.09-1.24,0.39-0.54
							c-0.12-0.76-0.25-1.55-0.36-2.37c-0.04-0.83-0.08-1.69-0.12-2.56c0.05-0.87,0.06-1.75,0.16-2.62c0.14-0.86,0.2-1.74,0.42-2.55
							c0.7-3.32,1.94-6.08,2.58-7.72c1.05-1.82,1.9-2.69,2.85-3.7c0.95-1.01,2.02-2.15,3.86-4.23c0.79-0.86-1.08,0.2,1.74-2.18
							c0.1-0.07-0.48,0.6-0.69,0.96c-0.21,0.37-0.13,0.33,1.38-1.01c0.92-1.14,2.3-2.14,3.77-3.13c0.65-0.43,1.33-0.87,2.01-1.31
							c0.28-0.18,0.55-0.39,0.72-0.61c0.27-0.09,0.59-0.24,0.89-0.38c-0.1-0.41-0.29-0.84,0.08-0.66c0.09,0.25,0.27,0.53,0.34,0.78
							c-0.47,0.28-0.94,0.55-1.29,0.83c-0.18,0.14-0.33,0.26-0.45,0.37c-0.06,0.05-0.11,0.1-0.15,0.15
							c-0.04,0.05-0.15,0.15-0.18,0.19c0.22-0.43-1.9,1.07-0.16-0.37c-1.97,1.2-2.55,1.71-3.05,2.21c-0.51,0.49-0.98,0.92-2.64,2.24
							c-0.11,0.31,1.9-1.12,2.54-1.74c0.08,0.1-0.27,0.47-0.79,0.96c-0.51,0.51-1.18,1.13-1.76,1.68c-1.12,1.16-1.87,2-0.32,0.95
							c1.64-1.49,2.59-2.58,3.55-3.57c0.48-0.5,0.96-0.97,1.54-1.4c0.29-0.22,0.6-0.44,0.95-0.66c0.09-0.05,0.18-0.11,0.27-0.16
							c0.09-0.05,0.2-0.12,0.23-0.12c0.11-0.04,0.22-0.08,0.34-0.12c-0.06,0.21-1.04,0.93-1.81,1.52c-0.82,0.61-1.62,1.38-2.22,2.17
							c0.87-0.57,1.72-1.2,2.61-1.72l0.81-0.8c0.25-0.25,0.61-0.59,0.69-0.71l-0.02,0.1c1.56-0.74,2.19-1.26,2.45-1.69
							c-0.5-0.63-1.19-1.19-1.79-2.1c0.12,0.62-0.18,0.53-0.43,0.49c-0.26-0.06-0.49-0.09-0.47,0.19c-0.12-0.2-0.23-0.39-0.31-0.56
							c-0.09-0.18-0.17-0.35-0.24-0.51c-0.12-0.27-0.23-0.51-0.34-0.73c-0.39-0.9-0.53-1.49-0.31-1.62c0.78,1.26,1.21,1.9,1.46,2.21
							c0.14,0.19,0.16,0.14,0.22,0.17c0.05,0.01,0.08,0,0.12-0.02c0.15-0.03,0.24-0.2,1.21,1.09c-0.01-0.22,0.28-0.08,0.48-0.06
							c0.2,0.01,0.3-0.14-0.19-1.14c-0.19-0.26-0.33-0.44-0.43-0.56c-0.13-0.16-0.22-0.28-0.28-0.31c-0.11-0.08-0.09,0.06-0.06,0.2
							c0.05,0.28,0.13,0.56-0.79-1.03c-0.06-0.21-0.12-0.43,0-0.36c-1.02-1.37-0.83-1.79-2.04-3.46l0.32,0.38
							c-0.89-2.38-1.59-2.28-2.29-4.36c0.06,0.95-0.95-1.14-1.79-2.23c0.89,2.02,0.95,3.32,2.99,7.15c0.51,0.32,0.51-0.04,1.47,1.48
							l-1.34-2.48c0.33,0.52,0.61,0.89,0.92,1.36l1.11,2.47c-1.78-2.94-1.34-1.4-2.3-2.54c-1.34-2.85-1.27-2.26-2.1-4.06
							c0.49-0.03-2.13-5.72-3.55-9.06c0.26,0.5,0.58,1.15,0.76,1.5c1.47,2.2-0.51-1.77-0.44-1.92l-1.08-1.59
							c0.19,0.31,0.52,0.7,0.19-0.05c-1.27-2.26-1.6-1.92-2.87-4.18c0.13-0.29,1.47,1.48,0.84,0c-0.07-0.59-0.38-2.42-2.16-5.37
							c-0.2-0.17-0.66-0.94-1.17-1.84c0.08,0.12,0.17,0.28,0.22,0.33l-0.82-2.15c1.27,1.53,1.65,3.58,2.92,5.12l0.43-0.04
							c0.71,1.35,1.82,3.1,2.44,3.85c-1.01-2.09-1.33-2.47-2.61-4.73c0.05-0.44,1.07,1.1,1.21,1.32l-0.38-0.24
							c1.14,2.9,2.48,3.92,4.2,7.37c0.26,0.52,0.06,0.22-0.06,0.14c1.79,2.59,2.73,5.54,4.59,7.99l-0.64-0.78
							c1.12,1.74,3.32,5.14,5.52,8.55l0.15-0.04c-0.12-0.44,0.57,0.9,0.89,1.65l0,0c0.3,0.47,0.6,0.94,0.89,1.4
							c0.31,0.51,0.62,1,0.92,1.49c0.62,1.02,1.21,1.97,1.73,2.83c-0.17-0.53-0.45-1.25-0.87-2.09c-0.29-0.35-0.92-1.55-1.5-2.58
							c-0.15-0.25-0.29-0.5-0.41-0.72c-0.11-0.19-0.21-0.33-0.3-0.45c-0.17-0.23-0.3-0.32-0.33-0.16c-0.57-1.63-2.17-3.91-2.61-5.1
							c0.83,2.15-1.08-1.23-1.47-1.48c-0.13-0.8-1.59-3-1.14-2.9c-0.13-0.44,0.31,1.1,0.95,1.87c1.4,1.98-1.78-4.03-0.12-1.52
							c-1.98-3.26-4.2-7.75-6.3-11.07l0.89,2.01c-0.76-1.57-2.74-5.19-2.73-5.54c0.64,1.13,1.33,2.47,2.16,3.91
							c0.39-0.11-1.85-3.53-1.71-3.8l-2.81-3.96l0.96,1.88c-0.83-1.07-2.61-5.11-4.07-8.03c1.35,1.41,2.29,4.36,4.08,7.31
							c1.34,2.12-0.25-1.61,0.96,0.43c-0.17-0.6-0.9-1.96-1.37-2.57l-0.34-0.87c1.41,1.64,3.5,5.88,5.33,8.47
							c-0.17-0.22-0.34-0.41-0.43-0.46c0.95,2.23,2.1,4.41,3.31,6.44c-0.44-1.18-0.76-1.57-1.14-2.17c0.07-0.13,1.14,1.82,1.65,2.5
							c-0.89-2.01,0.07-0.5-0.5-1.77c0.77,1.21,1.27,2.26,2.03,3.83c0.25,0.89-0.57-0.54-0.7-0.27c0.96,1.52,0.82,2.52,2.29,4.72
							c-1.53-3.15,0.9,0.57,1.6,1.56l-0.26-0.53c0.77,0.85,1.21,1.68,1.34,2.48c-0.77-1.21-1.34-2.48-1.4-1.98
							c0.45,0.83,0.9,1.66,1.47,2.57l-0.64-0.77l2.23,4.13c0.14,0.14,0.31,0.3,0.48,0.46c0.19,0.2,0.46,0.55,0.71,0.83
							c0.5,0.59,1.03,1.21,1.47,1.64c0.6,1.64,1.95,3.83,2.89,5.43l-0.51-0.75c0.09,0.23,0.25,0.5,0.34,0.79
							c-1.63,0.9-3.74,2.11-5.47,3.28c-0.44,0.29-0.85,0.57-1.23,0.82c-0.19,0.13-0.37,0.26-0.55,0.37
							c-0.21,0.14-0.22,0.17-0.32,0.26c-0.32,0.28-0.54,0.49-0.57,0.58c-0.31,0.16-0.02-0.19,0.48-0.71
							c0.07-0.07,0.12-0.13,0.21-0.21c0.13-0.1,0.26-0.2,0.39-0.31c0.26-0.21,0.53-0.42,0.8-0.64c0.51-0.42,1.03-0.84,1.46-1.2
							c0.83-0.71,1.27-1.11,0.7-0.88c-0.28,0.11-0.81,0.39-1.65,0.91c-0.42,0.26-0.92,0.57-1.52,0.95c-0.15,0.09-0.3,0.19-0.46,0.3
							l-0.25,0.16l-0.17,0.12c-0.22,0.16-0.46,0.34-0.71,0.52c-1.58,1.09-1.88,1.63-2.07,2.03c-0.16,0.41-0.18,0.68-0.89,1.47
							c0,0,0.04-0.13-0.15-0.03c-1.27,1-1.19,1.33-2.05,2.31c0.38-0.29,0.82-0.67,1.2-1.02c0.4-0.34,0.73-0.66,0.87-0.84
							c-0.18,0.53-2.51,2.18-3.11,3.26c0.36-0.73-0.19-0.21-0.75,0.37c-0.53,0.59-1.05,1.25-0.76,0.71
							c-1.14,1.08-2.01,2.42-2.64,3.64c-0.31,0.62-0.52,1.22-0.72,1.74c-0.16,0.54-0.25,1.01-0.33,1.39c-0.61,0.8-0.9,1.63-1.04,2.6
							c-0.04,0.24-0.1,0.5-0.13,0.76c-0.02,0.27-0.04,0.55-0.08,0.84c-0.1,0.59-0.1,1.25-0.22,2.02c0.07-0.47-0.06-1.34,0.14-1.99
							c-0.06-0.9-0.22-0.11-0.36,0.57c-0.07,0.68-0.15,1.26-0.24-0.14c0.01,0.6,0.17,0.06,0.22-0.55c0.06-1.06,0.22-2.08-0.03-1.86
							c-0.34,0.83-0.54,1.69-0.77,2.57c-0.01-0.31,0.02-0.62,0.03-0.94c-0.38,1.33-0.5,2.71-0.56,4.11
							c0.08,0.11,0.15-0.29,0.19-0.49c0.04,2.4,0.76,4.96,1.92,7.25c1.16,2.29,2.65,4.37,4.13,6.04c0.17-0.01,0.41,0.11,0.7,0.33
							c0.32,0.2,0.7,0.5,1.12,0.87c0.83,0.75,1.96,1.69,3.15,2.67c2.39,1.98,5.37,3.88,7.1,4.57c-1.01-0.24-1.73-0.12-1.34,0.41
							c-0.71-0.42-2.4-0.97-3.86-2.18c-0.17-0.29-1.85-1.87-0.58-1.1c-4.07-3.14,0.25,0.8-1.17,0.15c1.13,0.9,2.25,1.57,3.25,2.22
							c1.05,0.58,1.99,1.12,2.91,1.56c0.93,0.43,1.79,0.84,2.64,1.21c0.86,0.36,1.69,0.71,2.52,1.08l0.02,0.15l2.59,1.01
							c-2-1.06-1.63-1.53,0.88-0.08c-0.11-0.04-0.22-0.08-0.33-0.12c0.7,0.46,1.88,0.96,3.17,1.49c1.31,0.49,2.73,1.02,3.94,1.48
							l1.77,0.28c2.43,0.92,2.36,1.51,3.04,2.16c1.94,0.68,3.56,0.98,5.01,1.26c1.47,0.2,2.8,0.38,4.25,0.58
							c0.61,0.29,2.41,0.81,3.66,1.19c1.25,0.36,1.95,0.61,0.3,0.44c3.71,0.52,3.23-1.04,9.36,0.84l-1.68,0.01
							c3.02,0.46,6.7,0.86,9.98,1.1c3.28,0.28,6.15,0.4,7.54,0.66c-1.16,0.41,0.73,0.77,3.05,1.15c2.32,0.38,5.07,0.68,5.61,1.19
							c-0.3-0.21,2.02-0.26,2.35-0.37c0.51,0.12,1.35,0.23,2.25,0.05c-2.4-0.22,1.69-0.96-2.89-0.64c2.33-0.62,5.29-1.08,10.33-1.23
							l-0.06,0.4c-1.33,0.01-2.67,0.02-4-0.01c0.41,0.29-1.65,0.29-2.5,0.43c3.73,0.07,3.49,0.3,3.27,0.5
							c-0.22,0.19-0.42,0.4,3.4,0.23c0.73-0.28,0.26-0.15,2.23-0.34c-0.93,0.05-1.09,0.34,0.42,0.27l1.43-0.4
							c2.71,0.51-4.39,0.68-2.09,1.02c-1.47,0.2-3.49,0.41-5.03,0.59c-1.53,0.16-2.58,0.34-2.1,0.59c2.43,0.08,3.52-0.21,4.63-0.48
							c1.11-0.27,2.24-0.51,4.78-0.56l0.55,0.18c1.77-0.25,2.03-0.62,2.99-0.91c0.1,0.11,0.55,0.17,1.7,0.11
							c1.48-0.36,2.7-0.66,3.89-0.95c1.19-0.28,2.35-0.57,3.68-1.04c-3.61,0.67-5.19,0.71-6.78,0.76c-1.6,0.02-3.22,0.09-6.99,0.48
							c0.59-0.12,2.21-0.27,3.72-0.51c1.5-0.24,2.89-0.53,3.03-0.81l-0.03,0.4c2.42-0.44,4.83-0.88,7.9-1.17l-1.83,0.47
							c2-0.4,3.71-0.46,5.29-0.63c1.59-0.14,3.06-0.33,4.58-0.95c-1.12,0.16-2.02,0.36-2.71,0.52c2.04-0.53,4.63-0.95,6.87-1.38
							c1.5-0.52,2.97-1.11,4.43-1.68c0.01,0.22,2.89-0.52,1.58,0.15c3.35-0.56,4.71-1.6,6.54-2.25c1.7-0.33,1.01-0.04-0.14,0.37
							c-1.15,0.41-2.75,0.97-2.84,1.28c4.66-1.1,9.36-2.99,11.69-4.33c-0.92,0.29-1.38,0.4-1.37,0.29c0.18,0.06,1.93-0.68,2.91-1.07
							c0.19-0.17,0.38-0.35,0.57-0.52c1.67-0.55,1.51-0.32,0.22,0.47c0.78-0.32,1.58-0.8,2.4-1.24c0.81-0.46,1.63-0.9,2.49-1.11
							c-2.42,1.58-5.93,2.77-7.26,3.49c1.38-0.61,2.44-1.04,3.34-1.39c0.91-0.35,1.7-0.57,2.5-0.87c1.62-0.59,3.47-1.24,6.66-3.32
							c0.15,0.06-0.85,0.92,0.42,0.17c2.85-1.86,0.48-0.91,1.22-1.72c-2.1,1.51-3.24,1.99-4.73,2.41l0.51-0.51
							c0.16,0.06,1.56-0.75,2.02-0.91l0.14-0.58c0.03,0.25,0.67,0.13,1.48-0.23c0.79-0.38,1.81-0.95,2.58-1.62
							c-1.88,0.88-1.43,0.56-2.18,0.42c1.05-0.97,1.75-1.33,2.49-1.73c0.37-0.2,0.76-0.4,1.18-0.7c0.41-0.32,0.85-0.73,1.37-1.32
							c-0.08,0.26-2.13,2.07-0.23,0.67c1.55-1.2,1.06-1.36,1.94-2.29c-0.82,1.25-0.3,1.26-1.27,2.63c-1.34,1.14-1.64,1.34-1.92,1.55
							c-0.28,0.21-0.52,0.45-1.9,1.51c0.88-0.46,1.72-0.97,2.6-1.45c-2.42,1.83-1.53,1.66-1.65,1.93c1.11-0.69,1.86-1.2,2.37-1.63
							c0.5-0.45,0.78-0.79,1.01-1.09c0.23-0.31,0.41-0.58,0.7-0.91c0.27-0.34,0.64-0.74,1.27-1.27c0.99-1.26-2.31,2.03-0.67,0.15
							c1.16-1,1.22-1.18,1.31-1.4c0.08-0.23,0.2-0.49,1.28-1.77c-0.07,0.18-0.16,0.36-0.25,0.53c0.45-0.29,0.75-0.7,1.06-1.13
							c0.3-0.44,0.62-0.89,0.92-1.38c0.33-0.55-0.16-0.46-0.35-0.77c-0.2-0.31-0.02-0.96,1.21-3.06c-0.03,0.26-0.02,0.37,0.02,0.39
							c0.04,0.95,0.13,1.98,0.03,2.99l-0.12,1.56c-0.05,0.53-0.15,1.04-0.23,1.57c1.85-2.19,3.59-4.77,4.77-7.7
							c1.18-2.92,1.8-6.21,1.51-9.5c0.1-0.4,0.22-0.32,0.37,0.03c0.12,0.36,0.2,0.99,0.28,1.67c0.12,0.68,0.04,1.39,0.08,1.92
							c0.01,0.52,0.04,0.86,0.12,0.76c-0.09,0.52-0.21,1.03-0.31,1.54c-0.06,0.25-0.1,0.51-0.16,0.76l-0.24,0.74
							c-0.06-0.06,0.04-0.48,0.12-1.04c0.07-0.57,0.16-1.28,0.24-1.9c0.03-1.25,0-2.11-0.32-0.75c0.02,0.67-0.1,1.29-0.18,1.87
							c-0.04,0.29-0.08,0.58-0.12,0.85c-0.06,0.27-0.14,0.53-0.2,0.79c-0.14,0.51-0.26,1.01-0.41,1.48
							c-0.18,0.46-0.35,0.92-0.52,1.37c-0.15,0.46-0.36,0.89-0.57,1.33c-0.2,0.45-0.41,0.9-0.63,1.37
							c-0.51,0.91-0.97,1.94-1.65,3.06c0.75-0.45,1.72-1.91,2.56-3.68c0.91-1.74,1.47-3.83,2.14-5.43
							c-0.21,0.69-0.38,1.33-0.52,1.95c-0.19,0.61-0.36,1.18-0.54,1.75c1.31-2.96,2.08-6.47,1.84-10.21
							c-0.05-0.28-0.18-0.54-0.27-0.81c0.11,0.62,0.09,1.2,0.11,1.71c0,0.52,0.05,0.97,0.01,1.36c-0.07,0.77-0.11,1.25-0.13,1.36
							c0.32-3.32-0.72-6.01-1.21-6.08c0.05,0.18,0.08,0.37,0.1,0.55c-0.09-0.37-0.28-0.72-0.41-1.08
							C209.68,103.94,209.52,103.21,209.25,102.52z M27.94,32.93c0.17,0.11,0.31,0.19,0.44,0.23
							C28.25,33.12,28.31,33.25,27.94,32.93z M171.86,145.78c4.2-1.27,8.39-2.73,12.27-4.45c-0.92,0.28-1.8,0.55-2.63,0.79
							c-0.83,0.21-1.59,0.41-2.27,0.58c-1.34,0.34-2.32,0.5-2.7,0.48c-0.77-0.06,0.95-0.7,6.69-3.23l0.72-0.39
							c-0.77,0.28-1.81,0.7-2.94,1.2c-1.15,0.48-2.42,1-3.64,1.51c-0.95,0.51-2.95,1.7-4.75,2.65c-0.9,0.48-1.73,0.96-2.35,1.27
							c-0.61,0.32-0.99,0.54-0.97,0.56c0.82,0.03,1.81-0.56,3.17-0.93L171.86,145.78z M168.43,145.2c-2.38,0.61-1.79,0.63-2.11,0.91
							c0.83-0.24,1.65-0.53,2.46-0.79C168.46,145.37,168.29,145.36,168.43,145.2z M166.52,146.26c0.27-0.07,0.5-0.12,0.62-0.14
							L166.52,146.26z M207.17,122.48c-0.06,0.09-0.08,0.12-0.14,0.21c0.35-0.47,0.64-0.98,0.98-1.49
							C207.86,121.39,207.61,121.76,207.17,122.48z M203.73,126.11l-0.16,0.65c0.4-0.37,0.76-0.79,1.14-1.22
							C204.47,125.59,204.24,125.65,203.73,126.11z M190.62,134.96c-0.62,0.9-3.6,2.46-3.56,2.99c-0.13,0.21,0.51-0.08,1.23-0.43
							c0.79-0.42,1.65-0.83,2.51-1.35c0-0.08,0.14-0.23,0.39-0.46c-0.89,0.46-1.51,0.69-1.31,0.23c2.5-0.76,1.75-1.51,4.11-2.87
							C194.54,132.34,191.29,134.46,190.62,134.96z M42.73,86.13c0.09-0.01,0.37-0.08,0.75-0.19l-1.45,1.31
							c-2.82,1.94-5.41,3.3-7.11,5.99c-1.09,0.96-1.8,1.4-2.49,1.82c0.47-0.55,0.93-1.05,1.31-1.46c0.65-0.9,1.24-1.59,1.72-2.16
							c0.52-0.54,0.94-0.95,1.3-1.27c0.72-0.63,1.22-0.86,1.66-1.07c0.44-0.2,0.83-0.38,1.47-0.77
							C40.54,87.92,41.36,87.25,42.73,86.13z M29.27,120.17c-0.19-0.32-0.32-0.4-0.32-0.4c2.19,3.38,4.73,5.93,7.04,7.98
							c2.34,2.03,4.42,3.65,6.13,4.85c-0.48-0.74-3.28-3.19-4.41-4.54l1.4,0.75c0.17,0.29,0.36,0.56,0.55,0.85
							c0.78,0.46,1.52,0.97,2.33,1.38c-0.23-0.32-0.78-0.8-1.37-1.35c-0.6-0.54-1.28-1.13-1.73-1.7c-0.05-0.03-1.06-0.67-2.08-1.52
							c-0.51-0.42-1.07-0.85-1.53-1.26c-0.45-0.41-0.85-0.77-1.1-0.98c0.37,0.49,0.71,1,1.1,1.49l1.2,1.43
							c-0.3-0.41-1.38-1.43-2.39-2.67c-0.55-0.59-1.03-1.25-1.49-1.85c-0.48-0.58-0.85-1.14-1.11-1.54c-0.25,0.09,1.46,3.06,2.1,3.1
							c-0.02,0.55-2.32-2.65-1.11-0.45c-1.01-1.09-2.12-2.69-2.87-4.37c-0.19-0.42-0.39-0.82-0.55-1.23
							c-0.14-0.41-0.27-0.81-0.4-1.19c-0.28-0.75-0.4-1.44-0.51-1.98l0.38-0.47c-0.13-0.57-0.19-0.95-0.28-1.24
							c-0.09-0.29-0.19-0.48-0.3-0.7c-0.1-0.21-0.21-0.44-0.29-0.79c-0.05-0.36-0.07-0.84-0.04-1.54c0.14,1.72,0.27,1.55,0.38,1.31
							c0.06-0.12,0.11-0.26,0.16-0.21c0.06,0.06,0.07,0.31,0.2,0.96c0.05-0.86,0.46-0.08,0.28-2.67c-0.26-1.09-0.17-1.8,0.07-2.44
							c0.1-0.33,0.21-0.65,0.27-1.02c0.09-0.37,0.15-0.78,0.13-1.32c0.26-0.65,0.26-0.26,0.3-0.04c0.02,0.11,0.04,0.18,0.1,0.06
							c0.06-0.12,0.15-0.43,0.4-1.05c0.15-0.76,0.27-1.32,0.38-1.73c0.1-0.42,0.13-0.71,0.13-0.91c0-0.41-0.15-0.49-0.32-0.68
							c-0.69,1.35-0.87,2.2-0.94,2.98c-0.12,0.77-0.1,1.48-0.44,2.64c0.09-1.6,0.24-3.26,0.71-4.87c-0.23,0.4-0.42,0.75-0.57,1.08
							c-0.12,0.33-0.22,0.63-0.29,0.91c0.24-0.98,0.51-1.79,0.64-2.54c0.07-0.43,0.2-0.8,0.31-1.16c-1.36,2.57-1.99,5.09-2.27,5.5
							l-0.13-0.45c-0.49,0.96-0.57,2.72-0.45,3.51c-0.01,0.66-0.07,1.32,0,1.94c0.06,0.62,0.12,1.21,0.18,1.74
							c0.18,1.04,0.34,1.82,0.23,2.13l-0.37-0.95C27.42,116.11,27.5,116.51,29.27,120.17z M124.26,153.53
							c-1.95-0.84-4.07-1.39-13.01-1.53l0.71-0.03c-4.47-0.68-8.83,0.26-14.24-0.93c2.68-0.03,2.54,0,5.52-0.48l-2.85-0.01
							c0.83-0.37-2.01-0.44-4.08-0.68l1.89-0.34c0.61,0.14,1.72,0.32,2.67,0.43c0.95,0.1,1.73,0.15,1.69,0.08
							c-0.36,0,0.69,0.26,2.18,0.53c1.48,0.26,3.4,0.47,4.76,0.48c-0.26-0.38-5.98-0.57-3.39-1.02c-2.26,0.1-2.51-0.31-4.86-0.37
							c2.26-0.06,0.6-0.45,2.29-0.58c-1.28-0.07-2.56-0.11-3.83-0.22c-0.09-0.09,5.58,0.22,2.5-0.49c-1.55,0.09-5.58-0.63-5.7-0.23
							l-0.08-0.13c-2.83-0.47-1.32,0.4-4.78-0.31c-0.07,0.19,0.57,0.44,1.83,0.56c1.07,0.05,1.27-0.19,3.45,0.03
							c0.94,0.43-2.63-0.37-1.18,0.34c0.72,0.38,5.81,0.41,4.14,0.83l-2.85-0.39c-0.12,0.4-2.19,0.1-2.17,0.43
							c-1.77-0.08-3.36-0.74-5.18-0.7c-0.78,0.13,0.43,0.82-2.48,0.13c-1.1-0.51-3.35-1-5.61-1.54c-2.28-0.48-4.57-1.03-5.83-1.27
							l-2.24-0.33c0.06,0.14,1.1,0.41,1.95,0.64c0.85,0.21,1.49,0.37,0.75,0.35c-1.15-0.23-2.29-0.53-3.43-0.8l0.3-0.08
							c-1.12-0.32-2.31-0.51-3.35-0.73c1.13,0.06,3.54,0.84,3.16,0.3c-1.57-0.49-1.76-0.74-3.24-1.09c0.33,0.07,0.61,0.11,0.59,0.04
							c-3.14-1.11-3.2-0.52-4.05-0.64c-3.36-0.55,3.06,1.55,2.55,1.78c-1.59-0.42-3.15-0.94-4.73-1.41
							c-1.55-0.55-3.13-1.02-4.67-1.63c0.83,0.2,1.67,0.38,1.43,0.1c-2.17-1.07,0.06-0.32-3.08-1.56c0,0.63-4.06-1.37-6.34-2.18
							c-0.89-0.72-1.09-0.84,1.12,0.23c-0.04-0.23-0.83-0.65-1.71-1.14c-0.88-0.48-1.86-1-2.37-1.28c-0.63-0.26-1.65-0.8-2.32-1.11
							c0.76,0.64,0.26,0.68-1.63-0.35l-0.15,0c0.71,0.52,1.56,1.05,2.43,1.62c0.86,0.59,1.8,1.14,2.7,1.65
							c0.9,0.53,1.78,1,2.58,1.36c0.8,0.37,1.49,0.67,2.03,0.81c-0.22-0.03-0.43-0.06-0.64-0.1c3.57,2.05,8.39,2.81,9.92,4.08
							c-0.25,0.2,0.75,0.34,0.55,0.68l2.95,0.65l-0.65-0.03c1.62,0.53,3.27,0.93,4.9,1.41l-0.15,0.03c2.44,0.29,4.33,0.51,5.86,0.61
							c0.05-0.17-0.09-0.25,0.72-0.19c0.8,0.1,1.4,0.23,1.92,0.38l0,0l0,0c1.2,0.3,1.96,0.72,3.44,1.13
							c-1.54-0.32-3.08-0.59-4.61-0.95c-0.44,0.18-0.13,0.62,2.1,1.29c-0.93-0.18-1.37-0.04-0.23,0.23
							c0.14-0.05,3.08,0.46,2.01-0.01c4.4,0.81,11.49,2.75,18.36,2.83c-4.91-0.18,3.88,0.8-1.56,0.35c1.87,0.45,2.7,0.38,3.54,0.29
							c0.84-0.11,1.69-0.22,3.62-0.07c0.32,0.2-2.1-0.16-3.01,0.08c6.43,0.69,10.89-0.1,17.09,0.04l0.27,0.36
							C121.59,153.67,122.9,153.6,124.26,153.53z M136.51,152.37c1.19-0.13,2.39-0.31,3.61-0.48c-0.12,0.01-0.23,0.02-0.36,0.03
							c1.18-0.23,2.36-0.43,3.53-0.7c-2.2,0.14-3.68-0.13-0.66-0.65c-0.24,0.18,0.68,0.25-0.37,0.48c1.03-0.03,2.68-0.13,3.92-0.29
							c1.23-0.16,2.04-0.39,1.42-0.57c-3.84,1.09-1.01-0.56-4.03,0.24c1.6-0.57,3.26-0.62,4.79-1.04c-1.57,0.55,0.48,0.63,2.94,0.36
							c1.04-0.29,3.92-0.7,5.63-1.24c-0.69-0.2,0.78-0.71-2.06-0.2c1.02-0.31,2.61-0.7,4.45-0.93c-0.7,0.23-1.94,0.52-1.83,0.62
							c1.23,0.07,2.59-0.27,3.37-0.32c0.59-0.16,1.19-0.32,1.77-0.48c-0.18,0.01-0.34,0.01-0.46-0.01c0.64-0.25,1.27-0.52,1.9-0.79
							c-2.58,0.85-1.25,0.16-1.26-0.03c0.03,0.4,1.7-0.4,2.59-0.65l-2.05,0.12c0.88-0.45,3.39-0.59,2.79-0.86
							c-2.08,0.47-3.5,0.84-4.88,1.17c-1.38,0.34-2.7,0.72-4.57,1.16l1.6,0c-4.21,1.12-2.73,0.03-7.52,0.92
							c-0.97,0.31-2.78,0.6-4.35,0.89c-1.57,0.25-2.9,0.51-2.92,0.81c0.29-0.13-0.48-0.16-1.52-0.1c-1.05,0.04-2.37,0.16-3.19,0.38
							c-1.78,0.75-7.38,1.24-5.67,1.36c1.52-0.12,3.52-0.58,4.77-0.34l-2.93,0.36l1.95,0.13
							C135.89,151.7,136.01,151.98,136.51,152.37z M200.92,134.56c0.03-0.02,0.07-0.05,0.1-0.07l-0.11,0.08L200.92,134.56z"/>
						<path class="st19" d="M29.67,49.81c-0.51-0.69-1.46-2.56-1.53-2.06C28.39,47.56,29.91,51.05,29.67,49.81z"/>
						<path class="st19" d="M28.78,47.44c-0.14-0.1-0.2,0.05-0.64-0.78l1.27,2.26L28.78,47.44z"/>
						<path class="st19" d="M29.5,44.1c-0.83-1.07-1.34-1.76-2.29-3.63c0.33-1.06,1.78,2.95,2.87,3.45
							c-1.72-3.44-2.87-4.18-4.39-6.95C26.12,38.51,28.92,44.27,29.5,44.1z"/>
						<polygon class="st19" points="31.16,45.16 30.02,43.34 30.07,43.55 31.22,45.37 						"/>
						<path class="st19" d="M40.82,81.94c-0.31-0.08-1.33,0.93-1.91,1.42C39.42,83.02,40.16,82.57,40.82,81.94z"/>
						<path class="st19" d="M64.48,64.64L53.16,52.87C56.42,56.26,59.43,59.38,64.48,64.64z"/>
						<path class="st19" d="M36.38,132.03c-0.9-0.73-1.69-1.36-2.41-1.94c-0.7-0.62-1.35-1.18-2-1.74
							c-0.61-0.61-1.23-1.23-1.89-1.93c-0.6-0.76-1.31-1.55-1.99-2.6c0.36,0.75,0.82,1.33,1.2,1.91c0.39,0.58,0.78,1.08,1.19,1.5
							c0.79,0.89,1.53,1.6,2.3,2.23c0.38,0.32,0.74,0.64,1.12,0.95c0.38,0.31,0.76,0.62,1.16,0.94c0.39,0.33,0.79,0.69,1.21,1.08
							c0.43,0.37,0.87,0.77,1.34,1.23L36.38,132.03z"/>
						<path class="st19" d="M33.86,132.36c-0.14-0.44,0.64,0.09,1.41,0.63c0.78,0.53,1.58,1.01,1.42,0.67
							c-1.27-0.94-1.59-1.16-1.91-1.3c-0.31-0.16-0.59-0.3-1.64-1.32C33.36,131.49,33.61,131.91,33.86,132.36z"/>
						<polygon class="st19" points="30.22,111.77 30.64,112.85 30.41,111.97 						"/>
						<path class="st19" d="M51.89,143.57l-0.5-0.13c0.67,0.39,1.34,0.74,2.03,1.1C52.91,144.22,52.39,143.92,51.89,143.57z"/>
						<path class="st19" d="M50.89,143.32l0.5,0.13L50.89,143.32z"/>
						<path class="st19" d="M31.42,113.02l-0.16-1.59l-0.25-0.77C31.04,111.46,31.27,112.24,31.42,113.02z"/>
						<path class="st19" d="M37.48,127.4c-0.46-0.34-0.87-0.74-1.31-1.1c0.13,0.11,0.57,0.62,0.91,0.99
							C37.46,127.63,37.73,127.83,37.48,127.4z"/>
						<path class="st19" d="M64.79,148.86c0.72,0.17,1.44,0.37,2.17,0.51l-0.2-0.11c-0.72-0.16-1.44-0.35-2.16-0.52L64.79,148.86z"
							/>
						<path class="st19" d="M48.98,134.21c-0.41-0.46,0.32-0.03,0.94,0.28c0.62,0.31,1.1,0.55,0.11-0.15
							C48.14,133.32,48.8,133.9,48.98,134.21z"/>
						<path class="st19" d="M71.67,145.99c0.28,0.07,0.58,0.14,0.87,0.18C72.2,146.09,71.91,146.04,71.67,145.99z"/>
						<path class="st19" d="M71.67,145.99c-0.9-0.26-1.75-0.66-2.39-0.74C70.35,145.73,70.77,145.8,71.67,145.99z"/>
						<path class="st19" d="M82.09,148.42l-0.82-0.2c0.88,0.01,0.48-0.05-0.31-0.07c-0.88-0.17-0.85-0.05-0.98,0
							c-0.18,0.01-0.37,0.01-0.57,0.02c0.28,0.01,0.53,0.02,0.75,0.03C81.52,148.48,82.35,148.64,82.09,148.42z"/>
						<path class="st19" d="M121.66,157.97c-3.22-0.08-4.05-0.19-3.88-0.46c-3.05-0.13-2.58,0.38-4.43,0.42
							c1.73,0.03,2.77,0.05,3.9,0.07C118.38,158.04,119.59,158.06,121.66,157.97z"/>
						<path class="st19" d="M113.36,157.93c-0.39-0.01-0.76-0.01-1.21-0.02C112.65,157.94,113.03,157.94,113.36,157.93z"/>
						<polygon class="st19" points="70.81,142.52 72.75,142.66 72.06,142.52 						"/>
						<path class="st19" d="M126.45,158c-0.6,0-1.56,0.05-2.03-0.03C124.25,158.25,127.04,157.99,126.45,158z"/>
						<path class="st19" d="M114.15,152.7c-0.31-0.18-2.32-0.15-3.14-0.24C112.18,152.54,113.13,153.08,114.15,152.7z"/>
						<path class="st19" d="M135.59,156.33c-0.59,0.03-1.52-0.08-1.14-0.34C133.6,156.2,132.47,156.78,135.59,156.33z"/>
						<path class="st19" d="M119.89,152.81l-0.45-0.09l-2.15,0.16C118.16,152.86,119.02,152.86,119.89,152.81z"/>
						<path class="st19" d="M112.37,148.64c-2.39,0.24,3.74,0.92-0.36,1.05c5.28,0.52-0.39-0.45,3.5-0.31
							C113.23,149.24,112.13,148.76,112.37,148.64z"/>
						<path class="st19" d="M115.51,149.39c0.33,0.02,0.69,0.03,1.08,0.04C116.16,149.41,115.81,149.4,115.51,149.39z"/>
						<path class="st19" d="M149.13,149.16c-0.34,0.09-0.57,0.16-0.78,0.23C148.61,149.32,148.87,149.25,149.13,149.16z"/>
						<path class="st19" d="M127.93,148.96l-3.54,0.62c1.18-0.22,3.27-0.33,5.01-0.54c1.74-0.2,3.13-0.4,2.92-0.63
							c-1.93,0.01-4.24,0.29-5.19,0.52L127.93,148.96z"/>
						<path class="st19" d="M170.54,150.98l-1.51,0.65l1.97-0.53C170.42,151.2,171.33,150.55,170.54,150.98z"/>
						<path class="st19" d="M171.38,151l-0.38,0.1C171.09,151.09,171.21,151.06,171.38,151z"/>
						<path class="st19" d="M142.42,150.35c-1.16,0.11-2.08,0.21-3.13,0.41C139.74,150.8,142.64,150.59,142.42,150.35z"/>
						<path class="st19" d="M181.13,146.54c-0.82,0.36-1.64,0.74-2.48,1.06c0.92-0.33,1.82-0.73,2.72-1.1L181.13,146.54z"/>
						<polygon class="st19" points="192.97,141.83 193.43,141.67 195.32,140.35 194.86,140.52 						"/>
						<path class="st19" d="M174.52,139.67c-1.59,0.55-2.72,1.36-2.27,1.31c1.05-0.34,2.06-0.75,3.09-1.12
							c-0.92-0.08-0.85,0.34-2.68,0.87C173.29,140.39,173.9,140.02,174.52,139.67z"/>
						<path class="st19" d="M176.16,70.81c0.83,0.02,4.41,1.5,4.5,1.83c-0.52-0.11-2.51-0.75-1.34-0.15l3.07,0.56
							c3.61,1.95-3.17-0.48-5.13-0.86c3.83,1.5,5.11,1.6,9.14,3.42c-1.16-0.6-1.85-1.06-2.43-1.47c0.02-0.23,0.96,0.11,2.23,0.67
							c1.26,0.6,2.85,1.38,4.17,2.08c-1.59-1.07-0.55-0.7,0.76-0.19c0.23,0.11,0.39,0.16,0.5,0.19c0.15,0.06,0.3,0.11,0.45,0.17
							l-0.32-0.17c0.05-0.03,0-0.12-0.19-0.32c-1.14-0.55-2.1-1.12-2.97-1.61c-0.87-0.5-1.62-1-2.36-1.32
							c0.58,0.65-0.69,0.13-2.35-0.62c-1.66-0.73-3.74-1.65-4.72-1.9l-2.2-0.73l-0.81-0.3c-0.14-0.13,0.13-0.14,1.42,0.18
							c-1.08-0.28-4.55-1.45-4.3-1.13c-2.65-0.85-5.32-1.62-8-2.31c-0.24-0.1-0.48-0.2-0.66-0.3c-0.29-0.03-0.35,0-0.32,0.04
							c-11.71-2.91-23.63-4.49-35.57-5.04c1.76,0.16,3.28,0.41,5.09,0.61c-2.76,0.27,2.97,0.32,2.13,0.72
							c-1.24,0.06-3.02-0.14-4.08-0.3c-0.41,0.2,1.09,0.5,0.9,0.76c4.45,0.62,5.23-0.4,9.6,0.24c-0.21,0.26-1.58,0.32,1.28,0.64
							l-0.73-0.04c4.61,0.3,3.47,1.06,6.45,0.78l-0.14,0.38c1.06,0.01,2.59,0.18,4.14,0.43c1.55,0.23,3.12,0.52,4.25,0.74
							l-0.15,0.05c3.21,0.42,4.09,0.66,5.07,0.89c0.98,0.23,2.04,0.54,5.58,1.4l-3.35-0.42c2.37,0.83,3.05,0.47,4.76,1.05
							c-0.14,0.04,0.17,0.43-1.47,0.02c2.88,0.6,5.77,1.24,8.63,2.03C178.82,71.96,176.42,71.09,176.16,70.81z"/>
						<path class="st19" d="M186.41,75.61c0.42,0.23,0.9,0.47,1.48,0.74C187.33,76.07,186.86,75.84,186.41,75.61z"/>
						<path class="st19" d="M126.24,61.45l2.52,0.09C127.98,61.48,127.17,61.45,126.24,61.45z"/>
						<path class="st19" d="M198.17,81.26c-1.22-1.06,1.16,0.43,1.47,0.5c-0.78-0.59-1.59-1.1-2.4-1.63
							c-0.8-0.53-1.61-1.05-2.44-1.52c-0.06,0.14-0.63,0-0.6,0.18C195.56,79.55,196.86,80.41,198.17,81.26z"/>
						<path class="st19" d="M193.53,77.52c-0.22-0.01-0.79-0.22-1.43-0.46c0.92,0.47,1.81,1.03,2.72,1.55
							C194.85,78.51,194.6,78.24,193.53,77.52z"/>
						<path class="st19" d="M189.96,84.86l-0.79-0.45l-1.28-0.55C188.59,84.17,189.29,84.5,189.96,84.86z"/>
						<path class="st19" d="M177.22,78.09c0.94,0.64,2.96,1.24,3.63,1.47C178.61,78.64,179.61,78.97,177.22,78.09z"/>
						<polygon class="st19" points="179.05,81.49 176.89,80.76 177.07,80.88 						"/>
						<path class="st19" d="M107.73,63.2c-0.4,0.03-0.78,0.07-1.18,0.1C107.09,63.26,107.44,63.23,107.73,63.2z"/>
						<path class="st19" d="M128.48,62.71c-2.88-0.32-1.93-0.38-0.48-0.44c1.45-0.06,3.4-0.04,2.5-0.39c-1.06-0.01-2.11,0-3.16,0.04
							l0.27-0.14l-3.85-0.08c0.78,0.28,1.38,0.32,1.2,0.59c-5.13-0.21-1.61-0.36-5.38-0.76c-1.92,0.02-3.83,0.04-5.75,0.12
							l0.46-0.09c-0.48,0.02-0.7,0.06-0.86,0.11c-6.45,0.22-12.9,0.79-19.31,1.65c-3.47,0.69,1.99,0.23-0.53,0.98
							c4.04-0.56,10.08-0.77,10.39-1.33c-0.13,0.09-0.39,0.26,0.44,0.26l2.32-0.6l-2.25,0c1.17-0.3,3.67-0.56,6.05-0.65
							c2.38-0.1,4.65-0.05,5.34,0.08c-4.35,0.27-2.15,0.7-8.21,0.7c0.28,0.12,1.4,0.3,0.04,0.46
							C114.8,62.65,121.13,62.86,128.48,62.71z"/>
						<path class="st19" d="M64.91,65.72l0.07,0.01C64.87,65.65,64.83,65.64,64.91,65.72z"/>
						<path class="st19" d="M66.45,67.47l1.35,1.05c0.24,0.12,0.36,0.13,0.53,0.17l-0.24-0.24l-0.75-0.79l-1.82-1.91l-0.54-0.02
							c0.39,0.28,1.79,1.5,2.17,2.12L66.45,67.47z"/>
						<path class="st19" d="M69.16,68.63c-0.14,0.08-0.25,0.18-0.35,0.28c-0.1,0.12-0.14,0.09-0.19,0.19
							c-0.07,0.12-0.09,0.51,0.15,0.49c-0.1,0.04-0.21,0.14-0.25,0.08c-0.05-0.05-0.09-0.1-0.11-0.15c-0.05-0.1-0.06-0.18-0.07-0.25
							c-0.02-0.15,0-0.21-0.32-0.21c-0.09,0.14,0.09,0.38,0.32,0.6l0.17,0.15c0.07,0.01,0.15-0.05,0.22-0.08
							c0.14-0.06,0.25-0.12,0.31-0.16C69.09,69.26,69.13,68.94,69.16,68.63z"/>
						<path class="st19" d="M87.8,64.69L87.05,65c0.64-0.1,1.28-0.17,1.92-0.26L87.8,64.69z"/>
						<path class="st19" d="M87.05,65l-1.9,0.28c0.16,0.11,0.31,0.22,0.63,0.26L87.05,65z"/>
						<path class="st19" d="M80.17,66.13c-0.8,0.14-1.69,0.3-2.77,0.54C78.32,66.47,79.25,66.31,80.17,66.13z"/>
						<path class="st19" d="M82.35,65.8l-0.08-0.04c-0.7,0.12-1.41,0.24-2.1,0.37C80.95,65.99,81.65,65.89,82.35,65.8z"/>
						<path class="st19" d="M85.15,65.28c-0.36-0.25-0.78-0.52-3.51,0.11l0.63,0.36C83.24,65.6,84.19,65.42,85.15,65.28z"/>
						<path class="st19" d="M163.35,75.78c-0.69-0.13-1.37-0.25-2.07-0.35l0.2,0.1c0.69,0.1,1.38,0.23,2.06,0.35L163.35,75.78z"/>
						<path class="st19" d="M151.61,72.92c-0.52-0.04-0.92-0.05-1.28-0.06C150.88,72.92,151.31,72.95,151.61,72.92z"/>
						<path class="st19" d="M142.44,73.67c-2.39-0.63,3.4,0.03-1.08-0.69c-0.36-0.35,1.8-0.44,3.9-0.02
							c-0.21,0.25-2.09-0.1-0.82,0.35c1.45-0.13,1.96,0.17,1.53-0.32c2.4,0.12,2.71-0.13,4.37-0.14c-2.89-0.31-8.89-1.58-12.62-1.39
							c-2.07,0.31-0.9,1.1-0.98,1.8C137.02,73.46,142.19,74.08,142.44,73.67z"/>
						<path class="st19" d="M146.15,74.89c1.11,0.21,1.45,0.24,2.14,0.28C148.14,74.9,147.04,75.02,146.15,74.89z"/>
						<path class="st19" d="M120.34,67.58c-0.22,0.09-2.32,0.22-1.87,0.4c1.06-0.06,2.12-0.07,3.18-0.1
							C120.91,67.85,120.64,67.72,120.34,67.58z"/>
						<path class="st19" d="M123.05,67.84l-1.4,0.04C122,67.89,122.43,67.88,123.05,67.84z"/>
						<path class="st19" d="M120.19,67.52c0.05,0.02,0.1,0.04,0.15,0.07C120.39,67.56,120.38,67.54,120.19,67.52z"/>
						<path class="st19" d="M72.35,67.81c-0.01-0.21-1.4,0.29-2.09,0.55C70.84,68.22,71.66,68.04,72.35,67.81z"/>
						<path class="st19" d="M38.1,37.09l-0.75-1.03C37.59,36.45,37.71,36.65,38.1,37.09z"/>
						<path class="st19" d="M20.94,26.58c-0.05,0-0.14-0.05-0.25-0.12C20.8,26.53,20.88,26.57,20.94,26.58z"/>
						<path class="st19" d="M20.69,26.46c-0.71-0.52-2.33-2.63-3.17-3.16l0.14,0.04l-1.32-1.2C17.5,23.34,19.86,25.92,20.69,26.46z"
							/>
					</g>
				</g>
			</g>
		</g>
	</g>
</g>
</svg>
