<?xml version="1.0" encoding="utf-8"?>
<!-- Generator: Adobe Illustrator 24.3.0, SVG Export Plug-In . SVG Version: 6.00 Build 0)  -->
<svg version="1.1" id="Layer_1" xmlns="http://www.w3.org/2000/svg" xmlns:xlink="http://www.w3.org/1999/xlink" x="0px" y="0px"
	 viewBox="0 0 237.12 197.08" style="enable-background:new 0 0 237.12 197.08;" xml:space="preserve">
<style type="text/css">
	.st0{fill:none;stroke:#000000;stroke-width:6.1975;stroke-miterlimit:10;}
	.st1{fill:#FFFFFF;stroke:#000000;stroke-width:6.1975;stroke-linecap:round;stroke-linejoin:round;stroke-miterlimit:10;}
	.st2{fill:none;stroke:#000000;stroke-width:4.1833;stroke-linecap:round;stroke-linejoin:round;stroke-miterlimit:10;}
	.st3{fill:#F7931E;}
	.st4{fill:#ED1C24;}
	.st5{fill:#006837;}
	.st6{fill:#0071BC;}
	.st7{fill:#FF7BAC;}
	.st8{fill:#D66995;}
	.st9{stroke:#000000;stroke-width:2.125;stroke-miterlimit:10;}
	.st10{fill:#999999;stroke:#000000;stroke-width:2.125;stroke-miterlimit:10;}
	.st11{fill:#C1BFC0;stroke:#000000;stroke-width:2.125;stroke-miterlimit:10;}
	.st12{fill:none;stroke:#000000;stroke-width:1.5938;stroke-miterlimit:10;}
	.st13{fill:none;stroke:#000000;stroke-width:3;stroke-miterlimit:10;}
	.st14{fill:#0071BC;stroke:#000000;stroke-width:0.5312;stroke-miterlimit:10;}
	.st15{fill:none;stroke:#000000;stroke-width:3.7188;stroke-linecap:round;stroke-linejoin:round;stroke-miterlimit:10;}
	.st16{fill:none;stroke:#ED1C24;stroke-width:19;stroke-linecap:round;stroke-linejoin:round;stroke-miterlimit:10;}
	.st17{fill:none;stroke:#ED1C24;stroke-width:13;stroke-linecap:round;stroke-linejoin:round;stroke-miterlimit:10;}
	.st18{font-family:'FuturaPT-DemiObl';}
	.st19{font-size:22.1465px;}
	.st20{fill:#F8A13B;}
	.st21{fill:#207B50;}
	.st22{fill:#EF3940;}
	.st23{fill:#2083C4;}
	.st24{fill:#202020;}
</style>
<text transform="matrix(0.9972 0 0 1 51.5986 76.2031)"><tspan x="0" y="0" class="st18 st19">Double-click</tspan><tspan x="0" y="23.99" class="st18 st19">cap seal</tspan></text>
<g>
	<g>
		<g>
			<g>
				<g>
					<g>
						<path class="st20" d="M205.32,164.97c0.56,1.1,0.78,2.18,0.48,1.81c1.35,2.14,1.04,2.34,1.74,2.37
							c0.95,1.33,1.3,3.06,0.3,1.51l2.31,4.04l-1.09-2.55c0.78,0.47,1.74,4.08,2.65,4.63l-2.17-4.53l0.26,0.16
							c-0.65-0.96-1.52-3-1.78-3.74c0.13,0.07,0.22-0.05,0.61,0.74c-2.53-5.51-1.5-1.1-3.79-5.59
							C204.98,164.1,205.14,164.46,205.32,164.97z"/>
						<path class="st20" d="M204.27,159.77l-1.48-1.65l-1.35-3.29c-0.22,0.06-1.47-2.21-0.91-0.54c0.18,0.3,0.52,0.88,0.73,1.38
							c-0.6-0.16-2.21-4.17-2.21-3.03c1.3,2.49,1.39,2.92,2.47,4.32c1.05,2.35,1.74,4.09,2.09,5.26c0.39,0.66,0.7,0.63,1.16,1.49
							c-0.1-0.19-0.18-0.37-0.3-0.59l0.61-0.4c-0.48-0.67-0.74-1.39-1.13-2.2l2.52,3.41c0.04-1.5-2.04-5.03-2.48-6.62
							C204.31,159.41,203.05,155.99,204.27,159.77z"/>
						<path class="st20" d="M204.79,163.73c0.01,0.02,0.03,0.06,0.04,0.09C204.82,163.79,204.8,163.75,204.79,163.73z"/>
						<path class="st20" d="M31.87,91.23c0.35,0.74,0.6,0.89,0.72,0.96c-1.29-2.75-2.05-5.7-2.16-8.69
							c-0.09,0.14-0.16,0.87-0.23,1.35c-0.02,0.48-0.1,0.71-0.25-0.17c-0.08,0.4,0.06,1.2,0.2,1.93c0.16,0.73,0.48,1.37,0.63,1.5
							l-0.44-0.58c0.22,0.5,0.35,0.96,0.43,1.37c0.11,0.4,0.17,0.74,0.16,0.98c0,0.49-0.22,0.59-0.55-0.05l0.06,0.17
							c1.05,1.78,2.41,3.34,3.79,4.76c-0.52-0.94-0.79-1.25-1.14-1.59C32.73,92.84,32.41,92.41,31.87,91.23z"/>
						<path class="st20" d="M200.77,166.01c-0.88-0.95-1.03-1.02-0.99-0.87C200.12,165.46,200.44,165.76,200.77,166.01z"/>
						<path class="st20" d="M35.26,95.73c0.43,0.43,0.95,0.81,1.42,1.21C36.16,96.43,35.63,96.02,35.26,95.73z"/>
						<path class="st20" d="M24.32,84.86c-0.02,0-0.05-0.03-0.07,0.04c0.08,0.34,0.19,0.68,0.33,1.01c0-0.02,0-0.02,0-0.03
							C24.45,85.51,24.38,85.18,24.32,84.86z"/>
						<path class="st20" d="M71.78,116.44c0.2,0.05,0.37,0.09,0.61,0.15C72.17,116.52,71.97,116.48,71.78,116.44z"/>
						<path class="st20" d="M34.91,56.29c-0.57,0.61-1.14,1.22-1.67,1.88c-0.53,0.66-1.09,1.27-1.59,1.97
							c0.3-0.65-1.28,1.25-0.75,0.28c-0.23,0.32-1.37,1.75-0.96,1.44l0.67-0.8c-0.67,1.19-0.63,1.57-0.79,2.06
							c-0.12,0.52-0.49,1.11-1.5,3.12c0.88-1.08,1.47-1.85,1.92-2.54c0.43-0.7,0.72-1.31,1.1-1.93c0.29-0.39,0.54-0.71,0.8-1.04
							c0.34-0.63,0.74-1.19,1.12-1.79c0.39-0.58,0.77-1.2,1.19-1.75L34.91,56.29z"/>
						<path class="st20" d="M159.42,121.77l-0.04,0.02C159.41,121.8,159.42,121.78,159.42,121.77z"/>
						<path class="st20" d="M159.22,121.89l0.16-0.1C159.23,121.76,158.81,121.4,159.22,121.89z"/>
						<path class="st20" d="M34.58,95.38c0.12-0.01,0.36,0.11,0.68,0.35l-1.02-0.96C34.34,94.94,34.46,95.17,34.58,95.38z"/>
						<path class="st20" d="M31.87,93.27c-0.51-1.07-1.05-2.13-1.43-3.26c-0.23-0.38-0.5-0.76-0.69-1.17
							c0.21,0.66,0.55,1.33,0.85,2.09C30.94,91.67,31.4,92.44,31.87,93.27z"/>
						<path class="st20" d="M66.52,114.37c7.03,2.27-1.95,0.09,1.22,1.32c1.98,0.59,2.78,0.48,4.04,0.74
							c-2.87-0.7-2.57-0.95-2.31-1.15c0.27-0.21,0.54-0.44-2.28-1.28c0.5-0.15,1.55,0.03,2.7,0.35c1.16,0.31,2.45,0.7,3.38,1.07
							c2.01,1.19-2.01-0.16-2.67,0.23c2.3,0.59,1.93,0.37,2.98,0.35c3.56,1.13,7.62,1.2,9.64,2.4c2.68,0.41,2.56,0.06,4.14,0.05
							c0.4-0.55-3.89-1-4.75-1.71c0.19,0.09,0.56,0.27,0.43,0.34l-2.24-0.6c2.1,0.66-0.43,0.55-1.59,0.31
							c-0.84-0.18-2.5-0.55-2.23-0.67c0.42,0.07,0.86,0.12,1.29,0.18c-1.57-0.57-3.68-0.47-5.27-1.28c-0.05-0.16,0.6-0.03,0.72-0.08
							c-1-0.08-1.95-0.26-3.01-0.49c-1.05-0.25-2.21-0.57-3.64-0.89l1.79-0.04c-2.42-0.06-7.3-2.09-10.36-3.98
							c0.32,0.26,0.94,0.62,0.5,0.55c-1.98-0.75-3.19-1.87-2.18-1.71c-1.03-0.21-2.7-1.22-4.38-2.32c-0.83-0.55-1.69-1.11-2.47-1.62
							c-0.79-0.5-1.54-0.92-2.17-1.19c-3.93-1.58-7.78-3.56-11.12-6.28c0.35,0.32,0.68,0.7,1.06,1.07c0.34,1.21,0.83,1.66-0.91,0.43
							c1.56,1.33,1.3,0.51,3.44,2.64c-0.51-0.32-0.93-0.44-0.97-0.2c-0.03,0.22,0.27,0.86,1.37,1.86c2.93,2.3,5.77,3.67,8.59,4.84
							c2.85,1.12,5.69,2.02,8.95,3.14c0.03,0.23,1.28,0.9,2.84,1.61c0.79,0.34,1.65,0.7,2.47,1.05c0.83,0.32,1.61,0.63,2.22,0.87
							c-0.55,0.03-1.3-0.09-2.16-0.31c-0.85-0.23-1.8-0.57-2.76-0.91c0.59,0.25,1.4,0.59,2.24,0.95c0.85,0.35,1.76,0.68,2.53,0.98
							L66.52,114.37z"/>
						<path class="st20" d="M50.33,108.36c0.14,0.13,0.29,0.24,0.45,0.36C50.71,108.64,50.58,108.53,50.33,108.36z"/>
						<path class="st20" d="M60.25,112.77c-0.03,0-0.03,0.02-0.04,0.03c0.2,0.08,0.41,0.15,0.61,0.22
							C60.62,112.93,60.39,112.84,60.25,112.77z"/>
						<path class="st20" d="M34.77,97.32c-0.37-0.28-0.57-0.54-0.91-0.84c0.19,0.2,0.38,0.48,0.62,0.72
							C34.72,97.42,34.85,97.5,34.77,97.32z"/>
						<path class="st20" d="M34.54,95.7l0.27,0.1c-0.09-0.16-0.15-0.27-0.23-0.42C34.48,95.39,34.44,95.47,34.54,95.7z"/>
						<path class="st20" d="M93.71,124.32l0.74,0C94.01,124.28,93.82,124.29,93.71,124.32z"/>
						<path class="st20" d="M74.19,117.5c-2.51-0.65-0.47,0.52-4-0.52l1.03,0.35c-1.31-0.23-3.05-0.79-4.84-1.38
							c-1.77-0.64-3.58-1.33-5.02-1.94c0.42-0.1-1.64-0.99-1.15-1.21c-0.98-0.39-1.96-0.79-2.84-1.09
							c-0.86-0.34-1.63-0.58-2.21-0.65c-0.57-0.34-1.31-0.69-2.1-1.06c-0.79-0.37-1.62-0.77-2.28-1.28c0.5,0.55-2.45-0.53,1.21,1.28
							c-0.31-0.13-0.15,0.01-0.45-0.11c1.08,0.77,1.91,1.17,2.74,1.49c0.83,0.3,1.64,0.55,2.66,1.05c1.13,0.8-2.16-0.65-1.04-0.01
							c2.62,1.1,8.13,3.83,8.27,2.91c1.97,0.66,2.17,0.94,2.71,1.28c1.7,0.11,4.57,1.13,7.11,1.88c2.53,0.77,4.71,1.29,4.82,0.72
							c-0.59-0.12-1.36-0.28-2.2-0.46c-0.84-0.19-1.75-0.38-2.63-0.48L74.19,117.5z"/>
						<path class="st20" d="M37.55,100.62c0.11,0.12,0.25,0.27,0.34,0.37C37.79,100.88,37.67,100.75,37.55,100.62z"/>
						<path class="st20" d="M35.77,73.07L36,74.23c-1.06,2.33-1.45,3.93-1.8,5.46c-0.12,0.77-0.28,1.52-0.29,2.35
							c-0.03,0.41-0.07,0.84-0.02,1.3c0.04,0.46,0,0.95,0.1,1.47c-0.05,0.33-0.21-0.17-0.26-0.43c0.21,1.48,0.55,3.33,1.23,5.03
							c0.71,1.69,1.57,3.24,2.39,4.12c0.48,0.88,2.04,3.2,1.21,2.52c0.35,0.38,0.82,0.78,1.19,1.25c-0.09,0.3-0.96-0.96-1.14-0.86
							C38.9,96.83,39,97,39.14,97.03c-0.36-0.23-0.4,0.08-0.66,0.08c-0.27,0.01-0.73-0.32-1.87-1.86c-0.12-0.8,0.2-0.24,0.69,0.32
							c0.47,0.57,0.98,1.19,0.99,0.63c-0.74-0.99-0.88-0.72-1.01-0.75c-0.9-1.31-0.69-1.38-0.52-1.4c-0.55-0.37-1.23-2.21-1.86-2.79
							c-1.24-2.67,0.53-0.07-0.21-1.8l-1.02-0.79c-0.18-0.5-0.25-1.02-0.36-1.54l-0.16-0.77l-0.07-0.77
							c-0.26-1.1-0.34-1.62-0.49-1.84c-0.14-0.23-0.3-0.16-0.46-0.11c-0.16,0.05-0.33,0.08-0.5-0.24c-0.08-0.16-0.19-0.42-0.24-0.8
							c-0.04-0.39-0.08-0.91-0.1-1.61c0.18,0.38,0.4,0.02,0.76-0.71c0.17-0.36,0.32-0.83,0.51-1.34c0.22-0.51,0.42-1.07,0.6-1.66
							c-0.14,0.73-0.35,1.76-0.37,2.86c-0.02,0.27-0.04,0.54-0.06,0.82c0,0.27,0,0.54,0,0.81c-0.01,0.53-0.08,1.04-0.08,1.51
							c0.24-1.31,0.27-0.4,0.35,0.63c0.01,0.52,0.11,1.07,0.22,1.41c0.1,0.33,0.21,0.45,0.32,0.1c-0.55-1.18-0.61-3.35-0.22-4.95
							l-0.02,0.54c0.19-0.85,0.06-1.64,0.17-2.51c0.03-0.88,0.25-1.84,0.82-2.97c0.5-1.16,0.58-0.86,0.64-0.59
							C35.24,73.9,35.65,73,35.77,73.07z M34.72,75.59c-0.25,0.5-0.4,1.01-0.62,1.52C34.35,76.78,34.5,76.2,34.72,75.59z"/>
						<path class="st20" d="M192.1,133.94c0.07,0.19,0.15,0.41,0.21,0.59C192.28,134.39,192.19,134.17,192.1,133.94z"/>
						<path class="st20" d="M96.3,36.25l1.21-0.09C97.03,36.18,96.64,36.21,96.3,36.25z"/>
						<path class="st20" d="M123.54,33.49l1.8-0.05C124.63,33.41,124.08,33.44,123.54,33.49z"/>
						<path class="st20" d="M186.17,121.15l-0.02-0.05c-0.05-0.08-0.09-0.14-0.15-0.23L186.17,121.15z"/>
						<path class="st20" d="M176.22,49.39c0.21,0.19,0.46,0.38,0.8,0.64C177.02,49.95,176.72,49.7,176.22,49.39z"/>
						<path class="st20" d="M123.21,33.5c0.05,0.01,0.07,0.01,0.11,0.02c0.07-0.01,0.15-0.02,0.22-0.03L123.21,33.5z"/>
						<path class="st20" d="M84.08,35.83c-0.26,0.07-0.49,0.13-0.76,0.21C83.68,35.96,83.9,35.89,84.08,35.83z"/>
						<path class="st20" d="M86.11,37.52c-0.27,0.07-0.53,0.13-0.73,0.2L86.11,37.52z"/>
						<path class="st20" d="M45.7,50.11c-0.47,0.33-0.94,0.63-1.39,0.98C44.99,50.61,45.41,50.35,45.7,50.11z"/>
						<path class="st20" d="M81.77,37.84c-0.09,0.05-0.17,0.1-0.23,0.15C81.76,37.92,81.86,37.85,81.77,37.84z"/>
						<path class="st20" d="M194.45,144.01c-0.02-0.03-0.03-0.07-0.04-0.09l-0.09,0L194.45,144.01z"/>
						<path class="st20" d="M197.03,147.07c0.21,0.41,0.43,0.83,0.65,1.24C197.46,147.84,197.23,147.4,197.03,147.07z"/>
						<path class="st20" d="M194.11,66.24c0.17,0.45,0.65,1.41,0.28,1.06C194.99,67.95,195.26,67.71,194.11,66.24z"/>
						<path class="st20" d="M187.12,138.87c0.19,0.19,0.4,0.44,0.59,0.7C187.37,139.08,187.07,138.65,187.12,138.87z"/>
						<path class="st20" d="M187.71,139.57c0.17,0.24,0.36,0.5,0.51,0.71C188.06,140.03,187.88,139.78,187.71,139.57z"/>
						<path class="st20" d="M182.5,62.26c-0.04-0.1-0.14-0.23-0.29-0.37C182.19,62.01,182.31,62.13,182.5,62.26z"/>
						<path class="st20" d="M198.05,149.39c0.26,0.16,3.17,5.51,1.08,0.84c0.56-0.05,1.61,2.87,2.31,4.05
							c-0.31-0.95,0.52,0.3,0.56-0.05c-0.35-0.59-0.82-1.25-1.26-2.28c0-0.57,0.87,0.9,1.35,2.14c-0.44-1.6,1.26,1.7,0.47-0.49
							c-2.26-4.39-3.91-7.47-6.08-10.29c1.31,2.5,2.78,5.28,3.57,7.46l-0.83-0.69c-0.74-2.53-1.69-3.87-2.74-6.21l2.22,5.33
							c0.8,2.61-0.05,1.01-1.02-0.89C197.9,148.79,198.07,149.23,198.05,149.39z"/>
						<path class="st20" d="M192.77,147.57l0.03,0.09c0.05,0.07,0.1,0.16,0.14,0.2L192.77,147.57z"/>
						<path class="st20" d="M50.75,57.88l-0.31,0.39C50.74,58.01,50.81,57.9,50.75,57.88z"/>
						<path class="st20" d="M193.32,143.52L193.32,143.52C193.3,143.49,193.3,143.48,193.32,143.52z"/>
						<path class="st20" d="M61.21,52.67c-0.01,0.02-0.02,0.04-0.04,0.06C61.2,52.7,61.19,52.69,61.21,52.67z"/>
						<path class="st20" d="M60.61,42.27c-0.03-0.01-0.04-0.03-0.1-0.03C60.26,42.36,60.39,42.33,60.61,42.27z"/>
						<path class="st20" d="M61.2,52.62c0.01,0.01,0.02,0.02,0.01,0.04C61.21,52.65,61.22,52.63,61.2,52.62z"/>
						<path class="st20" d="M118.14,41.72c0,0-0.18-0.09-0.47-0.17C117.55,41.58,117.66,41.64,118.14,41.72z"/>
						<path class="st20" d="M106.48,41.04c-0.07-0.01-0.12-0.02-0.22-0.04L106.48,41.04z"/>
						<path class="st20" d="M193.89,62.5c-0.43-0.5-0.76-0.87-1.05-1.17C193.15,61.7,193.49,62.09,193.89,62.5z"/>
						<path class="st20" d="M61.16,52.73c-0.09,0.09-0.23,0.2-0.46,0.36C60.96,52.91,61.09,52.8,61.16,52.73z"/>
						<path class="st20" d="M136.13,41.08c-0.13,0-0.25,0-0.37,0l0.21,0.05L136.13,41.08z"/>
						<path class="st20" d="M142.14,42.47c-0.22,0.01-0.32,0.04-0.44,0.07c1.09,0.14,2.62,0.42,3.93,0.7
							c1.31,0.27,2.42,0.46,2.72,0.28c-0.73-0.16-4.43-1.32-3.73-1.44c-1.53-0.19-3.69-0.99-4.53-1.03c2.44,0.7,0.19,0.45-1.51,0.32
							c-1.5-0.41,0.35-0.34-0.95-0.66l-3.56-0.48l3.08,0.52l-1.01,0.32c0.12,0,0.2,0,0.32,0C141.69,41.74,136.79,41.79,142.14,42.47
							z"/>
						<path class="st20" d="M141.69,42.54c-0.33-0.04-0.62-0.06-0.85-0.05C141.33,42.57,141.53,42.57,141.69,42.54z"/>
						<path class="st20" d="M162,49.09c0.26,0.08,0.53,0.17,0.88,0.27C162.71,49.32,162.33,49.18,162,49.09z"/>
						<path class="st20" d="M29.3,86.33c0.07-0.06,0.04-0.82,0.01-1.55c0.01-0.74-0.05-1.45-0.22-1.42c0,0.88-0.01,1.76,0.12,2.65
							L29.3,86.33z"/>
						<path class="st20" d="M196,89.79c0.11-0.33,0.21-0.67,0.31-1.01c0.01-0.08,0-0.15-0.01-0.21
							C196.21,88.77,196.06,89.44,196,89.79z"/>
						<path class="st20" d="M145.57,42.12c-0.56-0.08-0.82-0.06-0.97-0.04C144.97,42.12,145.31,42.15,145.57,42.12z"/>
						<path class="st20" d="M195.13,89.72c-0.21,0.39-0.57,0.93-0.74,0.96c-0.32,0.81-0.34,1.46-0.68,2.29
							c0.2-0.46,0.42-0.96,0.64-1.5C194.58,90.93,194.88,90.36,195.13,89.72z"/>
						<path class="st20" d="M193.68,93.04c0.01-0.02,0.02-0.05,0.03-0.07L193.68,93.04z"/>
						<path class="st20" d="M29.5,88.09c0.08,0.24,0.17,0.49,0.26,0.75l-0.19-0.38c0.1,0.68,0.3,1.34,0.49,2
							c0.1,0.23,0.21,0.47,0.33,0.78c-0.05-0.12-0.12-0.21-0.18-0.25c0.06,0.22,0.11,0.43,0.2,0.64c0.51,0.69,1.21,1.93,2.03,3.04
							c0.37,0.57,0.81,1.08,1.17,1.53c0.37,0.44,0.65,0.81,0.88,1c0.54,0.56,1.08,1.22,1.62,1.81c0.56,0.59,1.07,1.15,1.45,1.61
							c-0.71-0.83-1.72-1.88-1.59-1.42c0.66,0.9,1.01,1.71,1.68,2.51c0.33,0.41,0.71,0.85,1.2,1.33c0.52,0.45,1.16,0.95,1.97,1.5
							l-1.7-1.53l2.17,1.42l2.23,1.3c1.21,1.36-2.26-1.25-2.95-1.55c3.23,2.33,5.46,5,7.4,5.45c0.01,0.48,0.02,1.3,2.35,2.63
							c-1.45-1.35,1.54,0.52,0.41-0.69c0.92,0.23,2.52,1.56,2.81,1.34l-0.3,0.04c1.88,1.31,3.29,1.89,4.46,2.16
							c1.16,0.3,2.08,0.32,3.04,0.52c1.26,0.48,2.35,0.89,3.35,1.25c0.99,0.37,1.88,0.72,2.76,1.02c1.73,0.64,3.37,1.19,5.5,1.78
							c0.09,0.32,1.05,1.35,2.79,1.79c0.89-0.13,4.85,0.61,5.35,0.21c-3.05-0.89-2.62-0.19-4.5-0.52c-1.41-0.89-0.02-0.52-2.02-1.36
							c1.62,0.71,7.68,1.6,9.47,2.4l-0.67-0.07c2.93,0.84,3.33,2.15,8.49,2.17l2.45,0c-0.12,0.03-0.14,0.09-0.21,0.12
							c1.97,0.27,2.68,0.48,3.45,0.64c0.77,0.15,1.59,0.3,3.8,0.22c-0.34,0.01-0.13,0.08-0.48,0.09c1.24,0.21,2.51,0.24,3.7,0.19
							c1.19-0.07,2.3-0.19,3.25-0.21c1.15,0.44-0.29,0.38-1.02,0.64c4.43,0.33,9.22-0.39,11.92-1c0.95,0.06,1.9,0.07,2.85,0.11
							c-1.67,0.26-3.72,0.74-3.2,0.96c1.57-0.12,1.25-0.32,3.47-0.34c-0.36,0.27-1.28,0.56-2.32,0.93c4.63,0.19,0.98-0.93,4.24-0.36
							c1.45-0.1,2.25-0.52,2.39-0.85l2.64,0.17c0.25-0.42,3.46-0.78,5.54-1.14c0.23-0.2-1.74-0.19-2.51,0.06
							c0.12-0.33,2.32-0.75,3.74-0.95c0.32,0.37,2.65,0,4.7-0.39c2.04-0.38,3.81-0.74,3.07-0.1c3.16-0.77,6.93-1.77,10.38-2.87
							c0.43-0.14,0.86-0.28,1.28-0.41c0.44-0.15,0.88-0.3,1.3-0.45c0.92-0.31,1.82-0.64,2.66-0.96c0.43-0.16,0.84-0.32,1.24-0.47
							l0.3-0.11c0.1-0.04,0.21-0.11,0.26,0.01c0.13,0.15,0.26,0.29,0.39,0.43c0.52,0.56,1,1.07,1.42,1.52
							c0.46,0.73,1.24,1.76,1.64,2.36c0.38,0.58,0.49,0.86-0.22,0.32c3.36,4.03,5.75,5.56,8.91,9.7c0.2,0.4-1.52-1.8-1.61-1.48
							c2.44,2.4,3.71,4.97,7.26,8.89c-0.58-0.67-0.88-0.76-1.02-0.8c0.05-0.16,1.6,1.48,2.58,2.44c0.44,0.63-0.73-0.72-0.54-0.32
							c6.24,8.08,12.08,13.33,18.56,21.14c-1.85-2.23-2.97-2.72-3.16-2.6l1.81,2.18c0.91,0.67,2.28,2.3,3.58,3.54
							c0.06,0.23,0.53,0.97-0.13,0.37c3.17,4.66,6.38,6.08,10.57,11.54l-6.18-5.68l1.03,1.82l-2.73-2.49
							c1.17,1.87,2.92,2.88,2.78,3.35c-0.39-0.28-1.07-1.16-1.26-1.04c1.22,1.71,1.56,1.64,2.64,2.8
							c-3.31-2.65-8.53-8.91-11.5-12.14c-0.49-0.49,0.53,0.32,0.68,0.36c-1.17-1.35-1.66-2.35-3.21-3.98
							c-1.17-0.85,0.48,0.99,1.17,1.86c-0.33,0.08-0.68-0.36-1.51-1.28c0.14-0.47-4.24-5.3-4.88-6.84
							c-4.34-4.98-0.14,1.49-4.14-3.57l-0.88-1.78c-2.68-2.64-6.03-6.15-8.67-9.46l0.58,0.68c0.54,0.33,0-0.51-0.2-0.91
							c-1.9-2.59-4.18-4.43-5.07-6.22c-1.36-1.24-3.09-2.97-4.84-4.77c-0.87-0.9-1.75-1.82-2.59-2.7c-0.21-0.22-0.42-0.44-0.62-0.65
							c-0.12-0.12-0.18-0.18-0.24-0.24l-0.19-0.18c-0.24-0.23-0.48-0.46-0.7-0.67c-0.04-0.53,0.52-0.07,1.42,0.85
							c1.18,1.25,2.57,2.8,3.28,3.34l-2.44-2.91c1.51,1.8,2.29,2.36,3.46,3.21c-1.02-1.31-1.82-2.09-2.62-2.84
							c-0.4-0.37-0.8-0.74-1.25-1.15c-0.41-0.37-0.72-0.65-1.12-1.07c0.22,0,0.08-0.33-0.64-1.19c-0.13,0.06-0.25,0.13-0.37,0.2
							c0-0.05-0.06-0.17-0.26-0.45c-0.03-0.02-0.05-0.08-0.09-0.07l-0.12,0.05l-0.24,0.1l-0.48,0.2l-0.94,0.39l-0.93,0.36
							l-1.18,0.44c0.6-0.1,0.99-0.08,1.18-0.02c0.24,0.04,0.48,0.06,0.89-0.07c-0.32-0.14,0.42-0.44,1.31-0.74
							c-0.42,0.28-0.21,0.27,0.07,0.23c0.07,0,0.15-0.04,0.21-0.02c0.05,0.08,0.09,0.16,0.13,0.22c0.08,0.14,0.12,0.25,0.1,0.31
							l-0.21-0.25c-0.04-0.03-0.06-0.11-0.11-0.09l-0.16,0.05c-0.21,0.07-0.42,0.15-0.63,0.22c-0.42,0.15-0.85,0.3-1.26,0.44
							c-1.32,0.45-2.54,0.86-3.38,1.14l-0.71-0.19c-2.76,0.65-5.61,1.57-7.52,1.85l0.55-0.33c-3.33,0.62-6.57,1.46-9.6,1.53
							c-2.92,0.88-6.66,1.69-9.09,2.34c-0.64,0.31-2.88,0.34-5.37,0.35c-2.49,0.01-5.23-0.01-6.94,0.35
							c-0.23-0.04,2.34-0.41,3.5-0.64c-2.27,0.01-4.06,0.62-4.78,0.11c5.09,0.12-0.28-0.41,2.01-0.58
							c-2.37,0.05-4.88,0.12-6.05,0.28c3.85,0.05-1.38,0.69,2.53,0.52c-3.03,0.41-7.19,0.5-10.8,0.05c0.05-0.22-0.39-0.35-1.72-0.53
							l-1.11,0.22c-1.68-0.21,3.29-0.08-0.09-0.51c-0.88,0.06-1.98,0-3.15-0.09c-1.17-0.13-2.42-0.3-3.6-0.45
							c-2.37-0.35-4.5-0.62-5.34-0.26c-1.29-0.44-0.01-0.3,1.09-0.24c1.11,0.05,2.05,0.06,0.1-0.48c1.18-0.01,2.56,0.21,3.74,0.37
							c1.18,0.14,2.18,0.24,2.59,0.03c-2.28-0.13-0.77-0.53-2.23-0.71l-2.56-0.05l0.55,0.1c-4.31-0.11-10.95-1.61-16.26-2.98
							c-4.6-0.74-7.95-0.97-13.21-3.09c1.65,0.35-4.23-2.04-0.74-1.21c-2.31-1.21-4.75-2.05-4.91-1.85c2.06,1.02,0.71,0.4,2.43,1.3
							c-0.65-0.15-1.67-0.53-2.65-0.97c-0.97-0.47-1.91-0.99-2.43-1.34c0.51,0.27,0.34,0.13,0.49,0.11
							c-2.37-1.42-1.3-0.38-3.12-1.23c-0.39-0.6-3.8-2.31-5.21-3.53c-0.85-0.33-1.68-0.72-2.51-1.11c1.4,0.6-2.02-1.64-2.11-2.21
							c-0.42-0.25-0.83-0.49-1.24-0.74c-0.4-0.26-0.81-0.53-1.24-0.83c-0.42-0.3-0.88-0.62-1.34-1.02
							c-0.45-0.41-0.93-0.89-1.45-1.45c0.51,0.38,0.06-0.15-0.45-0.84c-0.5-0.71-1.08-1.55-0.96-1.68c-0.78-1.03-1.48-2-2.21-2.87
							c-0.66-0.93-1.41-1.73-2.01-2.66l-0.92-1.37c-0.3-0.47-0.54-0.98-0.8-1.49c-0.54-1.01-0.89-2.18-1.19-3.45
							c0.14,0.13,0.68,1.05,0.3-0.41c-0.19-0.56-0.4-1.36-0.6-2.16c-0.17-0.81-0.27-1.66-0.38-2.29l0.02,0.04
							c-0.01-0.02-0.01-0.04-0.02-0.07c-0.12-0.62-0.15-1.01-0.25-1.02c-0.22-1.09-0.49-1.93-0.58-3.07
							c-0.05-0.56-0.13-1.21-0.12-1.99c0.04-0.77,0.05-1.7,0.21-2.81c-0.27,0.11-0.48,1.13-0.65,2.33c-0.18,1.2-0.1,2.59-0.09,3.41
							l0.46,1.41c-0.14,0.34-0.19,0.77-0.18,1.24c0.02,0.46,0.13,0.95,0.24,1.43c0.11,0.47,0.23,0.94,0.32,1.34
							c0.12,0.4,0.21,0.74,0.22,1.01c-0.71-1.2-1.25-3.83-1.35-6.75c-0.11-2.93,0.48-6.07,0.96-8.4c-0.39,0.63-0.68,1.54-1.04,2.59
							c-0.19,0.52-0.29,1.11-0.42,1.72c-0.11,0.61-0.26,1.25-0.33,1.93c-0.33,2.69-0.13,5.78,0.45,8.55
							c-0.1-0.82-0.11-1.67-0.15-2.49c0.16,0.97,0.24,1.95,0.51,2.89c-0.11-0.94-0.05-1.91-0.05-2.85c0.08,0.68,0.17,1.34,0.27,1.98
							c0.15,0.63,0.31,1.23,0.46,1.84c0.08,0.3,0.16,0.6,0.24,0.89l0.3,0.86c0.2,0.57,0.4,1.14,0.6,1.72
							c-0.98-2.7-0.68-3.92-0.32-2.36c0.32,1.55,0.63,2.32,1.05,2.92c0.41,0.6,0.76,1.14,1.3,2.17c-0.57-1.17-1.2-2.76-0.56-1.84
							c0.33,1.12,0.72,1.97,1.08,2.72c0.18,0.37,0.35,0.72,0.51,1.05c0.19,0.31,0.37,0.62,0.54,0.92c0.37,0.59,0.69,1.2,1.11,1.84
							c0.42,0.63,0.85,1.36,1.39,2.25c0.1-0.41,0.94,0.54,1.86,1.59c0.94,1.02,2.02,2.09,2.42,2.1l-1.25-1.35l1.51,1.24l1.56,1.14
							c2.3,2.78-2.77-1.64,1.09,2.2c3.88,3.16,4.24,2.41,7.47,4.46c-1.28-0.31-4.05-1.7-6.54-3.67c0.45,0.47,0.93,0.88,1.41,1.31
							c-0.99-0.34-4.38-3.22-5.97-4.8c1.51,1.09,1.22,0.75,0.42,0.01c-0.76-0.81-2.03-2.05-2.43-2.83c-0.5,0.02,1.14,1.81-0.98-0.14
							c0.87,1.03,1.42,1.56,2.01,2.16c0.29,0.31,0.6,0.63,0.98,1.04c0.39,0.38,0.85,0.84,1.45,1.43c-1.33-1.22-2.29-2.13-3.11-2.81
							c-0.84-0.66-1.46-1.21-2.11-1.68c-0.64-0.47-1.24-0.97-1.91-1.72c-0.33-0.37-0.7-0.78-1.08-1.3c-0.36-0.53-0.76-1.16-1.18-1.9
							c1.87,2.52-0.15-1.19-0.09-1.66c-0.79-1.23-2.16-3.94-2.62-5.14c-0.05,0.42-0.11,0.86-0.14,1.29
							c-0.42-0.95-0.67-1.8-0.86-2.57c-0.18-0.78-0.22-1.53-0.3-2.27c-0.1-0.74-0.13-1.51-0.22-2.38c-0.05-0.44-0.12-0.9-0.21-1.4
							c-0.05-0.51-0.13-1.05-0.23-1.66c-0.18-0.31-0.17,0.77-0.09,1.81c0.15,1.03,0.34,2.02,0.24,1.6
							c-0.38-1.63-0.41-3.05-0.43-4.31c0.05-1.26,0.21-2.37,0.42-3.43c0.52-2.11,1.17-4.08,2.33-6.66
							c-0.03-0.18-0.13-0.28-0.18-0.59c-0.05-0.31-0.06-0.83,0.22-1.79c0.08,0.71,0.78-0.57,0.18,1.56c0.4-0.85,0.81-1.77,1.15-2.71
							c0.39-0.9,0.78-1.78,1.11-2.53c-1.01,1.64-0.93,1.24-0.57,0.33c0.33-0.94,1.11-2.25,1.21-2.62c1.15-1.64-0.06,0.7-0.63,1.77
							c0.47-0.65,1.07-1.29,1.55-1.9c0.5-0.6,0.92-1.12,0.98-1.64c0.18,0.1-0.35,1.05-0.97,2.4c-0.31,0.68-0.7,1.38-1.04,2.15
							c-0.33,0.76-0.68,1.51-1,2.16l0.98-1.69c-0.48,1.27-0.69,1.43-1.51,3.21c1.03-1.64,1.23-1.31,1.28-0.8
							c-0.15,0.2-0.02-0.16-0.16,0.03c-0.72,1.37-1.08,2.5-0.77,2.24c0.01,0.75,0.21,0.24,0.6-0.48c0.38-0.73,0.82-1.77,1.18-2.15
							c0.34-0.69,0.68-1.37,1.01-2.05c0.92-2.44,2.04-4.88,3.41-7.14c2.13-2.57,3.5-3.29,5.49-4.68l0.25-0.74
							c0.56-0.43,1.1-0.87,1.6-1.22c0.51-0.34,0.96-0.63,1.31-0.82c0.69-0.38,0.95-0.37,0.39,0.37c-0.16-0.05-0.44,0.19-0.93,0.53
							c-0.03,0.09-0.12,0.21-0.24,0.33c-0.03,0.05-0.04,0.09-0.07,0.14c2.29-1.89,3.8-2.94,3.93-3.05
							c-3.82,3.26,0.21,0.75-0.08,1.83c0.67-0.48,1.33-0.99,2.01-1.46l2.06-1.37c-2.69,1.35-0.24-0.3,0.65-0.9
							c0.23,0.11,1.1-0.37,2.11-0.97c1.01-0.59,2.2-1.25,2.98-1.62l-0.08,0.13c1.5-0.57,4.03-1.75,5.83-2.58
							c-0.07-0.05,0.42-0.47,1.06-0.98c0.65-0.49,1.43-1.09,1.95-1.48c-3.28,1.05-1.43,0.19-1.77,0.04c0.34-0.1,0.95-0.32,1-0.4
							c0.42-0.28-0.68,0.09-0.82-0.01c-3.38,1.47-6.83,3.1-7.93,4.29c1.12-0.28,1.65-1.03,2.87-1.4c-1.51,1.09-3.67,2-6.38,3.46
							l-1.05,0.18c-0.89,0.53-1.74,1.15-2.6,1.73c0.51-0.41,0.55-0.6,0.81-0.9c0.26-0.3,0.74-0.72,2.17-1.53
							c-0.26-0.04-0.97,0.35-1.83,0.9c-0.85,0.57-1.86,1.24-2.74,1.74l-0.62,0.96c0.2-0.44-3.46,1.93-1.08-0.07
							c0.67-0.51,1.33-1.05,2.01-1.54l2.06-1.45l-1.36,0.45c1.2-0.78,2.42-1.49,3.66-2.18l-0.77,0.69c1.45-0.9,2.33-1.33,2.9-1.53
							c0.57-0.22,0.85-0.23,1.12-0.25c0.54-0.05,1.05-0.13,4.02-1.75c1.72-1.33,3.81-2.28,7.74-3.51c-2.76,1.1-0.16,0.46-1.1,1.14
							c2.92-0.76,3.74-1.53,5.18-2.18c0.82,0.06,1.41,0.13-1.17,0.87c-0.14,0.67,3.35-1.12,3.76-0.58c4.25-1.19,5.86-2.05,7.69-2.9
							c1.83-0.79,3.89-1.59,9.07-2.02l-0.34,0.31c6.45-1.29,10.25-1.37,16.29-1.93l4.79,0.46c-1.06,0.14-3.89,0.74-2.55,1
							c-2.33-0.58-4.77-0.17-7.28-0.33c-0.24,0.2,0.78,0.22,1.23,0.29c-1.49,0.12-2.27-0.1-4.24,0.2c0.11,0.13,2.28,0.09,0.66,0.32
							c-0.91-0.06-1.82-0.08-2.73-0.11c-3.57,0.62-1.64,1.16-5.86,1.59c0.72-0.46,2.24-1.24,3.86-1.53
							c-1.94,0.16,2.55-0.53,0.76-0.53c-1.36,0.42-2.38,0.62-3.53,0.78c-1.14,0.16-2.4,0.34-4.21,0.84
							c0.42-0.15,0.51-0.27,1.41-0.46c-1.79,0.24-3.59,0.47-5.38,0.78c0.69,0.02-0.39,0.33-1.57,0.68c-1.17,0.37-2.44,0.8-2.14,0.97
							c2.83-0.59,3.83-0.75,4.92-1.01c1.09-0.25,2.29-0.46,5.54-0.88c-1.81,0.41-4.08,1.27-5.09,1.93c-0.06-0.01-0.15,0-0.35,0.03
							c-0.88,0.65,0.13,0.57,0.27,1.36c2.79-1.13,4.81-1.01,8.2-1.82c0.59-0.52-2.08-0.28-3.78,0.12c0.99-0.28,2-0.5,3-0.75
							l-0.57,0.29c1.29-0.17,2.58-0.34,3.87-0.45c1.29-0.13,2.58-0.27,3.88-0.36c-1.47,0.15-1.94,0.48-2.68,0.76
							c1-0.11,2-0.1,3.06-0.06c-0.26-0.4-0.15-0.7,0.83-0.79c2.5-0.21,4.45-0.15,6.01-0.11c1.56,0.1,2.72,0.27,3.64,0.48
							c0.19-0.02,0.41-0.04,0.58-0.05c-0.85-0.42,3.52-0.84,5.08-1.27c-0.08,0.44,2.58,0.3,4.01,0.55c0.78-0.48-0.22-1.23-1.99-1.66
							c-3.41,0.42-1.91,0.43-3.52,1.11c-1.81,0.17-3.62,0.33-5.42,0.56l1.2-0.45c-1.36-0.04-2.69,0.1-3.65,0.19
							c-0.96,0.11-1.56,0.15-1.48-0.12c1.41-0.47,3.8-0.32,5.21-0.74l-1.81-0.12c3.17-0.64,1.64,0.41,5.48,0
							c-1.42-0.42,0.35-0.05,2-0.35c-1.33-0.33-6.79,0.22-5.65-0.56c1-0.21,2.7,0.01,4.48,0.15c1.77,0.16,3.62,0.33,4.96-0.04
							l-0.13,0.08c3.92,0.23,5.32-0.13,6.81-0.3c1.66,0.34,3.99,0.2,5.81,0.35l-0.07,0.22c0.86,0.04,1.71,0.12,2.56,0.19
							c-1.26,0.24-2.99-0.34-5.19-0.48l0.24,0.44c-2.49-0.71-4.24-0.06-6.2,0.19c1.43-0.12,3.44,0.06,5.18,0.14
							c1.74,0.13,3.21,0.18,3.58-0.19c0.57,0.19,1.15,0.4,1.71,0.61l0.86-0.05c1.27,0.48-0.13,0.78-2.66,0.6
							c-0.43-0.14-0.64-0.22-0.5-0.29c-1.2,0.09-2.3,0.25-5.13-0.01l1.53-0.12c-3.54-0.3-6.78-0.24-8,0.12
							c5.1,0.31,10.11,0.74,14.87,1.3c1.52-0.77,3.27-1.05,4.12-1.8c3.26,0.27,7.67,1.02,10.39,1.92l-0.29,0.11
							c1.34,0.39,2.59,0.65,3.66,0.8c1.37,0.56-1.09,0.21-0.12,0.57c1.54,0.29,3.08,0.6,4.61,0.92c-0.39,0.3-4.19-0.76-6.02-1.12
							c0.35,0.05,1.06,0.15,0.85,0.04c-2.08-0.7-6.18-0.84-7-1.58c-1.06-0.09,2.2-0.04-1.33-0.69c-2.33-0.64-3.19-0.25-3.46-0.11
							c-0.07,0.19,3.66,0.93,2.31,0.96c1.84,0.29,2.62,0.13,4.91,0.83c-1.81-0.37-4.36-0.35-5.26-0.86
							c-3.66-0.19-3.29,0.97-1.62,1.26c-0.35-0.41,6.56,0.74,1.96-0.5c2.18-0.06,6.03,0.68,8.82,1.11l-0.14,0.05
							c1.14,0.22,2.28,0.47,3.42,0.75c-0.51-0.01-1.55-0.19-1.64,0.02c1.6,0.24,3.22,0.41,4.83,0.71c-2.73-0.39,1.55,0.74,2.68,1.29
							c0.59-0.16,2.48,0.21,0.81-0.56c-1.88-0.88-1.2-0.18-2.99-0.7c0.89,0.09,1.8,0.15,2.69,0.26l0.2,0.12l1.66,0.09
							c3.43,1.2-1.82,0.42,2.7,1.58l-0.36-0.77c1.26,0.49,2.6,1.03,3.94,1.67c0.67,0.31,1.34,0.63,2.01,0.95
							c0.66,0.34,1.32,0.68,1.96,1.01c2.59,1.32,4.94,2.69,6.69,3.51c-1.11-0.22-1.77,0.05-0.66,1.02c-1.38-0.9-4.32-2.42-6.48-3.32
							c-0.37-0.3,2.97,0.57,5.19,1.92c-0.31-0.75-1.84-1.34-3.25-1.87c-1.41-0.53-2.73-0.93-2.66-1.45
							c-1.45-0.77-2.51-1.13-3.32-1.41c-0.81-0.27-1.38-0.37-1.93-0.46c-1.1-0.16-2.04-0.39-4.55-1.51c-0.21,0.4-1.55-0.29-1.94,0
							c0.65,0.61,2.39,1.14,4.35,1.79c1.97,0.63,4.16,1.39,5.75,2.18c-0.33-0.1-1.01-0.31-1.17-0.28c1.15,0.53,1.96,0.92,2.7,1.22
							c0.74,0.31,1.42,0.51,2.25,0.84l-0.18-0.15c2.98,1.01,1.59,1.13,3.12,2.16c0.66,0.28,2.83,1.61,2.62,1.14
							c0.88,0.7,1.77,1.37,2.63,2.09l0.13-0.51c1.59,1.04,1.78,1.48,3.34,2.26l0.32-0.31c-0.62-0.5-1.26-0.97-1.91-1.42
							c-0.65-0.45-1.28-0.93-1.94-1.36c2.1,1.17,0.79,0,3.06,1.39c-1.38-0.62-0.97-0.28-0.22,0.28c0.74,0.57,1.79,1.41,1.79,1.66
							c0.58,0.31,1.15,0.64,1.71,1l-0.47-0.22c1.05,1.17,1.56,0.99,2.87,2.26c-0.7-0.83-1.32-1.47-2.02-2.14
							c-0.69-0.68-1.53-1.28-2.71-1.95c1.76,0.9,5.01,3.22,5.72,3.92c0.86,0.63,1.48,1.3,2.06,1.99c0.59,0.68,1.12,1.37,1.76,2.17
							c-1.34-1.41-1.38-0.89-1.67-0.82c-0.15,0.04-0.37-0.01-0.87-0.42c-0.5-0.42-1.26-1.19-2.61-2.48c0.16,0.03,0.6,0.45,0.73,0.65
							c-0.34-1.12-3.4-2.93-4.82-3.65c0.13,0.51-1.23-0.43,0.89,1.41c-0.61-0.73,2.35,0.87,4.15,2.95l-0.83,0.19
							c0.95,0.88,1.82,1.87,2.71,2.82c-0.09-0.09-0.18-0.17-0.27-0.25c0.33,0.7,1.03,1.47,1.84,2.36c0.76,0.94,1.68,1.96,2.29,3.21
							c0.32,0.38,0.83,1.06,1.29,1.9c0.24,0.41,0.49,0.84,0.73,1.27c0.23,0.43,0.43,0.88,0.63,1.27c0.41,0.79,0.72,1.44,0.88,1.7
							c0.18,0.25,0.26,0.07,0.14-0.8c0.48,2.55,1.62,4.56,2.05,7.44c-0.09-1.19-0.1-2.41-0.34-3.58c0.4,1,0.55,1.72,0.69,2.25
							c0.13,0.53,0.22,0.88,0.3,1.21c0.14,0.66,0.29,1.19,0.75,2.95c-0.2,0.36-0.39,1.13-0.56,0.42c-0.04,2.92-0.76,6.43-1.88,9.41
							c-1.11,2.98-2.45,5.48-3.15,6.99c-0.53,0.84-1.06,1.41-1.53,1.92c-0.47,0.52-0.93,0.93-1.42,1.37
							c-0.49,0.44-0.98,0.95-1.6,1.54c-0.61,0.61-1.31,1.38-2.22,2.33c-0.37,0.42-0.1,0.39-0.07,0.54c0.03,0.15-0.18,0.5-1.58,1.56
							c-0.21,0.11,2.19-2.59-0.7-0.01c-0.37,0.49-0.86,0.91-1.37,1.35l-0.4,0.32l-0.21,0.16l-0.1,0.08l-0.05,0.04l0.04-0.03
							c-0.1,0.07-0.21,0.13-0.32,0.19c-0.44,0.25-1.03,0.52-1.4,0.85c0.03,0.14,0.19,0.31,0.32,0.46c0.04,0.55,0.63,1.64,0.13,1.57
							c-0.25-0.71-0.71-1.55-1-2.17c0.29-0.24,0.49-0.44,0.5-0.54c0.14,0.21,0.95-0.34,0.43,0.23c0.85-0.39,0.97-0.57,1.13-0.79
							c0.05-0.06-0.06,0.02,0.05-0.07c0.06-0.06,0.12-0.12,0.19-0.19c0.13-0.13,0.28-0.27,0.47-0.42c0.37-0.33,0.9-0.7,1.7-1.34
							c0.05-0.16-0.41,0.11-0.97,0.46c-0.56,0.35-1.21,0.81-1.5,1.14c-0.19-0.24,1.34-1.46,2.42-2.56c1.11-1.06,1.81-1.9,0.28-0.95
							c-0.81,0.68-1.41,1.33-1.96,1.87c-0.27,0.28-0.52,0.54-0.75,0.8c-0.12,0.13-0.23,0.26-0.35,0.38l-0.08,0.09l-0.04,0.05
							c0,0.01,0.02,0,0.02,0l-0.07,0.11c-0.4,0.56-0.63,0.93-1.72,1.28c0.1-0.28,0.51-0.55,0.89-0.89c0.19-0.17,0.39-0.34,0.56-0.55
							c0.04-0.05,0.09-0.1,0.13-0.16c-0.02-0.01,0.09-0.12,0.17-0.22c0.16-0.19,0.31-0.39,0.44-0.59l-0.62,0.42l-0.16,0.1
							c-0.04,0.03-0.01,0-0.02,0.01l-0.05,0.03l-0.2,0.11l-0.83,0.46l-0.65,0.95l-0.03-0.08c-0.33,0.15-0.62,0.3-0.86,0.44
							c-0.05,0.01-0.05,0.04-0.03,0.07l0.03,0.09c0.02,0.06,0.05,0.12,0.07,0.17c0.05,0.11,0.1,0.22,0.15,0.32
							c0.1,0.2,0.21,0.38,0.32,0.55c0.22,0.33,0.46,0.58,0.71,0.82c0.23,0.22,0.46,0.44,0.75,0.71c0.06,0.06,0.12,0.13,0.19,0.2
							c0.1,0.15,0.2,0.3,0.31,0.47c0.21,0.34,0.44,0.72,0.68,1.17c-0.74-2.54,1.17,0.12,0.56-1.77c1.35,2.71,2.22,4.75,1.7,5.01
							c-2.82-4.92-0.69-0.03-3.43-4.52c0.17,0.87-1.3-0.77-0.04,2.08c1.86,3-0.01-1.16,1.65,1.93c0.04,0.21,0.08,0.43-0.05,0.35
							c0.95,1.33,0.7,1.75,1.82,3.37L186,122c0.7,2.32,1.47,2.21,2,4.25c0.04-0.93,0.91,1.11,1.69,2.16
							c-0.74-1.97-0.66-3.26-2.44-6.99c-0.52-0.31-0.56,0.05-1.43-1.42l1.18,2.42c-0.3-0.5-0.56-0.86-0.85-1.32l-0.93-2.41
							c1.61,2.86,1.3,1.35,2.21,2.46c1.13,2.78,1.13,2.2,1.83,3.95c-0.53,0.04,1.67,5.59,2.84,8.85c-0.22-0.49-0.51-1.12-0.66-1.46
							c-1.35-2.14,0.35,1.74,0.27,1.88l1,1.55c-0.18-0.3-0.48-0.68-0.22,0.06c1.13,2.2,1.52,1.86,2.65,4.06
							c-0.17,0.28-1.43-1.43-0.91,0.02c0.01,0.58,0.14,2.38,1.75,5.24c0.19,0.17,0.61,0.91,1.07,1.78c-0.07-0.12-0.15-0.27-0.2-0.32
							l0.65,2.1c-1.21-1.48-1.39-3.49-2.6-4.98l-0.47,0.05c-0.62-1.31-1.62-3.02-2.22-3.74c0.87,2.04,1.17,2.41,2.3,4.61
							c-0.11,0.43-1.04-1.06-1.17-1.27l0.39,0.23c-0.91-2.83-2.26-3.82-3.73-7.18c-0.22-0.51-0.05-0.22,0.08-0.14
							c-1.65-2.51-2.35-5.4-4.09-7.78l0.61,0.75c-1.03-1.69-3.04-5-5.04-8.3l-0.17,0.05c0.09,0.43-0.52-0.88-0.78-1.61l0,0
							c-1.03-1.7-1.89-3.09-2.9-4.9c0.13,0.54,0.42,1.35,0.73,2.08c0.44,0.46,1.78,3.73,2,3.1c0.44,1.6,1.91,3.81,2.26,4.97
							c-0.65-2.1,1.04,1.19,1.43,1.43c0.05,0.79,1.39,2.92,0.91,2.83c0.09,0.43-0.22-1.08-0.82-1.82c-1.3-1.92,1.48,3.93-0.04,1.5
							c1.78,3.17,3.7,7.54,5.61,10.78l-0.74-1.96c0.65,1.53,2.4,5.06,2.35,5.4c-0.56-1.1-1.17-2.41-1.91-3.81
							c-0.43,0.12,1.61,3.44,1.44,3.71l2.61,3.85l-0.83-1.83c0.78,1.03,2.26,4.98,3.53,7.82c-1.31-1.36-2-4.25-3.61-7.11
							c-1.22-2.06,0.09,1.58-0.99-0.4c0.12,0.59,0.76,1.91,1.2,2.51l0.28,0.85c-1.35-1.59-3.15-5.72-4.85-8.23
							c0.17,0.21,0.32,0.39,0.41,0.44c-0.78-2.18-1.78-4.3-2.87-6.28c0.35,1.15,0.65,1.53,1,2.12c-0.09,0.13-1.04-1.77-1.52-2.43
							c0.74,1.96-0.13,0.49,0.35,1.73c-0.7-1.18-1.13-2.2-1.78-3.73c-0.18-0.87,0.56,0.52,0.74,0.25c-0.87-1.48-0.61-2.47-1.96-4.6
							c1.31,3.07-0.91-0.54-1.56-1.51l0.22,0.51c-0.74-0.82-1.13-1.63-1.17-2.41c0.7,1.18,1.17,2.41,1.3,1.92
							c-0.39-0.81-0.79-1.62-1.31-2.5l0.61,0.74l-1.96-4.03c-0.56-0.52-1.43-1.42-2.08-1.8c-0.05-0.27-0.15-0.55-0.26-0.84
							c-0.07-0.16-0.11-0.25-0.21-0.46l-0.34-0.69c-0.46-0.91-0.97-1.81-1.38-2.56l0.45,0.68c-0.54-1.49-1.67-3.82-2.62-5.86
							c1.76-1.24,3.22-2.33,3.35-2.58c0.95-0.51-1.36,1.43-2.77,2.74c0.56,1.01,1.18,1.84,1.37,2.01c0.24,0.18,0.04-0.29-0.53-1.78
							c0.77-0.5,1.83-1.2,3.24-2.18c1.13-0.79,1.83-1.34,2.29-1.77c0.23-0.21,0.41-0.39,0.54-0.56c0.05-0.05,0.09-0.11,0.13-0.16
							l0.04-0.09c0.02-0.06,0.04-0.11,0.06-0.16c0.14-0.41,0.1-0.74,0.8-1.46c0,0-0.04,0.13,0.15,0.05c1.2-0.95,1.13-1.27,1.94-2.22
							c-0.73,0.54-1.75,1.37-1.99,1.75c0.06-0.28,0.66-0.79,1.33-1.35c0.65-0.57,1.35-1.23,1.67-1.71
							c-0.66,1.44,2.12-1.95,1.52-0.94c2.29-1.97,3.64-4.87,3.94-6.33c0.7-0.69,1.09-1.45,1.34-2.38c0.15-0.46,0.3-0.95,0.42-1.52
							c0.07-0.28,0.16-0.57,0.27-0.88c0.07-0.31,0.17-0.65,0.28-1c-0.11,0.44-0.18,1.28-0.46,1.87c-0.04,0.88,0.23,0.15,0.47-0.48
							c0.13-0.31,0.2-0.61,0.26-0.65c0.03-0.05,0.11,0.16-0.01,0.83c0.1-0.57-0.2-0.1-0.31,0.48c-0.11,0.5-0.23,0.99-0.29,1.34
							c-0.05,0.35-0.03,0.55,0.1,0.46c0.45-0.75,0.8-1.53,1.16-2.32l-0.16,0.89c0.28-0.6,0.55-1.21,0.74-1.85
							c0.24-0.63,0.42-1.27,0.57-1.92c-0.07-0.12-0.22,0.24-0.3,0.42c0.43-2.26,0.33-4.77-0.2-7.11c-0.51-2.35-1.49-4.51-2.46-6.34
							c-0.68-0.07-2.02-2.17-3.9-4.34c-1.85-2.19-4.31-4.37-5.86-5.16c0.94,0.31,1.69,0.22,1.43-0.36c0.59,0.49,2.15,1.17,3.29,2.53
							c0.1,0.31,1.35,2.06,0.28,1.18c3.24,3.52-0.04-0.83,1.21-0.06c-1.84-1.99-3.59-3.3-5.2-4.35c-1.61-1.05-3.09-1.83-4.57-2.69
							l0.01-0.16c-0.78-0.4-1.53-0.82-2.32-1.2c0.88,0.59,1.18,1.04,1.02,1.1c-0.17,0.07-0.79-0.25-1.9-1.03l0.3,0.14
							c-1.18-1.05-4.15-2.39-6.34-3.46c-0.55-0.13-1.1-0.27-1.66-0.37c-2.21-1.04-2.02-1.75-2.6-2.45c-0.9-0.38-1.71-0.69-2.47-0.94
							c-0.77-0.23-1.49-0.41-2.17-0.56c-1.36-0.33-2.64-0.46-3.99-0.74c-0.54-0.36-2.21-0.94-3.36-1.4
							c-1.15-0.45-1.79-0.72-0.24-0.5c-3.5-0.64-3.17,1.09-8.83-1.11c0.53,0.01,1.07,0,1.59,0.03c-2.83-0.58-6.29-1.09-9.39-1.41
							c-1.55-0.18-2.99-0.33-4.22-0.45c-1.23-0.13-2.23-0.28-2.89-0.41c1.12-0.44-0.65-0.88-2.84-1.36
							c-2.19-0.43-4.79-0.88-5.28-1.41c0.28,0.25-1.92,0.25-2.25,0.37c-0.48-0.15-1.28-0.3-2.13-0.08c2.27,0.26-1.62,1.04,2.73,0.76
							c-1.11,0.31-2.37,0.6-3.95,0.82c-1.58,0.19-3.47,0.35-5.86,0.37l0.06-0.44l3.79,0.09c-0.38-0.33,1.57-0.28,2.37-0.42
							c-3.53-0.18-3.3-0.39-3.09-0.63c0.21-0.22,0.4-0.41-3.23-0.33c-0.69,0.3-0.24,0.17-2.12,0.36c0.88-0.05,1.04-0.36-0.4-0.31
							l-1.36,0.41c-2.57-0.64,4.18-0.65,1.99-1.08c2.8-0.48,7.7-0.64,6.79-1.21c-4.64-0.18-4.15,1.06-8.96,0.99l-0.53-0.22
							c-1.68,0.28-1.93,0.68-2.84,0.98c-0.09-0.13-0.53-0.21-1.61-0.17c-1.4,0.42-2.56,0.7-3.69,0.98
							c-1.13,0.31-2.22,0.63-3.48,1.09c3.42-0.67,4.92-0.68,6.43-0.7c0.76-0.02,1.52-0.02,2.55-0.06c1.02-0.04,2.3-0.19,4.09-0.34
							c-0.56,0.1-2.1,0.26-3.52,0.5c-1.43,0.22-2.74,0.52-2.87,0.84l0.03-0.45c-2.3,0.43-4.57,0.9-7.48,1.14
							c0.57-0.18,1.15-0.31,1.73-0.47c-3.78,0.78-6.47,0.25-9.34,1.53c1.06-0.16,1.92-0.32,2.56-0.5c-1.93,0.52-4.37,0.97-6.49,1.36
							c-1.39,0.59-2.78,1.13-4.14,1.76c-0.02-0.22-2.73,0.49-1.52-0.2c-3.17,0.54-4.42,1.63-6.12,2.32
							c-3.23,0.6,2.59-1.12,2.75-1.75c-4.39,1.1-8.79,3.03-10.94,4.41c0.86-0.29,1.31-0.37,1.31-0.26
							c-0.19-0.09-1.82,0.66-2.72,1.08l-0.5,0.54c-1.58,0.54-1.45,0.29-0.26-0.52c-1.47,0.64-2.92,1.96-4.53,2.39
							c2.19-1.64,5.5-2.8,6.71-3.57c-2.56,1.28-3.92,1.74-5.47,2.27c-1.52,0.59-3.26,1.24-6.19,3.34c-0.15-0.07,0.72-0.97-0.44-0.2
							c-2.62,1.87-0.37,0.95-1.01,1.78c0.96-0.76,1.72-1.25,2.39-1.62c0.69-0.35,1.32-0.56,2.02-0.77l-0.44,0.54
							c-0.15-0.05-1.47,0.72-1.9,0.89l-0.07,0.62c-0.07-0.27-0.67-0.15-1.44,0.19c-0.77,0.34-1.66,0.97-2.39,1.61
							c1.79-0.83,1.35-0.54,2.13-0.36c-0.9,1.02-1.6,1.32-2.27,1.72c-0.68,0.39-1.45,0.78-2.31,2c0.03-0.28,1.88-2.07,0.14-0.7
							c-1.37,1.22-0.93,1.34-1.68,2.29c0.64-1.29,0.18-1.26,0.95-2.67c1.2-1.14,1.52-1.3,1.75-1.54c0.26-0.2,0.43-0.48,1.72-1.52
							c-0.84,0.43-1.62,0.93-2.43,1.42c2.17-1.86,1.34-1.69,1.41-1.98c-2.1,1.34-2.71,2.09-3.08,2.72c-0.37,0.65-0.62,1.1-1.73,2.18
							c-0.85,1.27,2.1-2.01,0.66-0.13c-2.04,2.02-0.32,0.64-2.27,3.15l0.19-0.53c-0.87,0.55-1.16,1.54-1.8,2.44
							c-0.3,0.53,0.22,0.47,0.45,0.79c0.12,0.16,0.17,0.41,0.04,0.86c-0.13,0.46-0.48,1.1-1,2.13c0-0.26-0.03-0.37-0.07-0.39
							c-0.37-1.93-0.43-3.99-0.33-6.14c-1.71,2.13-3.29,4.62-4.46,7.4c-1.18,2.78-1.86,5.87-1.9,9.02c-0.3,0.76-0.6-0.37-0.58-1.67
							c-0.1-1.3,0.17-2.73-0.05-2.56c0.15-0.99,0.52-1.92,0.78-2.88c0.06,0.06,0.01,0.47-0.09,1.01c-0.1,0.54-0.26,1.2-0.3,1.8
							c-0.12,1.19-0.16,2,0.3,0.74c0.08-1.28,0.37-2.35,0.6-3.34c0.32-0.96,0.58-1.85,0.95-2.69c0.37-0.84,0.69-1.69,1.14-2.58
							c0.39-0.91,0.9-1.86,1.45-2.98c-0.36,0.22-0.76,0.68-1.19,1.29c-0.43,0.61-0.8,1.41-1.23,2.23c-0.36,0.86-0.76,1.76-1.1,2.65
							c-0.31,0.9-0.7,1.74-1,2.51c0.16-0.67,0.37-1.27,0.54-1.85c0.18-0.58,0.29-1.15,0.5-1.68c-1.27,2.81-2.19,6.08-2.25,9.66
							l0.21,0.79c-0.03-2.39,0.3-4.01,0.36-4.21c-0.16,0.77-0.17,1.53-0.16,2.22c0,0.35,0.01,0.68,0.03,0.99
							c0.04,0.31,0.09,0.6,0.15,0.87c0.11,0.53,0.22,0.97,0.35,1.28c0.15,0.31,0.31,0.49,0.44,0.52l-0.06-0.53L29.2,86l0.1,1.05
							L29.5,88.09z M196.13,161.55c-0.16-0.11-0.3-0.19-0.43-0.23C195.84,161.36,195.79,161.23,196.13,161.55z M65.14,45.41
							c-3.98,1.31-7.95,2.81-11.61,4.56c3.5-1.18,6.53-1.88,7.27-1.82c0.37,0.03,0.17,0.25-0.82,0.75c-0.5,0.24-1.18,0.57-2.07,1
							c-0.89,0.43-2.02,0.92-3.35,1.6L53.9,51.9c1.45-0.59,3.88-1.74,6.19-2.76c0.44-0.29,1.12-0.73,1.9-1.24
							c0.79-0.49,1.68-1.04,2.51-1.56c1.67-1.03,3.14-1.88,3.09-1.93c-0.79-0.04-1.72,0.59-3.01,0.95
							C64.76,45.37,64.95,45.39,65.14,45.41z M68.5,46.14c2.27-0.58,1.7-0.63,1.98-0.94c-0.78,0.27-1.57,0.51-2.33,0.8
							C68.47,45.95,68.64,45.97,68.5,46.14z M70.29,45.04c-0.25,0.07-0.47,0.13-0.59,0.13L70.29,45.04z M32.33,68.94
							c0.05-0.09,0.07-0.12,0.12-0.21c-0.31,0.46-0.66,0.91-0.94,1.42C31.65,69.96,31.88,69.6,32.33,68.94z M35.57,65.43l0.07-0.67
							c-0.34,0.39-0.72,0.76-1.06,1.18C34.82,65.9,35.06,65.86,35.57,65.43z M47.79,56.65c0.54-0.91,3.27-2.56,3.2-3.09
							c0.12-0.21-0.52,0.05-1.19,0.4c-0.73,0.43-1.52,0.88-2.35,1.36c0.01,0.08-0.11,0.25-0.33,0.48c0.82-0.48,1.45-0.66,1.28-0.19
							c-1.22,0.33-1.59,0.76-1.96,1.23c-0.37,0.47-0.72,0.99-1.8,1.7c-0.22,0.39,0.41,0.04,1.17-0.47
							C46.59,57.58,47.51,56.93,47.79,56.65z M179.3,108.95c-0.11,0.02-0.45,0.1-0.94,0.25c0.48-0.41,0.96-0.86,1.46-1.33
							c0.77-0.49,1.5-0.97,2.22-1.42c0.64-0.41,1.28-0.78,1.86-1.22c1.18-0.84,2.24-1.79,3.05-3.07c1.07-0.89,1.84-1.2,2.51-1.57
							c-0.45,0.52-0.91,0.98-1.31,1.33c-2.58,3.38-3.73,3.82-4.56,4.19c-0.44,0.17-0.85,0.29-1.45,0.67
							C181.55,107.15,180.58,107.82,179.3,108.95z M196.4,76.94c0.12,0.33,0.23,0.44,0.23,0.44c-1.35-3.63-3.2-6.52-4.99-8.86
							c-1.82-2.32-3.5-4.18-4.92-5.57c0.3,0.8,2.46,3.59,3.25,5.05l-1.23-0.89c-0.08-0.32-0.2-0.61-0.31-0.92
							c-0.67-0.54-1.28-1.12-1.99-1.61c0.15,0.34,0.56,0.89,1.02,1.5c0.47,0.6,0.98,1.27,1.27,1.88c0.05,0.03,0.89,0.77,1.68,1.73
							c0.86,0.92,1.64,2.06,2.06,2.52l-0.7-1.6c-0.24-0.53-0.54-1.03-0.81-1.56c0.1,0.22,0.34,0.62,0.67,1.12
							c0.31,0.51,0.64,1.16,1.02,1.81c0.71,1.33,1.36,2.81,1.68,3.67c0.1-0.01,0.01-0.81-0.26-1.62c-0.3-0.8-0.7-1.61-0.99-1.69
							c0.13-0.5,1.65,2.91,1.01,0.61c0.18,0.3,0.37,0.64,0.55,0.99c0.16,0.36,0.31,0.75,0.46,1.15c0.14,0.4,0.31,0.81,0.42,1.24
							c0.1,0.43,0.19,0.86,0.29,1.29c0.35,1.71,0.38,3.37,0.33,4.4l-0.53,0.36c-0.08,1.11,0.02,1.48,0.17,1.92
							c0.16,0.44,0.2,0.94-0.12,2.25c0.3-3.26-0.65,0.45-0.4-2.09c-0.29,0.78-0.53-0.02-0.88,2.43c0.07,0.54,0.04,0.98-0.03,1.35
							c-0.11,0.36-0.26,0.66-0.41,0.95c-0.28,0.59-0.64,1.12-0.7,2.16c-0.34,0.58-0.31,0.2-0.33-0.02
							c-0.04-0.23-0.03-0.26-0.63,0.88c-0.43,1.43-0.71,2.1-0.7,2.51c-0.02,0.4,0.15,0.51,0.33,0.73c0.38-0.61,0.64-1.12,0.82-1.56
							c0.18-0.44,0.25-0.84,0.33-1.21c0.18-0.73,0.24-1.42,0.71-2.47c-0.25,1.53-0.58,3.09-1.12,4.61c0.56-0.69,0.85-1.28,1.04-1.79
							c-0.34,0.9-0.64,1.66-0.82,2.37c-0.1,0.41-0.22,0.77-0.35,1.1c1.48-2.34,2.42-4.61,2.76-4.95l0.1,0.45
							c0.28-0.43,0.57-1.03,0.7-1.64c0.14-0.61,0.22-1.21,0.24-1.59c0.63-2.46,0.35-4.99,0.69-5.52l0.19,0.97
							c0.07-1.56-0.06-2.42-0.11-3.38c-0.01-0.48-0.14-0.98-0.22-1.6c-0.05-0.31-0.1-0.65-0.16-1.04
							C196.62,77.83,196.51,77.41,196.4,76.94z M110.53,37.81c0.93,0.46,1.89,0.88,3.69,1.22c1.8,0.32,4.42,0.53,8.68,0.72
							l-0.67,0.02c4.23,0.84,8.43-0.12,13.53,1.3c-2.56-0.03-2.42-0.04-5.28,0.44l2.72,0.06c-0.81,0.4,1.89,0.53,3.85,0.84
							l-1.82,0.35c-1.14-0.37-4.19-0.81-4.12-0.65c0.34,0.01-0.65-0.31-2.04-0.63c-1.4-0.29-3.21-0.6-4.51-0.61
							c0.24,0.41,5.66,0.77,3.18,1.21c2.15-0.1,2.37,0.39,4.6,0.5c-2.15,0.03-0.59,0.5-2.2,0.6c1.21,0.11,2.42,0.17,3.62,0.32
							c0.08,0.11-5.28-0.34-2.4,0.51c1.47-0.08,5.25,0.81,5.39,0.36l0.07,0.15c2.65,0.57,1.29-0.43,4.52,0.43
							c0.08-0.21-0.51-0.5-1.7-0.66c-1.02-0.07-1.22,0.18-3.28-0.09c-0.87-0.5,2.47,0.45,1.14-0.37c-0.66-0.43-5.49-0.56-3.88-1
							l2.69,0.49c0.14-0.44,2.09-0.08,2.09-0.44c1.69,0.12,3.14,0.9,4.89,0.88c0.75-0.13-0.35-0.93,2.38-0.09
							c1.01,0.57,3.11,1.19,5.23,1.82c2.13,0.61,4.28,1.22,5.45,1.55l2.12,0.41c-0.08-0.32-3.89-1.26-2.48-1.16l3.21,0.96l-0.3,0.08
							c1.03,0.41,2.15,0.64,3.14,0.9c-1.09-0.06-3.31-1.02-3.01-0.42c1.44,0.63,1.6,0.87,2.98,1.29c-0.31-0.08-0.58-0.13-0.56-0.05
							c2.86,1.33,3.02,0.66,3.82,0.81c1.58,0.37,0.91-0.1-0.11-0.66c-1.02-0.55-2.38-1.23-2.11-1.37c2.95,1.08,5.85,2.28,8.7,3.64
							c-0.79-0.22-1.58-0.45-1.4-0.14c1.95,1.23-0.09,0.3,2.75,1.81c0.11-0.68,3.76,1.61,5.83,2.64c0.75,0.81,0.9,0.97-1.05-0.31
							c0,0.25,0.67,0.77,1.46,1.31c0.77,0.55,1.63,1.17,2.07,1.51c0.59,0.28,1.46,0.95,2.07,1.31c-0.6-0.74-0.11-0.72,1.56,0.48
							l0.15,0.02c-1.22-1.15-2.82-2.6-4.41-3.82c-1.59-1.2-3.13-2.22-4.15-2.56l0.62,0.13c-1.57-1.18-3.52-2.05-5.22-2.79
							c-1.72-0.71-3.17-1.34-3.83-2.04c0.28-0.21-0.68-0.39-0.44-0.76c-0.92-0.3-1.84-0.57-2.78-0.81l0.63,0.04l-2.28-0.88l-2.3-0.8
							l0.15-0.03c-1.15-0.23-2.19-0.38-3.12-0.51c-0.93-0.13-1.74-0.26-2.47-0.33c-0.06,0.18,0.06,0.28-0.71,0.2
							c-0.76-0.13-1.32-0.28-1.81-0.45l0,0l0,0c-1.11-0.4-1.81-0.84-3.19-1.33c1.45,0.37,2.91,0.73,4.34,1.16
							c0.44-0.2,0.18-0.66-1.89-1.49c0.88,0.22,1.31,0.09,0.24-0.25c-0.14,0.05-2.92-0.56-1.94-0.03c-4.15-1-10.82-3.31-17.39-3.52
							c4.69,0.27-3.67-0.95,1.51-0.37c-1.76-0.54-2.57-0.46-3.37-0.38c-0.81,0.1-1.62,0.21-3.46,0.01c-0.3-0.22,2,0.2,2.89-0.05
							c-6.12-0.89-10.42-0.08-16.33-0.34l-0.25-0.41C113.08,37.67,111.83,37.72,110.53,37.81z M98.83,38.86
							c-1.13,0.15-2.28,0.31-3.44,0.46c0.11-0.01,0.22-0.01,0.34-0.02c-1.12,0.22-2.24,0.48-3.36,0.72
							c2.11-0.09,3.52,0.19,0.64,0.75c0.22-0.2-0.65-0.3,0.35-0.52c-1.98-0.05-6.29,0.4-5.08,0.83c3.65-1.12,0.98,0.63,3.85-0.19
							c-1.52,0.59-3.09,0.67-4.55,1.06c1.49-0.56-0.48-0.72-2.82-0.45c-0.99,0.25-3.72,0.73-5.35,1.23
							c0.67,0.24-0.72,0.75,1.99,0.29c-0.97,0.29-2.48,0.7-4.22,0.93c0.66-0.22,1.83-0.55,1.72-0.66c-1.18-0.08-2.47,0.23-3.22,0.27
							c-0.56,0.17-1.13,0.34-1.68,0.51c0.17-0.01,0.33-0.01,0.44,0.02l-1.79,0.82c2.45-0.84,1.2-0.14,1.22,0.09
							c-0.05-0.44-1.62,0.36-2.45,0.64c0.65-0.04,1.31-0.07,1.96-0.07c-0.83,0.44-3.21,0.59-2.63,0.89
							c3.92-0.97,5.41-1.39,8.94-2.37l-1.53-0.01c1.98-0.61,2.65-0.56,3.37-0.52c0.73,0.06,1.5,0.07,3.78-0.33
							c1.83-0.7,6.87-1.11,6.89-1.76c-0.55,0.29,2.94,0.21,4.49-0.21c1.69-0.81,7.02-1.24,5.39-1.41c-1.45,0.08-3.36,0.56-4.55,0.28
							c0.93-0.12,1.85-0.27,2.79-0.36c-0.62-0.08-1.24-0.13-1.87-0.18C99.43,39.62,99.31,39.31,98.83,38.86z M37.42,56.71
							c-0.03,0.02-0.06,0.05-0.09,0.07l0.1-0.09L37.42,56.71z"/>
						<path class="st20" d="M195.1,145.53c0.48,0.67,1.3,2.49,1.43,2C196.23,147.73,194.97,144.31,195.1,145.53z"/>
						<path class="st20" d="M195.79,147.85c0.14,0.09,0.22-0.06,0.61,0.75l-1.13-2.2L195.79,147.85z"/>
						<path class="st20" d="M194.64,151.16c0.78,1.04,1.26,1.71,2.09,3.53c-0.47,1.05-1.61-2.87-2.73-3.34
							c1.48,3.36,2.65,4.06,3.99,6.76C197.68,156.6,195.28,150.98,194.64,151.16z"/>
						<polygon class="st20" points="192.94,150.15 193.99,151.92 193.95,151.71 192.9,149.95 						"/>
						<path class="st20" d="M184,111.8c0.33,0.11,0.36-0.23,0.49-0.42C184.34,111.47,184.06,111.59,184,111.8z"/>
						<path class="st20" d="M162.36,129.99l10.18,11.77C169.62,138.37,166.94,135.22,162.36,129.99z"/>
						<path class="st20" d="M192.43,64.14c1.49,1.7,2.56,2.98,3.55,4.36c0.97,1.39,1.92,2.86,2.78,5.16
							c-0.82-3.13-2.09-4.9-3.28-6.42c-0.62-0.75-1.19-1.49-1.85-2.25c-0.32-0.39-0.64-0.8-0.97-1.25c-0.33-0.44-0.7-0.9-1.06-1.44
							C191.87,62.91,192.18,63.5,192.43,64.14z"/>
						<path class="st20" d="M195.15,64.12c0.03,0.47-0.65-0.18-1.31-0.83c-0.65-0.66-1.38-1.24-1.29-0.87
							c1.08,1.12,1.34,1.4,1.64,1.59c0.27,0.22,0.55,0.36,1.35,1.59C195.43,65.08,195.3,64.6,195.15,64.12z"/>
						<path class="st20" d="M193.09,84.57c-0.06-0.37-0.15-0.73-0.22-1.09l0.06,0.87C192.99,84.42,193.04,84.49,193.09,84.57z"/>
						<polygon class="st20" points="179.28,50.64 179.76,50.79 177.93,49.5 						"/>
						<path class="st20" d="M180.24,50.96c-0.16-0.06-0.32-0.12-0.48-0.17C179.93,50.84,180.08,50.9,180.24,50.96z"/>
						<path class="st20" d="M192.05,83.15c-0.07,0.5-0.09,1.01-0.2,1.51l0.14,0.78c0.02-0.38,0.06-0.76,0.08-1.14L192.05,83.15z"/>
						<path class="st20" d="M190.02,68.69l1.01,1.25C190.84,69.69,189.78,67.75,190.02,68.69z"/>
						<polygon class="st20" points="167.34,44.28 165.28,43.65 165.46,43.78 167.52,44.4 						"/>
						<path class="st20" d="M180.29,60.81c0.64,0.96-2.62-1.79-1.01-0.18C180.92,61.78,180.38,61.15,180.29,60.81z"/>
						<path class="st20" d="M160.26,47.25c-0.26-0.1-0.54-0.18-0.81-0.24C159.76,47.11,160.03,47.19,160.26,47.25z"/>
						<path class="st20" d="M160.26,47.25c0.83,0.31,1.61,0.76,2.23,0.86C161.51,47.56,161.1,47.49,160.26,47.25z"/>
						<path class="st20" d="M150.51,44.31l0.77,0.23c-0.85-0.02-0.46,0.05,0.29,0.09c0.83,0.21,0.82,0.08,0.94,0.02
							c0.18,0,0.35,0,0.55,0c-0.27-0.02-0.51-0.04-0.71-0.06C151.06,44.24,150.28,44.06,150.51,44.31z"/>
						<path class="st20" d="M113.09,32.86c3.1,0.19,3.9,0.27,3.72,0.58c2.93,0.21,2.49-0.33,4.28-0.39
							C117.76,32.97,117.08,32.78,113.09,32.86z"/>
						<path class="st20" d="M121.09,33.05c0.37,0.02,0.73,0.03,1.16,0.05C121.77,33.05,121.41,33.04,121.09,33.05z"/>
						<polygon class="st20" points="160.64,51.08 158.8,50.9 159.44,51.06 						"/>
						<path class="st20" d="M108.48,32.74c0.58,0.01,1.5-0.01,1.95,0.09C110.6,32.51,107.91,32.73,108.48,32.74z"/>
						<path class="st20" d="M120.16,38.91c0.3,0.18,2.21,0.2,2.98,0.33C122.04,39.13,121.16,38.48,120.16,38.91z"/>
						<path class="st20" d="M99.68,34.44c0.57-0.02,1.46,0.13,1.1,0.41C101.6,34.64,102.69,34.03,99.68,34.44z"/>
						<path class="st20" d="M114.7,38.69l0.43,0.11c0.68-0.05,1.37-0.13,2.05-0.16C116.35,38.64,115.52,38.68,114.7,38.69z"/>
						<path class="st20" d="M121.73,43.49c2.27-0.22-3.51-1.12,0.38-1.17c-4.99-0.65,0.36,0.51-3.33,0.29
							C120.94,42.81,121.96,43.36,121.73,43.49z"/>
						<path class="st20" d="M118.78,42.61c-0.31-0.03-0.65-0.06-1.02-0.07C118.17,42.57,118.5,42.59,118.78,42.61z"/>
						<path class="st20" d="M86.84,42.21c0.32-0.09,0.54-0.18,0.74-0.25C87.33,42.02,87.09,42.11,86.84,42.21z"/>
						<path class="st20" d="M107.01,42.87c1.12-0.24,2.24-0.42,3.36-0.62c-2.26,0.34-7.91,0.61-7.52,1.16
							c1.83-0.02,4.02-0.21,4.92-0.49L107.01,42.87z"/>
						<path class="st20" d="M66.06,39.69c0.47-0.24,0.95-0.47,1.43-0.68c-0.63,0.16-1.26,0.35-1.89,0.54
							C66.16,39.45,65.32,40.15,66.06,39.69z"/>
						<path class="st20" d="M65.24,39.66l0.36-0.11C65.52,39.56,65.41,39.6,65.24,39.66z"/>
						<path class="st20" d="M93.22,41.03c1.11-0.09,1.98-0.23,2.98-0.41C95.76,40.53,93.01,40.79,93.22,41.03z"/>
						<path class="st20" d="M55.99,44.34c0.77-0.4,1.57-0.73,2.36-1.09c-0.87,0.37-1.74,0.73-2.59,1.14L55.99,44.34z"/>
						<path class="st20" d="M44.66,49.18l-0.45,0.15c-0.6,0.44-1.18,0.92-1.76,1.38l0.45-0.17C43.48,50.07,44.06,49.6,44.66,49.18z"
							/>
						<path class="st20" d="M63.06,52.08c1.5-0.53,2.51-1.4,2.08-1.36c-0.97,0.37-1.95,0.72-2.89,1.14
							c0.89,0.11,0.78-0.36,2.52-0.87C64.19,51.35,63.61,51.69,63.06,52.08z"/>
						<path class="st20" d="M57.45,121.99c-0.83,0.01-4.18-1.72-4.23-2.05c0.51,0.12,2.4,0.83,1.31,0.15
							c-1-0.18-1.98-0.42-2.98-0.64c-3.34-2.15,3.09,0.54,4.96,1.02c-1.79-0.85-3.01-1.29-4.24-1.81c-1.24-0.48-2.5-1.02-4.37-2.06
							c1.08,0.66,1.69,1.2,2.21,1.65c-0.1,0.51-3.55-1.57-6.01-3.11c1.46,1.14,0.44,0.78-0.8,0.19c-0.21-0.12-0.36-0.19-0.48-0.22
							c-0.15-0.07-0.28-0.13-0.42-0.2l0.29,0.19c-0.05,0.03-0.02,0.13,0.14,0.35c1.06,0.64,1.96,1.23,2.75,1.81
							c0.79,0.59,1.49,1.1,2.18,1.47c-0.48-0.73,0.71-0.12,2.26,0.73c1.57,0.81,3.5,1.87,4.45,2.13c0.7,0.28,1.39,0.58,2.09,0.84
							l0.78,0.32c0.12,0.14-0.14,0.17-1.39-0.19c1.05,0.27,4.32,1.67,4.12,1.28c2.52,0.95,5.06,1.83,7.62,2.61
							c0.23,0.1,0.46,0.21,0.62,0.32c0.28,0.03,0.34,0,0.31-0.05c11.18,3.31,22.66,5.11,34.15,5.74c-1.7-0.19-3.16-0.43-4.89-0.69
							c2.67-0.29-2.85-0.36-2.04-0.8c1.19-0.08,2.9,0.16,3.92,0.34c0.4-0.23-1.04-0.55-0.85-0.85c-4.26-0.71-5.05,0.44-9.24-0.3
							c0.21-0.28,1.54-0.36-1.21-0.72l0.71,0.04c-4.44-0.3-3.29-1.23-6.19-0.86l0.15-0.42c-1.02,0-2.49-0.24-3.97-0.49
							c-1.49-0.26-2.98-0.62-4.06-0.84l0.15-0.05c-3.07-0.52-3.93-0.73-4.85-1.01c-0.46-0.14-0.95-0.29-1.74-0.54
							c-0.79-0.23-1.89-0.55-3.57-1.07c1.08,0.17,2.15,0.37,3.23,0.49c-2.24-0.9-2.92-0.58-4.55-1.18c0.15-0.04-0.13-0.47,1.45-0.03
							c-2.76-0.64-5.51-1.43-8.25-2.28C54.95,120.72,57.22,121.71,57.45,121.99z"/>
						<path class="st20" d="M47.9,116.61c-0.39-0.23-0.83-0.53-1.37-0.82C47.03,116.1,47.47,116.39,47.9,116.61z"/>
						<path class="st20" d="M105.2,132.61c-0.81-0.04-1.62-0.05-2.42-0.11C103.52,132.59,104.31,132.61,105.2,132.61z"/>
						<path class="st20" d="M36.91,110.23c1.07,1.17-1.12-0.49-1.42-0.59c0.7,0.66,1.44,1.23,2.18,1.83
							c0.73,0.61,1.48,1.17,2.24,1.71c0.08-0.15,0.64,0.02,0.64-0.17C39.29,112.14,38.09,111.19,36.91,110.23z"/>
						<path class="st20" d="M41.02,114.4c0.22,0.01,0.78,0.25,1.38,0.53c-0.85-0.54-1.68-1.14-2.51-1.75
							C39.83,113.29,40.04,113.59,41.02,114.4z"/>
						<path class="st20" d="M45.82,106.6c0.23,0.16,0.47,0.33,0.71,0.48l1.16,0.61C47.07,107.33,46.42,107,45.82,106.6z"/>
						<path class="st20" d="M57.29,113.99c-0.86-0.64-2.71-1.39-3.34-1.61C56.01,113.38,55.06,113.07,57.29,113.99z"/>
						<path class="st20" d="M55.97,110.28c0.66,0.27,1.32,0.56,1.99,0.81l-0.16-0.13L55.97,110.28z"/>
						<path class="st20" d="M123,130.68c0.38-0.04,0.75-0.07,1.13-0.11C123.61,130.61,123.27,130.64,123,130.68z"/>
						<path class="st20" d="M103.06,131.19c2.76,0.38,1.85,0.43,0.46,0.5c-1.39,0.03-3.27,0.05-2.42,0.42
							c1.02-0.01,2.03,0.01,3.05-0.03l-0.27,0.16l3.71,0.09c-0.75-0.32-1.32-0.36-1.14-0.66c4.93,0.26,1.54,0.41,5.17,0.86
							c1.84-0.02,3.69-0.04,5.53-0.12l-0.45,0.11c0.47-0.02,0.67-0.07,0.83-0.12c6.21-0.24,12.41-0.85,18.57-1.82
							c3.32-0.75-1.93-0.27,0.47-1.09c-3.87,0.62-9.68,0.85-9.96,1.47c0.12-0.1,0.37-0.29-0.43-0.29c-0.74,0.24-1.48,0.45-2.22,0.67
							c0.72,0,1.45,0.01,2.17,0c-1.12,0.34-3.52,0.63-5.82,0.72c-2.29,0.11-4.47,0.05-5.14-0.1c4.18-0.29,2.06-0.78,7.88-0.77
							c-0.27-0.14-1.35-0.34-0.05-0.51C116.21,131.27,110.13,131.04,103.06,131.19z"/>
						<path class="st20" d="M162.07,128.9l-0.08,0C162.09,128.96,162.14,128.98,162.07,128.9z"/>
						<path class="st20" d="M160.7,127.14l-1.26-1.04l-0.32-0.26c-0.05-0.04-0.11-0.1-0.15-0.12l-0.07-0.02
							c-0.09-0.02-0.17-0.05-0.25-0.06l2.77,3.24l0.56,0.01c-0.37-0.27-1.66-1.49-1.97-2.12L160.7,127.14z"/>
						<path class="st20" d="M157.91,125.33c0.41,0.16,0.75-0.17,0.52-0.81c0.66,0.43-0.05,0.77,0.62,0.76
							c0.24-0.28-0.61-0.96-0.77-1.04C158.16,124.59,158.04,124.94,157.91,125.33z"/>
						<path class="st20" d="M142.14,129.04l0.7-0.35c-0.61,0.1-1.22,0.21-1.84,0.3L142.14,129.04z"/>
						<path class="st20" d="M142.85,128.7l1.83-0.31c-0.16-0.12-0.31-0.24-0.63-0.29L142.85,128.7z"/>
						<path class="st20" d="M149.44,127.45c0.77-0.14,1.62-0.34,2.65-0.6C151.21,127.06,150.33,127.27,149.44,127.45z"/>
						<path class="st20" d="M147.35,127.82l0.08,0.05l2.02-0.42C148.7,127.58,148.03,127.7,147.35,127.82z"/>
						<path class="st20" d="M144.67,128.39c0.36,0.27,0.79,0.57,3.39-0.12l-0.63-0.4L144.67,128.39z"/>
						<polygon class="st20" points="70.39,116.57 72.34,116.95 72.15,116.83 70.21,116.46 						"/>
						<path class="st20" d="M81.36,119.74c0.49,0.04,0.87,0.05,1.22,0.05C82.06,119.73,81.65,119.7,81.36,119.74z"/>
						<path class="st20" d="M90.11,118.89c2.23,0.68-3.22-0.01,0.99,0.77c0.33,0.37-1.73,0.52-3.7,0.03
							c0.21-0.26,1.98,0.11,0.8-0.38c-1.38,0.12-1.84-0.21-1.46,0.33c-2.28-0.11-2.59,0.18-4.16,0.16c2.72,0.37,8.36,1.8,11.91,1.55
							c1.97-0.32,0.89-1.22,0.99-2.01c-0.13-0.11-1.41-0.34-2.69-0.47C91.51,118.74,90.24,118.63,90.11,118.89z"/>
						<path class="st20" d="M86.67,117.52c-1.03-0.22-1.36-0.25-2.01-0.29C84.78,117.53,85.83,117.39,86.67,117.52z"/>
						<path class="st20" d="M110.9,125.73c0.21-0.11,2.21-0.23,1.78-0.44l-3.03,0.11C110.37,125.43,110.62,125.57,110.9,125.73z"/>
						<path class="st20" d="M108.33,125.45l1.33-0.04C109.33,125.39,108.92,125.4,108.33,125.45z"/>
						<path class="st20" d="M111.05,125.8c-0.05-0.02-0.09-0.05-0.14-0.07C110.86,125.75,110.87,125.78,111.05,125.8z"/>
						<path class="st20" d="M156.93,125.58c0.13,0.19,0.32-0.01,0.47-0.13C157.28,125.48,157.14,125.45,156.93,125.58z"/>
						<path class="st20" d="M186.09,157.55l0.64,1.03C186.53,158.19,186.43,157.99,186.09,157.55z"/>
						<path class="st20" d="M202.57,167.88c0.06,0,0.14,0.04,0.24,0.11C202.71,167.92,202.63,167.88,202.57,167.88z"/>
						<path class="st20" d="M202.81,168c0.67,0.51,2.07,2.64,2.87,3.16l-0.14-0.03l1.21,1.19C205.72,171.11,203.6,168.53,202.81,168
							z"/>
					</g>
				</g>
			</g>
		</g>
	</g>
</g>
</svg>
