<?xml version="1.0" encoding="utf-8"?>
<!-- Generator: Adobe Illustrator 24.3.0, SVG Export Plug-In . SVG Version: 6.00 Build 0)  -->
<svg version="1.1" id="Layer_1" xmlns="http://www.w3.org/2000/svg" xmlns:xlink="http://www.w3.org/1999/xlink" x="0px" y="0px"
	 viewBox="0 0 237.12 178.08" style="enable-background:new 0 0 237.12 178.08;" xml:space="preserve">
<style type="text/css">
	.st0{fill:none;stroke:#000000;stroke-width:6.1975;stroke-miterlimit:10;}
	.st1{fill:#FFFFFF;stroke:#000000;stroke-width:6.1975;stroke-linecap:round;stroke-linejoin:round;stroke-miterlimit:10;}
	.st2{fill:none;stroke:#000000;stroke-width:4.1833;stroke-linecap:round;stroke-linejoin:round;stroke-miterlimit:10;}
	.st3{fill:#F7931E;}
	.st4{fill:#ED1C24;}
	.st5{fill:#006837;}
	.st6{fill:#0071BC;}
	.st7{fill:#FF7BAC;}
	.st8{fill:#D66995;}
	.st9{stroke:#000000;stroke-width:2.125;stroke-miterlimit:10;}
	.st10{fill:#999999;stroke:#000000;stroke-width:2.125;stroke-miterlimit:10;}
	.st11{fill:#C1BFC0;stroke:#000000;stroke-width:2.125;stroke-miterlimit:10;}
	.st12{fill:none;stroke:#000000;stroke-width:1.5938;stroke-miterlimit:10;}
	.st13{fill:none;stroke:#000000;stroke-width:3;stroke-miterlimit:10;}
	.st14{fill:#0071BC;stroke:#000000;stroke-width:0.5312;stroke-miterlimit:10;}
	.st15{fill:none;stroke:#000000;stroke-width:3.7188;stroke-linecap:round;stroke-linejoin:round;stroke-miterlimit:10;}
	.st16{fill:none;stroke:#ED1C24;stroke-width:19;stroke-linecap:round;stroke-linejoin:round;stroke-miterlimit:10;}
	.st17{fill:none;stroke:#ED1C24;stroke-width:13;stroke-linecap:round;stroke-linejoin:round;stroke-miterlimit:10;}
	.st18{fill:#F8A13B;}
	.st19{fill:#207B50;}
	.st20{fill:#EF3940;}
	.st21{fill:#2083C4;}
	.st22{font-family:'FuturaPT-DemiObl';}
	.st23{font-size:19.6497px;}
	.st24{fill:#202020;}
</style>
<g>
	<g>
		<g>
			<g>
				<g>
					<g>
						<path class="st20" d="M219.28,81.6c0.27,0.53,0.44,1.06,0.51,1.42c0.06,0.36-0.01,0.54-0.15,0.36
							c1.16,2.15,0.77,2.33,1.56,2.42c0.74,1.45,0.66,3.21-0.06,1.53c0.26,0.71,0.52,1.43,0.68,2.17c0.17,0.74,0.41,1.48,0.52,2.24
							c-0.03-0.92-0.17-1.82-0.26-2.74c0.35,0.32,0.5,1.43,0.59,2.55c0.03,1.13,0.06,2.26,0.44,2.71l-0.15-2.54
							c-0.06-0.84-0.24-1.67-0.36-2.51l0.24,0.22c-0.1-0.28-0.19-0.63-0.27-1c-0.1-0.37-0.21-0.77-0.31-1.16
							c-0.19-0.78-0.32-1.53-0.4-1.91c0.14,0.09,0.28-0.04,0.52,0.83c-0.16-0.76-0.4-1.32-0.58-1.76c-0.18-0.44-0.34-0.75-0.47-0.98
							c-0.27-0.45-0.46-0.56-0.64-0.64c-0.39-0.14-0.75-0.16-1.85-2.32C218.97,80.75,219.12,81.1,219.28,81.6z"/>
						<path class="st20" d="M218.16,76.46l-1.78-1.3c-0.61-0.97-1.29-1.89-1.93-2.84c-0.23,0.13-2.03-1.56-1.09-0.17
							c0.25,0.21,0.74,0.64,1.03,1.08c-0.63,0.01-3.16-3.16-2.92-2.05c0.92,0.94,1.45,1.48,1.89,1.93c0.43,0.46,0.8,0.81,1.49,1.32
							c0.75,0.96,1.27,1.89,1.72,2.67c0.46,0.77,0.74,1.45,0.92,2c0.43,0.59,0.79,0.51,1.3,1.3c-0.11-0.18-0.2-0.34-0.33-0.54
							l0.7-0.49c-0.55-0.61-0.83-1.31-1.3-2.05c0.49,0.49,0.96,1.01,1.45,1.53c0.49,0.52,0.97,1.05,1.4,1.63
							c0.11-0.81-0.51-2.05-1.18-3.3c-0.69-1.24-1.56-2.38-1.88-3.17C218.18,76.09,216.47,72.87,218.16,76.46z"/>
						<path class="st20" d="M218.78,80.39c0.01,0.02,0.03,0.06,0.04,0.09C218.81,80.46,218.8,80.42,218.78,80.39z"/>
						<path class="st20" d="M48.8,127.46c0.69,0.35,0.98,0.28,1.12,0.24c-2.56-1.33-5.09-2.7-7.5-4.27c0.09,0.34,2.06,1.9,0.58,1.13
							c0.5,0.61,2.59,1.56,3.01,1.47l-0.71-0.02c1.93,0.64,2.77,1.98,1.48,1.61l0.15,0.08l2.86,0.56l2.86,0.45
							C50.88,127.72,50.97,128.59,48.8,127.46z"/>
						<path class="st20" d="M215.19,106.07c-0.44,1.01-0.46,1.16-0.32,1.09C215.01,106.79,215.15,106.43,215.19,106.07z"/>
						<path class="st20" d="M53.98,128.89l1.79,0.21C55.09,128.96,54.46,128.89,53.98,128.89z"/>
						<path class="st20" d="M39.25,130.12c-0.02,0.02-0.05,0.03-0.03,0.09c0.29,0.07,0.57,0.16,0.86,0.22
							c-0.01-0.01-0.01-0.01-0.02-0.01C39.77,130.31,39.5,130.21,39.25,130.12z"/>
						<path class="st20" d="M92.11,137.61c0.19,0.01,0.34,0.03,0.57,0.04C92.47,137.63,92.29,137.62,92.11,137.61z"/>
						<path class="st20" d="M17.77,114l1.53,1.83c0.52,0.59,1.08,1.13,1.62,1.7c-0.57-0.34,0.87,1.38,0.05,0.79
							c0.23,0.28,1.4,1.44,1.2,1.02l-0.63-0.69c1.06,0.69,1.4,0.69,1.85,0.87c0.47,0.15,0.98,0.56,2.55,1.7
							c-0.71-0.97-1.28-1.62-1.82-2.11c-0.54-0.49-1.07-0.81-1.61-1.19c-0.31-0.32-0.56-0.6-0.81-0.87l-1.55-1.2
							c-0.52-0.41-1-0.88-1.5-1.32L17.77,114z"/>
						<path class="st20" d="M173.04,139.68l-0.03,0.07C173.05,139.71,173.05,139.69,173.04,139.68z"/>
						<path class="st20" d="M172.91,140.01l0.1-0.27C172.84,139.92,172.08,140.27,172.91,140.01z"/>
						<path class="st20" d="M53.22,129.04c0.1-0.09,0.37-0.14,0.77-0.15c-0.45-0.05-0.89-0.12-1.33-0.19
							C52.81,128.79,53.02,128.92,53.22,129.04z"/>
						<path class="st20" d="M49.89,129.14c-1.01-0.44-1.97-0.96-2.96-1.43c-0.41-0.09-0.83-0.16-1.24-0.26
							C46.87,127.92,48.2,128.55,49.89,129.14z"/>
						<path class="st20" d="M87.15,136.38c6.6,1.02-1.76,0.53,1.23,1.25c1.85,0.23,2.56-0.06,3.73-0.02
							c-5.3-0.48,0.9-1.13-4.39-1.81c0.87-0.56,3.89-0.11,5.66,0.31c1.93,0.97-1.83,0.24-2.4,0.84c2.14,0.2,1.78,0.02,2.73-0.23
							c3.31,0.63,6.98,0.01,8.89,1.12c2.44,0.08,2.3-0.27,3.72-0.54c0.16-0.36-0.73-0.5-1.77-0.66c-1.03-0.17-2.22-0.34-2.63-0.66
							c0.18,0.08,0.53,0.23,0.41,0.33l-2.06-0.34c1.95,0.43-0.35,0.72-1.41,0.63c-0.77-0.07-2.3-0.22-2.06-0.4l1.18-0.02
							c-1.46-0.39-3.36,0.14-4.88-0.5c-0.06-0.17,0.55-0.17,0.65-0.25c-0.91,0.12-1.79,0.11-2.78,0.07
							c-0.98-0.06-2.06-0.17-3.39-0.22l1.63-0.46c-2.21,0.46-6.87-0.65-9.96-1.84c0.33,0.2,0.95,0.43,0.53,0.48
							c-1.93-0.25-3.22-1.11-2.26-1.25c-1.98,0.13-6.77-2.3-9.39-2.39c-4.1-0.01-8.21-0.25-12.35-0.72c0.45,0.1,0.91,0.22,1.38,0.39
							c0.76,1,1.34,1.16-0.66,0.97c1.87,0.42,1.4-0.34,4.03,0.68c-1.13-0.12-1.69,0.49,0.84,1.51c6.65,1.73,11.48,1.23,17.77,1.78
							c0.06,0.26,1.29,0.64,2.81,1.02c1.53,0.33,3.32,0.73,4.49,0.98c-1,0.36-2.78,0.14-4.62-0.12c1.14,0.25,3.1,0.68,4.56,0.97
							L87.15,136.38z"/>
						<path class="st20" d="M71.5,134.46c0.15,0.09,0.31,0.16,0.48,0.23C71.9,134.63,71.76,134.56,71.5,134.46z"/>
						<path class="st20" d="M81.25,136.19c-0.03,0.01-0.02,0.03-0.03,0.05c0.19,0.03,0.38,0.06,0.58,0.09
							C81.61,136.28,81.39,136.23,81.25,136.19z"/>
						<path class="st20" d="M54.22,130.7c-0.43-0.04-0.72-0.12-1.15-0.16c0.25,0.06,0.55,0.15,0.85,0.23
							C54.21,130.83,54.36,130.82,54.22,130.7z"/>
						<path class="st20" d="M53.32,129.36l0.28-0.1c-0.15-0.09-0.26-0.15-0.39-0.23C53.13,129.12,53.14,129.23,53.32,129.36z"/>
						<path class="st20" d="M112.4,143.48l0.66-0.08C112.66,143.39,112.49,143.43,112.4,143.48z"/>
						<path class="st20" d="M94.38,138.36c-2.32-0.29-0.38,0.68-3.66,0.22l0.96,0.18c-2.41-0.02-6.51-0.9-9.28-1.45
							c0.37-0.22-1.61-0.69-1.18-1.07c-1.89-0.33-3.78-0.63-4.85-0.44c-1.11-0.46-2.99-0.48-4.39-1.1c0.55,0.44-2.34,0.3,1.32,0.98
							c-0.3-0.04-0.13,0.07-0.43,0.03c2.22,0.95,3.3,0.62,5.31,1.06c1.14,0.54-2.07-0.03-0.96,0.34c1.29,0.15,3.23,0.72,4.89,1.03
							c1.65,0.32,2.98,0.47,2.99-0.05c1.85,0.28,2.07,0.52,2.59,0.81c0.78-0.15,1.83-0.06,2.99,0.09c1.16,0.14,2.42,0.37,3.59,0.58
							c2.35,0.39,4.34,0.64,4.4-0.04c-1.08-0.08-2.82-0.28-4.43-0.21L94.38,138.36z"/>
						<path class="st20" d="M57.9,132.18c0.13,0.06,0.31,0.13,0.42,0.18C58.2,132.31,58.04,132.24,57.9,132.18z"/>
						<path class="st20" d="M35.43,114.05l1.28-0.07c0.98,0.8,1.78,1.48,2.56,2.05c0.76,0.59,1.41,1.13,2.1,1.62
							c0.68,0.49,1.31,1.01,2.06,1.51c0.75,0.5,1.56,1.04,2.53,1.64c0.24,0.28-0.29,0.08-0.54-0.05c2.79,1.63,7.07,4.05,9.43,4.67
							c0.95,0.44,3.37,1.8,2.3,1.63c0.5,0.13,1.06,0.31,1.61,0.55c0.01,0.37-1.26-0.42-1.39-0.2c0.42,0.21,0.56,0.34,0.7,0.29
							c-0.83-0.06,0.33,1.35-3.07-0.16c-1-1.27,2.39,0.95,1.95-0.16c-1.12-0.5-1.12-0.14-1.26-0.09c-1.43-0.64-1.29-0.83-1.14-0.96
							c-0.65-0.02-2.24-1.2-3.16-1.2c-2.69-1.34,0.43-0.48-1.3-1.39l-1.4,0.22c-0.95-0.54-1.83-1.18-2.75-1.76
							c-2.09-1.08-2.12-0.73-2.27-0.34c-0.13,0.37-0.37,0.74-2.78-0.58c0.42,0.03,0.28-0.43-0.19-1.09c-0.47-0.66-1.3-1.5-2.19-2.35
							c0.3,0.22,0.67,0.47,1.09,0.73c0.44,0.24,0.91,0.51,1.4,0.78c0.95,0.57,1.97,1.14,2.72,1.76c-0.96-1.01-0.16-0.52,0.77,0.04
							c0.92,0.58,2.06,1.14,1.64,0.47c-0.68-0.17-1.47-0.58-2.28-1.06c-0.81-0.47-1.62-1.05-2.25-1.64l0.5,0.26
							c-0.71-0.57-1.49-0.86-2.31-1.25c-0.79-0.42-1.65-0.91-2.51-1.83c-0.94-0.8-0.61-0.82-0.32-0.83
							C36.11,114.68,35.29,114.2,35.43,114.05z M37.54,115.68c0.39,0.38,0.82,0.73,1.23,1.1C38.56,116.43,38.06,116.06,37.54,115.68
							z"/>
						<path class="st20" d="M198.06,58.22c0.15,0.12,0.33,0.25,0.46,0.35C198.44,58.47,198.26,58.35,198.06,58.22z"/>
						<path class="st20" d="M38.01,59.67l0.95-0.58C38.58,59.3,38.28,59.49,38.01,59.67z"/>
						<path class="st20" d="M59.26,46.24l1.47-0.74C60.13,45.73,59.68,45.98,59.26,46.24z"/>
						<path class="st20" d="M186.41,52.19l-0.05-0.03c-0.09-0.02-0.16-0.04-0.25-0.06L186.41,52.19z"/>
						<path class="st20" d="M107.98,38.81c0.25,0.06,0.52,0.1,0.89,0.13C108.82,38.86,108.49,38.82,107.98,38.81z"/>
						<path class="st20" d="M58.99,46.38c0.04-0.01,0.07-0.01,0.1-0.02c0.05-0.04,0.11-0.08,0.17-0.12L58.99,46.38z"/>
						<path class="st20" d="M27.52,64.6c-0.17,0.19-0.33,0.36-0.51,0.56C27.26,64.91,27.4,64.75,27.52,64.6z"/>
						<path class="st20" d="M30.34,65.32c-0.18,0.19-0.35,0.37-0.47,0.53L30.34,65.32z"/>
						<path class="st20" d="M14.42,102.13c0.18,0.55,0.35,1.1,0.55,1.64C14.73,102.95,14.57,102.47,14.42,102.13z"/>
						<path class="st20" d="M26.96,67.68c-0.04,0.09-0.07,0.18-0.09,0.25C27,67.76,27.04,67.66,26.96,67.68z"/>
						<path class="st20" d="M204.37,65.59c-0.03-0.02-0.06-0.04-0.07-0.05l-0.09,0.06L204.37,65.59z"/>
						<path class="st20" d="M207.91,66.91c0.34,0.27,0.68,0.54,1.03,0.81C208.58,67.4,208.21,67.1,207.91,66.91z"/>
						<path class="st20" d="M129.13,40.08c0.38,0.13,1.27,0.33,0.84,0.44C130.71,40.4,130.69,39.94,129.13,40.08z"/>
						<path class="st20" d="M195.73,66c0.24,0.02,0.52,0.09,0.79,0.17C196.03,66,195.61,65.85,195.73,66z"/>
						<path class="st20" d="M196.52,66.17c0.24,0.08,0.5,0.17,0.73,0.24C197,66.31,196.75,66.23,196.52,66.17z"/>
						<path class="st20" d="M119.36,46.89c-0.09-0.06-0.24-0.1-0.43-0.12C118.99,46.89,119.14,46.91,119.36,46.89z"/>
						<path class="st20" d="M209.62,68.54c0.15,0.01,1.32,0.94,2.04,1.45c0.7,0.53,0.99,0.57-0.71-1.17
							c0.29-0.16,0.9,0.34,1.56,0.99c0.63,0.69,1.31,1.52,1.81,1.96c-0.53-0.81,0.63,0.09,0.6-0.27c-0.5-0.45-1.16-0.91-1.85-1.75
							c-0.13-0.57,1.13,0.54,1.91,1.58c-0.81-1.43,1.73,1.23,0.42-0.67c-3.4-3.57-6.16-5.63-9.32-6.95
							c0.55,0.39,1.11,0.79,1.68,1.19c0.54,0.44,1.08,0.88,1.61,1.31c1.07,0.85,1.97,1.83,2.68,2.69l-1.05-0.27
							c-0.71-1.06-1.44-1.76-2.21-2.39c-0.76-0.65-1.56-1.25-2.5-2c0.69,0.59,1.36,1.2,2.01,1.85c0.64,0.65,1.32,1.25,1.93,1.94
							c1.5,2.14,0.23,0.96-1.3-0.31C209.31,68.05,209.6,68.38,209.62,68.54z"/>
						<path class="st20" d="M203.85,69.79l0.05,0.07c0.07,0.03,0.14,0.08,0.19,0.1L203.85,69.79z"/>
						<path class="st20" d="M25.06,99.25l0.29,0.3C25.19,99.28,25.1,99.2,25.06,99.25z"/>
						<path class="st20" d="M203.12,65.84L203.12,65.84C203.09,65.82,203.08,65.82,203.12,65.84z"/>
						<path class="st20" d="M24.85,90.42c0.01,0.02,0.03,0.03,0.04,0.06C24.87,90.44,24.86,90.44,24.85,90.42z"/>
						<path class="st20" d="M14.13,84.74c-0.03,0.02-0.06,0.02-0.09,0.07C13.99,85.1,14.05,84.97,14.13,84.74z"/>
						<path class="st20" d="M24.8,90.41c0.02,0,0.03,0,0.05,0.02C24.83,90.41,24.82,90.39,24.8,90.41z"/>
						<path class="st20" d="M58.66,57.27c0,0-0.19-0.03-0.46-0.01C58.12,57.34,58.24,57.36,58.66,57.27z"/>
						<path class="st20" d="M48.94,60.81c-0.07,0.01-0.11,0.02-0.19,0.04L48.94,60.81z"/>
						<path class="st20" d="M126.66,37.53c-0.54-0.03-0.94-0.03-1.29-0.02C125.77,37.54,126.19,37.55,126.66,37.53z"/>
						<path class="st20" d="M24.89,90.48c0.04,0.1,0.08,0.23,0.13,0.45C24.97,90.69,24.93,90.56,24.89,90.48z"/>
						<path class="st20" d="M72.92,49.67c-0.1,0.05-0.2,0.09-0.3,0.14l0.19-0.02L72.92,49.67z"/>
						<path class="st20" d="M78.36,48.74c-0.17,0.1-0.24,0.18-0.33,0.26c1.85-0.69,5.44-1.15,5.75-1.8
							c-0.65,0.15-4.12,0.49-3.61,0.05c-1.31,0.45-3.39,0.51-4.09,0.77c2.28-0.18,0.34,0.39-1.08,0.98
							c-1.38,0.18,0.14-0.52-1.04-0.32c-1.03,0.3-2.07,0.56-3.09,0.89c0.9-0.25,1.81-0.44,2.72-0.65l-0.68,0.75
							c0.09-0.04,0.16-0.08,0.26-0.12c2.25-0.72,2.4-0.55,2.55-0.39C75.89,49.32,76.06,49.45,78.36,48.74z"/>
						<path class="st20" d="M78.03,49c-0.28,0.1-0.52,0.2-0.7,0.3C77.76,49.2,77.92,49.1,78.03,49z"/>
						<path class="st20" d="M97.05,46.65c0.24-0.05,0.49-0.1,0.81-0.18C97.71,46.5,97.36,46.58,97.05,46.65z"/>
						<path class="st20" d="M43.71,126.18c0.01-0.1-0.54-0.54-1.09-0.95c-0.54-0.41-1.11-0.75-1.21-0.56
							c0.66,0.47,1.3,0.96,1.99,1.4L43.71,126.18z"/>
						<path class="st20" d="M149.35,45.14c-0.3-0.06-0.61-0.11-0.91-0.14c-0.07,0.01-0.14,0.03-0.19,0.04
							C148.43,45.12,149.04,45.13,149.35,45.14z"/>
						<path class="st20" d="M80.97,46.88c-0.48,0.16-0.69,0.28-0.79,0.37C80.49,47.14,80.77,47.04,80.97,46.88z"/>
						<path class="st20" d="M149.37,46.17c0.37,0.19,0.9,0.47,0.95,0.64c0.78,0.14,1.37,0.01,2.18,0.07
							C151.59,46.79,150.56,46.57,149.37,46.17z"/>
						<path class="st20" d="M152.57,46.89c-0.02,0-0.05,0-0.07,0C152.53,46.89,152.55,46.88,152.57,46.89z"/>
						<path class="st20" d="M45.02,127.16c0.22,0.09,0.44,0.19,0.67,0.29l-0.38-0.09c0.51,0.36,1.06,0.67,1.58,1.01
							c0.21,0.08,0.44,0.17,0.72,0.3c-0.11-0.04-0.22-0.05-0.29-0.03c0.17,0.11,0.34,0.22,0.51,0.33c0.76,0.17,2.01,0.58,3.21,0.96
							c1.19,0.4,2.33,0.77,2.88,0.85c1.37,0.4,2.98,0.99,3.99,1.41c-0.93-0.37-2.19-0.81-1.92-0.43c0.89,0.52,1.51,1.01,2.33,1.5
							c0.83,0.49,1.88,0.93,3.66,1.22l-1.95-0.69c1.58,0.22,3.13,0.47,4.7,0.66c0.71,0.44,0.12,0.38-0.74,0.21
							c-0.85-0.19-1.97-0.48-2.33-0.43c0.89,0.19,1.71,0.49,2.47,0.79c0.77,0.29,1.47,0.61,2.12,0.9c1.3,0.6,2.4,1.03,3.33,0.87
							c0.09,0.53,0.24,1.44,2.57,2.05c-1.52-0.98,1.48,0.02,0.27-0.92c0.87-0.06,2.53,0.84,2.76,0.52l-0.27,0.14
							c1.87,0.91,3.24,1.05,4.32,1.06c1.09-0.01,1.92-0.24,2.82-0.27c2.4,0.39,4.13,0.75,5.76,1.06c1.63,0.34,3.15,0.63,5.12,0.86
							c0.11,0.33,1.05,1.42,2.65,1.56c0.8-0.36,4.39-0.12,4.82-0.68c-2.8-0.52-2.36,0.22-4.08,0.16c-1.34-0.76-0.06-0.59-1.93-1.19
							c0.76,0.23,2.52,0.34,4.29,0.51c1.77,0.17,3.57,0.3,4.39,0.67l-0.61,0.02c2.68,0.59,3.13,2.01,7.75,1.42l2.19-0.26
							c-0.11,0.05-0.12,0.12-0.18,0.17c3.56,0.21,2.58,0.78,6.53,0.33c-0.31,0.04-0.11,0.1-0.42,0.13c2.25,0.35,4.52-0.36,6.21-0.51
							c1.05,0.44-0.23,0.48-0.87,0.82c1.99,0.07,4.04-0.21,5.9-0.52c1.85-0.37,3.51-0.83,4.71-1.19l2.56,0.06
							c-1.48,0.35-3.29,0.98-2.81,1.22c1.4-0.18,1.1-0.41,3.09-0.49c-0.31,0.33-1.12,0.69-2.02,1.15c4.16,0.13,0.82-1.15,3.78-0.49
							c1.29-0.1,1.99-0.66,2.09-1.03l2.38,0.2c0.21-0.47,3.06-0.9,4.92-1.25c0.2-0.23-1.58-0.28-2.26,0.01
							c0.09-0.39,2.05-0.83,3.32-1.02c0.31,0.44,2.39,0.05,4.22-0.28c1.82-0.37,3.41-0.68,2.77,0.03c1.41-0.35,2.96-0.76,4.54-1.19
							c1.59-0.41,3.2-0.89,4.76-1.36c3.1-0.94,5.93-1.93,7.67-2.73c1.29-0.11,3.71-0.97,2.41-0.02c2.2-0.79,3.78-1.61,5.33-2.49
							c1.57-0.83,3.08-1.72,5.24-2.52c0.4-0.04-1.9,0.84-1.62,1.08c1.31-0.77,2.59-1.26,4.06-1.85c0.74-0.28,1.52-0.6,2.36-1.02
							c0.84-0.42,1.77-0.87,2.74-1.53c-0.67,0.42-0.78,0.69-0.83,0.83c-0.14-0.08,1.5-1.25,2.46-1.99c0.63-0.27-0.72,0.56-0.33,0.47
							c4.01-2.1,7.17-4.61,9.99-7.37c2.81-2.78,5.31-5.8,7.76-9.37c-0.67,1.04-1.11,1.79-1.29,2.35c-0.19,0.56-0.16,0.9-0.07,0.99
							l1.53-1.97c0.26-0.99,1.34-2.51,1.83-3.99c0.2-0.1,0.68-0.7,0.44,0.04c0.39-0.49,0.67-0.99,0.9-1.5
							c0.24-0.5,0.45-0.99,0.63-1.48c0.27-1.01,0.49-1.98,0.6-2.99c0.07-1.02,0.21-2.05,0.22-3.19c0.01-0.57,0.12-1.15,0.11-1.79
							c0.01-0.63,0.05-1.3,0.14-2.01c0.37,2.31,0.53,4.76,0.26,7.23l0.89-1.66c-0.09,1.1-0.1,2.24-0.33,3.34
							c0.54-0.88,0.62-1.84,0.7-2.55c0.08-0.72,0.12-1.2,0.36-1.28c0.08,0.45-0.25,1.42,0.01,1.52c0.16-0.46,0.27-0.82,0.34-1.13
							c0.05-0.31,0.05-0.56,0.05-0.8c-0.01-0.47-0.06-0.89,0-1.61c0.27,1.95-0.08,4.88-1.03,7.66c-0.99,2.76-2.4,5.37-3.5,7.11
							c-0.3,0.58,0.11-0.6,0.09-0.75c-0.88,1.43-1.77,2-2.92,3.75c-0.27,0.62-0.05,0.49,0.34,0.1c0.36-0.4,0.86-1.08,1.2-1.47
							c0.2,0.34-0.14,0.74-0.81,1.69c-0.27-0.06-1.35,1.11-2.56,2.34c-0.63,0.59-1.3,1.2-1.89,1.7c-0.59,0.5-1.17,0.84-1.53,0.98
							c-2.21,2.08-1.89,2.09-1.5,2.16c0.38,0.05,0.74,0.05-1.68,1.82c-0.58,0.23-1.19,0.4-1.77,0.6c-1.26,1.2-2.81,2.44-4.46,3.65
							c-1.68,1.15-3.45,2.28-5.22,3.11l0.72-0.4c0.37-0.47-0.5-0.17-0.91-0.09c-1.34,0.6-2.54,1.29-3.64,1.89
							c-1.08,0.62-2.08,1.09-3.01,1.18c-1.39,0.97-3.36,2.03-5.41,3.08c-2.07,0.99-4.21,1.99-6,2.7c-0.61-0.2,0.54-0.72,1.98-1.33
							c1.44-0.65,3.2-1.36,3.85-1.87l-3.25,1.19c2.01-0.74,2.72-1.26,3.75-2.14c-1.42,0.51-2.33,0.93-3.2,1.43
							c-0.87,0.49-1.71,1.03-3.05,1.55c0.15-0.26-0.25-0.26-1.51,0.14l-0.21,0.58c-0.04-0.03-0.19-0.02-0.58,0.08
							c-1.6,0.59-3.21,1.16-4.83,1.72c1.1-0.08,1.27,0.3,2.54-0.06c-0.53-0.14,0.53-0.51,1.8-0.87c-1.02,0.64,1.32-0.12,1.37,0.13
							c-2.55,0.79-5.69,1.75-7.35,2.3l-0.66-0.29c-1.24,0.28-2.5,0.61-3.66,0.9c-1.16,0.29-2.22,0.59-3.08,0.69l0.48-0.34
							c-1.5,0.23-2.97,0.56-4.4,0.85c-1.44,0.26-2.85,0.45-4.2,0.47c-2.58,0.93-5.9,1.84-8.05,2.61c-1.12,0.76-7.99,0.09-10.98,1.05
							c-0.21-0.05,2.07-0.57,3.09-0.86c-2.03,0.04-3.6,0.87-4.27,0.3c4.56-0.09-0.27-0.47,1.76-0.78c-2.12,0.17-4.36,0.34-5.39,0.6
							c3.45-0.14-1.19,0.89,2.29,0.49c-1.34,0.3-2.94,0.56-4.61,0.69c-1.67,0.11-3.41,0.14-5.03,0.05c0.03-0.26-0.37-0.39-1.57-0.52
							l-0.98,0.37c-1.51-0.09,2.93-0.42-0.11-0.59c-3.15,0.67-9.39-0.7-10.84,0.4c-2.35-0.63,4.57-0.19,1.01-1.01
							c2.11-0.28,4.96,0.31,5.67-0.27c-2.05,0.09-0.72-0.54-2.04-0.6c-0.76,0.1-1.53,0.19-2.29,0.26l0.5,0.06
							c-3.85,0.37-9.88-0.42-14.74-0.96c-4.18,0.02-7.18,0.49-12.09-0.57c1.52-0.06-4.01-1.15-0.79-1.18
							c-2.2-0.75-4.49-0.95-4.6-0.69c1.97,0.54,0.68,0.24,2.32,0.75c-1.2,0.04-3.82-0.53-4.82-1.04c0.49,0.15,0.32,0.04,0.45-0.03
							c-2.31-0.82-1.21,0.02-2.95-0.3c-0.43-0.54-3.72-1.19-5.2-1.86l-2.43-0.11c1.36-0.01-2.1-0.82-2.31-1.34
							c-1.68-0.31-3.21-0.24-5.57-1.33c1.07,0.19-2.07-1.16-1.94-1.58c-1.94-1.08-3.73-1.52-5.47-2.09
							c-1.75-0.52-3.45-1.16-5.17-2.43c0.17-0.03,1.05,0.13,0.02-0.54c-0.9-0.38-2.35-1.29-3.27-1.77l0.03,0.01
							c-0.02-0.01-0.03-0.01-0.05-0.02c-0.45-0.24-0.74-0.38-0.81-0.3c-1.73-0.63-2.77-0.72-5.9-2.56
							c-0.07,0.53,2.52,2.22,3.72,2.75l1.21,0.21c0.51,1.24,2.81,1.55,3.39,2.18c-2.31-0.25-7.45-3.78-10.74-5.79
							c1.38,2.04,5.49,5.06,9.31,7.14l-1.5-1.22l1.96,1.14l-1.63-1.55c1.8,1.17,3.46,1.99,5.15,2.88c-1.99-1.05-2.43-2.05-1.37-1.36
							c1.98,1.58,2.43,0.98,4.11,1.82c-0.93-0.48-2.13-1.16-1.23-0.98c3.07,2.19,4.15,2.27,7,4.18c-0.08-0.88,3.94,1.5,4.65,1.07
							l-1.42-0.64c1.08,0.26,2.16,0.51,3.25,0.71c2.63,1.65-2.77-0.28,1.43,1.73c2.01,0.75,3.07,0.85,4.01,0.95
							c0.94,0.09,1.78,0.11,3.39,0.54c-0.59,0.07-1.56,0.04-2.7-0.15c-1.13-0.2-2.45-0.52-3.73-0.94l1.49,0.73
							c-0.92,0.03-4.46-1.3-6.22-1.99c1.56,0.29,1.23,0.11,0.37-0.23c-0.86-0.37-2.24-0.93-2.82-1.4c-0.42,0.34,1.47,1.01-0.87,0.48
							c2.07,0.79,2.37,0.94,4.96,2.06c-5.61-2.36-5.75-0.45-10.54-3.05c2.35,0.89-0.5-0.99-0.67-1.32
							c-0.54-0.23-1.36-0.58-2.15-0.92c-0.79-0.36-1.56-0.71-2.03-0.89l0.47,1.02c-1.48-0.62-2.3-1.37-3.16-2.16
							c-0.87-0.79-1.82-1.5-3.56-2.24c-0.31,0.04,0.36,0.51,1.03,0.94c0.68,0.4,1.37,0.75,1.06,0.61c-1.16-0.53-2.05-1.14-2.84-1.69
							c-0.78-0.56-1.44-1.11-2.04-1.73c-0.6-0.6-1.17-1.22-1.8-1.87c-0.62-0.67-1.28-1.41-2.09-2.22c-0.32-0.02-0.57,0.4-2.03-0.41
							c0.65,0.02-0.12-0.91,1.45,0.04c-1.05-1.14-2.64-2.08-3.73-2.95c0.54,0.62,0.73,0.88,0.7,0.94c-0.03,0.06-0.3-0.07-0.64-0.31
							c-0.69-0.47-1.73-1.29-2.03-1.42c-1.16-1.26,0.66,0.09,1.48,0.74c-0.45-0.52-0.85-1.17-1.26-1.7c-0.4-0.55-0.8-1-1.29-1.09
							c0.27-0.29,3.4,2.06,5.31,3.55c-0.39-0.39-0.8-0.74-1.18-1.16c0.98,0.63,1.11,0.79,2.28,1.92c-0.98-1.31-0.61-1.47-0.14-1.45
							c0.11,0.18-0.15,0-0.05,0.18c0.9,0.94,1.73,1.5,1.65,1.13c1.25,0.3-1.12-1.43-1.57-2.24c-0.52-0.4-1.03-0.82-1.51-1.26
							c-2.03-1.11-4.05-2.37-5.99-3.86c-0.51-0.57-0.92-1.08-1.27-1.56c-0.34-0.49-0.59-0.97-0.83-1.43
							c-0.47-0.91-0.84-1.76-1.26-2.86l-0.74-0.32c-0.67-1.17-1.14-2.45-1.35-3.19c-0.2-0.75-0.11-1.01,0.54-0.34
							c-0.11,0.15,0.07,0.46,0.3,1.01c0.09,0.04,0.19,0.14,0.3,0.28c0.05,0.04,0.09,0.05,0.13,0.08c-1.41-2.51-1.99-4.29-2.09-4.43
							c1.16,2.24,1.39,2.18,1.47,1.68c0.07-0.51,0.01-1.48,0.55-1.25c-0.67-1.45-1.12-3-1.59-4.56c0.2,1.46,0.12,1.5-0.09,1.05
							c-0.1-0.23-0.23-0.58-0.35-0.94c-0.09-0.37-0.19-0.74-0.25-1c0.23-0.19,0.04-1.16-0.12-2.32c-0.09-1.17-0.35-2.53-0.23-3.4
							l0.09,0.13c0.14-0.8,0.16-1.9,0.32-3.04c0.18-1.13,0.24-2.34,0.46-3.31c-0.18,0.07-0.38-2.66-0.34-4.01
							c-0.69,1.63-0.84,1.98-0.93,1.9c-0.09-0.08-0.1-0.56-0.28-0.46c0.13-0.35,0.37-0.98,0.33-1.07c0.04-0.53-0.41,0.6-0.6,0.66
							c-0.97,3.79-1.18,7.89-0.51,9.46c0.38-1.16-0.25-2.03,0.13-3.33c0.08,0.97,0.18,2.06,0.13,3.29
							c-0.04,0.62,0.04,1.28,0.06,1.98c0.05,0.7,0.02,1.45,0.15,2.23l-0.26,1.08l0.35,1.57l0.49,1.52
							c-0.49-1.25-0.87-0.33-1.45-3.71c-0.16,0.24-0.02,1.09,0.2,2.12c0.26,1.02,0.68,2.21,0.87,3.24c0.27,0.29,0.57,0.56,0.85,0.83
							c-0.43-0.3,0.99,3.88-0.45,1.07c-0.76-1.54-1.29-3.21-1.84-4.89c-0.02,0.5-0.02,1-0.02,1.51c-0.45-1.43-0.64-2.94-0.9-4.43
							l0.43,1.02c-0.08-0.45-0.16-0.85-0.22-1.2c-0.04-0.36-0.06-0.68-0.08-0.97c-0.03-0.57-0.03-1,0-1.32
							c0.05-0.66,0.16-0.93,0.27-1.19c0.13-0.27,0.25-0.53,0.32-1.18c0.1-0.65,0.01-1.68,0.16-3.48c-0.08-0.58-0.12-1.17-0.12-1.8
							c0.02-0.62,0.13-1.27,0.27-1.99c0.24-1.44,0.83-3.06,1.71-5.06c-1,3,0.3,0.47,0.25,1.71c0.32-0.72,0.59-1.32,0.82-1.84
							c0.22-0.52,0.37-0.97,0.49-1.39c0.22-0.85,0.39-1.51,0.67-2.28c0.7-0.52,1.2-0.86-0.17,1.51c0.49,0.65,1.62-3.25,2.45-3
							c0.61-0.92,1.09-1.73,1.51-2.43c0.44-0.68,0.79-1.28,1.09-1.83c0.57-1.1,1.01-1.96,1.47-2.85c0.24-0.44,0.48-0.9,0.79-1.37
							c0.32-0.45,0.69-0.93,1.16-1.46c0.92-1.08,2.28-2.26,4.34-3.69l-0.1,0.46c2.33-2.13,4.32-3.59,6.31-4.91
							c1-0.64,1.99-1.27,3.04-1.93c1.06-0.62,2.15-1.3,3.35-2.05c1.43-0.46,2.85-0.96,4.27-1.37c-0.84,0.52-2.88,2.3-1.63,2.04
							c-2.25,0.28-4.09,1.68-6.29,2.53c-0.09,0.3,0.78-0.09,1.2-0.18c-1.2,0.71-1.97,0.83-3.46,1.94c0.17,0.08,1.97-0.85,0.74,0.06
							c-0.8,0.31-1.58,0.67-2.36,1.03c-2.64,2.17-0.68,1.89-3.95,4.17c0.31-0.78,1.11-2.24,2.3-3.26c-1.55,1,1.84-1.64,0.32-0.87
							c-0.9,1.01-1.64,1.68-2.51,2.36c-0.87,0.66-1.81,1.46-3.02,2.8c0.26-0.34,0.26-0.51,0.89-1.13c-0.68,0.55-1.37,1.07-2.04,1.65
							l-1.98,1.77c0.6-0.32-0.13,0.48-0.82,1.49c-0.71,0.98-1.46,2.05-1.09,2.05c0.98-1.02,1.63-1.71,2.12-2.25
							c0.51-0.52,0.87-0.89,1.25-1.27c0.38-0.38,0.77-0.79,1.37-1.35c0.62-0.53,1.45-1.21,2.68-2.18c-1.26,1.26-2.58,3.18-2.95,4.32
							c-0.05,0.02-0.13,0.07-0.27,0.2c-0.28,1.05,0.51,0.47,1.16,1.16c0.37-0.6,0.75-1.11,1.16-1.58c0.42-0.44,0.86-0.83,1.31-1.23
							c0.9-0.81,1.9-1.57,3.06-2.71c0.17-0.77-1.92,0.6-3.04,1.8c0.64-0.74,1.32-1.41,2-2.09l-0.29,0.54
							c0.97-0.73,1.93-1.47,2.94-2.13c1-0.68,1.99-1.36,3.02-1.97c-1.13,0.75-1.34,1.28-1.78,1.88c0.76-0.53,1.6-0.91,2.5-1.31
							c-0.44-0.31-0.53-0.67,0.24-1.15c3.97-2.36,6.46-3.08,8.19-3.36c0.15-0.09,0.32-0.19,0.46-0.27
							c-0.91-0.11,2.48-2.26,3.57-3.28c0.16,0.52,2.27-0.67,3.59-0.91c0.42-0.81-0.77-1.28-2.45-1.06c-2.63,1.77-1.38,1.2-2.38,2.53
							c-1.41,0.9-2.84,1.71-4.21,2.67l0.76-0.95c-1.15,0.49-2.18,1.15-2.93,1.62c-0.75,0.47-1.22,0.77-1.3,0.44
							c0.93-1.05,3-1.8,3.96-2.81l-1.57,0.57c2.31-1.93,1.6-0.17,4.58-2.1c-1.39,0.1,0.26-0.21,1.5-1.12
							c-1.28,0.12-5.56,2.83-5.01,1.54c0.74-0.58,2.27-1.03,3.82-1.55c1.57-0.47,3.17-1.03,4.12-1.92l-0.07,0.14
							c1.69-0.61,2.77-1.15,3.58-1.64c0.82-0.47,1.36-0.88,1.93-1.27c1.53-0.26,3.39-1.32,4.95-1.85l0.04,0.26
							c0.73-0.27,1.45-0.56,2.19-0.8c-0.92,0.76-2.6,0.82-4.48,1.49l0.39,0.39c-2.37,0.19-3.53,1.56-5.04,2.58
							c1.13-0.67,2.87-1.24,4.34-1.81c1.49-0.53,2.72-1.03,2.86-1.59c0.56,0,1.11-0.02,1.67-0.01l0.68-0.39
							c1.25,0.04,0.24,0.89-1.91,1.71c-0.42,0-0.63,0.01-0.54-0.13c-0.95,0.55-1.77,1.16-4.23,1.95l1.21-0.71
							c-3.05,1.02-5.71,2.3-6.55,3.16c4.36-1.6,8.68-2.99,12.81-4.27c0.91-1.42,2.21-2.45,2.57-3.62c1.4-0.46,3.06-0.99,4.7-1.4
							c1.64-0.39,3.25-0.7,4.54-0.79l-0.19,0.24c1.24-0.14,2.35-0.42,3.26-0.72c1.34,0.01-0.78,0.71,0.15,0.68
							c1.34-0.4,2.7-0.73,4.05-1.09c-0.18,0.49-3.64,1.1-5.26,1.49c0.3-0.1,0.91-0.3,0.7-0.32c-1.96,0.16-5.31,1.75-6.29,1.28
							c-0.9,0.33,1.77-0.92-1.38-0.23c-2.16,0.3-2.69,1.06-2.85,1.31c0.04,0.26,3.36-0.5,2.29,0.11c1.61-0.46,2.19-0.9,4.32-1.14
							c-1.61,0.4-3.67,1.41-4.62,1.26c-3.05,1.3-2.25,2.38-0.76,2.06c-0.23-0.14,1.17-0.63,2.1-1.01c0.93-0.36,1.39-0.64-0.74-0.36
							c1.74-0.95,5.16-1.76,7.57-2.53l-0.09,0.12c1.01-0.24,2.02-0.5,3.04-0.72c-0.41,0.2-1.31,0.51-1.29,0.77
							c1.36-0.52,2.74-0.96,4.13-1.45c-2.32,0.89,1.54,0.04,2.66,0.13c0.39-0.47,2.03-1,0.39-1c-1.85-0.02-1.02,0.35-2.65,0.66
							c0.74-0.35,1.48-0.67,2.22-0.99l0.21,0.03l1.33-0.72c3.18-0.41-1.22,1.38,2.78,0.33l-0.62-0.64
							c4.75-0.51,10.88-0.22,14.2-0.72c-0.9,0.46-1.26,1.14,0.02,1.44c-1.44-0.03-4.32,0.16-6.36,0.44
							c-0.41-0.09,2.49-1.09,4.75-1.05c-0.58-0.54-1.98-0.3-3.27,0c-1.29,0.29-2.47,0.57-2.66-0.01c-2.88,0.04-3.91,0.51-4.83,0.85
							c-0.92,0.36-1.74,0.65-4.19,0.67c0.01,0.53-1.33,0.45-1.51,0.95c0.77,0.33,2.37,0.08,4.17-0.24c1.8-0.28,3.82-0.69,5.39-0.69
							c-0.3,0.06-0.91,0.2-1.02,0.32c2.24-0.07,3.15-0.25,4.69-0.59l-0.2-0.04c2.68-0.74,1.72,0.27,3.33,0.39
							c0.62-0.12,2.85-0.11,2.47-0.47l2.92,0.38l-0.16-0.58c1.64-0.09,2.01,0.26,3.48-0.12l0.06-0.53
							c-1.36-0.05-2.72-0.03-4.09-0.05c2.06-0.25,0.56-0.53,2.83-0.73c-2.53,0.66,1.81,0.23,2.07,0.74l1.67-0.32l-0.43,0.15
							c1.31,0.26,1.56-0.23,3.1-0.15c-1.81-0.31-3-0.64-5.3-0.24c1.67-0.31,5.01-0.71,5.83-0.69c1.77-0.19,3,0.21,4.65,0.31
							c-3.18,0.14,1.06,1.61-5.25,1.14c0.12-0.1,0.63-0.07,0.83-0.01c-0.84-0.71-3.8,0.05-5.16,0.33c0.36,0.38-1.07,0.5,1.36,0.68
							c-0.8-0.22,2.04-0.93,4.34-0.55l-0.41,0.83l3.34,0.14l-0.31,0.03c1.24,0.55,3.57,0.02,5.86,0.42
							c0.84-0.09,2.84,0.02,4.31,0.03c1.46,0.01,2.38-0.04,1.05-0.61c2.02,0.72,3.9,0.17,6.16,0.34c-0.92-0.23-1.85-0.44-2.78-0.63
							c3.4-0.28,2.39,0.05,5.18-0.6c0.24,0.26,0.82,0.51,0.24,0.69c4.48,0.6,10.8,1.87,13.53,1.79c1.57,0.32,2.42,0.76,3.43,1.21
							c1.01,0.46,2.2,0.82,4.41,1.21c0.94,0.12-0.52-0.94,2.3,0.04c0.18,0.11-2.93-0.12,0.29,0.64c2.45,0.01,5.22,1.86,8.31,2.31
							c1.47,0.72,4.15,1.63,3.42,1.89c-2.37-1.02-5.86-2.01-6.46-1.95c0.43-0.18-1.65-0.84,0.22-0.49c-3.6-1.49-2.49-0.44-5.77-1.63
							c-0.28,0.12,1.57,1.01,2.33,1.05c-0.17,0.61-6.66-1.45-3.91,0.13c1.77,0.47,3.01,0.49,4.17,0.55
							c1.16,0.07,2.26,0.18,3.67,1.04c-1.34-0.02-3.17-0.9-4.92-0.66l2.43,1c0.66,0.01,1.31,0.05,1.96,0.09l-0.14,0.06
							c4.2,2.02,4.29,0.67,8.34,1.8c-2.1-1.33,0.96-0.93-0.66-1.85c2.67,0.94,4.58,1.81,4.32,2.46c-5.1-1.43-0.56,0.53-5.31-0.57
							c0.65,0.51-1.41,0.53,1.22,1.63c3.17,0.73-0.69-0.89,2.39,0.09c0.15,0.13,0.31,0.26,0.17,0.31c1.51,0.22,1.54,0.8,3.34,1.15
							l-0.45-0.04c1.85,1.26,2.4,0.58,3.94,1.81c-0.47-0.78,1.35,0.16,2.55,0.46c-0.81-0.56-1.39-1.09-2.19-1.7
							c-0.81-0.6-1.83-1.34-3.62-2.08c-0.59,0.18-0.43,0.5-1.95,0.05l2.31,0.96c-0.52-0.16-0.94-0.23-1.42-0.35
							c-0.71-0.38-1.4-0.79-2.12-1.14c2.91,0.91,1.8-0.02,3.16,0.11c2.5,1.28,2.16,0.86,3.7,1.74c-0.41,0.44,4.42,3.28,6.95,5.34
							c-0.43-0.26-0.98-0.59-1.28-0.78c-2.2-0.85,1.14,1.24,1.13,1.42c0.54,0.19,1.07,0.42,1.6,0.64c-0.29-0.14-0.74-0.26-0.17,0.2
							c1.99,1.16,2.23,0.56,4.19,1.83c-0.05,0.36-1.93-0.36-0.86,0.61c0.24,0.53,1.08,2,3.62,3.69c0.26,0.03,0.9,0.49,1.62,1.06
							c-0.11-0.07-0.24-0.17-0.3-0.19l1.28,1.61c-1.65-0.72-2.44-2.52-4.16-3.12l-0.44,0.33c-1.02-0.85-2.66-1.66-3.47-1.92
							c1.58,1.24,2.02,1.34,3.84,2.66c0.04,0.46-1.35-0.32-1.55-0.43l0.44-0.03c-1.88-1.96-3.5-1.96-6.22-3.8
							c-0.41-0.29-0.13-0.16,0.02-0.18c-1.27-0.49-2.4-1.17-3.51-1.86c-1.14-0.65-2.3-1.26-3.59-1.56l0.87,0.15
							c-1.67-0.63-5-1.64-8.33-2.51l-0.11,0.18c0.3,0.25-0.88-0.22-1.49-0.56l0,0c-0.84-0.2-1.66-0.4-2.43-0.58
							c-0.78-0.17-1.51-0.32-2.17-0.46c0.36,0.26,0.84,0.55,1.41,0.79c0.6-0.07,3.4,1.29,3.21,0.62c1.22,0.81,3.52,1.34,4.41,1.95
							c-1.62-1.1,1.45,0.06,1.87-0.03c0.44,0.6,2.6,1.23,2.16,1.53c0.29,0.28-0.72-0.69-1.58-0.8c-2-0.48,3.15,1.95,0.71,1.23
							c2.99,1.14,6.6,3.27,9.54,4.77l-1.44-1.16c0.59,0.43,1.65,1.07,2.53,1.7c0.87,0.64,1.61,1.2,1.65,1.36
							c-0.92-0.57-1.92-1.36-3.15-2c-0.18,0.21,0.54,0.63,1.25,1.11c0.71,0.48,1.46,0.95,1.43,1.12c1.28,0.51,2.46,1.17,3.72,1.76
							l-1.37-1.12c1.09,0.43,3.73,3.07,5.54,5.11c-1.6-0.59-2.94-2.87-5.4-4.42c-1.8-1.07,0.57,1.34-1.07,0.26
							c0.29,0.45,1.3,1.2,1.89,1.47l0.49,0.6c-0.84-0.34-2.03-1.09-3.27-1.93c-1.27-0.8-2.64-1.66-3.87-2.12
							c0.23,0.06,0.44,0.11,0.54,0.08c-0.76-0.64-1.57-1.24-2.4-1.78c-0.85-0.53-1.74-0.98-2.61-1.39c0.78,0.7,1.2,0.78,1.75,1.01
							c-0.02,0.18-1.64-0.69-2.32-0.88c1.45,1.07,0.1,0.51,1.02,1.17c-1.08-0.46-1.87-0.97-3.1-1.68c-0.54-0.57,0.7-0.01,0.72-0.37
							c-1.39-0.51-1.62-1.55-3.76-2.15c2.54,1.38-1,0.31-1.97,0.08l0.42,0.23c-0.98-0.05-1.7-0.32-2.13-0.9
							c1.14,0.32,2.13,0.89,1.99,0.4c-0.71-0.31-1.44-0.6-2.29-0.85l0.85,0.07c-1.19-0.5-2.38-1-3.6-1.44
							c-0.7,0.09-1.83,0.16-2.5,0.44c-0.75-0.62-2.06-0.8-2.92-0.99l0.43,0c-1.48-0.89-5.2-1.77-5.58-1.6
							c-1.11-0.65,8.83,0.84,0.48-1.57c-3.18-0.92-2.25,0.35-4.14,0.15c0,0,0.13-0.07-0.03-0.18c-1.37-0.44-1.61-0.11-2.79-0.26
							c0.8,0.36,2,0.68,2.42,0.64c-0.52,0.28-2.88-0.78-4.02-0.75c1.54-0.27-2.65-0.86-1.5-0.92c-2.69-1.07-5.82-1.14-7.37-0.99
							c-1.78-1.07-3.36-0.53-6.43-1.31c0.48,0.09,1.37,0.1,2.03,0.28c1.86-0.22-3.2-0.73-0.39-0.78c-0.6-0.01-0.08,0.25,0.53,0.26
							c1.06,0.13,2.08,0.08,1.86-0.19c-0.83-0.28-1.65-0.59-2.49-0.85l0.91,0.01l-3.82-1.17c-0.12,0.08,0.23,0.26,0.41,0.35
							c-4.51-0.89-9.76-1.09-13.77-1.38c-0.21,0.34-0.93,0.5-1.95,0.57c-1.02,0.09-2.33,0.1-3.71,0.09
							c-1.39-0.03-2.85-0.01-4.17,0.04c-1.32,0.05-2.49,0.14-3.3,0.38c0.86-0.42,1.34-1.12,0.8-1.41c0.72-0.06,2.21-0.6,3.86-0.46
							c0.26,0.23,2.28,0.51,0.97,0.75c4.54,0-0.6-0.64,0.76-1.12c-5.06,0.03-8.01,0.89-11.17,1.3l-0.08-0.16l-2.38,0.4
							c1.96,0.02,1.88,0.81-0.63,0.63l0.3-0.05c-1.45-0.31-4.4,0.31-6.63,0.4l-1.47,0.59c-2.23,0.15-2.41-0.69-3.19-1.14
							c-1.75,0.17-3.12,0.5-4.34,0.86c-1.22,0.38-2.3,0.83-3.5,1.21c-1.17-0.26-6.36,0.6-3.7-0.33c-3.08,0.86-2.06,2.69-7.55,2.71
							c0.43-0.22,0.86-0.45,1.29-0.65c-2.52,0.58-5.52,1.49-8.16,2.35c-2.63,0.88-4.92,1.63-6.1,1.84c0.7-0.91-0.92-0.73-2.9-0.43
							c-1.95,0.36-4.26,0.82-4.91,0.43c0.34,0.17-1.44,0.99-1.64,1.23c-0.45,0.03-1.18,0.13-1.76,0.69
							c1.96-0.54-0.81,1.73,2.56-0.17c-0.74,0.76-1.63,1.52-2.78,2.34c-0.58,0.4-1.23,0.81-1.98,1.21c-0.73,0.43-1.56,0.87-2.5,1.31
							l-0.18-0.5c1.02-0.43,2.03-0.88,3.06-1.28c-0.47-0.22,1.11-0.88,1.69-1.33c-2.91,1.1-2.85,0.76-2.79,0.44
							c0.06-0.32,0.12-0.59-2.75,0.83c-0.4,0.58-0.12,0.25-1.52,1.15c0.68-0.38,0.64-0.77-0.48-0.19l-0.87,0.94
							c-2.4,0.28,3-2.24,1.03-1.89c0.99-0.79,2.49-1.63,3.57-2.38c1.1-0.72,1.83-1.27,1.32-1.42c-1.95,0.7-2.63,1.45-3.35,2.12
							c-0.73,0.67-1.44,1.39-3.39,2.26l-0.54-0.04c-1.22,0.9-1.18,1.45-1.75,2.09c-0.15-0.1-0.54-0.02-1.39,0.43
							c-0.88,0.97-1.64,1.7-2.37,2.42c-0.71,0.75-1.38,1.5-2.08,2.45c2.27-1.99,3.46-2.57,4.64-3.17c0.58-0.31,1.2-0.58,1.98-1.01
							c0.78-0.43,1.72-1.03,3.06-1.86c-0.8,0.62-4.51,2.99-4.32,3.77l-0.23-0.48c-0.77,0.67-1.55,1.31-2.38,1.97
							c-0.81,0.69-1.73,1.33-2.76,2.02c0.33-0.4,0.7-0.76,1.05-1.14c-0.63,0.55-1.23,1.01-1.81,1.42c-0.58,0.41-1.17,0.74-1.7,1.1
							c-1.02,0.76-2.05,1.45-2.62,2.69c0.66-0.61,1.21-1.1,1.58-1.53c-0.27,0.32-0.59,0.64-0.91,0.98
							c-0.31,0.34-0.63,0.68-0.97,1.02c-0.34,0.33-0.69,0.67-1.03,1c-0.33,0.34-0.65,0.67-0.96,0.99c-0.64,1.09-1.11,2.26-1.61,3.36
							c-0.21-0.19-1.46,1.68-1.21,0.54c-0.43,0.48-0.8,0.93-1.03,1.37c-0.22,0.44-0.38,0.86-0.5,1.24
							c-0.28,0.77-0.31,1.47-0.55,2.14c-1.56,2.09,0.63-2.1,0.24-2.66c-0.24,0.39-0.52,0.77-0.72,1.17
							c-0.2,0.41-0.39,0.82-0.59,1.22c-0.42,0.8-0.61,1.65-0.87,2.43c-0.41,1.59-0.53,3.01-0.4,4c0.21-0.68,0.35-0.99,0.47-0.93
							c-0.15,0.07-0.39,1.43-0.41,2.19l0.32,0.54c-0.3,1.23-0.49,1.08-0.69-0.03c-0.07,0.61,0.03,1.29,0.19,1.96
							c0.14,0.67,0.17,1.33,0.05,1.98c-0.7-2.05-0.26-4.77-0.27-5.87c-0.13,2.21-0.33,3.3-0.51,4.6c-0.13,0.65-0.11,1.34-0.05,2.23
							c0.02,0.22,0.04,0.46,0.07,0.71c0.06,0.24,0.12,0.5,0.19,0.78c0.17,0.55,0.27,1.18,0.6,1.84c-0.13,0.12-0.78-0.74-0.39,0.35
							c1,2.47,0.89,0.41,1.52,1.04c-0.41-0.89-0.69-1.58-0.78-2.19c-0.07-0.62-0.04-1.15,0.04-1.73l0.4,0.43
							c-0.1,0.1,0.12,1.27,0.14,1.65l0.64,0.12c-0.32,0.03-0.44,0.54-0.37,1.22c0.02,0.7,0.42,1.52,0.82,2.19
							c-0.24-1.63-0.08-1.22,0.4-1.88c0.77,0.82,0.81,1.43,0.98,2.06c0.19,0.62,0.33,1.32,1.3,2.16c-0.32-0.02-1.45-1.82-0.7-0.13
							c0.85,1.31,1.14,0.86,1.83,1.62c-1.07-0.66-1.22-0.19-2.47-0.94c-0.75-1.19-0.86-1.45-1.02-1.68c-0.15-0.23-0.35-0.43-1-1.63
							l0.28,1.15l0.38,1.13c-0.65-1.03-0.94-1.37-1.16-1.45c-0.22-0.08-0.33,0.1-0.46,0.05c1.48,4.04,2.22,2.41,3.55,4.74
							c1.03,0.86-1.35-2.13,0.1-0.67c1.43,2.07,0.6,0.28,2.51,2.33c-0.17-0.06-0.33-0.13-0.49-0.21c0.32,0.87,1.2,1.25,1.9,1.96
							c0.87,0.67,0.45-2.09,3.62,0.97c-0.27-0.04-0.39-0.02-0.43,0.02c-2.02,0.05-4.17,0.04-6.29-0.19
							c1.58,1.87,3.53,3.68,5.57,5.54c2.11,1.78,4.33,3.61,6.71,5.27c0.34,0.73-0.62,0.32-1.67-0.22c-1.04-0.55-2.12-1.28-2.09-1.01
							c-0.7-0.56-1.38-1.13-2.04-1.74c0.3-0.13,4.58,3.19,2.99,1.28c-0.99-0.62-1.83-1.18-2.55-1.76c-0.72-0.57-1.4-1.07-2.03-1.62
							c-0.63-0.54-1.27-1.07-1.99-1.61c-0.7-0.56-1.45-1.17-2.38-1.82c0.2,0.77,1.23,1.85,2.53,2.89c0.64,0.53,1.32,1.09,1.98,1.64
							c0.66,0.54,1.27,1.1,1.75,1.69c-0.92-0.82-1.82-1.35-2.65-1.93c2.04,1.85,4.32,3.74,6.9,5.54l0.71,0.21
							c-1.74-1.2-2.88-2.13-3.01-2.26c1.1,0.86,2.26,1.46,3.16,1.82c0.91,0.36,1.58,0.47,1.83,0.24c-0.14-0.09-0.27-0.18-0.41-0.27
							c0.31,0.13,0.64,0.23,0.96,0.34C43.95,126.44,44.48,126.8,45.02,127.16z M213.02,111.23c-0.05,0.17-0.08,0.31-0.06,0.44
							C212.95,111.54,212.83,111.6,213.02,111.23z M20.23,83.56c-1.54,3.55-2.46,7.48-2.44,11.27c0.09-0.86,0.36-1.67,0.51-2.41
							c0.16-0.74,0.4-1.4,0.63-1.98c0.22-0.57,0.42-1.05,0.59-1.42c0.2-0.36,0.38-0.61,0.51-0.74c0.27-0.24,0.34,0.03,0.23,0.99
							c-0.02,0.49-0.08,1.16-0.18,2.02c-0.07,0.43-0.05,0.92-0.08,1.47c-0.01,0.54-0.08,1.14-0.05,1.8l0.12,0.68
							c0.03-1.37,0.22-3.71,0.51-5.91c-0.01-0.91-0.1-2.91,0.09-4.7c0.04-0.92,0.2-1.73,0.28-2.36c0.09-0.62,0.13-1.02,0.09-1.02
							c-0.58,0.48-0.71,1.53-1.24,2.65L20.23,83.56z M23.23,82c1.12-1.73,0.65-1.45,0.59-1.86c-0.32,0.66-0.68,1.29-0.96,1.96
							C23.03,81.88,23.17,81.8,23.23,82z M23.54,80.13c-0.12,0.2-0.23,0.37-0.31,0.45L23.54,80.13z M30.06,117.23
							c-0.07-0.06-0.1-0.08-0.17-0.14c0.34,0.36,0.68,0.73,1.04,1.11C30.82,118.03,30.57,117.74,30.06,117.23z M27.62,113.7
							l-0.66-0.1c0.26,0.38,0.57,0.74,0.88,1.11C27.89,114.46,27.92,114.22,27.62,113.7z M22.46,101.53
							c-0.38-0.3-0.72-1.13-1.07-1.88c-0.37-0.75-0.57-1.46-0.91-1.5c-0.19-0.15-0.16,0.44-0.11,1.12c0.16,0.73,0.34,1.51,0.53,2.34
							c0.1,0,0.21,0.15,0.39,0.38c-0.17-0.82-0.12-1.4,0.32-1.17c-0.18,1.14,0.2,1.54,0.56,1.93c0.4,0.38,0.78,0.77,1.17,1.82
							c0.36,0.23,0.17-0.37-0.08-1.11C23.02,102.71,22.66,101.82,22.46,101.53z M171.48,51.24c0.05,0.07,0.23,0.28,0.48,0.55
							c-0.56-0.08-1.12-0.14-1.68-0.19c-2.79-0.98-4.88-2.46-7.66-2.36c-1.17-0.47-1.73-1.02-2.29-1.5c0.59,0.16,1.15,0.32,1.6,0.48
							C169.54,48.96,165.44,50.31,171.48,51.24z M138.04,43.63c0.31-0.01,0.43-0.1,0.43-0.1c-6.77,0.5-12.23,0.66-15.81,0.57
							c0.69,0.44,3.88,0.9,5.39,1.16l-1.36,0.47l-0.82-0.44c-0.78,0.12-1.56,0.26-2.34,0.41c0.64,0.34,2.52,0.35,3.77,0.67
							c0.06-0.05,1.09-0.18,2.26-0.35c1.17-0.13,2.47-0.28,3.04-0.41l-3.2-0.56c0.86,0.21,5.15,0.31,6.85,0.37
							c0.03-0.13-0.68-0.36-1.45-0.49c-0.77-0.12-1.6-0.13-1.8,0.15c-0.32-0.41,3.06-0.2,0.95-0.75c2.57-0.23,6.58,0.5,8.41,0.94
							l0.24,0.69c2,0.49,1.48-0.63,3.85,0.09c-2.99-0.3,0.4,0.78-1.96,0.49c0.72,0.35-0.07,0.69,2.28,0.98
							c2.09-0.58,2.39,0.89,4.35,0.46c1.18,0.48-1.41,0.29,0.99,0.81c2.85,0.03,2.75-0.27,3.04-0.87c-2.57-0.7-3.07,0.28-5.17-0.25
							c1.47-0.11,2.95-0.24,4.43-0.32c-0.75-0.31-1.33-0.41-1.83-0.46c0.87,0.08,1.62,0.05,2.28-0.03c0.38-0.05,0.72-0.09,1.04-0.12
							c-2.41-0.52-4.57-0.84-4.9-1.19l0.39-0.24c-0.82-0.43-2.26-0.45-2.94-0.31c-2.19-0.28-4.43-0.18-4.86-0.61l0.87-0.18
							C141.74,44,141.44,43.94,138.04,43.63z M50.59,55.84c0.98,0.13,2,0.26,3.62-0.05c0.81-0.16,1.77-0.44,2.98-0.82
							c1.21-0.39,2.64-0.96,4.42-1.63l-0.54,0.28c3.81-0.68,6.81-3.3,11.55-3.81c-2.08,1-1.97,0.96-4.08,2.57l2.23-0.98
							c-0.47,0.77,1.74-0.22,3.47-0.61l-1.32,1.09c-1.08,0.06-3.73,0.78-3.61,0.91c0.55-0.27-3.74,0.18-5.85,1.15
							c0.38,0.35,4.93-1.3,3.12,0.12c1.7-0.92,2.08-0.51,3.93-1.23c-1.73,0.85-0.26,0.77-1.51,1.51l3.06-1.06
							c0.12,0.14-4.42,1.66-1.71,1.5c0.58-0.3,1.72-0.62,2.71-0.92c0.99-0.28,1.83-0.55,1.79-0.81l0.12,0.14
							c2.37-0.48,0.84-1.03,3.82-1.4c-0.03-0.27-0.62-0.32-1.66-0.03c-0.85,0.33-0.9,0.73-2.67,1.26c-0.91-0.19,2.18-0.51,0.76-0.87
							c-0.35-0.09-1.53,0.29-2.47,0.56c-0.94,0.29-1.64,0.46-1.1-0.11c0.79-0.2,1.59-0.36,2.38-0.53c-0.08-0.53,1.65-0.94,1.49-1.34
							c1.4-0.58,2.93-0.28,4.31-1.08c0.55-0.46-0.68-0.87,1.87-1.12c2.1,0.35,7.81-0.86,9.97-1.24l1.85-0.61
							c-0.21-0.3-3.63,0.57-2.47-0.03l2.96-0.55l-0.2,0.23c0.99-0.11,1.97-0.42,2.86-0.65c-0.89,0.48-3.05,0.6-2.55,1.1
							c1.41-0.08,1.65,0.11,2.92-0.15c-0.28,0.07-0.51,0.15-0.47,0.23c2.85-0.09,2.66-0.94,3.35-1.18c1.39-0.49,0.66-0.59-0.39-0.64
							c-1.05-0.04-2.41,0-2.26-0.3c1.39-0.23,2.78-0.42,4.18-0.58c1.4-0.17,2.79-0.37,4.19-0.49c-0.71,0.22-1.42,0.45-1.13,0.66
							c2.08,0.12,0.08,0.42,2.96,0.21c-0.13-0.37,0.78-0.55,1.97-0.69c1.19-0.12,2.66-0.22,3.68-0.48c0.97,0.27,1.16,0.33-0.93,0.42
							c0.26,0.47,3.05,0.19,4.05,0.24c0.58-0.13,1.56-0.21,2.19-0.33c-0.84-0.23-0.49-0.55,1.33-0.77l0.11-0.1
							c-1.49-0.08-3.41-0.17-5.18-0.27c-1.77-0.04-3.4,0.03-4.33,0.31l0.52-0.26c-3.49-0.29-7.46,1.32-9.12,0.56
							c0.11-0.38-0.7-0.02-0.69-0.55c-0.84,0.22-1.67,0.41-2.5,0.66l0.5-0.3l-4.31,0.62l0.1-0.11c-1.99,0.74-3.53,1.38-4.75,1.87
							c0.03,0.23,0.17,0.28-0.48,0.55c-0.66,0.23-1.17,0.33-1.63,0.38l0,0l0,0c-1.05,0.11-1.81-0.1-3.12,0l3.95-0.74
							c0.26-0.44-0.14-0.79-2.14-0.72c0.8-0.15,1.08-0.51,0.08-0.38c-0.09,0.12-2.57,0.69-1.56,0.84
							c-3.73,0.83-10.08,1.13-15.51,3.48c3.92-1.61-3.39,0.44,1.06-1.02c-3.31,0.33-2.54,1.33-5.72,2.27
							c-0.34-0.12,1.72-0.54,2.33-1.18c-5.38,1.41-8.53,3.9-13.49,5.81l-0.4-0.36C52.62,54.76,51.6,55.25,50.59,55.84z M41.57,61.39
							c-0.83,0.6-1.68,1.21-2.54,1.83c0.09-0.05,0.17-0.1,0.27-0.15c-0.79,0.67-1.53,1.4-2.29,2.09c1.65-0.94,2.94-1.2,0.97,0.51
							c0.06-0.29-0.71-0.05-0.03-0.67c-1.64,0.72-4.81,2.99-3.56,2.91c2.22-2.63,1.18,0.23,2.96-1.76
							c-0.85,1.22-2.06,1.92-2.95,2.92c0.79-1.2-0.83-0.5-2.53,0.76c-0.32,0.33-0.9,0.95-1.55,1.6c-0.32,0.33-0.66,0.67-0.97,1.01
							c-0.29,0.36-0.56,0.7-0.78,1.02c0.7-0.09,0,1.03,1.73-0.67c-0.53,0.73-1.38,1.8-2.54,2.83c0.29-0.55,1-1.35,0.82-1.41
							c-1.01,0.45-1.7,1.42-2.24,1.83c-0.29,0.43-0.63,0.84-0.88,1.29c0.12-0.1,0.23-0.18,0.34-0.22l-0.62,1.65
							c1.09-2.01,0.75-0.75,0.95-0.58c-0.4-0.35-0.87,1.16-1.26,1.82c0.45-0.38,0.93-0.73,1.38-1.08c-0.1,0.41-0.59,0.93-0.93,1.36
							c-0.32,0.44-0.55,0.78-0.21,0.73c1.98-2.83,2.7-3.95,4.68-6.44l-1.19,0.68c2.19-2.9,2-1.19,4.88-3.98
							c0.95-1.46,4.66-3.91,4.29-4.56c-0.25,0.51,2.45-0.95,3.46-1.97c0.87-1.5,4.96-3.96,3.55-3.53c-1.12,0.64-2.41,1.85-3.52,2.04
							c0.67-0.5,1.35-0.99,2.05-1.45c-0.54,0.16-1.09,0.32-1.62,0.52C42.48,61.96,42.21,61.67,41.57,61.39z M18.98,111.46
							c0.01,0.03,0.03,0.07,0.05,0.1l-0.06-0.11L18.98,111.46z"/>
						<path class="st20" d="M205.51,66.58c0.71,0.3,2.04,1.57,2.04,1.03c-0.12,0.17-0.75-0.36-1.29-0.8
							C205.71,66.39,205.24,66.07,205.51,66.58z"/>
						<path class="st20" d="M206.9,68.31c0.16,0.01,0.2-0.17,0.83,0.36l-1.76-1.41L206.9,68.31z"/>
						<path class="st20" d="M206.57,71.96c0.5,0.27,0.91,0.5,1.34,0.81c0.44,0.31,0.9,0.72,1.45,1.38
							c-0.18,0.59-0.68,0.11-1.33-0.49c-0.67-0.57-1.46-1.28-2.07-1.2c1.06,1.13,1.95,1.68,2.73,2.25c0.8,0.56,1.6,1.04,2.4,2.05
							c-0.12-0.31-0.37-0.84-0.76-1.4c-0.4-0.55-0.88-1.17-1.37-1.73C207.95,72.54,206.87,71.71,206.57,71.96z"/>
						<path class="st20" d="M204.66,71.98c0.49,0.31,0.96,0.65,1.41,1l-0.08-0.16c-0.45-0.36-0.94-0.68-1.42-1L204.66,71.98z"/>
						<path class="st20" d="M173.93,45.69c-0.06-0.37-1.29-0.42-1.92-0.51C172.49,45.34,173.16,45.62,173.93,45.69z"/>
						<path class="st20" d="M182.38,140.22c4.51-1.84,8.93-3.97,13.21-6.42C191.89,135.9,188.38,137.64,182.38,140.22z"/>
						<path class="st20" d="M126.87,40.1c3.82-0.17,5.55-0.61,9.45-0.45c-5.08-1.06-6.81,0.56-11.07-0.27L126.87,40.1z"/>
						<path class="st20" d="M128.32,37.56c0.61,0.64-3,0.6-2.45,1.07c2.59-0.05,1.22-0.54,3.57-0.39L128.32,37.56z"/>
						<path class="st20" d="M144.41,49.11c-0.38,0.05-0.76,0.11-1.14,0.18l0.9-0.01L144.41,49.11z"/>
						<polygon class="st20" points="110.77,38.1 111.19,37.94 109.26,37.83 						"/>
						<path class="st20" d="M111.61,37.79l-0.42,0.16L111.61,37.79z"/>
						<path class="st20" d="M142.84,50.24c0.54,0.11,1.07,0.21,1.61,0.34l0.84-0.16C144.47,50.34,143.65,50.27,142.84,50.24z"/>
						<path class="st20" d="M128.58,45.73c0.5-0.04,1-0.1,1.5-0.13C129.78,45.61,127.75,45.29,128.58,45.73z"/>
						<path class="st20" d="M98.99,38.68l-1.85,0.45l0.2,0.04c0.62-0.15,1.23-0.31,1.85-0.44L98.99,38.68z"/>
						<path class="st20" d="M116.92,47.24c1.03,0.46-2.95,0.16-0.84,0.55C117.94,47.69,117.18,47.46,116.92,47.24z"/>
						<path class="st20" d="M94.86,45.56c-0.25,0.03-0.5,0.08-0.74,0.17C94.41,45.67,94.65,45.61,94.86,45.56z"/>
						<path class="st20" d="M94.86,45.56c0.79-0.09,1.6-0.01,2.13-0.2C95.98,45.26,95.63,45.38,94.86,45.56z"/>
						<path class="st20" d="M85.86,47.07l0.72-0.09c-0.69,0.35-0.35,0.26,0.27-0.03c0.75-0.14,0.68-0.28,0.76-0.4
							c0.14-0.08,0.28-0.17,0.43-0.26c-0.22,0.1-0.42,0.2-0.59,0.27C86.27,46.76,85.56,46.9,85.86,47.07z"/>
						<path class="st20" d="M50.26,49.52c2.68-1,3.39-1.19,3.39-0.79c2.53-0.88,1.91-1.32,3.37-2.05
							C54.22,47.88,53.56,47.9,50.26,49.52z"/>
						<path class="st20" d="M57.02,46.68c0.32-0.12,0.62-0.24,0.99-0.39C57.59,46.44,57.29,46.56,57.02,46.68z"/>
						<polygon class="st20" points="96.88,49.46 95.34,50.21 95.92,50.06 						"/>
						<path class="st20" d="M46.33,51.16c0.49-0.21,1.25-0.6,1.68-0.67C47.99,50.1,45.84,51.37,46.33,51.16z"/>
						<path class="st20" d="M58.99,53.45c0.33,0.09,1.9-0.6,2.58-0.76C60.62,52.99,59.6,52.62,58.99,53.45z"/>
						<path class="st20" d="M39.82,56.42c0.47-0.25,1.3-0.45,1.15-0.01C41.54,55.87,42.12,54.78,39.82,56.42z"/>
						<path class="st20" d="M54.43,55.25l0.4-0.04c0.53-0.32,1.06-0.63,1.6-0.93C55.75,54.58,55.09,54.92,54.43,55.25z"/>
						<path class="st20" d="M62.38,57.88c1.72-1.08-3.34,0.08-0.24-1.43c-4.32,1.13,0.52,0.43-2.54,1.55
							C61.42,57.42,62.5,57.66,62.38,57.88z"/>
						<path class="st20" d="M59.6,58.01c-0.27,0.08-0.55,0.18-0.85,0.3C59.09,58.19,59.36,58.09,59.6,58.01z"/>
						<path class="st20" d="M33.98,69.62c0.19-0.23,0.31-0.4,0.41-0.56C34.25,69.24,34.11,69.42,33.98,69.62z"/>
						<path class="st20" d="M50.3,62.58c0.77-0.65,1.57-1.26,2.37-1.89c-1.63,1.21-6,3.53-5.39,3.98c1.45-0.66,3.07-1.7,3.64-2.32
							C50.71,62.42,50.51,62.5,50.3,62.58z"/>
						<path class="st20" d="M15.75,78.64c0.14-0.55,0.35-1.04,0.53-1.56c-0.36,0.58-0.71,1.16-1.01,1.79
							C15.62,78.38,15.6,79.56,15.75,78.64z"/>
						<path class="st20" d="M15.1,79.23l0.18-0.36C15.23,78.94,15.17,79.06,15.1,79.23z"/>
						<path class="st20" d="M38.3,65.84c0.83-0.53,1.44-1.02,2.14-1.59C40.04,64.32,37.98,65.67,38.3,65.84z"/>
						<path class="st20" d="M13.25,89.99c0.11-0.9,0.16-1.83,0.35-2.71c-0.22,0.96-0.3,1.97-0.45,2.95L13.25,89.99z"/>
						<path class="st20" d="M12.99,102.91l0,0.5c0.25,0.74,0.6,1.43,0.92,2.13l-0.04-0.5C13.52,104.36,13.24,103.65,12.99,102.91z"
							/>
						<path class="st20" d="M25.36,89.03c0.31-1.15,0.16-2.23-0.08-1.97c-0.3,0.76-0.44,1.54-0.64,2.32
							c0.67-0.46,0.1-0.65,0.66-1.95C25.25,87.97,25.32,88.51,25.36,89.03z"/>
						<path class="st20" d="M79.77,147.54c-0.73,0.22-3.9-0.73-4-1.08c0.46-0.04,2.23,0.23,1.19-0.22l-2.73,0.23
							c-1.62-0.69-0.91-0.79,0.41-0.71c1.33,0.05,3.27,0.27,4.13,0.31c-1.7-0.44-2.83-0.59-3.99-0.73
							c-1.16-0.17-2.35-0.34-4.17-0.81c1.05,0.35,1.67,0.73,2.19,1.05c-0.02,0.61-3.36-0.51-5.78-1.2c1.46,0.69,0.52,0.64-0.68,0.54
							c-0.21-0.04-0.35-0.05-0.46-0.04c-0.14-0.01-0.27-0.02-0.41-0.03l0.29,0.08c-0.04,0.06,0,0.15,0.18,0.32
							c2.09,0.42,3.51,1.38,4.84,1.72c-1.06-1.27,4.55,0.97,6.3,1.01l1.94,0.34l0.72,0.14c0.12,0.13-0.11,0.23-1.25,0.18
							c0.96,0.02,4.02,0.68,3.79,0.33c2.33,0.46,4.68,0.84,7.02,1.21c0.21,0.07,0.43,0.15,0.58,0.24c0.25-0.02,0.3-0.07,0.28-0.12
							c10.22,1.5,20.53,2.15,30.81,2.06c-1.52-0.04-2.84-0.3-4.4-0.42c2.36-0.61-2.56-0.15-1.86-0.74c1.06-0.21,2.59-0.12,3.51,0.04
							c0.34-0.3-0.96-0.59-0.81-0.95c-3.84-0.42-4.47,0.98-8.25,0.62c0.17-0.37,1.35-0.61-1.12-0.7l0.63-0.04
							c-3.98,0.15-3.01-1-5.57-0.2l0.11-0.52c-1.82,0.24-5.3-0.07-7.26-0.26l0.13-0.09c-2.78-0.01-3.56-0.12-4.41-0.25
							c-0.85-0.16-1.79-0.28-4.87-0.7c0.98-0.05,1.95-0.07,2.92-0.15c-2.07-0.57-2.66-0.02-4.16-0.34c0.13-0.08-0.16-0.52,1.29-0.37
							c-2.53-0.09-5.05-0.29-7.59-0.48C77.41,146.8,79.53,147.28,79.77,147.54z"/>
						<path class="st20" d="M70.61,144.53c-0.38-0.12-0.82-0.27-1.34-0.4C69.76,144.29,70.19,144.43,70.61,144.53z"/>
						<path class="st20" d="M123.15,152.32l-2.17,0.03C121.65,152.38,122.35,152.38,123.15,152.32z"/>
						<path class="st20" d="M59.81,142.35c1.17,0.71-1.07,0.02-1.36,0.13c1.51,0.55,3.01,1.09,4.54,1.56
							c0.04-0.2,0.56-0.27,0.53-0.48C62.28,143.18,61.04,142.8,59.81,142.35z"/>
						<path class="st20" d="M64.19,144.84c0.2-0.09,0.72-0.05,1.29,0.01l-2.5-0.8C62.96,144.19,63.19,144.42,64.19,144.84z"/>
						<path class="st20" d="M67.02,134.34l0.75,0.23c0.39,0.07,0.78,0.15,1.18,0.2C68.3,134.65,67.66,134.48,67.02,134.34z"/>
						<path class="st20" d="M78.7,138.45c-0.86-0.51-2.66-0.68-3.25-0.78C77.45,138.19,76.56,138.06,78.7,138.45z"/>
						<path class="st20" d="M77,134.66c0.64,0.11,1.3,0.18,1.94,0.28l-0.16-0.1C78.19,134.78,77.59,134.74,77,134.66z"/>
						<path class="st20" d="M138.95,149.35c0.34-0.04,0.67-0.08,1.01-0.13C139.5,149.26,139.2,149.3,138.95,149.35z"/>
						<path class="st20" d="M121.16,150.77c4.98,0.53-3.25,0.54-1.69,1.27l2.72-0.28l-0.23,0.21c1.1-0.04,2.21-0.06,3.31-0.12
							c-0.69-0.32-1.2-0.35-1.06-0.71c4.41,0,1.4,0.39,4.66,0.73c1.65-0.07,3.29-0.24,4.94-0.35l-0.39,0.14
							c0.42-0.03,0.6-0.09,0.74-0.16c5.54-0.48,11.07-1.18,16.57-2.12c2.95-0.8-1.76-0.37,0.36-1.28c-1.73,0.3-3.9,0.48-5.66,0.74
							c-1.76,0.21-3.12,0.45-3.22,0.83c0.11-0.11,0.31-0.34-0.4-0.34c-0.65,0.27-1.3,0.57-1.95,0.82c0.65,0.01,1.3-0.02,1.94-0.02
							c-1.96,0.87-8.57,1.26-9.78,0.93c3.73-0.45,1.8-1,7.02-1.09c-0.25-0.16-1.23-0.4-0.07-0.61
							C132.91,150.15,127.45,150.1,121.16,150.77z"/>
						<path class="st20" d="M181.28,140.04l-0.02,0.08C181.35,140.04,181.37,140.01,181.28,140.04z"/>
						<path class="st20" d="M179.3,140.65c-0.86,0.56-1.72,1.15-2.61,1.67c1.48-0.5,2.95-1.09,4.42-1.63l0.14-0.59
							c-0.34,0.26-1.81,1.06-2.48,1.09L179.3,140.65z"/>
						<path class="st20" d="M173.49,143.82c2.25-0.96,1.94-1.47,0.6-1.32c2.02-0.95,1.31,0.24,2.57-0.82
							c-0.18-0.39-2.7,0.69-3.28,0.96L173.49,143.82z"/>
						<polygon class="st20" points="156.1,147.8 156.72,147.43 155.07,147.69 						"/>
						<path class="st20" d="M156.72,147.43l1.64-0.26c-0.15-0.16-0.3-0.31-0.58-0.38L156.72,147.43z"/>
						<path class="st20" d="M162.64,146.4c0.69-0.12,1.46-0.24,2.38-0.47C164.23,146.12,163.43,146.24,162.64,146.4z"/>
						<path class="st20" d="M160.76,146.68l0.07,0.06l1.81-0.34C161.97,146.5,161.36,146.59,160.76,146.68z"/>
						<path class="st20" d="M158.35,147.17c0.34,0.34,0.75,0.75,3.07,0.09l-0.6-0.52C160.01,146.9,159.18,147.04,158.35,147.17z"/>
						<polygon class="st20" points="90.87,138.06 92.66,138.08 92.48,137.99 90.69,137.97 						"/>
						<path class="st20" d="M101.02,139.71c0.45-0.03,0.79-0.08,1.1-0.13C101.65,139.58,101.28,139.62,101.02,139.71z"/>
						<path class="st20" d="M108.82,137.47c2.05,0.55-2.89,0.37,0.94,0.79c0.32,0.42-1.51,0.8-3.32,0.49
							c0.17-0.35,1.78-0.12,0.69-0.56c-1.23,0.34-1.67,0.03-1.29,0.6c-2.05,0.22-2.31,0.54-3.72,0.79c2.47,0.02,7.63,0.9,10.79,0.29
							c1.74-0.59,0.72-1.54,0.76-2.49C113.42,137.14,109.02,136.89,108.82,137.47z"/>
						<path class="st20" d="M105.64,136.31c-0.95-0.1-1.24-0.1-1.83-0.07C103.94,136.57,104.87,136.29,105.64,136.31z"/>
						<path class="st20" d="M127.85,143.82c0.18-0.14,1.96-0.38,1.57-0.6l-2.7,0.27C127.35,143.5,127.58,143.65,127.85,143.82z"/>
						<path class="st20" d="M125.53,143.62l1.19-0.12C126.42,143.5,126.05,143.53,125.53,143.62z"/>
						<path class="st20" d="M127.98,143.9c-0.04-0.03-0.09-0.05-0.13-0.08C127.81,143.85,127.82,143.88,127.98,143.9z"/>
						<path class="st20" d="M169.38,144.94c0.03,0.26,1.21-0.24,1.8-0.49C170.67,144.57,169.95,144.69,169.38,144.94z"/>
						<path class="st20" d="M211.71,121.93l0.99-0.69C212.31,121.45,212.11,121.56,211.71,121.93z"/>
						<path class="st20" d="M215.91,103.99c-0.04-0.05-0.04-0.13-0.04-0.24C215.86,103.86,215.87,103.93,215.91,103.99z"/>
						<path class="st20" d="M215.87,103.75c0.01-0.72,1.08-2.6,0.88-3.44l0.08,0.12l0.15-1.4c-0.16,0.63-0.38,1.62-0.61,2.54
							C216.07,102.47,215.85,103.33,215.87,103.75z"/>
					</g>
				</g>
			</g>
		</g>
	</g>
</g>
<text transform="matrix(1 0 0 1 44.7207 87.0537)"><tspan x="0" y="0" class="st22 st23">Spray instructions</tspan><tspan x="0.94" y="21.37" class="st22 st23">attached to bottle</tspan></text>
</svg>
