<svg id="Layer_1" data-name="Layer 1" xmlns="http://www.w3.org/2000/svg" viewBox="0 0 235.12 216.08"><defs><style>.cls-1,.cls-3{fill:none;}.cls-1,.cls-2,.cls-3{stroke:#000;}.cls-1{stroke-miterlimit:10;}.cls-1,.cls-2{stroke-width:6.2px;}.cls-2{fill:#fff;}.cls-2,.cls-3{stroke-linecap:round;stroke-linejoin:round;}.cls-3{stroke-width:4.18px;}.cls-4{fill:#f7931e;}.cls-5{fill:#ed1c24;}.cls-6{fill:#006837;}.cls-7{fill:#0071bc;}</style></defs><path class="cls-1" d="M63.5,103.4h54.24a8,8,0,0,1,8,8v47.78a0,0,0,0,1,0,0H55.5a0,0,0,0,1,0,0V111.4A8,8,0,0,1,63.5,103.4Z"/><path class="cls-1" d="M109.21,103.4H70V68.17a4,4,0,0,1,4-4h31.19a4,4,0,0,1,4,4C84.42,86.68,109.21,103.4,109.21,103.4Z"/><path class="cls-2" d="M109.21,68.17V103.4S73,85,109.21,68.17Z"/><line class="cls-3" x1="121.61" y1="76.33" x2="149.5" y2="76.33"/><line class="cls-3" x1="121.61" y1="93.07" x2="149.5" y2="93.07"/><line class="cls-3" x1="125.79" y1="84.7" x2="145.31" y2="84.7"/><circle class="cls-4" cx="169.29" cy="68.92" r="11.84"/><circle class="cls-5" cx="191.46" cy="100.67" r="11.84"/><circle class="cls-6" cx="196.2" cy="73.05" r="14.8"/><circle class="cls-7" cx="171.53" cy="90.95" r="8.88"/></svg>